<svg xmlns="http://www.w3.org/2000/svg" xmlns:xlink="http://www.w3.org/1999/xlink" width="295" height="166.827" viewBox="0 0 295 166.827">
  <defs>
    <clipPath id="clip-path">
      <rect id="Rectángulo_409520" data-name="Rectángulo 409520" width="135.571" height="159.656" fill="none"/>
    </clipPath>
    <clipPath id="clip-path-3">
      <rect id="Rectángulo_409506" data-name="Rectángulo 409506" width="11.499" height="12.732" fill="none"/>
    </clipPath>
    <clipPath id="clip-path-4">
      <rect id="Rectángulo_409521" data-name="Rectángulo 409521" width="81.773" height="77.978" transform="translate(0 0)" fill="none"/>
    </clipPath>
  </defs>
  <g id="Grupo_1119535" data-name="Grupo 1119535" transform="translate(-285.332 -3602.87)">
    <rect id="Rectángulo_401121" data-name="Rectángulo 401121" width="295" height="117.429" rx="30" transform="translate(285.332 3652.269)" fill="#bfc9ff"/>
    <g id="Grupo_1119587" data-name="Grupo 1119587" transform="translate(404.472 3602.87)">
      <g id="Grupo_1119586" data-name="Grupo 1119586" clip-path="url(#clip-path)">
        <g id="Grupo_1119585" data-name="Grupo 1119585">
          <g id="Grupo_1119584" data-name="Grupo 1119584" clip-path="url(#clip-path)">
            <path id="Trazado_906559" data-name="Trazado 906559" d="M107.337,82.033s-2.468,8.775-.781,15.246c1.451,5.569,2.836,15.057-6.448,17.623s-18.005-7.922-18-8.479-1.8-7.47,0-11.935S83.659,83.9,88.689,81.269s18.647.764,18.647.764" transform="translate(-54.983 -54.277)" fill="#ff862d"/>
            <path id="Trazado_906560" data-name="Trazado 906560" d="M382.959,473.884l-7.32-4.516-6.322,3.819,2.209,1.572,7.667,1.081s2.992-.382,3.123-.471a10.145,10.145,0,0,0,.643-1.485" transform="translate(-249.718 -317.369)" fill="#ffc0bb"/>
            <path id="Trazado_906561" data-name="Trazado 906561" d="M382.959,481.858l1.855,1.194a1.016,1.016,0,0,1-.538,1.876l-14.044.066a.9.9,0,0,1-.9-.893l-.014-2.939c9.368,2.934,12.593,2.012,13.642.7" transform="translate(-249.718 -325.343)" fill="#ff862d"/>
            <path id="Trazado_906562" data-name="Trazado 906562" d="M6.626,31.93A33.345,33.345,0,0,0,15.047,16.8c.556-2,1.648-7.89,7.255-11.951C30.415-1.032,38.217-1.3,45.481,2.63,53.887,7.181,55.662,19.72,52.938,26.2L36.454,21.145l4.216,2.381c1.61,31.515-5.548,30.315-8.55,33.313s-15.463,3-23.78-1.445C-5.047,48.241.212,38.651,6.626,31.93" transform="translate(0 0)" fill="#ff862d"/>
            <path id="Trazado_906563" data-name="Trazado 906563" d="M272.516,473.9l-7.32-4.516-6.322,3.819,2.209,1.572,7.666,1.081s2.992-.383,3.124-.472a10.209,10.209,0,0,0,.643-1.485" transform="translate(-175.041 -317.382)" fill="#ffc0bb"/>
            <path id="Trazado_906564" data-name="Trazado 906564" d="M272.516,481.878l1.855,1.193a1.017,1.017,0,0,1-.538,1.876l-14.044.066a.9.9,0,0,1-.9-.892l-.014-2.939c9.367,2.934,12.593,2.013,13.642.7" transform="translate(-175.041 -325.357)" fill="#ff862d"/>
            <path id="Trazado_906565" data-name="Trazado 906565" d="M103.186,141.432s21.825,26.855,25.526,31.125l22.11-21.825a29.638,29.638,0,0,1,6.737,5.124s-8.92,20.592-16.606,26L125.581,192.2l2.942,7.022-5.5,4.27-2.895-6.928L112.2,179.01l-7.5-23.344-1.423-11.577Z" transform="translate(-69.77 -95.631)" fill="#5858c6"/>
            <path id="Trazado_906566" data-name="Trazado 906566" d="M228.6,352.7l9.8,37.411,8.889-2.68.095-32.548-13-8.92Z" transform="translate(-154.572 -233.928)" fill="#271651"/>
            <path id="Trazado_906567" data-name="Trazado 906567" d="M89.412,149.638s9.2,14.993,11.1,20.782.38,6.263,1.234,13.285,7.307,25.811,7.307,25.811l-10.723,7.212s-5.788-18.5-5.788-19.263-5.409-34.636-5.409-34.636l-4.46-12.621Z" transform="translate(-55.901 -101.18)" fill="#e9faff"/>
            <path id="Trazado_906568" data-name="Trazado 906568" d="M64.994,312.778s18.41-16.511,32.643-19.833S148.6,350.356,148.6,350.356L141,353.962s-33.118-23.818-39.381-34.446c0,0-19.053,25.9-32.229,27.366-12.63,1.408-26.518,3.113-34.86-6.489-13.933-16.038,30.46-27.614,30.46-27.614" transform="translate(-21.52 -197.99)" fill="#36246d"/>
            <path id="Trazado_906569" data-name="Trazado 906569" d="M69.173,104.511l-4.08,11.008s2.953,6.725,12.846,4.234c0,0-1.032-2.348.64-7.045,1.71-4.8-9.406-8.2-9.406-8.2" transform="translate(-44.013 -70.666)" fill="#ffc0bb"/>
            <g id="Grupo_1119583" data-name="Grupo 1119583" transform="translate(23.246 33.845)" opacity="0.6">
              <g id="Grupo_1119582" data-name="Grupo 1119582">
                <g id="Grupo_1119581" data-name="Grupo 1119581" clip-path="url(#clip-path-3)">
                  <path id="Trazado_906570" data-name="Trazado 906570" d="M73.7,104.511l-1.914,5.142c.886,3.842,4.122,6.555,10.374,7.59a15.133,15.133,0,0,1,.946-4.535c1.71-4.8-9.406-8.2-9.406-8.2" transform="translate(-71.783 -104.511)" fill="#fc8d84"/>
                </g>
              </g>
            </g>
            <path id="Trazado_906571" data-name="Trazado 906571" d="M248.275,342.01a13.684,13.684,0,0,1,.261,2.748,18.769,18.769,0,0,1-.221,2.76,24.266,24.266,0,0,1-.6,2.705,19.879,19.879,0,0,1-.921,2.617l-.215-.186a12.49,12.49,0,0,0,1.411-1.125c.449-.407.885-.83,1.3-1.273s.81-.908,1.194-1.381.746-.965,1.108-1.458q-.471.786-1.006,1.535c-.351.5-.742.976-1.139,1.444s-.823.913-1.273,1.333a12.678,12.678,0,0,1-1.438,1.175l-.412.281.2-.468a25.942,25.942,0,0,0,.9-2.581,24.111,24.111,0,0,0,.622-2.666,20.131,20.131,0,0,0,.315-2.719,16.752,16.752,0,0,0-.085-2.744" transform="translate(-166.559 -231.254)" fill="#5858c6"/>
            <path id="Trazado_906572" data-name="Trazado 906572" d="M146.86,77.245c-.861,1.78-.4,3.781,1.02,4.47s3.277-.2,4.137-1.977.4-3.781-1.02-4.47-3.276.2-4.137,1.976" transform="translate(-99.007 -50.736)" fill="#f99893"/>
            <path id="Trazado_906573" data-name="Trazado 906573" d="M77.914,52.921a14.893,14.893,0,0,0,1.306-2.427,28.334,28.334,0,0,0,1.974-6.927c.075-.464.177-.923.287-1.38a15.3,15.3,0,1,0-30.135-4.561,3.307,3.307,0,0,0-2.957-.42c-1.863.695-2.67,3.145-1.8,5.474s3.081,3.654,4.944,2.96a2.932,2.932,0,0,0,.711-.389,14.343,14.343,0,0,0,13.4,14.025A13.725,13.725,0,0,0,75.179,56a6.723,6.723,0,0,0,.547-.451,13.253,13.253,0,0,0,2.188-2.623" transform="translate(-31.264 -15.754)" fill="#ffc0bb"/>
            <path id="Trazado_906574" data-name="Trazado 906574" d="M115.281,70.738c-.034.866-.061,1.722-.039,2.568a10.087,10.087,0,0,0,.109,1.247,3.126,3.126,0,0,0,.352,1.11l.075.106c.027.038.041.065.085.121a2.012,2.012,0,0,1,.214.306,1.488,1.488,0,0,1,.151.352,1.28,1.28,0,0,1,.066.382,1.7,1.7,0,0,1-.606,1.322,2.6,2.6,0,0,1-1.233.593,3.642,3.642,0,0,1-1.315.006,5.044,5.044,0,0,0,1.237-.275,2.563,2.563,0,0,0,1-.643,1.279,1.279,0,0,0,.378-.972.928.928,0,0,0-.052-.249.952.952,0,0,0-.108-.236,1.423,1.423,0,0,0-.159-.217c-.057-.074-.149-.2-.218-.3a3.487,3.487,0,0,1-.4-1.337A7.554,7.554,0,0,1,114.8,73.3a10.878,10.878,0,0,1,.482-2.56" transform="translate(-76.502 -47.83)" fill="#f99893"/>
            <path id="Trazado_906575" data-name="Trazado 906575" d="M98.5,71.4A1.335,1.335,0,1,1,97.233,70,1.335,1.335,0,0,1,98.5,71.4" transform="translate(-64.8 -47.332)" fill="#333"/>
            <path id="Trazado_906576" data-name="Trazado 906576" d="M133.767,75.373a1.335,1.335,0,1,1-1.271-1.4,1.336,1.336,0,0,1,1.271,1.4" transform="translate(-88.644 -50.019)" fill="#333"/>
            <path id="Trazado_906577" data-name="Trazado 906577" d="M93.815,61.7a13.757,13.757,0,0,0-1.953-.468,6.766,6.766,0,0,0-1.855-.041,6.276,6.276,0,0,0-1.784.473c-.308.1-.577.279-.888.409-.3.15-.579.34-.915.488a5.625,5.625,0,0,1,.593-.891,4.561,4.561,0,0,1,.808-.727,4.306,4.306,0,0,1,2.069-.8,4.5,4.5,0,0,1,2.194.292A4.107,4.107,0,0,1,93.815,61.7" transform="translate(-58.434 -40.645)" fill="#ff862d"/>
            <path id="Trazado_906578" data-name="Trazado 906578" d="M127.418,65.006a4.109,4.109,0,0,1,1.943-.9,4.505,4.505,0,0,1,2.209.14,4.313,4.313,0,0,1,1.876,1.183,4.536,4.536,0,0,1,.651.87,5.628,5.628,0,0,1,.409.989c-.3-.21-.538-.451-.8-.656-.28-.188-.509-.42-.792-.573a6.259,6.259,0,0,0-1.658-.811,6.79,6.79,0,0,0-1.827-.32,13.781,13.781,0,0,0-2.007.081" transform="translate(-86.155 -43.293)" fill="#ff862d"/>
            <path id="Trazado_906579" data-name="Trazado 906579" d="M62.291,33.531a4.477,4.477,0,0,0-1.805-.56l-.731-.371.5-.906.341-.04.229-2.832L62.089,26.2s4.96-7.042,5.135-7.216,3.957-2.444,4.19-2.561,5.528.756,5.528.756,9.316-2,7.74,3.2S76.3,28.3,75.953,28.064c1.106-1.164,1.222-4.481,1.222-4.481-4.8,5.548-13.472,9.352-14.884,9.948" transform="translate(-40.404 -11.099)" fill="#ff862d"/>
            <path id="Trazado_906580" data-name="Trazado 906580" d="M63.825,57.819s-2.508,4.358,0,6.026c0,0-4.471-.081-6.023-5.608s1.74-3.31,2.082-3.226,3.941,2.807,3.941,2.807" transform="translate(-38.804 -36.853)" fill="#ff862d"/>
            <path id="Trazado_906581" data-name="Trazado 906581" d="M133.395,24.286l4,14.318s-5.517-11.7-9.9-13.2.973-3.738.973-3.738Z" transform="translate(-85.045 -14.648)" fill="#ff862d"/>
            <path id="Trazado_906582" data-name="Trazado 906582" d="M98.52,100.68a4.378,4.378,0,0,0,8.259,1.762Z" transform="translate(-66.615 -68.076)" fill="#fff"/>
            <path id="Trazado_906583" data-name="Trazado 906583" d="M257.706,149.991l-41.242-13.244a1.648,1.648,0,0,0-2.074,1.066l-18.929,58.948a1.648,1.648,0,0,0,1.065,2.073l41.243,13.244a1.648,1.648,0,0,0,2.073-1.065l18.93-58.949a1.648,1.648,0,0,0-1.065-2.073" transform="translate(-132.11 -92.41)" fill="#ff862d"/>
            <rect id="Rectángulo_409507" data-name="Rectángulo 409507" width="55.606" height="39.749" transform="translate(68.099 100.793) rotate(-72.197)" fill="#e9faff"/>
            <path id="Trazado_906584" data-name="Trazado 906584" d="M290.712,150.324,311.2,156.9l.866-2.695a3.739,3.739,0,0,0-2.417-4.7l-13.371-4.294a3.739,3.739,0,0,0-4.7,2.417Z" transform="translate(-196.569 -98.065)" fill="#a4e5ff"/>
            <rect id="Rectángulo_409508" data-name="Rectángulo 409508" width="1.552" height="20.907" transform="matrix(0.306, -0.952, 0.952, 0.306, 97.838, 60.293)" fill="#a4e5ff"/>
            <rect id="Rectángulo_409509" data-name="Rectángulo 409509" width="1.552" height="20.907" transform="translate(96.096 65.717) rotate(-72.197)" fill="#a4e5ff"/>
            <rect id="Rectángulo_409510" data-name="Rectángulo 409510" width="1.552" height="20.907" transform="translate(94.354 71.142) rotate(-72.197)" fill="#a4e5ff"/>
            <rect id="Rectángulo_409511" data-name="Rectángulo 409511" width="1.552" height="20.907" transform="translate(92.612 76.566) rotate(-72.198)" fill="#a4e5ff"/>
            <rect id="Rectángulo_409512" data-name="Rectángulo 409512" width="1.552" height="20.907" transform="translate(90.87 81.99) rotate(-72.197)" fill="#a4e5ff"/>
            <rect id="Rectángulo_409513" data-name="Rectángulo 409513" width="1.552" height="20.907" transform="translate(89.128 87.415) rotate(-72.197)" fill="#a4e5ff"/>
            <rect id="Rectángulo_409514" data-name="Rectángulo 409514" width="1.552" height="20.907" transform="translate(87.387 92.839) rotate(-72.197)" fill="#a4e5ff"/>
            <rect id="Rectángulo_409515" data-name="Rectángulo 409515" width="1.552" height="20.907" transform="translate(85.645 98.264) rotate(-72.198)" fill="#a4e5ff"/>
            <rect id="Rectángulo_409516" data-name="Rectángulo 409516" width="11.381" height="11.859" transform="translate(80.875 65.17) rotate(-72.197)" fill="#a4e5ff"/>
            <rect id="Rectángulo_409517" data-name="Rectángulo 409517" width="11.381" height="11.859" transform="translate(76.511 78.761) rotate(-72.198)" fill="#a4e5ff"/>
            <rect id="Rectángulo_409518" data-name="Rectángulo 409518" width="11.381" height="11.859" transform="translate(71.917 93.067) rotate(-72.196)" fill="#a4e5ff"/>
            <path id="Trazado_906585" data-name="Trazado 906585" d="M228.23,239.864a.355.355,0,0,0,.4.478c2.134-.451,8.858-1.827,9.1-1.311.283.614-5.7,1.991-5.768,2.615s5.725-.866,5.923-.16-5.135,1.887-5.156,2.213,5.208-.259,5.573.086-5.141,1.65-5.279,2.039,3.962.752,3.971,1.108.075.591-9.388,2.417l-3.757.56-3.314-1.2-.144-4.234s8.316-9.2,8.822-9.128c.483.072.6.477-.982,4.515" transform="translate(-149.02 -159.134)" fill="#ffc0bb"/>
            <path id="Trazado_906586" data-name="Trazado 906586" d="M31.59,132.788S12.8,155.42,15.364,195.275s2.989,40.14,2.989,40.14,11.53-1.234,20.07-8.066A100,100,0,0,1,57.4,215.867l-6.927-22.49s9.014.285,15.562-2.467,20.213-10.059,20.213-10.059-1.139-6.737-2.563-8.825c0,0-17.365,5.314-26.1,5.409,0,0-10.154-31.314-26-44.647" transform="translate(-10.226 -89.786)" fill="#7b1fa2"/>
            <path id="Trazado_906587" data-name="Trazado 906587" d="M70.148,155.205a79.6,79.6,0,0,1,7.976,8.051,94.913,94.913,0,0,1,6.9,9.013l.787,1.183c.264.393.527.787.766,1.195l1.475,2.427c.252.4.467.824.7,1.238l.678,1.248.677,1.248c.221.418.412.853.619,1.278l1.217,2.565L93,187.28l.522,1.318.445,1.347q.448,1.345.875,2.695-.527-1.317-1.034-2.636l-.51-1.317-.588-1.286-1.159-2.575-1.282-2.515c-.217-.417-.418-.843-.648-1.253l-.694-1.228-.693-1.229c-.234-.408-.453-.824-.711-1.219l-1.482-2.4c-.241-.4-.5-.794-.768-1.183l-.787-1.171q-3.149-4.682-6.745-9.05l-1.821-2.159c-.625-.7-1.238-1.421-1.873-2.117-1.254-1.407-2.56-2.768-3.9-4.1" transform="translate(-47.431 -104.944)" fill="#5858c6"/>
            <path id="Trazado_906588" data-name="Trazado 906588" d="M45.094,203.994c1.547,3.481,3.2,6.91,4.9,10.308.861,1.695,1.735,3.383,2.646,5.05s1.834,3.327,2.81,4.956q1.441,2.456,3.026,4.821c.517.8,1.07,1.566,1.614,2.342.565.761,1.122,1.528,1.714,2.268a43,43,0,0,0,3.785,4.233,19.946,19.946,0,0,0,4.551,3.386,18.759,18.759,0,0,1-4.764-3.155,38.633,38.633,0,0,1-3.961-4.149c-1.234-1.463-2.36-3.011-3.443-4.585s-2.1-3.193-3.074-4.834c-1.947-3.285-3.716-6.67-5.353-10.114s-3.138-6.952-4.457-10.527" transform="translate(-30.491 -137.933)" fill="#5858c6"/>
          </g>
        </g>
      </g>
    </g>
    <g id="Grupo_1119589" data-name="Grupo 1119589" transform="translate(322.699 3633.004)">
      <g id="Grupo_1119588" data-name="Grupo 1119588" transform="translate(0 0.001)" clip-path="url(#clip-path-4)">
        <path id="Trazado_906589" data-name="Trazado 906589" d="M189.209.014c0,35.569-.025,37.786-.025,37.786h-2.635L158.656,15.4A36.29,36.29,0,0,1,186.6,0c1.482,0,1.765.013,2.609.013" transform="translate(-147.484 -0.001)" fill="#a4e5ff"/>
        <path id="Trazado_906590" data-name="Trazado 906590" d="M151.819,0c0,35.569-.051,37.8-.051,37.8L121.241,15.4C128.161,5.727,139.015,0,151.819,0" transform="translate(-112.703 -0.001)" fill="#e9faff"/>
        <path id="Trazado_906591" data-name="Trazado 906591" d="M75.011,263.574s-7.5.063-37.6.063c0-7.5.736-16.266,4.472-22.162h2.635Z" transform="translate(-34.78 -224.471)" fill="#b1b742"/>
        <path id="Trazado_906592" data-name="Trazado 906592" d="M37.6,263.574s-7.5.063-37.6.063a37.966,37.966,0,0,1,7.107-22.162Z" transform="translate(0 -224.471)" fill="#d4e157"/>
        <path id="Trazado_906593" data-name="Trazado 906593" d="M115.784,61.9s-2.635-2.584-2.635-38.153c24.726,0,40.788,17.082,40.788,38.153a38.153,38.153,0,1,1-76.306,0Z" transform="translate(-72.164 -22.073)" fill="#5858c6"/>
        <path id="Trazado_906594" data-name="Trazado 906594" d="M78.369,61.9V23.745A38.153,38.153,0,1,1,40.216,61.9Z" transform="translate(-37.384 -22.073)" fill="#7b1fa2"/>
      </g>
    </g>
  </g>
</svg>
