<svg xmlns="http://www.w3.org/2000/svg" xmlns:xlink="http://www.w3.org/1999/xlink" width="85" height="85" viewBox="0 0 85 85">
  <defs>
    <clipPath id="clip-path">
      <rect id="Rectángulo_401273" data-name="Rectángulo 401273" width="12.919" height="12.92" fill="#eef3bc"/>
    </clipPath>
    <clipPath id="clip-path-2">
      <path id="Trazado_873519" data-name="Trazado 873519" d="M12.919,6.46A6.46,6.46,0,1,1,6.46,0a6.46,6.46,0,0,1,6.46,6.46" fill="#eef3bc"/>
    </clipPath>
  </defs>
  <g id="Grupo_1119793" data-name="Grupo 1119793" transform="translate(3870 6172)">
    <rect id="Rectángulo_409320" data-name="Rectángulo 409320" width="85" height="85" rx="42.5" transform="translate(-3870 -6172)" fill="#fff"/>
    <g id="Grupo_1119330" data-name="Grupo 1119330" transform="translate(-3862.273 -6154.828)">
      <g id="Grupo_1099855" data-name="Grupo 1099855" transform="translate(0 0)">
        <g id="Grupo_1099808" data-name="Grupo 1099808" transform="translate(0 0)">
          <g id="Grupo_1101062" data-name="Grupo 1101062" transform="translate(0 28.556)">
            <g id="Grupo_1101056" data-name="Grupo 1101056" transform="translate(12.92) rotate(90)" opacity="0.998" style="isolation: isolate">
              <g id="Grupo_1099844" data-name="Grupo 1099844" transform="translate(0 0)">
                <g id="Grupo_1099843" data-name="Grupo 1099843" transform="translate(0 0)" clip-path="url(#clip-path)">
                  <g id="Grupo_1099842" data-name="Grupo 1099842" transform="translate(0 0)">
                    <g id="Grupo_1099841" data-name="Grupo 1099841" clip-path="url(#clip-path-2)">
                      <rect id="Rectángulo_401272" data-name="Rectángulo 401272" width="16.423" height="16.423" transform="translate(-3.979 11.549) rotate(-70.991)" fill="#eef3bc"/>
                    </g>
                  </g>
                </g>
              </g>
            </g>
            <g id="Grupo_1101057" data-name="Grupo 1101057" transform="translate(12.92 12.919) rotate(90)" opacity="0.998" style="isolation: isolate">
              <g id="Grupo_1099844-2" data-name="Grupo 1099844" transform="translate(0 0)">
                <g id="Grupo_1099843-2" data-name="Grupo 1099843" transform="translate(0 0)" clip-path="url(#clip-path)">
                  <g id="Grupo_1099842-2" data-name="Grupo 1099842" transform="translate(0 0)">
                    <g id="Grupo_1099841-2" data-name="Grupo 1099841" clip-path="url(#clip-path-2)">
                      <rect id="Rectángulo_401272-2" data-name="Rectángulo 401272" width="16.423" height="16.423" transform="translate(-3.979 11.549) rotate(-70.991)" fill="#eef3bc"/>
                    </g>
                  </g>
                </g>
              </g>
            </g>
            <g id="Grupo_1101058" data-name="Grupo 1101058" transform="translate(12.92 25.838) rotate(90)" opacity="0.998" style="isolation: isolate">
              <g id="Grupo_1099844-3" data-name="Grupo 1099844" transform="translate(0 0)">
                <g id="Grupo_1099843-3" data-name="Grupo 1099843" transform="translate(0 0)" clip-path="url(#clip-path)">
                  <g id="Grupo_1099842-3" data-name="Grupo 1099842" transform="translate(0 0)">
                    <g id="Grupo_1099841-3" data-name="Grupo 1099841" clip-path="url(#clip-path-2)">
                      <rect id="Rectángulo_401272-3" data-name="Rectángulo 401272" width="16.423" height="16.423" transform="translate(-3.979 11.549) rotate(-70.991)" fill="#eef3bc"/>
                    </g>
                  </g>
                </g>
              </g>
            </g>
            <g id="Grupo_1101059" data-name="Grupo 1101059" transform="translate(25.839 25.955) rotate(90)" opacity="0.998" style="isolation: isolate">
              <g id="Grupo_1099844-4" data-name="Grupo 1099844" transform="translate(0 0)">
                <g id="Grupo_1099843-4" data-name="Grupo 1099843" transform="translate(0 0)" clip-path="url(#clip-path)">
                  <g id="Grupo_1099842-4" data-name="Grupo 1099842" transform="translate(0 0)">
                    <g id="Grupo_1099841-4" data-name="Grupo 1099841" clip-path="url(#clip-path-2)">
                      <rect id="Rectángulo_401272-4" data-name="Rectángulo 401272" width="16.423" height="16.423" transform="translate(-3.979 11.549) rotate(-70.991)" fill="#eef3bc"/>
                    </g>
                  </g>
                </g>
              </g>
            </g>
            <g id="Grupo_1101060" data-name="Grupo 1101060" transform="translate(25.839 12.919) rotate(90)" opacity="0.998" style="isolation: isolate">
              <g id="Grupo_1099844-5" data-name="Grupo 1099844" transform="translate(0 0)">
                <g id="Grupo_1099843-5" data-name="Grupo 1099843" transform="translate(0 0)" clip-path="url(#clip-path)">
                  <g id="Grupo_1099842-5" data-name="Grupo 1099842" transform="translate(0 0)">
                    <g id="Grupo_1099841-5" data-name="Grupo 1099841" clip-path="url(#clip-path-2)">
                      <rect id="Rectángulo_401272-5" data-name="Rectángulo 401272" width="16.423" height="16.423" transform="translate(-3.979 11.549) rotate(-70.991)" fill="#eef3bc"/>
                    </g>
                  </g>
                </g>
              </g>
            </g>
            <g id="Grupo_1101061" data-name="Grupo 1101061" transform="translate(38.758 25.955) rotate(90)" opacity="0.998" style="isolation: isolate">
              <g id="Grupo_1099844-6" data-name="Grupo 1099844" transform="translate(0 0)">
                <g id="Grupo_1099843-6" data-name="Grupo 1099843" transform="translate(0 0)" clip-path="url(#clip-path)">
                  <g id="Grupo_1099842-6" data-name="Grupo 1099842" transform="translate(0 0)">
                    <g id="Grupo_1099841-6" data-name="Grupo 1099841" clip-path="url(#clip-path-2)">
                      <rect id="Rectángulo_401272-6" data-name="Rectángulo 401272" width="16.423" height="16.423" transform="translate(-3.979 11.549) rotate(-70.991)" fill="#eef3bc"/>
                    </g>
                  </g>
                </g>
              </g>
            </g>
          </g>
          <g id="Grupo_1099776" data-name="Grupo 1099776" transform="translate(11.13 1.851)">
            <g id="Grupo_1099618" data-name="Grupo 1099618" transform="translate(0 0)">
              <rect id="Rectángulo_401104" data-name="Rectángulo 401104" width="48.26" height="48.841" transform="translate(0)" fill="none"/>
            </g>
            <g id="Grupo_1119799" data-name="Grupo 1119799" transform="translate(1 1.416)">
              <g id="Grupo_1099618-2" data-name="Grupo 1099618" transform="translate(0 0)">
                <rect id="Rectángulo_401104-2" data-name="Rectángulo 401104" width="46.26" height="46.817" transform="translate(0)" fill="none"/>
              </g>
              <g id="Grupo_1119768" data-name="Grupo 1119768" transform="translate(0.806 1.083)">
                <g id="Grupo_1119763" data-name="Grupo 1119763" transform="translate(5.93 39.417)">
                  <g id="Grupo_1119762" data-name="Grupo 1119762">
                    <path id="Trazado_906863" data-name="Trazado 906863" d="M69.492,452.257a.871.871,0,1,0,.256.617A.878.878,0,0,0,69.492,452.257Z" transform="translate(-68.003 -452.001)" fill="#4c5066"/>
                  </g>
                </g>
                <g id="Grupo_1119765" data-name="Grupo 1119765" transform="translate(39.456 15.698)">
                  <g id="Grupo_1119764" data-name="Grupo 1119764">
                    <path id="Trazado_906864" data-name="Trazado 906864" d="M453.943,180.264a.87.87,0,1,0,.256.617A.877.877,0,0,0,453.943,180.264Z" transform="translate(-452.454 -180.008)" fill="#4c5066"/>
                  </g>
                </g>
                <g id="Grupo_1119767" data-name="Grupo 1119767" transform="translate(0)">
                  <g id="Grupo_1119766" data-name="Grupo 1119766" transform="translate(0)">
                    <path id="Trazado_906865" data-name="Trazado 906865" d="M44.4.255A.873.873,0,0,0,43.783,0H22.331a.872.872,0,0,0-.872.872V3.367L13.193,5.582a.872.872,0,0,0-.617,1.068L16.86,22.638l-3.706,3.706a2.615,2.615,0,0,0-2.16-1.142H2.623A2.619,2.619,0,0,0,.007,27.819V42.033a2.619,2.619,0,0,0,2.616,2.616h8.372a2.62,2.62,0,0,0,2.539-1.987l1.037.9a4.394,4.394,0,0,0,2.888,1.082H43.783a.872.872,0,0,0,.872-.872V.872A.873.873,0,0,0,44.4.255ZM11.867,42.033a.873.873,0,0,1-.872.872H2.623a.873.873,0,0,1-.872-.872V27.819a.873.873,0,0,1,.872-.872H5.937V36.993a.872.872,0,1,0,1.744,0V26.947h3.314a.873.873,0,0,1,.872.872V42.033Zm2.62-34.992,6.972-1.868V8.4l-.584.157a.872.872,0,0,0-.617,1.068A2.351,2.351,0,0,1,18.6,12.5a.872.872,0,0,0-.616,1.07l3.4,12.587H19.63l-.9-3.529a.871.871,0,0,0-.146-.306ZM21.459,12.4v7.359l-1.591-5.889A4.085,4.085,0,0,0,21.459,12.4Zm12.528,30.5H17.458a2.65,2.65,0,0,1-1.742-.653l-2.106-1.837V28.355l3.807-3.807.69,2.7a.872.872,0,0,0,.845.656H36.1a1.221,1.221,0,1,1,0,2.442H27.313a.872.872,0,0,0,0,1.744H38.828a1.221,1.221,0,0,1,0,2.442H27.313a.872.872,0,0,0,0,1.744h9.649a1.221,1.221,0,1,1,0,2.442H27.313a.872.872,0,0,0,0,1.744h6.674a1.221,1.221,0,1,1,0,2.441Zm8.924,0H36.688a2.954,2.954,0,0,0,0-2.442h.274a2.963,2.963,0,0,0,2.65-4.292,2.962,2.962,0,0,0,1.6-4.625V20.494a.872.872,0,0,0-1.744,0v9.923a2.966,2.966,0,0,0-.636-.069H38.8a2.963,2.963,0,0,0-2.7-4.186H34.7a4.173,4.173,0,1,0-3.279,0H26.651V9.581a4.105,4.105,0,0,0,3.127-3.127h6.56a4.105,4.105,0,0,0,3.127,3.127v2.711a.872.872,0,0,0,1.744,0V8.8a.872.872,0,0,0-.872-.872,2.351,2.351,0,0,1-2.348-2.348.872.872,0,0,0-.872-.872H29a.872.872,0,0,0-.872.872A2.351,2.351,0,0,1,25.779,7.93a.872.872,0,0,0-.872.872v17.36H23.2V1.745H42.911ZM33.057,24.754a2.429,2.429,0,1,1,2.429-2.429A2.432,2.432,0,0,1,33.057,24.754Z" transform="translate(-0.007 0)" fill="#4c5066"/>
                  </g>
                </g>
              </g>
            </g>
          </g>
        </g>
      </g>
    </g>
  </g>
</svg>
