<svg xmlns="http://www.w3.org/2000/svg" xmlns:xlink="http://www.w3.org/1999/xlink" width="85" height="85" viewBox="0 0 85 85">
  <defs>
    <clipPath id="clip-path">
      <rect id="Rectángulo_401273" data-name="Rectángulo 401273" width="12.919" height="12.92" fill="#eef3bc"/>
    </clipPath>
    <clipPath id="clip-path-2">
      <path id="Trazado_873519" data-name="Trazado 873519" d="M12.919,6.46A6.46,6.46,0,1,1,6.46,0a6.46,6.46,0,0,1,6.46,6.46" fill="#eef3bc"/>
    </clipPath>
  </defs>
  <g id="Grupo_1119792" data-name="Grupo 1119792" transform="translate(3870 6172)">
    <path id="Trazado_906868" data-name="Trazado 906868" d="M42.5,0A42.5,42.5,0,1,1,0,42.5,42.5,42.5,0,0,1,42.5,0Z" transform="translate(-3870 -6172)" fill="#fff"/>
    <g id="Grupo_1119330" data-name="Grupo 1119330" transform="translate(-3862.273 -6154.828)">
      <g id="Grupo_1099855" data-name="Grupo 1099855" transform="translate(0 0)">
        <g id="Grupo_1099808" data-name="Grupo 1099808" transform="translate(0 0)">
          <g id="Grupo_1101062" data-name="Grupo 1101062" transform="translate(0 28.556)">
            <g id="Grupo_1101056" data-name="Grupo 1101056" transform="translate(12.92) rotate(90)" opacity="0.998" style="isolation: isolate">
              <g id="Grupo_1099844" data-name="Grupo 1099844" transform="translate(0 0)">
                <g id="Grupo_1099843" data-name="Grupo 1099843" transform="translate(0 0)" clip-path="url(#clip-path)">
                  <g id="Grupo_1099842" data-name="Grupo 1099842" transform="translate(0 0)">
                    <g id="Grupo_1099841" data-name="Grupo 1099841" clip-path="url(#clip-path-2)">
                      <rect id="Rectángulo_401272" data-name="Rectángulo 401272" width="16.423" height="16.423" transform="translate(-3.979 11.549) rotate(-70.991)" fill="#eef3bc"/>
                    </g>
                  </g>
                </g>
              </g>
            </g>
            <g id="Grupo_1101057" data-name="Grupo 1101057" transform="translate(12.92 12.919) rotate(90)" opacity="0.998" style="isolation: isolate">
              <g id="Grupo_1099844-2" data-name="Grupo 1099844" transform="translate(0 0)">
                <g id="Grupo_1099843-2" data-name="Grupo 1099843" transform="translate(0 0)" clip-path="url(#clip-path)">
                  <g id="Grupo_1099842-2" data-name="Grupo 1099842" transform="translate(0 0)">
                    <g id="Grupo_1099841-2" data-name="Grupo 1099841" clip-path="url(#clip-path-2)">
                      <rect id="Rectángulo_401272-2" data-name="Rectángulo 401272" width="16.423" height="16.423" transform="translate(-3.979 11.549) rotate(-70.991)" fill="#eef3bc"/>
                    </g>
                  </g>
                </g>
              </g>
            </g>
            <g id="Grupo_1101058" data-name="Grupo 1101058" transform="translate(12.92 25.838) rotate(90)" opacity="0.998" style="isolation: isolate">
              <g id="Grupo_1099844-3" data-name="Grupo 1099844" transform="translate(0 0)">
                <g id="Grupo_1099843-3" data-name="Grupo 1099843" transform="translate(0 0)" clip-path="url(#clip-path)">
                  <g id="Grupo_1099842-3" data-name="Grupo 1099842" transform="translate(0 0)">
                    <g id="Grupo_1099841-3" data-name="Grupo 1099841" clip-path="url(#clip-path-2)">
                      <rect id="Rectángulo_401272-3" data-name="Rectángulo 401272" width="16.423" height="16.423" transform="translate(-3.979 11.549) rotate(-70.991)" fill="#eef3bc"/>
                    </g>
                  </g>
                </g>
              </g>
            </g>
            <g id="Grupo_1101059" data-name="Grupo 1101059" transform="translate(25.839 25.955) rotate(90)" opacity="0.998" style="isolation: isolate">
              <g id="Grupo_1099844-4" data-name="Grupo 1099844" transform="translate(0 0)">
                <g id="Grupo_1099843-4" data-name="Grupo 1099843" transform="translate(0 0)" clip-path="url(#clip-path)">
                  <g id="Grupo_1099842-4" data-name="Grupo 1099842" transform="translate(0 0)">
                    <g id="Grupo_1099841-4" data-name="Grupo 1099841" clip-path="url(#clip-path-2)">
                      <rect id="Rectángulo_401272-4" data-name="Rectángulo 401272" width="16.423" height="16.423" transform="translate(-3.979 11.549) rotate(-70.991)" fill="#eef3bc"/>
                    </g>
                  </g>
                </g>
              </g>
            </g>
            <g id="Grupo_1101060" data-name="Grupo 1101060" transform="translate(25.839 12.919) rotate(90)" opacity="0.998" style="isolation: isolate">
              <g id="Grupo_1099844-5" data-name="Grupo 1099844" transform="translate(0 0)">
                <g id="Grupo_1099843-5" data-name="Grupo 1099843" transform="translate(0 0)" clip-path="url(#clip-path)">
                  <g id="Grupo_1099842-5" data-name="Grupo 1099842" transform="translate(0 0)">
                    <g id="Grupo_1099841-5" data-name="Grupo 1099841" clip-path="url(#clip-path-2)">
                      <rect id="Rectángulo_401272-5" data-name="Rectángulo 401272" width="16.423" height="16.423" transform="translate(-3.979 11.549) rotate(-70.991)" fill="#eef3bc"/>
                    </g>
                  </g>
                </g>
              </g>
            </g>
            <g id="Grupo_1101061" data-name="Grupo 1101061" transform="translate(38.758 25.955) rotate(90)" opacity="0.998" style="isolation: isolate">
              <g id="Grupo_1099844-6" data-name="Grupo 1099844" transform="translate(0 0)">
                <g id="Grupo_1099843-6" data-name="Grupo 1099843" transform="translate(0 0)" clip-path="url(#clip-path)">
                  <g id="Grupo_1099842-6" data-name="Grupo 1099842" transform="translate(0 0)">
                    <g id="Grupo_1099841-6" data-name="Grupo 1099841" clip-path="url(#clip-path-2)">
                      <rect id="Rectángulo_401272-6" data-name="Rectángulo 401272" width="16.423" height="16.423" transform="translate(-3.979 11.549) rotate(-70.991)" fill="#eef3bc"/>
                    </g>
                  </g>
                </g>
              </g>
            </g>
          </g>
          <g id="Grupo_1099776" data-name="Grupo 1099776" transform="translate(10.368 0)">
            <g id="Grupo_1099618" data-name="Grupo 1099618" transform="translate(0 0)">
              <rect id="Rectángulo_401104" data-name="Rectángulo 401104" width="49.646" height="50.244" transform="translate(0)" fill="none"/>
            </g>
            <g id="Grupo_1119798" data-name="Grupo 1119798" transform="translate(-0.994 -0.111)">
              <path id="Trazado_906840" data-name="Trazado 906840" d="M29.79,17.741h3.161a.79.79,0,0,0,.79-.79V13.79a.79.79,0,0,0-.79-.79H29.79a.79.79,0,0,0-.79.79v3.161A.79.79,0,0,0,29.79,17.741Zm.79-3.161h1.58v1.58H30.58Z" transform="translate(-5.877 -2.52)" fill="#4c5066"/>
              <path id="Trazado_906841" data-name="Trazado 906841" d="M37.79,17.741h3.161a.79.79,0,0,0,.79-.79V13.79a.79.79,0,0,0-.79-.79H37.79a.79.79,0,0,0-.79.79v3.161A.79.79,0,0,0,37.79,17.741Zm.79-3.161h1.58v1.58H38.58Z" transform="translate(-7.555 -2.52)" fill="#4c5066"/>
              <path id="Trazado_906842" data-name="Trazado 906842" d="M29.79,25.741h3.161a.79.79,0,0,0,.79-.79V21.79a.79.79,0,0,0-.79-.79H29.79a.79.79,0,0,0-.79.79v3.161A.79.79,0,0,0,29.79,25.741Zm.79-3.161h1.58v1.58H30.58Z" transform="translate(-5.877 -4.199)" fill="#4c5066"/>
              <path id="Trazado_906843" data-name="Trazado 906843" d="M29.79,33.741h3.161a.79.79,0,0,0,.79-.79V29.79a.79.79,0,0,0-.79-.79H29.79a.79.79,0,0,0-.79.79v3.161A.79.79,0,0,0,29.79,33.741Zm.79-3.161h1.58v1.58H30.58Z" transform="translate(-5.877 -5.878)" fill="#4c5066"/>
              <path id="Trazado_906844" data-name="Trazado 906844" d="M37.79,33.741h3.161a.79.79,0,0,0,.79-.79V29.79a.79.79,0,0,0-.79-.79H37.79a.79.79,0,0,0-.79.79v3.161A.79.79,0,0,0,37.79,33.741Zm.79-3.161h1.58v1.58H38.58Z" transform="translate(-7.555 -5.878)" fill="#4c5066"/>
              <path id="Trazado_906845" data-name="Trazado 906845" d="M45.79,25.741h3.161a.79.79,0,0,0,.79-.79V21.79a.79.79,0,0,0-.79-.79H45.79a.79.79,0,0,0-.79.79v3.161A.79.79,0,0,0,45.79,25.741Zm.79-3.161h1.58v1.58H46.58Z" transform="translate(-9.234 -4.199)" fill="#4c5066"/>
              <path id="Trazado_906846" data-name="Trazado 906846" d="M45.79,33.741h3.161a.79.79,0,0,0,.79-.79V29.79a.79.79,0,0,0-.79-.79H45.79a.79.79,0,0,0-.79.79v3.161A.79.79,0,0,0,45.79,33.741Zm.79-3.161h1.58v1.58H46.58Z" transform="translate(-9.234 -5.878)" fill="#4c5066"/>
              <path id="Trazado_906847" data-name="Trazado 906847" d="M37.79,25.741h3.161a.79.79,0,0,0,.79-.79V21.79a.79.79,0,0,0-.79-.79H37.79a.79.79,0,0,0-.79.79v3.161A.79.79,0,0,0,37.79,25.741Zm.79-3.161h1.58v1.58H38.58Z" transform="translate(-7.555 -4.199)" fill="#4c5066"/>
              <path id="Trazado_906848" data-name="Trazado 906848" d="M45.79,17.741h3.161a.79.79,0,0,0,.79-.79V13.79a.79.79,0,0,0-.79-.79H45.79a.79.79,0,0,0-.79.79v3.161A.79.79,0,0,0,45.79,17.741Zm.79-3.161h1.58v1.58H46.58Z" transform="translate(-9.234 -2.52)" fill="#4c5066"/>
              <path id="Trazado_906849" data-name="Trazado 906849" d="M21,28h1.58v1.58H21Z" transform="translate(-4.198 -5.668)" fill="#4c5066"/>
              <path id="Trazado_906850" data-name="Trazado 906850" d="M17,28h1.58v1.58H17Z" transform="translate(-3.359 -5.668)" fill="#4c5066"/>
              <path id="Trazado_906851" data-name="Trazado 906851" d="M13,32h1.58v1.58H13Z" transform="translate(-2.519 -6.507)" fill="#4c5066"/>
              <path id="Trazado_906852" data-name="Trazado 906852" d="M17,32h1.58v1.58H17Z" transform="translate(-3.359 -6.507)" fill="#4c5066"/>
              <path id="Trazado_906853" data-name="Trazado 906853" d="M21,32h1.58v1.58H21Z" transform="translate(-4.198 -6.507)" fill="#4c5066"/>
              <path id="Trazado_906854" data-name="Trazado 906854" d="M13,36h1.58v1.58H13Z" transform="translate(-2.519 -7.347)" fill="#4c5066"/>
              <path id="Trazado_906855" data-name="Trazado 906855" d="M17,36h1.58v1.58H17Z" transform="translate(-3.359 -7.347)" fill="#4c5066"/>
              <path id="Trazado_906856" data-name="Trazado 906856" d="M21,36h1.58v1.58H21Z" transform="translate(-4.198 -7.347)" fill="#4c5066"/>
              <path id="Trazado_906857" data-name="Trazado 906857" d="M13,40h1.58v1.58H13Z" transform="translate(-2.519 -8.186)" fill="#4c5066"/>
              <path id="Trazado_906858" data-name="Trazado 906858" d="M17,40h1.58v1.58H17Z" transform="translate(-3.359 -8.186)" fill="#4c5066"/>
              <path id="Trazado_906859" data-name="Trazado 906859" d="M21,40h1.58v1.58H21Z" transform="translate(-4.198 -8.186)" fill="#4c5066"/>
              <path id="Trazado_906860" data-name="Trazado 906860" d="M49.2,43.667H43.667V8.109a.79.79,0,0,0-.79-.79H41.3V1.788a.79.79,0,0,0-.79-.79H23.123a.79.79,0,0,0-.79.79V7.319h-1.58a.79.79,0,0,0-.79.79V13.64h-2.54a8.692,8.692,0,1,0-10.1,4.4V43.667H1.789a.79.79,0,0,0-.79.79V49.2a.79.79,0,0,0,.79.79H49.2a.79.79,0,0,0,.79-.79V44.457A.79.79,0,0,0,49.2,43.667ZM23.913,2.578h15.8V7.319h-15.8ZM42.087,8.9V43.667H38.926V31.814a.79.79,0,0,0-.79-.79H25.494a.79.79,0,0,0-.79.79V43.667H21.543V8.9Zm-15.8,34.767V32.6h4.741V43.667ZM32.605,32.6h4.741V43.667H32.605ZM2.579,9.689A7.111,7.111,0,1,1,9.69,16.8,7.111,7.111,0,0,1,2.579,9.689ZM8.9,18.341c.261.024.523.04.79.04a8.681,8.681,0,0,0,6.7-3.161h3.572V43.667H8.9ZM48.408,48.407H2.579V45.247h45.83Z" transform="translate(0 0)" fill="#4c5066"/>
              <path id="Trazado_906861" data-name="Trazado 906861" d="M11.951,16.062v-.79a2.37,2.37,0,0,0,2.37-2.37v-.79a2.37,2.37,0,0,0-2.37-2.37V7.37a.79.79,0,0,1,.79.79v.79h1.58v-.79a2.37,2.37,0,0,0-2.37-2.37V5H10.37v.79A2.37,2.37,0,0,0,8,8.161v.79a2.37,2.37,0,0,0,2.37,2.37v2.37a.79.79,0,0,1-.79-.79H8a2.37,2.37,0,0,0,2.37,2.37v.79ZM9.58,8.951v-.79a.79.79,0,0,1,.79-.79v2.37A.79.79,0,0,1,9.58,8.951Zm2.37,2.37a.79.79,0,0,1,.79.79v.79a.79.79,0,0,1-.79.79Z" transform="translate(-1.47 -0.842)" fill="#4c5066"/>
              <path id="Trazado_906862" data-name="Trazado 906862" d="M13,28h1.58v1.58H13Z" transform="translate(-2.519 -5.668)" fill="#4c5066"/>
            </g>
          </g>
        </g>
      </g>
    </g>
  </g>
</svg>
