<svg xmlns="http://www.w3.org/2000/svg" xmlns:xlink="http://www.w3.org/1999/xlink" width="85" height="85" viewBox="0 0 85 85">
  <defs>
    <clipPath id="clip-path">
      <rect id="Rectángulo_401273" data-name="Rectángulo 401273" width="12.919" height="12.92" fill="#eef3bc"/>
    </clipPath>
    <clipPath id="clip-path-2">
      <path id="Trazado_873519" data-name="Trazado 873519" d="M12.919,6.46A6.46,6.46,0,1,1,6.46,0a6.46,6.46,0,0,1,6.46,6.46" fill="#eef3bc"/>
    </clipPath>
  </defs>
  <g id="Grupo_1119790" data-name="Grupo 1119790" transform="translate(3870 6172)">
    <rect id="Rectángulo_409320" data-name="Rectángulo 409320" width="85" height="85" rx="42.5" transform="translate(-3870 -6172)" fill="#fff"/>
    <g id="Grupo_1119330" data-name="Grupo 1119330" transform="translate(-3862.273 -6154.828)">
      <g id="Grupo_1099855" data-name="Grupo 1099855" transform="translate(0 0)">
        <g id="Grupo_1099808" data-name="Grupo 1099808" transform="translate(0 0)">
          <g id="Grupo_1101062" data-name="Grupo 1101062" transform="translate(0 28.556)">
            <g id="Grupo_1101056" data-name="Grupo 1101056" transform="translate(12.92) rotate(90)" opacity="0.998" style="isolation: isolate">
              <g id="Grupo_1099844" data-name="Grupo 1099844" transform="translate(0 0)">
                <g id="Grupo_1099843" data-name="Grupo 1099843" transform="translate(0 0)" clip-path="url(#clip-path)">
                  <g id="Grupo_1099842" data-name="Grupo 1099842" transform="translate(0 0)">
                    <g id="Grupo_1099841" data-name="Grupo 1099841" clip-path="url(#clip-path-2)">
                      <rect id="Rectángulo_401272" data-name="Rectángulo 401272" width="16.423" height="16.423" transform="translate(-3.979 11.549) rotate(-70.991)" fill="#eef3bc"/>
                    </g>
                  </g>
                </g>
              </g>
            </g>
            <g id="Grupo_1101057" data-name="Grupo 1101057" transform="translate(12.92 12.919) rotate(90)" opacity="0.998" style="isolation: isolate">
              <g id="Grupo_1099844-2" data-name="Grupo 1099844" transform="translate(0 0)">
                <g id="Grupo_1099843-2" data-name="Grupo 1099843" transform="translate(0 0)" clip-path="url(#clip-path)">
                  <g id="Grupo_1099842-2" data-name="Grupo 1099842" transform="translate(0 0)">
                    <g id="Grupo_1099841-2" data-name="Grupo 1099841" clip-path="url(#clip-path-2)">
                      <rect id="Rectángulo_401272-2" data-name="Rectángulo 401272" width="16.423" height="16.423" transform="translate(-3.979 11.549) rotate(-70.991)" fill="#eef3bc"/>
                    </g>
                  </g>
                </g>
              </g>
            </g>
            <g id="Grupo_1101058" data-name="Grupo 1101058" transform="translate(12.92 25.838) rotate(90)" opacity="0.998" style="isolation: isolate">
              <g id="Grupo_1099844-3" data-name="Grupo 1099844" transform="translate(0 0)">
                <g id="Grupo_1099843-3" data-name="Grupo 1099843" transform="translate(0 0)" clip-path="url(#clip-path)">
                  <g id="Grupo_1099842-3" data-name="Grupo 1099842" transform="translate(0 0)">
                    <g id="Grupo_1099841-3" data-name="Grupo 1099841" clip-path="url(#clip-path-2)">
                      <rect id="Rectángulo_401272-3" data-name="Rectángulo 401272" width="16.423" height="16.423" transform="translate(-3.979 11.549) rotate(-70.991)" fill="#eef3bc"/>
                    </g>
                  </g>
                </g>
              </g>
            </g>
            <g id="Grupo_1101059" data-name="Grupo 1101059" transform="translate(25.839 25.955) rotate(90)" opacity="0.998" style="isolation: isolate">
              <g id="Grupo_1099844-4" data-name="Grupo 1099844" transform="translate(0 0)">
                <g id="Grupo_1099843-4" data-name="Grupo 1099843" transform="translate(0 0)" clip-path="url(#clip-path)">
                  <g id="Grupo_1099842-4" data-name="Grupo 1099842" transform="translate(0 0)">
                    <g id="Grupo_1099841-4" data-name="Grupo 1099841" clip-path="url(#clip-path-2)">
                      <rect id="Rectángulo_401272-4" data-name="Rectángulo 401272" width="16.423" height="16.423" transform="translate(-3.979 11.549) rotate(-70.991)" fill="#eef3bc"/>
                    </g>
                  </g>
                </g>
              </g>
            </g>
            <g id="Grupo_1101060" data-name="Grupo 1101060" transform="translate(25.839 12.919) rotate(90)" opacity="0.998" style="isolation: isolate">
              <g id="Grupo_1099844-5" data-name="Grupo 1099844" transform="translate(0 0)">
                <g id="Grupo_1099843-5" data-name="Grupo 1099843" transform="translate(0 0)" clip-path="url(#clip-path)">
                  <g id="Grupo_1099842-5" data-name="Grupo 1099842" transform="translate(0 0)">
                    <g id="Grupo_1099841-5" data-name="Grupo 1099841" clip-path="url(#clip-path-2)">
                      <rect id="Rectángulo_401272-5" data-name="Rectángulo 401272" width="16.423" height="16.423" transform="translate(-3.979 11.549) rotate(-70.991)" fill="#eef3bc"/>
                    </g>
                  </g>
                </g>
              </g>
            </g>
            <g id="Grupo_1101061" data-name="Grupo 1101061" transform="translate(38.758 25.955) rotate(90)" opacity="0.998" style="isolation: isolate">
              <g id="Grupo_1099844-6" data-name="Grupo 1099844" transform="translate(0 0)">
                <g id="Grupo_1099843-6" data-name="Grupo 1099843" transform="translate(0 0)" clip-path="url(#clip-path)">
                  <g id="Grupo_1099842-6" data-name="Grupo 1099842" transform="translate(0 0)">
                    <g id="Grupo_1099841-6" data-name="Grupo 1099841" clip-path="url(#clip-path-2)">
                      <rect id="Rectángulo_401272-6" data-name="Rectángulo 401272" width="16.423" height="16.423" transform="translate(-3.979 11.549) rotate(-70.991)" fill="#eef3bc"/>
                    </g>
                  </g>
                </g>
              </g>
            </g>
          </g>
          <g id="Grupo_1099776" data-name="Grupo 1099776" transform="translate(11.13 1.851)">
            <g id="Grupo_1099618" data-name="Grupo 1099618" transform="translate(0 0)">
              <rect id="Rectángulo_401104" data-name="Rectángulo 401104" width="48.26" height="48.841" transform="translate(0)" fill="none"/>
            </g>
            <g id="Grupo_1119808" data-name="Grupo 1119808" transform="translate(-61.749 -0.54)">
              <path id="Trazado_906815" data-name="Trazado 906815" d="M95.783,177.071H76.421v-5.752a1.708,1.708,0,0,0-1.706-1.706H68.963V143.238a.731.731,0,0,0-1.463,0v26.7a1.7,1.7,0,0,0,.5,1.206l6.887,6.888a1.7,1.7,0,0,0,1.207.5H95.783a.731.731,0,0,0,0-1.463Zm-25.786-6h4.718a.244.244,0,0,1,.244.244v4.718Z" transform="translate(0 -128.612)" fill="#4c5066"/>
              <path id="Trazado_906816" data-name="Trazado 906816" d="M102.552,0H69.206A1.708,1.708,0,0,0,67.5,1.706v9.507a.731.731,0,1,0,1.463,0V1.706a.244.244,0,0,1,.244-.244h33.346a.244.244,0,0,1,.244.244V48.215a.244.244,0,0,1-.244.244H99.2a.731.731,0,1,0,0,1.463h3.357a1.708,1.708,0,0,0,1.706-1.706V1.706A1.708,1.708,0,0,0,102.552,0Z" fill="#4c5066"/>
              <path id="Trazado_906817" data-name="Trazado 906817" d="M231.324,37.047a2.11,2.11,0,0,1-1.551-.65.731.731,0,1,0-1.084.982,3.5,3.5,0,0,0,1.761,1.024v.568a.731.731,0,1,0,1.463,0v-.523a2.373,2.373,0,0,0,1.92-1.842,2.243,2.243,0,0,0-1.734-2.469l-.266-.1a10.623,10.623,0,0,1-1.385-.567.334.334,0,0,1-.164-.351.669.669,0,0,1,.511-.554,2.02,2.02,0,0,1,1.671.386.731.731,0,0,0,.937-1.123,3.791,3.791,0,0,0-1.491-.711V30.58a.731.731,0,1,0-1.463,0v.566l-.077.021a2.137,2.137,0,0,0-1.544,1.8,1.785,1.785,0,0,0,.919,1.786,11.569,11.569,0,0,0,1.58.655l.264.1c.268.1.882.378.8.839A1.033,1.033,0,0,1,231.324,37.047Z" transform="translate(-145.302 -26.939)" fill="#4c5066"/>
              <path id="Trazado_906818" data-name="Trazado 906818" d="M142.757,158.511a.731.731,0,0,0-.731.731v.747h-.747a.731.731,0,0,0,0,1.463h.747v.747a.731.731,0,0,0,1.463,0v-.747h.747a.731.731,0,0,0,0-1.463h-.747v-.747A.731.731,0,0,0,142.757,158.511Z" transform="translate(-65.925 -143.056)" fill="#4c5066"/>
              <path id="Trazado_906819" data-name="Trazado 906819" d="M329.817,175.136a.731.731,0,0,0,0-1.463H326.86a.731.731,0,0,0,0,1.463Z" transform="translate(-233.412 -156.74)" fill="#4c5066"/>
              <path id="Trazado_906820" data-name="Trazado 906820" d="M116.429,166.207a.731.731,0,0,0,.731.731h12.146v21.3a.731.731,0,1,0,1.463,0v-21.3h12.146a.731.731,0,0,0,0-1.463H130.769V160.4a.731.731,0,0,0-1.463,0v5.071H117.16A.731.731,0,0,0,116.429,166.207Z" transform="translate(-44.158 -144.105)" fill="#4c5066"/>
              <path id="Trazado_906821" data-name="Trazado 906821" d="M145.47,270.556h-6.716a.731.731,0,0,0,0,1.463h6.716a.731.731,0,0,0,0-1.463Z" transform="translate(-63.646 -244.176)" fill="#4c5066"/>
              <path id="Trazado_906822" data-name="Trazado 906822" d="M145.47,316.519h-6.716a.731.731,0,1,0,0,1.462h6.716a.731.731,0,1,0,0-1.462Z" transform="translate(-63.646 -285.658)" fill="#4c5066"/>
              <path id="Trazado_906823" data-name="Trazado 906823" d="M145.47,362.482h-6.716a.731.731,0,1,0,0,1.463h6.716a.731.731,0,0,0,0-1.463Z" transform="translate(-63.646 -327.139)" fill="#4c5066"/>
              <path id="Trazado_906824" data-name="Trazado 906824" d="M297.542,270.556h-6.716a.731.731,0,0,0,0,1.463h6.716a.731.731,0,1,0,0-1.463Z" transform="translate(-200.892 -244.176)" fill="#4c5066"/>
              <path id="Trazado_906825" data-name="Trazado 906825" d="M297.542,316.519h-6.716a.731.731,0,1,0,0,1.462h6.716a.731.731,0,1,0,0-1.462Z" transform="translate(-200.892 -285.658)" fill="#4c5066"/>
              <path id="Trazado_906826" data-name="Trazado 906826" d="M297.542,362.482h-6.716a.731.731,0,0,0,0,1.463h6.716a.731.731,0,1,0,0-1.463Z" transform="translate(-200.892 -327.139)" fill="#4c5066"/>
            </g>
          </g>
        </g>
      </g>
    </g>
  </g>
</svg>
