<svg xmlns="http://www.w3.org/2000/svg" xmlns:xlink="http://www.w3.org/1999/xlink" width="85" height="85" viewBox="0 0 85 85">
  <defs>
    <clipPath id="clip-path">
      <rect id="Rectángulo_401273" data-name="Rectángulo 401273" width="12.919" height="12.92" fill="#eef3bc"/>
    </clipPath>
    <clipPath id="clip-path-2">
      <path id="Trazado_873519" data-name="Trazado 873519" d="M12.919,6.46A6.46,6.46,0,1,1,6.46,0a6.46,6.46,0,0,1,6.46,6.46" fill="#eef3bc"/>
    </clipPath>
  </defs>
  <g id="Grupo_1119780" data-name="Grupo 1119780" transform="translate(3870 6172)">
    <rect id="Rectángulo_409320" data-name="Rectángulo 409320" width="85" height="85" rx="42.5" transform="translate(-3870 -6172)" fill="#fff"/>
    <g id="Grupo_1119330" data-name="Grupo 1119330" transform="translate(-3862.273 -6154.828)">
      <g id="Grupo_1099855" data-name="Grupo 1099855" transform="translate(0 0)">
        <g id="Grupo_1099808" data-name="Grupo 1099808" transform="translate(0 0)">
          <g id="Grupo_1101062" data-name="Grupo 1101062" transform="translate(0 28.556)">
            <g id="Grupo_1101056" data-name="Grupo 1101056" transform="translate(12.92) rotate(90)" opacity="0.998" style="isolation: isolate">
              <g id="Grupo_1099844" data-name="Grupo 1099844" transform="translate(0 0)">
                <g id="Grupo_1099843" data-name="Grupo 1099843" transform="translate(0 0)" clip-path="url(#clip-path)">
                  <g id="Grupo_1099842" data-name="Grupo 1099842" transform="translate(0 0)">
                    <g id="Grupo_1099841" data-name="Grupo 1099841" clip-path="url(#clip-path-2)">
                      <rect id="Rectángulo_401272" data-name="Rectángulo 401272" width="16.423" height="16.423" transform="translate(-3.979 11.549) rotate(-70.991)" fill="#eef3bc"/>
                    </g>
                  </g>
                </g>
              </g>
            </g>
            <g id="Grupo_1101057" data-name="Grupo 1101057" transform="translate(12.92 12.919) rotate(90)" opacity="0.998" style="isolation: isolate">
              <g id="Grupo_1099844-2" data-name="Grupo 1099844" transform="translate(0 0)">
                <g id="Grupo_1099843-2" data-name="Grupo 1099843" transform="translate(0 0)" clip-path="url(#clip-path)">
                  <g id="Grupo_1099842-2" data-name="Grupo 1099842" transform="translate(0 0)">
                    <g id="Grupo_1099841-2" data-name="Grupo 1099841" clip-path="url(#clip-path-2)">
                      <rect id="Rectángulo_401272-2" data-name="Rectángulo 401272" width="16.423" height="16.423" transform="translate(-3.979 11.549) rotate(-70.991)" fill="#eef3bc"/>
                    </g>
                  </g>
                </g>
              </g>
            </g>
            <g id="Grupo_1101058" data-name="Grupo 1101058" transform="translate(12.92 25.838) rotate(90)" opacity="0.998" style="isolation: isolate">
              <g id="Grupo_1099844-3" data-name="Grupo 1099844" transform="translate(0 0)">
                <g id="Grupo_1099843-3" data-name="Grupo 1099843" transform="translate(0 0)" clip-path="url(#clip-path)">
                  <g id="Grupo_1099842-3" data-name="Grupo 1099842" transform="translate(0 0)">
                    <g id="Grupo_1099841-3" data-name="Grupo 1099841" clip-path="url(#clip-path-2)">
                      <rect id="Rectángulo_401272-3" data-name="Rectángulo 401272" width="16.423" height="16.423" transform="translate(-3.979 11.549) rotate(-70.991)" fill="#eef3bc"/>
                    </g>
                  </g>
                </g>
              </g>
            </g>
            <g id="Grupo_1101059" data-name="Grupo 1101059" transform="translate(25.839 25.955) rotate(90)" opacity="0.998" style="isolation: isolate">
              <g id="Grupo_1099844-4" data-name="Grupo 1099844" transform="translate(0 0)">
                <g id="Grupo_1099843-4" data-name="Grupo 1099843" transform="translate(0 0)" clip-path="url(#clip-path)">
                  <g id="Grupo_1099842-4" data-name="Grupo 1099842" transform="translate(0 0)">
                    <g id="Grupo_1099841-4" data-name="Grupo 1099841" clip-path="url(#clip-path-2)">
                      <rect id="Rectángulo_401272-4" data-name="Rectángulo 401272" width="16.423" height="16.423" transform="translate(-3.979 11.549) rotate(-70.991)" fill="#eef3bc"/>
                    </g>
                  </g>
                </g>
              </g>
            </g>
            <g id="Grupo_1101060" data-name="Grupo 1101060" transform="translate(25.839 12.919) rotate(90)" opacity="0.998" style="isolation: isolate">
              <g id="Grupo_1099844-5" data-name="Grupo 1099844" transform="translate(0 0)">
                <g id="Grupo_1099843-5" data-name="Grupo 1099843" transform="translate(0 0)" clip-path="url(#clip-path)">
                  <g id="Grupo_1099842-5" data-name="Grupo 1099842" transform="translate(0 0)">
                    <g id="Grupo_1099841-5" data-name="Grupo 1099841" clip-path="url(#clip-path-2)">
                      <rect id="Rectángulo_401272-5" data-name="Rectángulo 401272" width="16.423" height="16.423" transform="translate(-3.979 11.549) rotate(-70.991)" fill="#eef3bc"/>
                    </g>
                  </g>
                </g>
              </g>
            </g>
            <g id="Grupo_1101061" data-name="Grupo 1101061" transform="translate(38.758 25.955) rotate(90)" opacity="0.998" style="isolation: isolate">
              <g id="Grupo_1099844-6" data-name="Grupo 1099844" transform="translate(0 0)">
                <g id="Grupo_1099843-6" data-name="Grupo 1099843" transform="translate(0 0)" clip-path="url(#clip-path)">
                  <g id="Grupo_1099842-6" data-name="Grupo 1099842" transform="translate(0 0)">
                    <g id="Grupo_1099841-6" data-name="Grupo 1099841" clip-path="url(#clip-path-2)">
                      <rect id="Rectángulo_401272-6" data-name="Rectángulo 401272" width="16.423" height="16.423" transform="translate(-3.979 11.549) rotate(-70.991)" fill="#eef3bc"/>
                    </g>
                  </g>
                </g>
              </g>
            </g>
          </g>
          <g id="Grupo_1099776" data-name="Grupo 1099776" transform="translate(10.368 0)">
            <g id="Grupo_1099618" data-name="Grupo 1099618" transform="translate(0 0)">
              <rect id="Rectángulo_401104" data-name="Rectángulo 401104" width="49.646" height="50.244" transform="translate(0)" fill="none"/>
            </g>
            <g id="Grupo_1099776-2" data-name="Grupo 1099776" transform="translate(3.005 2.036)">
              <g id="Grupo_1099618-2" data-name="Grupo 1099618" transform="translate(-0.403 -0.389)">
                <rect id="Rectángulo_401104-2" data-name="Rectángulo 401104" width="46.587" height="47.148" transform="translate(0)" fill="none"/>
              </g>
              <g id="stable2" transform="translate(-2.075 -2.001)">
                <path id="Trazado_906778" data-name="Trazado 906778" d="M34.017,19.447V18.407H31.935a2.084,2.084,0,0,1-2.081-2.081V15.285A2.084,2.084,0,0,1,31.935,13.2a1.041,1.041,0,0,1,2.081,0h1.041a1.041,1.041,0,1,1,0,2.081H31.935v1.041h2.081A2.084,2.084,0,0,1,36.1,18.407v1.041a2.084,2.084,0,0,1-2.081,2.081,1.041,1.041,0,0,1-2.081,0H30.895a1.041,1.041,0,1,1,0-2.081ZM23.61,17.366a9.366,9.366,0,1,1,9.366,9.366,9.366,9.366,0,0,1-9.366-9.366Zm2.081,0a7.285,7.285,0,1,0,7.285-7.285A7.285,7.285,0,0,0,25.691,17.366ZM36.1,41.3a1.04,1.04,0,0,1,1.041,1.041V52.749A1.04,1.04,0,0,1,36.1,53.789H29.854a1.04,1.04,0,0,1-1.041-1.041V42.342A1.04,1.04,0,0,1,29.854,41.3Zm-1.041,2.081H30.895v8.325h4.163ZM25.691,41.3a1.04,1.04,0,0,1,1.041,1.041V52.749a1.04,1.04,0,0,1-1.041,1.041H19.447a1.04,1.04,0,0,1-1.041-1.041V42.342A1.04,1.04,0,0,1,19.447,41.3Zm-1.041,2.081H20.488v8.325h4.163ZM8,52.749V42.342A1.04,1.04,0,0,1,9.041,41.3h6.244a1.04,1.04,0,0,1,1.041,1.041V52.749a1.04,1.04,0,0,1-1.041,1.041H9.041A1.04,1.04,0,0,1,8,52.749Zm2.081-1.041h4.163V43.383H10.081Zm47.871-9.366V52.749a1.04,1.04,0,0,1-1.041,1.041H50.667a1.04,1.04,0,0,1-1.041-1.041V42.342A1.04,1.04,0,0,1,50.667,41.3h6.244a1.04,1.04,0,0,1,1.041,1.041Zm-2.081,1.041H51.708v8.325h4.163ZM46.5,41.3a1.04,1.04,0,0,1,1.041,1.041V52.749A1.04,1.04,0,0,1,46.5,53.789H40.261a1.04,1.04,0,0,1-1.041-1.041V42.342A1.04,1.04,0,0,1,40.261,41.3Zm-1.041,2.081H41.3v8.325h4.163ZM56.911,55.871H9.041a1.041,1.041,0,1,0,0,2.081H56.911a1.041,1.041,0,0,0,0-2.081ZM9.041,34.017a1.04,1.04,0,0,1,1.041-1.041h38.5V29.854a1.041,1.041,0,0,1,1.618-.866l6.244,4.163a1.041,1.041,0,0,1,0,1.732L50.2,39.045a1.041,1.041,0,0,1-1.618-.866V35.057h-38.5a1.04,1.04,0,0,1-1.041-1.041Zm41.627,2.219,3.327-2.219L50.667,31.8Z" transform="translate(-8 -8)" fill="#4c5066"/>
              </g>
            </g>
          </g>
        </g>
      </g>
    </g>
  </g>
</svg>
