<svg xmlns="http://www.w3.org/2000/svg" xmlns:xlink="http://www.w3.org/1999/xlink" width="85" height="85" viewBox="0 0 85 85">
  <defs>
    <clipPath id="clip-path">
      <rect id="Rectángulo_401273" data-name="Rectángulo 401273" width="12.919" height="12.92" fill="#eef3bc"/>
    </clipPath>
    <clipPath id="clip-path-2">
      <path id="Trazado_873519" data-name="Trazado 873519" d="M12.919,6.46A6.46,6.46,0,1,1,6.46,0a6.46,6.46,0,0,1,6.46,6.46" fill="#eef3bc"/>
    </clipPath>
  </defs>
  <g id="Grupo_1119791" data-name="Grupo 1119791" transform="translate(3870 6172)">
    <rect id="Rectángulo_409320" data-name="Rectángulo 409320" width="85" height="85" rx="42.5" transform="translate(-3870 -6172)" fill="#fff"/>
    <g id="Grupo_1119330" data-name="Grupo 1119330" transform="translate(-3862.273 -6154.828)">
      <g id="Grupo_1099855" data-name="Grupo 1099855" transform="translate(0 0)">
        <g id="Grupo_1099808" data-name="Grupo 1099808" transform="translate(0 0)">
          <g id="Grupo_1101062" data-name="Grupo 1101062" transform="translate(0 28.556)">
            <g id="Grupo_1101056" data-name="Grupo 1101056" transform="translate(12.92) rotate(90)" opacity="0.998" style="isolation: isolate">
              <g id="Grupo_1099844" data-name="Grupo 1099844" transform="translate(0 0)">
                <g id="Grupo_1099843" data-name="Grupo 1099843" transform="translate(0 0)" clip-path="url(#clip-path)">
                  <g id="Grupo_1099842" data-name="Grupo 1099842" transform="translate(0 0)">
                    <g id="Grupo_1099841" data-name="Grupo 1099841" clip-path="url(#clip-path-2)">
                      <rect id="Rectángulo_401272" data-name="Rectángulo 401272" width="16.423" height="16.423" transform="translate(-3.979 11.549) rotate(-70.991)" fill="#eef3bc"/>
                    </g>
                  </g>
                </g>
              </g>
            </g>
            <g id="Grupo_1101057" data-name="Grupo 1101057" transform="translate(12.92 12.919) rotate(90)" opacity="0.998" style="isolation: isolate">
              <g id="Grupo_1099844-2" data-name="Grupo 1099844" transform="translate(0 0)">
                <g id="Grupo_1099843-2" data-name="Grupo 1099843" transform="translate(0 0)" clip-path="url(#clip-path)">
                  <g id="Grupo_1099842-2" data-name="Grupo 1099842" transform="translate(0 0)">
                    <g id="Grupo_1099841-2" data-name="Grupo 1099841" clip-path="url(#clip-path-2)">
                      <rect id="Rectángulo_401272-2" data-name="Rectángulo 401272" width="16.423" height="16.423" transform="translate(-3.979 11.549) rotate(-70.991)" fill="#eef3bc"/>
                    </g>
                  </g>
                </g>
              </g>
            </g>
            <g id="Grupo_1101058" data-name="Grupo 1101058" transform="translate(12.92 25.838) rotate(90)" opacity="0.998" style="isolation: isolate">
              <g id="Grupo_1099844-3" data-name="Grupo 1099844" transform="translate(0 0)">
                <g id="Grupo_1099843-3" data-name="Grupo 1099843" transform="translate(0 0)" clip-path="url(#clip-path)">
                  <g id="Grupo_1099842-3" data-name="Grupo 1099842" transform="translate(0 0)">
                    <g id="Grupo_1099841-3" data-name="Grupo 1099841" clip-path="url(#clip-path-2)">
                      <rect id="Rectángulo_401272-3" data-name="Rectángulo 401272" width="16.423" height="16.423" transform="translate(-3.979 11.549) rotate(-70.991)" fill="#eef3bc"/>
                    </g>
                  </g>
                </g>
              </g>
            </g>
            <g id="Grupo_1101059" data-name="Grupo 1101059" transform="translate(25.839 25.955) rotate(90)" opacity="0.998" style="isolation: isolate">
              <g id="Grupo_1099844-4" data-name="Grupo 1099844" transform="translate(0 0)">
                <g id="Grupo_1099843-4" data-name="Grupo 1099843" transform="translate(0 0)" clip-path="url(#clip-path)">
                  <g id="Grupo_1099842-4" data-name="Grupo 1099842" transform="translate(0 0)">
                    <g id="Grupo_1099841-4" data-name="Grupo 1099841" clip-path="url(#clip-path-2)">
                      <rect id="Rectángulo_401272-4" data-name="Rectángulo 401272" width="16.423" height="16.423" transform="translate(-3.979 11.549) rotate(-70.991)" fill="#eef3bc"/>
                    </g>
                  </g>
                </g>
              </g>
            </g>
            <g id="Grupo_1101060" data-name="Grupo 1101060" transform="translate(25.839 12.919) rotate(90)" opacity="0.998" style="isolation: isolate">
              <g id="Grupo_1099844-5" data-name="Grupo 1099844" transform="translate(0 0)">
                <g id="Grupo_1099843-5" data-name="Grupo 1099843" transform="translate(0 0)" clip-path="url(#clip-path)">
                  <g id="Grupo_1099842-5" data-name="Grupo 1099842" transform="translate(0 0)">
                    <g id="Grupo_1099841-5" data-name="Grupo 1099841" clip-path="url(#clip-path-2)">
                      <rect id="Rectángulo_401272-5" data-name="Rectángulo 401272" width="16.423" height="16.423" transform="translate(-3.979 11.549) rotate(-70.991)" fill="#eef3bc"/>
                    </g>
                  </g>
                </g>
              </g>
            </g>
            <g id="Grupo_1101061" data-name="Grupo 1101061" transform="translate(38.758 25.955) rotate(90)" opacity="0.998" style="isolation: isolate">
              <g id="Grupo_1099844-6" data-name="Grupo 1099844" transform="translate(0 0)">
                <g id="Grupo_1099843-6" data-name="Grupo 1099843" transform="translate(0 0)" clip-path="url(#clip-path)">
                  <g id="Grupo_1099842-6" data-name="Grupo 1099842" transform="translate(0 0)">
                    <g id="Grupo_1099841-6" data-name="Grupo 1099841" clip-path="url(#clip-path-2)">
                      <rect id="Rectángulo_401272-6" data-name="Rectángulo 401272" width="16.423" height="16.423" transform="translate(-3.979 11.549) rotate(-70.991)" fill="#eef3bc"/>
                    </g>
                  </g>
                </g>
              </g>
            </g>
          </g>
          <g id="Grupo_1099776" data-name="Grupo 1099776" transform="translate(10.368 0)">
            <g id="Grupo_1099618" data-name="Grupo 1099618" transform="translate(0 0)">
              <rect id="Rectángulo_401104" data-name="Rectángulo 401104" width="49.646" height="50.244" transform="translate(0)" fill="none"/>
            </g>
            <g id="Grupo_1119809" data-name="Grupo 1119809" transform="translate(-14.844 -1.017)">
              <path id="Trazado_906827" data-name="Trazado 906827" d="M269.749,118.395a.792.792,0,0,0,1.068-.2l9.236-13.608a.769.769,0,1,0-1.272-.863l-9.236,13.608A.769.769,0,0,0,269.749,118.395Z" transform="translate(-228.351 -92.786)" fill="#4c5066"/>
              <path id="Trazado_906828" data-name="Trazado 906828" d="M345.373,188.84c1.6,0,2.9-1.6,2.9-3.566-.164-4.733-5.639-4.732-5.8,0C342.472,187.24,343.774,188.84,345.373,188.84Zm0-5.595c.739,0,1.364.929,1.364,2.029s-.625,2.029-1.364,2.029-1.364-.929-1.364-2.029S344.634,183.245,345.373,183.245Z" transform="translate(-293.923 -163.099)" fill="#4c5066"/>
              <path id="Trazado_906829" data-name="Trazado 906829" d="M249.659,106.949c0-1.966-1.3-3.566-2.9-3.566-3.848.19-3.846,6.943,0,7.132C248.358,110.515,249.659,108.915,249.659,106.949Zm-4.265,0c0-1.1.625-2.029,1.364-2.029s1.364.929,1.364,2.029-.625,2.029-1.364,2.029S245.394,108.049,245.394,106.949Z" transform="translate(-205.429 -92.787)" fill="#4c5066"/>
              <path id="Trazado_906830" data-name="Trazado 906830" d="M40.931,35.457c18.867,5.624,31.929-18,17.237-31.046a.769.769,0,0,0-1,1.165C70.8,17.725,58.293,39.555,40.931,33.837V28.613c0-.659-.4-1.587-2.3-2.264a14.87,14.87,0,0,0-6.928-.522C24.457,11.676,39.293-3.65,53.631,3.245a.769.769,0,0,0,.675-1.381C38.84-5.591,22.682,10.706,30.146,26.143c-.23.063-.451.131-.659.206-1.9.678-2.3,1.606-2.3,2.264V33.73a12.438,12.438,0,0,0-5.324-1,.769.769,0,0,0,0,1.537,12.537,12.537,0,0,1,4.051.594c1.053.376,1.275.756,1.275.816s-.222.44-1.277.816a12.889,12.889,0,0,1-8.114,0c-1.055-.377-1.277-.757-1.277-.816s.27-.508,1.552-.907a.769.769,0,0,0-.457-1.468c-2.175.678-2.632,1.666-2.632,2.375v13.9c0,.659.4,1.587,2.3,2.264a14.43,14.43,0,0,0,9.147,0,5.015,5.015,0,0,0,1.529-.814,5.015,5.015,0,0,0,1.529.814,14.43,14.43,0,0,0,9.148,0,5.015,5.015,0,0,0,1.529-.814,5.015,5.015,0,0,0,1.529.814,14.43,14.43,0,0,0,9.147,0c1.9-.678,2.3-1.606,2.3-2.264V42.621c0-.659-.4-1.587-2.3-2.264a14.43,14.43,0,0,0-9.147,0,6.67,6.67,0,0,0-.76.322c0-1,0-3.976,0-5.022,0-.028,0-.17,0-.2ZM51.6,46.1c0,.059-.222.44-1.277.816a12.889,12.889,0,0,1-8.114,0c-1.055-.377-1.277-.757-1.277-.816V44.563a6.687,6.687,0,0,0,.76.322,14.43,14.43,0,0,0,9.147,0,6.668,6.668,0,0,0,.76-.322ZM39.394,32.088c0,.059-.222.44-1.277.816A12.888,12.888,0,0,1,30,32.9c-1.055-.377-1.277-.757-1.277-.816V30.556a6.687,6.687,0,0,0,.76.322,14.43,14.43,0,0,0,9.148,0,6.669,6.669,0,0,0,.76-.322Zm-9.908,2.264a14.017,14.017,0,0,0,9.908-.322v1.587c0,.059-.222.44-1.277.817a12.89,12.89,0,0,1-8.114,0c-1.055-.377-1.277-.757-1.277-.817V34.03A6.68,6.68,0,0,0,29.486,34.352Zm-2.3,8.269c0,.059-.222.44-1.277.817a12.889,12.889,0,0,1-8.114,0c-1.055-.377-1.277-.757-1.277-.817V41.089a6.686,6.686,0,0,0,.76.322,14.43,14.43,0,0,0,9.147,0,6.669,6.669,0,0,0,.76-.322ZM16.52,44.563a6.688,6.688,0,0,0,.76.322,14.43,14.43,0,0,0,9.147,0,6.668,6.668,0,0,0,.76-.322V46.1c0,.059-.222.44-1.277.816a12.889,12.889,0,0,1-8.114,0c-1.055-.377-1.277-.757-1.277-.816Zm12.205,0a6.688,6.688,0,0,0,.76.322,14.43,14.43,0,0,0,9.148,0,6.668,6.668,0,0,0,.76-.322V46.1c0,.059-.222.44-1.277.816a12.888,12.888,0,0,1-8.114,0c-1.055-.377-1.277-.757-1.277-.816Zm9.391-1.126a12.89,12.89,0,0,1-8.114,0c-1.055-.377-1.277-.757-1.277-.817V41.089a6.687,6.687,0,0,0,.76.322,14.43,14.43,0,0,0,9.148,0,6.669,6.669,0,0,0,.76-.322v1.532C39.394,42.68,39.172,43.061,38.117,43.438Zm1.277-4.291c0,.059-.222.44-1.277.816a12.89,12.89,0,0,1-8.114,0c-1.055-.377-1.277-.757-1.277-.816V37.559a6.687,6.687,0,0,0,.76.322,14.43,14.43,0,0,0,9.148,0,6.668,6.668,0,0,0,.76-.322ZM30,27.8a12.893,12.893,0,0,1,8.114,0c1.055.377,1.277.757,1.277.816s-.222.44-1.277.817a12.89,12.89,0,0,1-8.114,0c-1.055-.377-1.277-.757-1.277-.817S28.948,28.173,30,27.8ZM17.281,37.937a14.017,14.017,0,0,0,9.908-.322v1.532c0,.059-.222.44-1.277.816a12.889,12.889,0,0,1-8.114,0c-1.055-.377-1.277-.757-1.277-.816V37.615A6.673,6.673,0,0,0,17.281,37.937Zm8.631,12.45a12.889,12.889,0,0,1-8.114,0c-1.055-.377-1.277-.757-1.277-.816V48.038a13.741,13.741,0,0,0,10.668,0V49.57C27.188,49.629,26.966,50.01,25.911,50.386Zm12.206,0a12.89,12.89,0,0,1-8.114,0c-1.055-.377-1.277-.757-1.277-.816V48.038a13.741,13.741,0,0,0,10.668,0V49.57C39.394,49.629,39.172,50.01,38.117,50.386Zm12.205,0a12.889,12.889,0,0,1-8.114,0c-1.055-.377-1.277-.757-1.277-.816V48.038a13.741,13.741,0,0,0,10.668,0V49.57C51.6,49.629,51.377,50.01,50.322,50.386ZM42.209,41.8a12.889,12.889,0,0,1,8.114,0c1.055.377,1.277.757,1.277.816s-.222.44-1.277.817a12.889,12.889,0,0,1-8.114,0c-1.055-.377-1.277-.757-1.277-.817S41.153,42.181,42.209,41.8Z" transform="translate(0 0)" fill="#4c5066"/>
            </g>
          </g>
        </g>
      </g>
    </g>
  </g>
</svg>
