<svg xmlns="http://www.w3.org/2000/svg" xmlns:xlink="http://www.w3.org/1999/xlink" width="85" height="85" viewBox="0 0 85 85">
  <defs>
    <clipPath id="clip-path">
      <rect id="Rectángulo_401273" data-name="Rectángulo 401273" width="12.919" height="12.92" fill="#eef3bc"/>
    </clipPath>
    <clipPath id="clip-path-2">
      <path id="Trazado_873519" data-name="Trazado 873519" d="M12.919,6.46A6.46,6.46,0,1,1,6.46,0a6.46,6.46,0,0,1,6.46,6.46" fill="#eef3bc"/>
    </clipPath>
  </defs>
  <g id="Grupo_1119794" data-name="Grupo 1119794" transform="translate(3870 6172)">
    <rect id="Rectángulo_409320" data-name="Rectángulo 409320" width="85" height="85" rx="42.5" transform="translate(-3870 -6172)" fill="#fff"/>
    <g id="Grupo_1119330" data-name="Grupo 1119330" transform="translate(-3862.273 -6154.828)">
      <g id="Grupo_1099855" data-name="Grupo 1099855" transform="translate(0 0)">
        <g id="Grupo_1099808" data-name="Grupo 1099808" transform="translate(0 0)">
          <g id="Grupo_1101062" data-name="Grupo 1101062" transform="translate(0 28.556)">
            <g id="Grupo_1101056" data-name="Grupo 1101056" transform="translate(12.92) rotate(90)" opacity="0.998" style="isolation: isolate">
              <g id="Grupo_1099844" data-name="Grupo 1099844" transform="translate(0 0)">
                <g id="Grupo_1099843" data-name="Grupo 1099843" transform="translate(0 0)" clip-path="url(#clip-path)">
                  <g id="Grupo_1099842" data-name="Grupo 1099842" transform="translate(0 0)">
                    <g id="Grupo_1099841" data-name="Grupo 1099841" clip-path="url(#clip-path-2)">
                      <rect id="Rectángulo_401272" data-name="Rectángulo 401272" width="16.423" height="16.423" transform="translate(-3.979 11.549) rotate(-70.991)" fill="#eef3bc"/>
                    </g>
                  </g>
                </g>
              </g>
            </g>
            <g id="Grupo_1101057" data-name="Grupo 1101057" transform="translate(12.92 12.919) rotate(90)" opacity="0.998" style="isolation: isolate">
              <g id="Grupo_1099844-2" data-name="Grupo 1099844" transform="translate(0 0)">
                <g id="Grupo_1099843-2" data-name="Grupo 1099843" transform="translate(0 0)" clip-path="url(#clip-path)">
                  <g id="Grupo_1099842-2" data-name="Grupo 1099842" transform="translate(0 0)">
                    <g id="Grupo_1099841-2" data-name="Grupo 1099841" clip-path="url(#clip-path-2)">
                      <rect id="Rectángulo_401272-2" data-name="Rectángulo 401272" width="16.423" height="16.423" transform="translate(-3.979 11.549) rotate(-70.991)" fill="#eef3bc"/>
                    </g>
                  </g>
                </g>
              </g>
            </g>
            <g id="Grupo_1101058" data-name="Grupo 1101058" transform="translate(12.92 25.838) rotate(90)" opacity="0.998" style="isolation: isolate">
              <g id="Grupo_1099844-3" data-name="Grupo 1099844" transform="translate(0 0)">
                <g id="Grupo_1099843-3" data-name="Grupo 1099843" transform="translate(0 0)" clip-path="url(#clip-path)">
                  <g id="Grupo_1099842-3" data-name="Grupo 1099842" transform="translate(0 0)">
                    <g id="Grupo_1099841-3" data-name="Grupo 1099841" clip-path="url(#clip-path-2)">
                      <rect id="Rectángulo_401272-3" data-name="Rectángulo 401272" width="16.423" height="16.423" transform="translate(-3.979 11.549) rotate(-70.991)" fill="#eef3bc"/>
                    </g>
                  </g>
                </g>
              </g>
            </g>
            <g id="Grupo_1101059" data-name="Grupo 1101059" transform="translate(25.839 25.955) rotate(90)" opacity="0.998" style="isolation: isolate">
              <g id="Grupo_1099844-4" data-name="Grupo 1099844" transform="translate(0 0)">
                <g id="Grupo_1099843-4" data-name="Grupo 1099843" transform="translate(0 0)" clip-path="url(#clip-path)">
                  <g id="Grupo_1099842-4" data-name="Grupo 1099842" transform="translate(0 0)">
                    <g id="Grupo_1099841-4" data-name="Grupo 1099841" clip-path="url(#clip-path-2)">
                      <rect id="Rectángulo_401272-4" data-name="Rectángulo 401272" width="16.423" height="16.423" transform="translate(-3.979 11.549) rotate(-70.991)" fill="#eef3bc"/>
                    </g>
                  </g>
                </g>
              </g>
            </g>
            <g id="Grupo_1101060" data-name="Grupo 1101060" transform="translate(25.839 12.919) rotate(90)" opacity="0.998" style="isolation: isolate">
              <g id="Grupo_1099844-5" data-name="Grupo 1099844" transform="translate(0 0)">
                <g id="Grupo_1099843-5" data-name="Grupo 1099843" transform="translate(0 0)" clip-path="url(#clip-path)">
                  <g id="Grupo_1099842-5" data-name="Grupo 1099842" transform="translate(0 0)">
                    <g id="Grupo_1099841-5" data-name="Grupo 1099841" clip-path="url(#clip-path-2)">
                      <rect id="Rectángulo_401272-5" data-name="Rectángulo 401272" width="16.423" height="16.423" transform="translate(-3.979 11.549) rotate(-70.991)" fill="#eef3bc"/>
                    </g>
                  </g>
                </g>
              </g>
            </g>
            <g id="Grupo_1101061" data-name="Grupo 1101061" transform="translate(38.758 25.955) rotate(90)" opacity="0.998" style="isolation: isolate">
              <g id="Grupo_1099844-6" data-name="Grupo 1099844" transform="translate(0 0)">
                <g id="Grupo_1099843-6" data-name="Grupo 1099843" transform="translate(0 0)" clip-path="url(#clip-path)">
                  <g id="Grupo_1099842-6" data-name="Grupo 1099842" transform="translate(0 0)">
                    <g id="Grupo_1099841-6" data-name="Grupo 1099841" clip-path="url(#clip-path-2)">
                      <rect id="Rectángulo_401272-6" data-name="Rectángulo 401272" width="16.423" height="16.423" transform="translate(-3.979 11.549) rotate(-70.991)" fill="#eef3bc"/>
                    </g>
                  </g>
                </g>
              </g>
            </g>
          </g>
          <g id="Grupo_1099776" data-name="Grupo 1099776" transform="translate(10.368 0)">
            <g id="Grupo_1099618" data-name="Grupo 1099618" transform="translate(0 0)">
              <rect id="Rectángulo_401104" data-name="Rectángulo 401104" width="49.646" height="50.244" transform="translate(0)" fill="none"/>
            </g>
            <g id="Grupo_1119800" data-name="Grupo 1119800" transform="translate(0.622 0.135)">
              <g id="Grupo_1099618-2" data-name="Grupo 1099618" transform="translate(0 -0.022)">
                <rect id="Rectángulo_401104-2" data-name="Rectángulo 401104" width="48.54" height="49.125" transform="translate(0)" fill="none"/>
              </g>
              <path id="Trazado_906866" data-name="Trazado 906866" d="M39.13,45.863c-.708,1.88-4.781,5.033-5.791,2.551l-3.956-9.694a.379.379,0,0,1-.025-.076,1.446,1.446,0,0,1,.736-1.784c1.315-.875,4.3-1.192,5.357-.431l.761-.618c2.353-1.964,3.908-2.68,6.144-2.8a11.748,11.748,0,0,1-.439-4.938c.349-3.144,2.675-6.353,4.7-8.994a1.923,1.923,0,0,1-.529-2.138,2.109,2.109,0,0,1-.711-3.214,2.344,2.344,0,0,1,.487-3.718A2.538,2.538,0,0,1,47.8,6.195L45.794,2.81A1.182,1.182,0,0,1,46.427.938c1.27-.448,3.808.224,5.3.875A5.634,5.634,0,0,1,55.89-.009a1.9,1.9,0,0,1,1.752,2.448l-.21,1.278c2.266.425,2.817,1.164,4.277,2.2a1.66,1.66,0,0,1,1.449-1.133l4.661-.433a1.571,1.571,0,0,1,1.656,1.6V19.092a1.568,1.568,0,0,1-1.676,1.6l-4.661-.567a1.643,1.643,0,0,1-1.5-1.6v-.268a17.6,17.6,0,0,1-2.49,1.267c2.159,2.5,3.911,4.848,4.317,8.259a11.739,11.739,0,0,1-1.421,7.657c3.144-.674,5.014,2.071,2.252,3.713l-5.88,3.5c-.3.182-2.258.9-4.219,1.561a39.331,39.331,0,0,1-4.02,1.192v0l-11,.45a.271.271,0,0,0-.047,0Zm-1.354-.044-3.475-8.5c0-.009-.881.14-1.8.3a4.484,4.484,0,0,0-1.569.517c-.059.039-.134-.011-.14,0l3.959,9.7c.014.034,0-.047.034-.053a4.116,4.116,0,0,0,1.385-.73C36.984,46.456,37.785,45.838,37.776,45.819Zm6.2-12.807c1.177.05,2.778.212,4.417.378,3.038.3,2.985,3.547.465,4.442a10.974,10.974,0,0,0,1.978.593,24.172,24.172,0,0,0,3.51.078l4.712-1.922a7.917,7.917,0,0,0,2.453-3.556,11.256,11.256,0,0,0,.436-5.064c-.386-3.259-2.249-5.5-4.373-7.926a16.6,16.6,0,0,1-5.819.112c-.926-.087-1.941-.182-3.12-.235a.657.657,0,0,1-.076-.006,5.2,5.2,0,0,1-.566-.114c-1.891,2.456-4.244,5.595-4.56,8.449a9.97,9.97,0,0,0,.541,4.771ZM36.4,37.63c-.081.064-.162.128-.244.188l2.672,6.543a2.867,2.867,0,0,1,.294-.026c.459-.02,4.113-.165,7.173-.291,1.566-.064,2.987-.123,3.754-.157.787-.182,2.235-.638,3.667-1.119,1.886-.633,3.7-1.29,3.925-1.424l5.88-3.5c.366-.218.657-.487.57-.618a.649.649,0,0,0-.235-.185,2.56,2.56,0,0,0-2.051.067l-6.885,2.809a7.71,7.71,0,0,1-2.182.14,22.749,22.749,0,0,1-2.842-.232l-7.209-1.92a.762.762,0,0,1,.213-1.5l4.625.11c1.234.028,1.827-.775,1.631-1.189-.171-.355-.733-.4-1.228-.453-5.752-.576-7.327-.736-10.732,2.109-.288.238-.552.453-.8.646Zm1.449-22.909A.766.766,0,0,1,38.928,15.8l-7.934,7.934a.766.766,0,1,1-1.083-1.083Zm-4.608-.129a2.56,2.56,0,1,1-3.62,0A2.562,2.562,0,0,1,33.238,14.592Zm-.781,1.81a1.029,1.029,0,1,0-1.029,1.029A1.03,1.03,0,0,0,32.457,16.4Zm6.765,3.841a2.56,2.56,0,1,1-3.62,0A2.562,2.562,0,0,1,39.223,20.243Zm-.781,1.81a1.029,1.029,0,1,0-1.029,1.029,1.03,1.03,0,0,0,1.029-1.029ZM34.421,9.887a9.343,9.343,0,1,1-9.341,9.341,9.342,9.342,0,0,1,9.341-9.341Zm5.523,3.818a7.812,7.812,0,1,0,0,11.048A7.809,7.809,0,0,0,39.944,13.705ZM67.919,5.872,63.295,6.3c-.047.006-.126.031-.126.081l.008,12.167a.234.234,0,0,0,.14.059l4.608.563.02-.076V5.95Zm-18.343.322a16.9,16.9,0,0,0,4.462-.364,2.422,2.422,0,0,0,1.676-1.069L56.136,2.2c.084-.517,0-.651-.378-.685A3.936,3.936,0,0,0,52.7,3.052a.763.763,0,0,1-1.066.409,10.128,10.128,0,0,0-4.356-1.139Zm2.316,12.438c3.458.322,5.6.523,9.747-2.176V7.7a19.036,19.036,0,0,1-1.606-1.125,5.8,5.8,0,0,0-2.848-1.348c-.784,2.333-4.846,2.5-6.708,2.5L48.013,7.71a1.019,1.019,0,0,0-.9,1.421c.168.344.621.613,1.458.613v1.525H47.028a.782.782,0,0,0-.767,1.108.707.707,0,0,0,.633.416,2.072,2.072,0,0,1,.54.011.765.765,0,0,1-.177,1.52H47.03a.805.805,0,0,0-.52,1.029c.134.229.5.4,1.206.395a1.213,1.213,0,0,1,.148-.006.765.765,0,0,1,0,1.531.361.361,0,0,0-.336.532,1.745,1.745,0,0,0,1.223.587c1.171.055,2.2.15,3.141.24ZM53.546,33.66v.7a.765.765,0,1,1-1.531,0v-.7c-1.5-.241-2.949-1.267-2.949-2.812a.765.765,0,0,1,1.531,0c0,1.153,2.428,1.869,3.827.868a1.121,1.121,0,0,0,.54-.868c0-.959-1.156-1.156-2.308-1.351-1.8-.3-3.589-.613-3.589-2.859,0-1.545,1.452-2.571,2.949-2.812v-.7a.765.765,0,1,1,1.531,0v.7c1.5.241,2.949,1.267,2.949,2.812a.765.765,0,0,1-1.531,0c0-1.153-2.428-1.869-3.827-.87a1.13,1.13,0,0,0-.54.87c0,.959,1.156,1.156,2.308,1.351,1.8.3,3.589.61,3.589,2.859,0,1.545-1.452,2.572-2.949,2.812Z" transform="translate(-23.008 -0.114)" fill="#4c5066"/>
            </g>
          </g>
        </g>
      </g>
    </g>
  </g>
</svg>
