<svg xmlns="http://www.w3.org/2000/svg" xmlns:xlink="http://www.w3.org/1999/xlink" width="85" height="85" viewBox="0 0 85 85">
  <defs>
    <clipPath id="clip-path">
      <rect id="Rectángulo_401273" data-name="Rectángulo 401273" width="12.919" height="12.92" fill="#eef3bc"/>
    </clipPath>
    <clipPath id="clip-path-2">
      <path id="Trazado_873519" data-name="Trazado 873519" d="M12.919,6.46A6.46,6.46,0,1,1,6.46,0a6.46,6.46,0,0,1,6.46,6.46" fill="#eef3bc"/>
    </clipPath>
  </defs>
  <g id="Grupo_1119789" data-name="Grupo 1119789" transform="translate(3870 6172)">
    <path id="Trazado_906868" data-name="Trazado 906868" d="M42.5,0A42.5,42.5,0,1,1,0,42.5,42.5,42.5,0,0,1,42.5,0Z" transform="translate(-3870 -6172)" fill="#fff"/>
    <g id="Grupo_1119330" data-name="Grupo 1119330" transform="translate(-3862.273 -6154.828)">
      <g id="Grupo_1099855" data-name="Grupo 1099855" transform="translate(0 0)">
        <g id="Grupo_1099808" data-name="Grupo 1099808" transform="translate(0 0)">
          <g id="Grupo_1101062" data-name="Grupo 1101062" transform="translate(0 28.556)">
            <g id="Grupo_1101056" data-name="Grupo 1101056" transform="translate(12.92) rotate(90)" opacity="0.998" style="isolation: isolate">
              <g id="Grupo_1099844" data-name="Grupo 1099844" transform="translate(0 0)">
                <g id="Grupo_1099843" data-name="Grupo 1099843" transform="translate(0 0)" clip-path="url(#clip-path)">
                  <g id="Grupo_1099842" data-name="Grupo 1099842" transform="translate(0 0)">
                    <g id="Grupo_1099841" data-name="Grupo 1099841" clip-path="url(#clip-path-2)">
                      <rect id="Rectángulo_401272" data-name="Rectángulo 401272" width="16.423" height="16.423" transform="translate(-3.979 11.549) rotate(-70.991)" fill="#eef3bc"/>
                    </g>
                  </g>
                </g>
              </g>
            </g>
            <g id="Grupo_1101057" data-name="Grupo 1101057" transform="translate(12.92 12.919) rotate(90)" opacity="0.998" style="isolation: isolate">
              <g id="Grupo_1099844-2" data-name="Grupo 1099844" transform="translate(0 0)">
                <g id="Grupo_1099843-2" data-name="Grupo 1099843" transform="translate(0 0)" clip-path="url(#clip-path)">
                  <g id="Grupo_1099842-2" data-name="Grupo 1099842" transform="translate(0 0)">
                    <g id="Grupo_1099841-2" data-name="Grupo 1099841" clip-path="url(#clip-path-2)">
                      <rect id="Rectángulo_401272-2" data-name="Rectángulo 401272" width="16.423" height="16.423" transform="translate(-3.979 11.549) rotate(-70.991)" fill="#eef3bc"/>
                    </g>
                  </g>
                </g>
              </g>
            </g>
            <g id="Grupo_1101058" data-name="Grupo 1101058" transform="translate(12.92 25.838) rotate(90)" opacity="0.998" style="isolation: isolate">
              <g id="Grupo_1099844-3" data-name="Grupo 1099844" transform="translate(0 0)">
                <g id="Grupo_1099843-3" data-name="Grupo 1099843" transform="translate(0 0)" clip-path="url(#clip-path)">
                  <g id="Grupo_1099842-3" data-name="Grupo 1099842" transform="translate(0 0)">
                    <g id="Grupo_1099841-3" data-name="Grupo 1099841" clip-path="url(#clip-path-2)">
                      <rect id="Rectángulo_401272-3" data-name="Rectángulo 401272" width="16.423" height="16.423" transform="translate(-3.979 11.549) rotate(-70.991)" fill="#eef3bc"/>
                    </g>
                  </g>
                </g>
              </g>
            </g>
            <g id="Grupo_1101059" data-name="Grupo 1101059" transform="translate(25.839 25.955) rotate(90)" opacity="0.998" style="isolation: isolate">
              <g id="Grupo_1099844-4" data-name="Grupo 1099844" transform="translate(0 0)">
                <g id="Grupo_1099843-4" data-name="Grupo 1099843" transform="translate(0 0)" clip-path="url(#clip-path)">
                  <g id="Grupo_1099842-4" data-name="Grupo 1099842" transform="translate(0 0)">
                    <g id="Grupo_1099841-4" data-name="Grupo 1099841" clip-path="url(#clip-path-2)">
                      <rect id="Rectángulo_401272-4" data-name="Rectángulo 401272" width="16.423" height="16.423" transform="translate(-3.979 11.549) rotate(-70.991)" fill="#eef3bc"/>
                    </g>
                  </g>
                </g>
              </g>
            </g>
            <g id="Grupo_1101060" data-name="Grupo 1101060" transform="translate(25.839 12.919) rotate(90)" opacity="0.998" style="isolation: isolate">
              <g id="Grupo_1099844-5" data-name="Grupo 1099844" transform="translate(0 0)">
                <g id="Grupo_1099843-5" data-name="Grupo 1099843" transform="translate(0 0)" clip-path="url(#clip-path)">
                  <g id="Grupo_1099842-5" data-name="Grupo 1099842" transform="translate(0 0)">
                    <g id="Grupo_1099841-5" data-name="Grupo 1099841" clip-path="url(#clip-path-2)">
                      <rect id="Rectángulo_401272-5" data-name="Rectángulo 401272" width="16.423" height="16.423" transform="translate(-3.979 11.549) rotate(-70.991)" fill="#eef3bc"/>
                    </g>
                  </g>
                </g>
              </g>
            </g>
            <g id="Grupo_1101061" data-name="Grupo 1101061" transform="translate(38.758 25.955) rotate(90)" opacity="0.998" style="isolation: isolate">
              <g id="Grupo_1099844-6" data-name="Grupo 1099844" transform="translate(0 0)">
                <g id="Grupo_1099843-6" data-name="Grupo 1099843" transform="translate(0 0)" clip-path="url(#clip-path)">
                  <g id="Grupo_1099842-6" data-name="Grupo 1099842" transform="translate(0 0)">
                    <g id="Grupo_1099841-6" data-name="Grupo 1099841" clip-path="url(#clip-path-2)">
                      <rect id="Rectángulo_401272-6" data-name="Rectángulo 401272" width="16.423" height="16.423" transform="translate(-3.979 11.549) rotate(-70.991)" fill="#eef3bc"/>
                    </g>
                  </g>
                </g>
              </g>
            </g>
          </g>
          <g id="Grupo_1099776" data-name="Grupo 1099776" transform="translate(10.368 0)">
            <g id="Grupo_1099618" data-name="Grupo 1099618" transform="translate(0 0)">
              <rect id="Rectángulo_401104" data-name="Rectángulo 401104" width="49.646" height="50.244" transform="translate(0)" fill="none"/>
            </g>
            <g id="Grupo_1119807" data-name="Grupo 1119807" transform="translate(0 -5.213)">
              <path id="Trazado_906831" data-name="Trazado 906831" d="M117.325,87.857a2.4,2.4,0,1,0-1.916-.958l-3.94,5.506a2.391,2.391,0,0,0-2.379.524l-2.626-1.49a2.4,2.4,0,1,0-4.688,0l-2.626,1.49a2.395,2.395,0,1,0,.712,1.25l2.626-1.49a2.392,2.392,0,0,0,3.265,0l2.626,1.49a2.4,2.4,0,1,0,4.26-.936l3.94-5.506A2.391,2.391,0,0,0,117.325,87.857Zm0-3.357a.959.959,0,1,1-.959.959A.96.96,0,0,1,117.325,84.5ZM97.516,95.643a.959.959,0,1,1,.959-.959A.96.96,0,0,1,97.516,95.643Zm6.6-3.749a.959.959,0,1,1,.959-.959A.96.96,0,0,1,104.119,91.894Zm6.6,3.749a.959.959,0,1,1,.959-.959A.96.96,0,0,1,110.722,95.643Z" transform="translate(-85.994 -69.165)" fill="#4c5066"/>
              <path id="Trazado_906832" data-name="Trazado 906832" d="M40.172,72.427H2.035a.6.6,0,0,1-.6-.6V42.151a.6.6,0,0,1,.6-.6H5.426a.719.719,0,1,0,0-1.439H2.035A2.037,2.037,0,0,0,0,42.151v29.68a2.037,2.037,0,0,0,2.035,2.035H7V75.45a1.638,1.638,0,0,0,1.636,1.636h7.2L12.443,83.7a.719.719,0,1,0,1.281.656l3.726-7.274H25.4l3.726,7.274A.719.719,0,1,0,30.41,83.7l-3.39-6.618h7.2a1.638,1.638,0,0,0,1.636-1.636V73.866h4.315a.719.719,0,1,0,0-1.439ZM34.418,75.45a.2.2,0,0,1-.2.2H8.631a.2.2,0,0,1-.2-.2V73.866H34.418Z" transform="translate(0 -30.339)" fill="#4c5066"/>
              <path id="Trazado_906833" data-name="Trazado 906833" d="M79.79,11.216H112.3a.6.6,0,0,1,.6.6v6.84a.719.719,0,0,0,1.439,0v-6.84A2.037,2.037,0,0,0,112.3,9.777h-15.4V8.363a1.807,1.807,0,0,0-1.8-1.8H90.725a1.807,1.807,0,0,0-1.8,1.8V9.777H79.79a.719.719,0,1,0,0,1.439ZM90.358,8.363A.367.367,0,0,1,90.725,8H95.1a.367.367,0,0,1,.366.366V9.777H90.358V8.363Z" transform="translate(-71.486)" fill="#4c5066"/>
              <path id="Trazado_906834" data-name="Trazado 906834" d="M98.121,267.576a.719.719,0,0,0-.719.719v6.357a.719.719,0,0,0,.719.719h2.919a.719.719,0,0,0,.719-.719V268.3a.719.719,0,0,0-.719-.719Zm2.2,6.357h-1.48v-4.918h1.48Z" transform="translate(-88.059 -235.98)" fill="#4c5066"/>
              <path id="Trazado_906835" data-name="Trazado 906835" d="M166.956,229.248a.719.719,0,0,0-.719.719V240a.719.719,0,0,0,.719.719h2.919a.719.719,0,0,0,.719-.719V229.967a.719.719,0,0,0-.719-.719Zm2.2,10.034h-1.48v-8.595h1.48Z" transform="translate(-150.291 -201.329)" fill="#4c5066"/>
              <path id="Trazado_906836" data-name="Trazado 906836" d="M235.792,267.576a.719.719,0,0,0-.719.719v6.357a.719.719,0,0,0,.719.719h2.919a.719.719,0,0,0,.719-.719V268.3a.719.719,0,0,0-.719-.719Zm2.2,6.357h-1.48v-4.918h1.48Z" transform="translate(-212.524 -235.98)" fill="#4c5066"/>
              <path id="Trazado_906837" data-name="Trazado 906837" d="M304.628,311.832a.719.719,0,0,0-.719.719v2.112a.719.719,0,0,0,.719.719h2.919a.719.719,0,1,0,0-1.439h-2.2v-1.392A.719.719,0,0,0,304.628,311.832Z" transform="translate(-274.757 -275.991)" fill="#4c5066"/>
              <path id="Trazado_906838" data-name="Trazado 906838" d="M315.93,167.452,311.8,160.3a9.408,9.408,0,1,0-9.3,2.655,9.454,9.454,0,0,0,2.449.324,9.285,9.285,0,0,0,2.118-.245l4.126,7.149a2.735,2.735,0,1,0,4.737-2.735Zm-13.057-5.884a7.964,7.964,0,1,1,6.043-.8A7.913,7.913,0,0,1,302.873,161.568Zm11.337,8.373a1.3,1.3,0,0,1-1.77-.474l-3.97-6.878a9.443,9.443,0,0,0,2.243-1.3l3.971,6.878a1.295,1.295,0,0,1-.474,1.77Z" transform="translate(-267.185 -124.687)" fill="#4c5066"/>
              <path id="Trazado_906839" data-name="Trazado 906839" d="M335.656,180.1a6.808,6.808,0,0,0-.341-4.932.719.719,0,1,0-1.3.613,5.388,5.388,0,1,1-1.624-2.007.719.719,0,1,0,.868-1.147,6.832,6.832,0,1,0,2.4,7.474Z" transform="translate(-291.384 -148.887)" fill="#4c5066"/>
            </g>
          </g>
        </g>
      </g>
    </g>
  </g>
</svg>
