<svg xmlns="http://www.w3.org/2000/svg" xmlns:xlink="http://www.w3.org/1999/xlink" width="85" height="85" viewBox="0 0 85 85">
  <defs>
    <clipPath id="clip-path">
      <rect id="Rectángulo_401273" data-name="Rectángulo 401273" width="12.919" height="12.92" fill="#eef3bc"/>
    </clipPath>
    <clipPath id="clip-path-2">
      <path id="Trazado_873519" data-name="Trazado 873519" d="M12.919,6.46A6.46,6.46,0,1,1,6.46,0a6.46,6.46,0,0,1,6.46,6.46" fill="#eef3bc"/>
    </clipPath>
  </defs>
  <g id="Grupo_1119779" data-name="Grupo 1119779" transform="translate(3870 6172)">
    <rect id="Rectángulo_409320" data-name="Rectángulo 409320" width="85" height="85" rx="42.5" transform="translate(-3870 -6172)" fill="#fff"/>
    <g id="Grupo_1119330" data-name="Grupo 1119330" transform="translate(-3862.273 -6154.828)">
      <g id="Grupo_1099855" data-name="Grupo 1099855" transform="translate(0 0)">
        <g id="Grupo_1099808" data-name="Grupo 1099808" transform="translate(0 0)">
          <g id="Grupo_1101062" data-name="Grupo 1101062" transform="translate(0 28.556)">
            <g id="Grupo_1101056" data-name="Grupo 1101056" transform="translate(12.92) rotate(90)" opacity="0.998" style="isolation: isolate">
              <g id="Grupo_1099844" data-name="Grupo 1099844" transform="translate(0 0)">
                <g id="Grupo_1099843" data-name="Grupo 1099843" transform="translate(0 0)" clip-path="url(#clip-path)">
                  <g id="Grupo_1099842" data-name="Grupo 1099842" transform="translate(0 0)">
                    <g id="Grupo_1099841" data-name="Grupo 1099841" clip-path="url(#clip-path-2)">
                      <rect id="Rectángulo_401272" data-name="Rectángulo 401272" width="16.423" height="16.423" transform="translate(-3.979 11.549) rotate(-70.991)" fill="#eef3bc"/>
                    </g>
                  </g>
                </g>
              </g>
            </g>
            <g id="Grupo_1101057" data-name="Grupo 1101057" transform="translate(12.92 12.919) rotate(90)" opacity="0.998" style="isolation: isolate">
              <g id="Grupo_1099844-2" data-name="Grupo 1099844" transform="translate(0 0)">
                <g id="Grupo_1099843-2" data-name="Grupo 1099843" transform="translate(0 0)" clip-path="url(#clip-path)">
                  <g id="Grupo_1099842-2" data-name="Grupo 1099842" transform="translate(0 0)">
                    <g id="Grupo_1099841-2" data-name="Grupo 1099841" clip-path="url(#clip-path-2)">
                      <rect id="Rectángulo_401272-2" data-name="Rectángulo 401272" width="16.423" height="16.423" transform="translate(-3.979 11.549) rotate(-70.991)" fill="#eef3bc"/>
                    </g>
                  </g>
                </g>
              </g>
            </g>
            <g id="Grupo_1101058" data-name="Grupo 1101058" transform="translate(12.92 25.838) rotate(90)" opacity="0.998" style="isolation: isolate">
              <g id="Grupo_1099844-3" data-name="Grupo 1099844" transform="translate(0 0)">
                <g id="Grupo_1099843-3" data-name="Grupo 1099843" transform="translate(0 0)" clip-path="url(#clip-path)">
                  <g id="Grupo_1099842-3" data-name="Grupo 1099842" transform="translate(0 0)">
                    <g id="Grupo_1099841-3" data-name="Grupo 1099841" clip-path="url(#clip-path-2)">
                      <rect id="Rectángulo_401272-3" data-name="Rectángulo 401272" width="16.423" height="16.423" transform="translate(-3.979 11.549) rotate(-70.991)" fill="#eef3bc"/>
                    </g>
                  </g>
                </g>
              </g>
            </g>
            <g id="Grupo_1101059" data-name="Grupo 1101059" transform="translate(25.839 25.955) rotate(90)" opacity="0.998" style="isolation: isolate">
              <g id="Grupo_1099844-4" data-name="Grupo 1099844" transform="translate(0 0)">
                <g id="Grupo_1099843-4" data-name="Grupo 1099843" transform="translate(0 0)" clip-path="url(#clip-path)">
                  <g id="Grupo_1099842-4" data-name="Grupo 1099842" transform="translate(0 0)">
                    <g id="Grupo_1099841-4" data-name="Grupo 1099841" clip-path="url(#clip-path-2)">
                      <rect id="Rectángulo_401272-4" data-name="Rectángulo 401272" width="16.423" height="16.423" transform="translate(-3.979 11.549) rotate(-70.991)" fill="#eef3bc"/>
                    </g>
                  </g>
                </g>
              </g>
            </g>
            <g id="Grupo_1101060" data-name="Grupo 1101060" transform="translate(25.839 12.919) rotate(90)" opacity="0.998" style="isolation: isolate">
              <g id="Grupo_1099844-5" data-name="Grupo 1099844" transform="translate(0 0)">
                <g id="Grupo_1099843-5" data-name="Grupo 1099843" transform="translate(0 0)" clip-path="url(#clip-path)">
                  <g id="Grupo_1099842-5" data-name="Grupo 1099842" transform="translate(0 0)">
                    <g id="Grupo_1099841-5" data-name="Grupo 1099841" clip-path="url(#clip-path-2)">
                      <rect id="Rectángulo_401272-5" data-name="Rectángulo 401272" width="16.423" height="16.423" transform="translate(-3.979 11.549) rotate(-70.991)" fill="#eef3bc"/>
                    </g>
                  </g>
                </g>
              </g>
            </g>
            <g id="Grupo_1101061" data-name="Grupo 1101061" transform="translate(38.758 25.955) rotate(90)" opacity="0.998" style="isolation: isolate">
              <g id="Grupo_1099844-6" data-name="Grupo 1099844" transform="translate(0 0)">
                <g id="Grupo_1099843-6" data-name="Grupo 1099843" transform="translate(0 0)" clip-path="url(#clip-path)">
                  <g id="Grupo_1099842-6" data-name="Grupo 1099842" transform="translate(0 0)">
                    <g id="Grupo_1099841-6" data-name="Grupo 1099841" clip-path="url(#clip-path-2)">
                      <rect id="Rectángulo_401272-6" data-name="Rectángulo 401272" width="16.423" height="16.423" transform="translate(-3.979 11.549) rotate(-70.991)" fill="#eef3bc"/>
                    </g>
                  </g>
                </g>
              </g>
            </g>
          </g>
          <g id="Grupo_1099776" data-name="Grupo 1099776" transform="translate(11.13 1.851)">
            <g id="Grupo_1099618" data-name="Grupo 1099618" transform="translate(0 0)">
              <rect id="Rectángulo_401104" data-name="Rectángulo 401104" width="48.26" height="48.841" transform="translate(0)" fill="none"/>
            </g>
            <g id="Grupo_1119743" data-name="Grupo 1119743" transform="translate(1.692 1.971)">
              <path id="Trazado_906776" data-name="Trazado 906776" d="M97.772,322.421l-1.906-1.142a3.75,3.75,0,0,0-1.923-.531H91.076a6.771,6.771,0,0,0-1.74.224l-8.642,2.32a3.014,3.014,0,0,0-2.035,1.887l-7.6-4.112a2.978,2.978,0,0,0-2.034-.336,2.809,2.809,0,0,0-.757.248,2.942,2.942,0,0,0-1.285,1.2,3,3,0,0,0-.4,1.489,2.965,2.965,0,0,0,1.479,2.588l13.624,8.151a3.741,3.741,0,0,0,1.97.561H94.2a3.731,3.731,0,0,0,1.375-.262l2.2-.867v1.129h7.483V320H97.772Zm-2.746,10.891a2.252,2.252,0,0,1-.823.157H83.658a2.252,2.252,0,0,1-1.192-.343l-13.642-8.161a1.489,1.489,0,0,1-.744-1.3,1.52,1.52,0,0,1,.2-.748,1.471,1.471,0,0,1,.643-.593,1.409,1.409,0,0,1,.374-.121,1.574,1.574,0,0,1,.287-.027,1.467,1.467,0,0,1,.733.194l8.243,4.454c.009.046.009.091.022.136a3,3,0,0,0,2.893,2.215,7.36,7.36,0,0,0,1.233-.22l7.775-2.081L90.1,325.43,82.347,327.5c-.341.079-.782.168-.873.176a1.5,1.5,0,0,1-1.447-1.1,1.366,1.366,0,0,1-.043-.277s-.006-.181,0-.245a1.512,1.512,0,0,1,1.1-1.32l8.638-2.311a5.229,5.229,0,0,1,1.352-.178h2.868a2.244,2.244,0,0,1,1.153.319l2.675,1.6v8.062ZM99.269,321.5h4.49V333.47h-4.49Zm0,0" transform="translate(-60.357 -290.067)" fill="#4c5066"/>
              <path id="Trazado_906777" data-name="Trazado 906777" d="M30.864,5.986,26.849,1.972A6.688,6.688,0,0,0,22.087,0H12.679a3.767,3.767,0,0,0-1.673.395l-1.677.839a2.218,2.218,0,0,1-1.086.235l-.76-.027V0H0V16.463H7.483V14.218H8.755l.453.3a8.25,8.25,0,0,0,4.262,1.372v9.554H44.9V5.986ZM5.987,14.966H1.5V1.5h4.49Zm4.05-1.694L9.2,12.721H7.483V2.939l.706.025A3.757,3.757,0,0,0,10,2.572l1.676-.839A2.249,2.249,0,0,1,12.679,1.5h9.408a5.2,5.2,0,0,1,3.7,1.534l2.956,2.956H22.572L20.756,4.17,19.7,5.228l5.286,5.286a1.5,1.5,0,0,1-2.118,2.127L18.451,8.226l-.524.449a3.966,3.966,0,0,1-5.044.075L12.45,8.4l-.943,1.163.438.356a5.455,5.455,0,0,0,1.524.859v3.616A6.748,6.748,0,0,1,10.036,13.272Zm10.645-.7L21.81,13.7a3.015,3.015,0,0,0,4.228,0,3.788,3.788,0,1,0,.425-.543,2.943,2.943,0,0,0,.245-2.686H36.729a4.5,4.5,0,0,0,3.679,3.679v3.117a4.5,4.5,0,0,0-3.679,3.679H21.639a4.5,4.5,0,0,0-3.679-3.679V14.156A4.467,4.467,0,0,0,20.681,12.571Zm6.258,3.143a2.245,2.245,0,1,1,2.245,2.245A2.245,2.245,0,0,1,26.939,15.714ZM43.4,23.946H14.966V11.089a5.441,5.441,0,0,0,3.367-.86l1.277,1.277a2.986,2.986,0,0,1-2.4,1.216h-.748v5.987h.748A2.993,2.993,0,0,1,20.2,21.7v.748h17.96V21.7a2.993,2.993,0,0,1,2.993-2.993h.748V12.721h-.748a2.993,2.993,0,0,1-2.993-2.993V8.979h-12.6l-1.5-1.5H43.4Zm0,0" transform="translate(0 0)" fill="#4c5066"/>
            </g>
          </g>
        </g>
      </g>
    </g>
  </g>
</svg>
