<svg xmlns="http://www.w3.org/2000/svg" xmlns:xlink="http://www.w3.org/1999/xlink" width="189.711" height="311.383" viewBox="0 0 189.711 311.383">
  <defs>
    <clipPath id="clip-path">
      <rect id="Rectángulo_409419" data-name="Rectángulo 409419" width="156.679" height="115.978" fill="none"/>
    </clipPath>
    <clipPath id="clip-path-2">
      <rect id="Rectángulo_409477" data-name="Rectángulo 409477" width="161.86" height="164.294" fill="none"/>
    </clipPath>
    <clipPath id="clip-path-3">
      <rect id="Rectángulo_409490" data-name="Rectángulo 409490" width="150.009" height="143.226" fill="none"/>
    </clipPath>
    <clipPath id="clip-path-4">
      <rect id="Rectángulo_409646" data-name="Rectángulo 409646" width="145" height="305" transform="translate(-298 -10963.193)" fill="#fff" stroke="#707070" stroke-width="1"/>
    </clipPath>
    <clipPath id="clip-path-5">
      <path id="Trazado_906395" data-name="Trazado 906395" d="M149.335,144.716a3.538,3.538,0,0,1,3.43,2.72l1.05,4.359.749,3.1,2.6,10.8,1.889,7.835H119.6l-.17-.705-1.823-7.564-1.466-6.08-2.756-11.434a2.447,2.447,0,0,1,2.359-3.033Z" transform="translate(-113.318 -144.716)" fill="none"/>
    </clipPath>
    <linearGradient id="linear-gradient" x1="-3.843" y1="-3.799" x2="-3.812" y2="-3.799" gradientUnits="objectBoundingBox">
      <stop offset="0" stop-color="#414182"/>
      <stop offset="1" stop-color="#7171e3"/>
    </linearGradient>
    <clipPath id="clip-path-6">
      <rect id="Rectángulo_409493" data-name="Rectángulo 409493" width="160.372" height="361.144" transform="translate(0 0)" fill="none"/>
    </clipPath>
  </defs>
  <g id="Grupo_1119788" data-name="Grupo 1119788" transform="translate(-1020.289 -964.617)">
    <g id="Grupo_1119784" data-name="Grupo 1119784" transform="translate(1047.106 964.617)">
      <g id="Grupo_1119783" data-name="Grupo 1119783" transform="translate(0 2.035)" style="mix-blend-mode: multiply;isolation: isolate">
        <g id="Grupo_1119537" data-name="Grupo 1119537">
          <g id="Grupo_1119536" data-name="Grupo 1119536" clip-path="url(#clip-path)">
            <path id="Trazado_906356" data-name="Trazado 906356" d="M162.76,1.991V117.969H6.081V1.991Z" transform="translate(-6.081 -1.991)" fill="#efe1b7"/>
          </g>
        </g>
      </g>
      <rect id="Rectángulo_409590" data-name="Rectángulo 409590" width="156.679" height="107.38" transform="translate(3.88 8.599)" fill="#fff8e5"/>
      <rect id="Rectángulo_409591" data-name="Rectángulo 409591" width="156.679" height="8.599" transform="translate(3.88)" fill="#7b1fa2"/>
      <path id="Trazado_906880" data-name="Trazado 906880" d="M9.274,4.325a1.969,1.969,0,1,0,1.969-1.969A1.968,1.968,0,0,0,9.274,4.325" transform="translate(140.204 0.052)" fill="#a2acf7"/>
      <path id="Trazado_906881" data-name="Trazado 906881" d="M19.74,4.325a1.969,1.969,0,1,0,1.969-1.969A1.968,1.968,0,0,0,19.74,4.325" transform="translate(119.041 0.052)" fill="#a2acf7"/>
      <path id="Trazado_906882" data-name="Trazado 906882" d="M30.206,4.325a1.969,1.969,0,1,0,1.969-1.969,1.968,1.968,0,0,0-1.969,1.969" transform="translate(97.877 0.052)" fill="#a2acf7"/>
      <rect id="Rectángulo_409592" data-name="Rectángulo 409592" width="2.847" height="93.652" transform="translate(150.97 17.147)" fill="#a2acf7"/>
      <rect id="Rectángulo_409593" data-name="Rectángulo 409593" width="2.847" height="72.086" transform="translate(144.139 38.714)" fill="#a2acf7"/>
      <rect id="Rectángulo_409594" data-name="Rectángulo 409594" width="2.847" height="60.859" transform="translate(137.308 49.941)" fill="#a2acf7"/>
      <rect id="Rectángulo_409595" data-name="Rectángulo 409595" width="2.847" height="71.268" transform="translate(150.97 39.532)" fill="#7279ae"/>
      <rect id="Rectángulo_409596" data-name="Rectángulo 409596" width="2.847" height="54.856" transform="translate(144.139 55.944)" fill="#7279ae"/>
      <rect id="Rectángulo_409597" data-name="Rectángulo 409597" width="2.847" height="46.313" transform="translate(137.308 64.487)" fill="#7279ae"/>
      <rect id="Rectángulo_409598" data-name="Rectángulo 409598" width="2.847" height="40.31" transform="translate(150.97 70.49)" fill="#7b1fa2"/>
      <rect id="Rectángulo_409599" data-name="Rectángulo 409599" width="2.847" height="31.027" transform="translate(144.139 79.773)" fill="#7b1fa2"/>
      <rect id="Rectángulo_409600" data-name="Rectángulo 409600" width="2.847" height="26.194" transform="translate(137.308 84.606)" fill="#7b1fa2"/>
      <rect id="Rectángulo_409601" data-name="Rectángulo 409601" width="2.847" height="49.529" transform="translate(130.147 61.271)" fill="#a2acf7"/>
      <rect id="Rectángulo_409602" data-name="Rectángulo 409602" width="2.847" height="38.123" transform="translate(123.316 72.676)" fill="#a2acf7"/>
      <rect id="Rectángulo_409603" data-name="Rectángulo 409603" width="2.847" height="32.186" transform="translate(116.486 78.614)" fill="#a2acf7"/>
      <rect id="Rectángulo_409604" data-name="Rectángulo 409604" width="2.847" height="37.691" transform="translate(130.147 73.108)" fill="#7279ae"/>
      <rect id="Rectángulo_409605" data-name="Rectángulo 409605" width="2.847" height="29.011" transform="translate(123.316 81.788)" fill="#7279ae"/>
      <rect id="Rectángulo_409606" data-name="Rectángulo 409606" width="2.847" height="24.494" transform="translate(116.486 86.306)" fill="#7279ae"/>
      <rect id="Rectángulo_409607" data-name="Rectángulo 409607" width="2.847" height="21.318" transform="translate(130.147 89.482)" fill="#7b1fa2"/>
      <rect id="Rectángulo_409608" data-name="Rectángulo 409608" width="2.847" height="16.409" transform="translate(123.316 94.391)" fill="#7b1fa2"/>
      <rect id="Rectángulo_409609" data-name="Rectángulo 409609" width="2.847" height="13.854" transform="translate(116.486 96.947)" fill="#7b1fa2"/>
      <rect id="Rectángulo_409610" data-name="Rectángulo 409610" width="2.847" height="72.086" transform="translate(95.943 38.714)" fill="#a2acf7"/>
      <rect id="Rectángulo_409611" data-name="Rectángulo 409611" width="2.847" height="55.486" transform="translate(102.773 55.314)" fill="#a2acf7"/>
      <rect id="Rectángulo_409612" data-name="Rectángulo 409612" width="2.847" height="46.845" transform="translate(109.605 63.955)" fill="#a2acf7"/>
      <rect id="Rectángulo_409613" data-name="Rectángulo 409613" width="2.847" height="54.856" transform="translate(95.943 55.944)" fill="#7279ae"/>
      <rect id="Rectángulo_409614" data-name="Rectángulo 409614" width="2.847" height="42.224" transform="translate(102.773 68.576)" fill="#7279ae"/>
      <rect id="Rectángulo_409615" data-name="Rectángulo 409615" width="2.847" height="35.648" transform="translate(109.605 75.152)" fill="#7279ae"/>
      <rect id="Rectángulo_409616" data-name="Rectángulo 409616" width="2.847" height="31.027" transform="translate(95.943 79.773)" fill="#7b1fa2"/>
      <rect id="Rectángulo_409617" data-name="Rectángulo 409617" width="2.847" height="23.881" transform="translate(102.773 86.919)" fill="#7b1fa2"/>
      <rect id="Rectángulo_409618" data-name="Rectángulo 409618" width="2.847" height="20.163" transform="translate(109.605 90.637)" fill="#7b1fa2"/>
      <rect id="Rectángulo_409619" data-name="Rectángulo 409619" width="2.847" height="50.776" transform="translate(70.844 60.024)" fill="#a2acf7"/>
      <rect id="Rectángulo_409620" data-name="Rectángulo 409620" width="2.847" height="39.083" transform="translate(64.012 71.717)" fill="#a2acf7"/>
      <rect id="Rectángulo_409621" data-name="Rectángulo 409621" width="2.847" height="32.996" transform="translate(57.181 77.803)" fill="#a2acf7"/>
      <rect id="Rectángulo_409622" data-name="Rectángulo 409622" width="2.847" height="38.639" transform="translate(70.844 72.161)" fill="#7279ae"/>
      <rect id="Rectángulo_409623" data-name="Rectángulo 409623" width="2.847" height="29.742" transform="translate(64.012 81.058)" fill="#7279ae"/>
      <rect id="Rectángulo_409624" data-name="Rectángulo 409624" width="2.847" height="25.11" transform="translate(57.181 85.69)" fill="#7279ae"/>
      <rect id="Rectángulo_409625" data-name="Rectángulo 409625" width="2.847" height="21.855" transform="translate(70.844 88.945)" fill="#7b1fa2"/>
      <rect id="Rectángulo_409626" data-name="Rectángulo 409626" width="2.847" height="16.822" transform="translate(64.012 93.978)" fill="#7b1fa2"/>
      <rect id="Rectángulo_409627" data-name="Rectángulo 409627" width="2.847" height="14.202" transform="translate(57.181 96.597)" fill="#7b1fa2"/>
      <rect id="Rectángulo_409628" data-name="Rectángulo 409628" width="2.847" height="26.854" transform="translate(50.021 83.946)" fill="#a2acf7"/>
      <rect id="Rectángulo_409629" data-name="Rectángulo 409629" width="2.847" height="20.67" transform="translate(43.19 90.13)" fill="#a2acf7"/>
      <rect id="Rectángulo_409630" data-name="Rectángulo 409630" width="2.847" height="17.45" transform="translate(36.359 93.35)" fill="#a2acf7"/>
      <rect id="Rectángulo_409631" data-name="Rectángulo 409631" width="2.847" height="20.435" transform="translate(50.021 90.365)" fill="#7279ae"/>
      <rect id="Rectángulo_409632" data-name="Rectángulo 409632" width="2.847" height="15.729" transform="translate(43.19 95.071)" fill="#7279ae"/>
      <rect id="Rectángulo_409633" data-name="Rectángulo 409633" width="2.847" height="13.279" transform="translate(36.359 97.521)" fill="#7279ae"/>
      <rect id="Rectángulo_409634" data-name="Rectángulo 409634" width="2.847" height="11.558" transform="translate(50.021 99.242)" fill="#7b1fa2"/>
      <rect id="Rectángulo_409635" data-name="Rectángulo 409635" width="2.847" height="8.896" transform="translate(43.19 101.904)" fill="#7b1fa2"/>
      <rect id="Rectángulo_409636" data-name="Rectángulo 409636" width="2.847" height="7.511" transform="translate(36.359 103.288)" fill="#7b1fa2"/>
      <rect id="Rectángulo_409637" data-name="Rectángulo 409637" width="2.847" height="39.083" transform="translate(15.816 71.717)" fill="#a2acf7"/>
      <rect id="Rectángulo_409638" data-name="Rectángulo 409638" width="2.847" height="30.082" transform="translate(22.647 80.717)" fill="#a2acf7"/>
      <rect id="Rectángulo_409639" data-name="Rectángulo 409639" width="2.847" height="25.398" transform="translate(29.477 85.402)" fill="#a2acf7"/>
      <rect id="Rectángulo_409640" data-name="Rectángulo 409640" width="2.847" height="29.742" transform="translate(15.816 81.058)" fill="#7279ae"/>
      <rect id="Rectángulo_409641" data-name="Rectángulo 409641" width="2.847" height="22.893" transform="translate(22.647 87.906)" fill="#7279ae"/>
      <rect id="Rectángulo_409642" data-name="Rectángulo 409642" width="2.847" height="19.328" transform="translate(29.477 91.472)" fill="#7279ae"/>
      <rect id="Rectángulo_409643" data-name="Rectángulo 409643" width="2.847" height="16.822" transform="translate(15.816 93.978)" fill="#7b1fa2"/>
      <rect id="Rectángulo_409644" data-name="Rectángulo 409644" width="2.847" height="12.948" transform="translate(22.647 97.852)" fill="#7b1fa2"/>
      <rect id="Rectángulo_409645" data-name="Rectángulo 409645" width="2.847" height="10.931" transform="translate(29.477 99.869)" fill="#7b1fa2"/>
    </g>
    <g id="Grupo_1119786" data-name="Grupo 1119786" transform="translate(1044.031 1089.66)">
      <rect id="Rectángulo_409479" data-name="Rectángulo 409479" width="161.86" height="8.599" transform="translate(4.109)" fill="#7b1fa2"/>
      <path id="Trazado_906361" data-name="Trazado 906361" d="M6.989,126.664A1.969,1.969,0,1,0,8.958,124.7a1.968,1.968,0,0,0-1.969,1.969" transform="translate(147.899 -122.287)" fill="#a2acf7"/>
      <path id="Trazado_906362" data-name="Trazado 906362" d="M17.455,126.664a1.969,1.969,0,1,0,1.969-1.969,1.968,1.968,0,0,0-1.969,1.969" transform="translate(126.736 -122.287)" fill="#a2acf7"/>
      <path id="Trazado_906363" data-name="Trazado 906363" d="M27.921,126.664A1.969,1.969,0,1,0,29.89,124.7a1.968,1.968,0,0,0-1.969,1.969" transform="translate(105.572 -122.287)" fill="#a2acf7"/>
      <g id="Grupo_1119785" data-name="Grupo 1119785" transform="translate(0 2.408)">
        <g id="Grupo_1119781" data-name="Grupo 1119781" style="mix-blend-mode: multiply;isolation: isolate">
          <g id="Grupo_1119542" data-name="Grupo 1119542">
            <g id="Grupo_1119541" data-name="Grupo 1119541" clip-path="url(#clip-path-2)">
              <path id="Trazado_906360" data-name="Trazado 906360" d="M165.88,124.7V288.989H4.02V124.7Z" transform="translate(-4.02 -124.695)" fill="#efe1b7"/>
            </g>
          </g>
        </g>
        <rect id="Rectángulo_409589" data-name="Rectángulo 409589" width="161.86" height="155.695" transform="translate(4.109 6.191)" fill="#fff8e5"/>
        <g id="Grupo_1119782" data-name="Grupo 1119782" transform="translate(8.772 14.44)" opacity="0.29">
          <g id="Grupo_1119545" data-name="Grupo 1119545">
            <g id="Grupo_1119544" data-name="Grupo 1119544" clip-path="url(#clip-path-3)">
              <path id="Trazado_906364" data-name="Trazado 906364" d="M7.032,282.049h150.01V138.823H7.032Zm149.574-.435H7.467V139.259H156.606Z" transform="translate(-7.032 -138.823)" fill="#7b1fa2"/>
              <rect id="Rectángulo_409480" data-name="Rectángulo 409480" width="149.574" height="0.435" transform="translate(0.218 118.992)" fill="#7b1fa2"/>
              <rect id="Rectángulo_409481" data-name="Rectángulo 409481" width="149.574" height="0.435" transform="translate(0.218 95.193)" fill="#7b1fa2"/>
              <rect id="Rectángulo_409482" data-name="Rectángulo 409482" width="149.574" height="0.435" transform="translate(0.218 71.396)" fill="#7b1fa2"/>
              <rect id="Rectángulo_409483" data-name="Rectángulo 409483" width="149.574" height="0.435" transform="translate(0.218 47.596)" fill="#7b1fa2"/>
              <rect id="Rectángulo_409484" data-name="Rectángulo 409484" width="149.574" height="0.435" transform="translate(0.218 23.799)" fill="#7b1fa2"/>
              <rect id="Rectángulo_409485" data-name="Rectángulo 409485" width="0.435" height="142.79" transform="translate(24.929 0.218)" fill="#7b1fa2"/>
              <rect id="Rectángulo_409486" data-name="Rectángulo 409486" width="0.435" height="142.79" transform="translate(49.858 0.218)" fill="#7b1fa2"/>
              <rect id="Rectángulo_409487" data-name="Rectángulo 409487" width="0.435" height="142.79" transform="translate(74.787 0.218)" fill="#7b1fa2"/>
              <rect id="Rectángulo_409488" data-name="Rectángulo 409488" width="0.435" height="142.79" transform="translate(99.716 0.218)" fill="#7b1fa2"/>
              <rect id="Rectángulo_409489" data-name="Rectángulo 409489" width="0.435" height="142.79" transform="translate(124.645 0.218)" fill="#7b1fa2"/>
            </g>
          </g>
        </g>
        <path id="Trazado_906872" data-name="Trazado 906872" d="M156.713,281.787l.18-.123-30.319-44.553-12.448,7.546-35-67.9-.089.03-17.258,5.744-6.12,18.848-15.775-4.045-4.023-28.828-.031-.027L7.3,143.6l-.143.165,28.5,24.853,4.032,28.893.071.018,16.044,4.114.032-.1,6.117-18.84,17.066-5.68,35.017,67.939,12.472-7.56Z" transform="translate(1.76 -124.278)" fill="#000979"/>
        <path id="Trazado_906879" data-name="Trazado 906879" d="M81.2,176.788a2.383,2.383,0,1,0,2.383-2.383,2.382,2.382,0,0,0-2.383,2.383" transform="translate(-2.984 -123.597)" fill="#7279ae"/>
        <path id="Trazado_906877" data-name="Trazado 906877" d="M98.158,181.451a2.383,2.383,0,1,0,2.383-2.383,2.382,2.382,0,0,0-2.383,2.383" transform="translate(-37.283 -123.494)" fill="#7279ae"/>
      </g>
    </g>
    <g id="Enmascarar_grupo_1100037" data-name="Enmascarar grupo 1100037" transform="translate(1318.289 11934.193)" clip-path="url(#clip-path-4)">
      <g id="Grupo_1119787" data-name="Grupo 1119787" transform="translate(-298.205 -11020.045)">
        <path id="Trazado_906366" data-name="Trazado 906366" d="M34.8,235.362a2.3,2.3,0,1,0,2.3-2.3,2.3,2.3,0,0,0-2.3,2.3" transform="translate(86.563 -2.741)" fill="#7279ae"/>
        <path id="Trazado_906367" data-name="Trazado 906367" d="M46.991,242.593a2.3,2.3,0,1,0,2.3-2.3,2.3,2.3,0,0,0-2.3,2.3" transform="translate(62.323 -2.831)" fill="#7279ae"/>
        <path id="Trazado_906368" data-name="Trazado 906368" d="M81.2,176.707a2.3,2.3,0,1,0,2.3-2.3,2.3,2.3,0,0,0-2.3,2.3" transform="translate(-5.664 -2.016)" fill="#7279ae"/>
        <path id="Trazado_906369" data-name="Trazado 906369" d="M98.158,181.37a2.3,2.3,0,1,0,2.3-2.3,2.3,2.3,0,0,0-2.3,2.3" transform="translate(-39.378 -2.073)" fill="#7279ae"/>
        <path id="Trazado_906370" data-name="Trazado 906370" d="M104.186,200.3a2.3,2.3,0,1,0,2.3-2.3,2.3,2.3,0,0,0-2.3,2.3" transform="translate(-51.36 -2.308)" fill="#7279ae"/>
        <path id="Trazado_906371" data-name="Trazado 906371" d="M118.906,196.37a2.3,2.3,0,1,0,2.3-2.3,2.3,2.3,0,0,0-2.3,2.3" transform="translate(-80.617 -2.259)" fill="#7279ae"/>
        <path id="Trazado_906372" data-name="Trazado 906372" d="M123.567,167.913a2.3,2.3,0,1,0,2.3-2.3,2.3,2.3,0,0,0-2.3,2.3" transform="translate(-89.882 -1.907)" fill="#7279ae"/>
        <path id="Trazado_906373" data-name="Trazado 906373" d="M44.282,207.133c1.965-8.857,3.59-17.54,8.949-25.906,11.127-.434,33.487,1.31,34.36,2.323,2.074,2.409,13.759,18.94,14.229,25.473.922,12.8-.7,25.811-2.727,38.5-1.98,12.414-5.9,25.652-6.662,38.247-3.853.458-4.932,1.035-8.785,1.493-5.87-20.183-8.928-41.505-10.422-62.793-.863.121-2.421.285-3.284.408a519.259,519.259,0,0,0-9.548,64.137,22.639,22.639,0,0,1-8.494.45c-.874-.126-2.631-10.221-2.919-11.49a310.878,310.878,0,0,1-6.606-40.115,100.86,100.86,0,0,1,1.91-30.733" transform="translate(16.811 -2.099)" fill="#3a3a4a"/>
        <path id="Trazado_906374" data-name="Trazado 906374" d="M66.8,280.971l1.83-4.141a48.145,48.145,0,0,1,19.945,21.621c4.445,9.372,5.429,20.906,5.862,32.051.166,4.28.252,8.5.42,12.522a12.848,12.848,0,0,1-5.92,2c-1.17-3.56-2.4-7.1-3.661-10.622A425.557,425.557,0,0,0,67.06,291.118a12.186,12.186,0,0,1-.263-10.147" transform="translate(0.472 -3.282)" fill="#3a3a4a"/>
        <path id="Trazado_906375" data-name="Trazado 906375" d="M83.663,289.3a28.949,28.949,0,0,0,2.577-12.734.658.658,0,0,1,1.314-.057,30.478,30.478,0,0,1-2.764,13.4c-.353.784-1.477.168-1.126-.612" transform="translate(-9.795 -3.271)"/>
        <path id="Trazado_906376" data-name="Trazado 906376" d="M83.083,287.132a.648.648,0,0,1,1.263.293l-1.094,4.9a.648.648,0,0,1-1.262-.293Z" transform="translate(-4.993 -3.404)"/>
        <path id="Trazado_906377" data-name="Trazado 906377" d="M65.491,357.671l1.571-11.819,5.921-2,.321.532c-.836,4.732-3.229,10.7-7.813,13.286" transform="translate(22.344 -4.111)" fill="#ffccbc"/>
        <path id="Trazado_906378" data-name="Trazado 906378" d="M62.234,362.391q.511-1,1.015-1.994a8.464,8.464,0,0,0,.852-2.719c4.585-2.585,6.979-8.553,7.813-13.286l2.574,4.259a1.917,1.917,0,0,1,.3,1.274l1.735,9.789-.721.262L72.939,352.3l-.185.146c-3.487,2.758-.84,7.886-4.776,10.536a14.85,14.85,0,0,1-4.594,1.79,16.54,16.54,0,0,1-2.539.632c-.192-.693,1.029-2.311,1.39-3.012" transform="translate(23.732 -4.118)" fill="#bac36a"/>
        <path id="Trazado_906379" data-name="Trazado 906379" d="M66.788,343.438l4.013-1.793c.451-.2.679.5.23.7l-4.013,1.793c-.451.2-.679-.5-.23-.7" transform="translate(23.333 -4.084)" fill="#465066"/>
        <path id="Trazado_906380" data-name="Trazado 906380" d="M48.59,277.074l3.126-3.326c6.109,7.312,9.946,17.186,10.747,27.642.8,10.518-2.323,21.9-5.82,32.718-1.342,4.154-2.74,8.226-3.989,12.132a12.183,12.183,0,0,1-6.131-.148c.17-3.816.278-7.629.352-11.443a448.607,448.607,0,0,0-1.589-47.772,12.858,12.858,0,0,1,3.3-9.8" transform="translate(53.061 -3.244)" fill="#3a3a4a"/>
        <path id="Trazado_906381" data-name="Trazado 906381" d="M51.622,289.3A28.95,28.95,0,0,0,54.2,276.562a.658.658,0,0,1,1.314-.057,30.478,30.478,0,0,1-2.764,13.4c-.353.784-1.476.168-1.126-.612" transform="translate(53.889 -3.271)"/>
        <path id="Trazado_906382" data-name="Trazado 906382" d="M51.045,287.132a.648.648,0,0,1,1.262.293l-1.093,4.9a.648.648,0,0,1-1.263-.293Z" transform="translate(58.689 -3.404)"/>
        <path id="Trazado_906383" data-name="Trazado 906383" d="M55.187,357.762,60.758,347l6.131.148.11.621c-2.42,4.238-6.7,9.117-11.812,9.995" transform="translate(38.826 -4.15)" fill="#ffccbc"/>
        <path id="Trazado_906384" data-name="Trazado 906384" d="M56.591,361.633c.545-.517,1.085-1.036,1.628-1.555a8.777,8.777,0,0,0,1.733-2.306c5.11-.878,9.392-5.756,11.811-9.995l.874,4.972a2.034,2.034,0,0,1-.169,1.324l-1.828,9.975h-.755l.053-8.346-.22.076c-4.163,1.425-3.527,7.254-8.064,8.421a14.08,14.08,0,0,1-4.84.113,15.655,15.655,0,0,1-2.552-.28c.066-.73,1.753-1.853,2.329-2.4" transform="translate(34.062 -4.16)" fill="#d4e157"/>
        <path id="Trazado_906385" data-name="Trazado 906385" d="M55.954,345.075l4.069-.1c.485-.013.451.739-.034.752l-4.07.1c-.484.012-.45-.739.035-.752" transform="translate(45.072 -4.125)" fill="#465066"/>
        <path id="Trazado_906386" data-name="Trazado 906386" d="M134.721,174.113c2.719,1.15,5.642,1.671,8.321,2.938,1.3.612.19,2.548-1.1,1.937-2.666-1.26-5.606-1.79-8.321-2.937-1.317-.557-.206-2.492,1.1-1.938" transform="translate(-114.672 -2.011)" fill="#ffccbc"/>
        <path id="Trazado_906387" data-name="Trazado 906387" d="M120.48,185.766a322.92,322.92,0,0,1-38.817-5.441c.249-2.388,1.409-3.012,1.658-5.4,12.267-.424,26.878-1.2,39.9-1.493l1.41,7.723a4.026,4.026,0,0,1-4.151,4.612" transform="translate(-44.993 -2.003)" fill="#ffccbc"/>
        <path id="Trazado_906388" data-name="Trazado 906388" d="M118.192,183.025a4.314,4.314,0,0,1-4.8,4.172l-32.16-4.327,1.243-9.468,21.742-.547,14.541-1.727Z" transform="translate(-38.65 -1.975)" fill="#393973"/>
        <path id="Trazado_906389" data-name="Trazado 906389" d="M80.214,171.86l2.062-29.712,13.481,7.262-1.563,33.255a4.313,4.313,0,0,1-4.8,4.173l-7.643-1.15Z" transform="translate(-14.65 -1.617)" fill="#393973"/>
        <path id="Trazado_906390" data-name="Trazado 906390" d="M90.228,171.517l4,2.853c.769.549-.064,1.845-.835,1.3l-4-2.853c-.77-.549.064-1.845.834-1.3" transform="translate(-22.193 -1.978)" fill="#1a1a33"/>
        <path id="Trazado_906391" data-name="Trazado 906391" d="M123.506,178.246a6.41,6.41,0,0,1-2.241-2.013,2.916,2.916,0,0,1-.2-2.893,4.213,4.213,0,0,1,3.032-1.657,28.161,28.161,0,0,1,9.405-.234c2,.289,4.19.962,5.137,2.743,1.546,2.908-1.336,5.828-4.023,6.237a16.844,16.844,0,0,1-11.115-2.183" transform="translate(-98.023 -1.976)" fill="#ffccbc"/>
        <path id="Trazado_906392" data-name="Trazado 906392" d="M110.074,173.891h18.7a2.075,2.075,0,0,1,2.076,2.076H95.313l-2.076-2.076Z" transform="translate(-62.609 -2.01)" fill="#fff"/>
        <path id="Trazado_906393" data-name="Trazado 906393" d="M115,145.222a3.664,3.664,0,0,1,2.968-1.508H151.59a3.686,3.686,0,0,1,3.581,2.814l6.572,26.992h-41.21l-6.148-25.249a3.659,3.659,0,0,1,.613-3.049" transform="translate(-114.279 -1.636)" fill="#baadad"/>
        <path id="Trazado_906394" data-name="Trazado 906394" d="M160.286,173.52h-41.21L112.594,146.9a2.576,2.576,0,0,1,2.5-3.185h35.036a3.686,3.686,0,0,1,3.581,2.814Z" transform="translate(-111.085 -1.636)" fill="#4e4e50"/>
        <g id="Grupo_1119550" data-name="Grupo 1119550" transform="translate(2.674 143.067)">
          <g id="Grupo_1119549" data-name="Grupo 1119549" clip-path="url(#clip-path-5)">
            <rect id="Rectángulo_409492" data-name="Rectángulo 409492" width="31.067" height="47.415" transform="translate(-0.189 31.1) rotate(-92.847)" fill="url(#linear-gradient)"/>
          </g>
        </g>
        <g id="Grupo_1119551" data-name="Grupo 1119551" transform="translate(2.456 0)" clip-path="url(#clip-path-6)">
          <path id="Trazado_906396" data-name="Trazado 906396" d="M129.223,173.891a2.073,2.073,0,0,0,2.072,2.076h24.377a2.076,2.076,0,0,0-2.077-2.076Z" transform="translate(-125.424 -2.01)" fill="#baadad"/>
          <path id="Trazado_906397" data-name="Trazado 906397" d="M156.731,171.129l-5.026-6.348-1.719,2.91L139.8,154.333l-2.514,5.422-5.554-2.777-2.91,3.7-7.01-9.717-3.173,1.957-3.7-2.688" transform="translate(-112.373 -1.717)" fill="none" stroke="#fff" stroke-linecap="round" stroke-miterlimit="10" stroke-width="1"/>
          <path id="Trazado_906398" data-name="Trazado 906398" d="M135.233,173.156a4.621,4.621,0,0,0,3.595,3.59c1.4.3.835,2.459-.568,2.156a6.809,6.809,0,0,1-5.169-5.129c-.309-1.4,1.832-2.019,2.142-.617" transform="translate(-113.179 -1.991)" fill="#ffccbc"/>
          <path id="Trazado_906399" data-name="Trazado 906399" d="M41.289,218.434c-.746-3.542,10.527-44.967,13.862-57.685-2.549-6.261-7.432-15.456-2.752-21.487,8.151-10.5,13.786-17.748,25.9-17.748,4.254,0,9.739-.225,13.4,2.1a12.879,12.879,0,0,1,5.831,12.218c-.664,5.082-4.365,8.908-6.45,13.508-2.365,5.22-7.369,19.018-4.789,23.957,4.93,9.44,17.108,30.89,16.67,34.155-17.625,12.579-42.1,16.976-61.674,10.982" transform="translate(14.156 -1.362)" fill="#bac36a"/>
          <path id="Trazado_906400" data-name="Trazado 906400" d="M61.6,131.266c-.434,4.053,8.5-.264,9.216-.657a25.224,25.224,0,0,0,5.908-4.569.638.638,0,1,1,.917.886,25.576,25.576,0,0,1-11.491,6.968c-2.381.643-6.234.9-5.863-2.572.089-.836,1.4-.9,1.314-.056" transform="translate(20.515 -1.415)" fill="#766d78"/>
          <path id="Trazado_906401" data-name="Trazado 906401" d="M45.266,217.728c18.019,4.521,37.842.377,53.392-11.126.7-.518,1.34.591.647,1.1-15.82,11.7-36.081,15.9-54.406,11.3-.806-.2-.444-1.482.366-1.279" transform="translate(14.372 -2.412)" fill="#766d78"/>
          <path id="Trazado_906402" data-name="Trazado 906402" d="M51.148,121.508c3.442,1.249,9.574-.025,12.1,2.57l.1.1c5.606,5.759,5.676,15.086.27,21.646,0,0-9.37,17.86-11.3,24.3,6.906,13.295,13.058,26.549,19.964,39.843-9.556,3.918-18.884,8.184-28.439,12.1-4.036-16.781-6.59-34.116-5.764-51.623s4.084-33.421,13.062-48.942" transform="translate(48.124 -1.362)" fill="#7b1fa2"/>
          <path id="Trazado_906403" data-name="Trazado 906403" d="M52.908,191.315a47.256,47.256,0,0,1,11.309-3.838.742.742,0,0,1,.334,1.445A45.642,45.642,0,0,0,53.608,192.6c-.886.43-1.591-.857-.7-1.289" transform="translate(40.902 -2.177)" fill="#1a1a33"/>
          <path id="Trazado_906404" data-name="Trazado 906404" d="M54.461,143.3c2.57-2,8.225-5.2,8.574-8.714.327-3.288-.508-7.084-.746-10.352-.07-.956,1.344-.965,1.413-.017.207,2.826.426,5.65.62,8.479.1,1.443.387,3.006-.266,4.4-.563,1.207-1.865,1.977-2.838,2.749-2.02,1.6-4.066,3.16-6.1,4.741-.756.587-1.405-.708-.659-1.289" transform="translate(39.94 -1.387)" fill="#1a1a33"/>
          <path id="Trazado_906405" data-name="Trazado 906405" d="M64.7,161.172c1.279-2.8,3.129-5.428,4.316-8.237.721-1.707.784-1.937.033-3.706a37.7,37.7,0,0,0-2.657-4.412c-.479-.8.777-1.563,1.253-.773l3.985,6.617a.781.781,0,0,1-.032.758,88.438,88.438,0,0,0-11.183,26.655.7.7,0,1,1-1.347-.382A89.817,89.817,0,0,1,64.7,161.172" transform="translate(27.836 -1.636)" fill="#1a1a33"/>
          <path id="Trazado_906406" data-name="Trazado 906406" d="M105.922,122.7c-8.065,5.808-19.766,66.2-18.341,100.2a28.919,28.919,0,0,1-13.6-4.01c3.951-16.211,8.252-32.074,13.139-47.984a25.247,25.247,0,0,0-.478-16.482c-.349-.908-.661-1.82-.922-2.734a18.384,18.384,0,0,1-.115-10.663,24.343,24.343,0,0,1,4.878-7.957c3.676-4.348,9.729-9.845,15.437-10.373" transform="translate(-21.117 -1.376)" fill="#7b1fa2"/>
          <path id="Trazado_906407" data-name="Trazado 906407" d="M79.458,134.3c1.154-3.157,4.6-6.043,6.692-8.524.624-.742,1.576.313.953,1.051-1.536,1.82-3.092,3.624-4.609,5.463-1.227,1.488-2.01,2.553-1.7,4.514a7.2,7.2,0,0,0,2.144,3.637c.6.687-.441,1.764-1.046,1.075-1.683-1.918-3.491-4.316-2.434-7.215" transform="translate(-7.598 -1.411)" fill="#1a1a33"/>
          <path id="Trazado_906408" data-name="Trazado 906408" d="M88.417,140.587a.71.71,0,1,1,.955,1.051c-2.4,2.294-4.228,4.438-4.507,7.939-.2,2.467-.061,4.981-.073,7.444q-.04,7.818-.078,15.636a.707.707,0,1,1-1.414.018c.033-6.634.054-13.267.1-19.9.037-5.43,1.045-8.391,5.018-12.186" transform="translate(-14.012 -1.595)" fill="#1a1a33"/>
          <path id="Trazado_906409" data-name="Trazado 906409" d="M104.545,163.176a36.1,36.1,0,0,0-13.126-3.145c-2.013,2.164-4.96,5.255-3.69,7.429,2.52,4.311,10.133,3.343,14.572,2.473Z" transform="translate(-33.013 -1.838)" fill="#ffccbc"/>
          <path id="Trazado_906410" data-name="Trazado 906410" d="M99.115,158.775a31.705,31.705,0,0,1,11.03,1.846c1.565.555-.333,3.323-1.882,2.773-3.079-1.092-4.87-3.116-8.246-3.08-1.72.018-2.627-1.521-.9-1.539" transform="translate(-49.831 -1.823)" fill="#ffccbc"/>
          <path id="Trazado_906411" data-name="Trazado 906411" d="M109.2,162.259a10.855,10.855,0,0,0-2.809-.532,3.878,3.878,0,0,0-2.7.934,6.2,6.2,0,0,0-1.5,3.505.688.688,0,0,0,.808-.083,2.636,2.636,0,0,0,.64-.727q.511-.748,1.021-1.5c1.078.2,2.2.239,3.274.439a2.238,2.238,0,0,0,1.183,0c.63-.229.353-1.429.079-2.046" transform="translate(-52.561 -1.859)" fill="#ffccbc"/>
          <path id="Trazado_906412" data-name="Trazado 906412" d="M108.756,164.419a10.862,10.862,0,0,0-2.81-.532,3.877,3.877,0,0,0-2.7.934,6.2,6.2,0,0,0-1.5,3.505.688.688,0,0,0,.808-.083,2.637,2.637,0,0,0,.64-.727q.511-.748,1.021-1.5c1.079.2,2.2.239,3.274.439a2.238,2.238,0,0,0,1.183,0c.63-.229.353-1.429.079-2.046" transform="translate(-51.679 -1.886)" fill="#ffccbc"/>
          <path id="Trazado_906413" data-name="Trazado 906413" d="M107.924,166.3a10.855,10.855,0,0,0-2.81-.532,3.877,3.877,0,0,0-2.7.934,6.2,6.2,0,0,0-1.5,3.505.69.69,0,0,0,.809-.083,2.635,2.635,0,0,0,.639-.727q.511-.748,1.021-1.5c1.078.2,2.2.239,3.274.439a2.238,2.238,0,0,0,1.183,0c.63-.229.353-1.429.079-2.046" transform="translate(-50.025 -1.909)" fill="#ffccbc"/>
          <path id="Trazado_906414" data-name="Trazado 906414" d="M66.381,163.215l23,9.092-4.058,10.142L64.138,169.973Z" transform="translate(5.151 -1.877)" fill="#ffccbc"/>
          <path id="Trazado_906415" data-name="Trazado 906415" d="M46.782,165.427l-3.833,9.8,16.71,9.871a6.12,6.12,0,0,0,8.971-3.5L81.8,138.111,65.33,143.644l-5.363,25.541Z" transform="translate(33.657 -1.567)" fill="#7b1fa2"/>
          <path id="Trazado_906416" data-name="Trazado 906416" d="M59.767,165.676a62.544,62.544,0,0,0,11.891,2.877q2.723-12.366,5.443-24.733c.154-.7,1.233-.417,1.079.284l-5.551,25.221a.573.573,0,0,1-.68.4,62.541,62.541,0,0,1-12.465-2.969c-.673-.234-.4-1.315.283-1.078" transform="translate(21.313 -1.633)" fill="#1a1a33"/>
          <path id="Trazado_906417" data-name="Trazado 906417" d="M44.8,175.263a61.061,61.061,0,0,1,12.85,7.553c2.8,2.128,6.867,4.046,9.791.946,1.857-1.968,2.494-4.953,3.282-7.456,3.615-11.483,6.547-23.3,10.162-34.786.214-.68,1.295-.4,1.078.284l-5.89,21.215c-1.929,6.127-3.376,12.754-6.011,18.619-1.846,4.111-5.506,6.019-9.829,4.113-2.715-1.2-4.826-3.462-7.263-5.094a55.213,55.213,0,0,0-8.722-4.426c-.657-.287-.1-1.254.551-.969" transform="translate(32.464 -1.604)" fill="#1a1a33"/>
          <path id="Trazado_906418" data-name="Trazado 906418" d="M73.728,177.979q1.108-5.2,2.672-10.27c.21-.683,1.29-.4,1.078.283q-1.564,5.078-2.671,10.271c-.15.7-1.228.417-1.079-.284" transform="translate(7.566 -1.928)" fill="#1a1a33"/>
          <path id="Trazado_906419" data-name="Trazado 906419" d="M63.084,172.032q.883,2.169,1.554,4.411a.558.558,0,0,1-1.072.309q-.671-2.244-1.554-4.412c-.27-.664.8-.966,1.072-.308" transform="translate(32.006 -1.982)" fill="#1a1a33"/>
          <path id="Trazado_906420" data-name="Trazado 906420" d="M61.636,171.566l1.318,1.953c.4.6-.555,1.166-.955.574L60.68,172.14c-.4-.6.556-1.166.956-.574" transform="translate(34.987 -1.978)" fill="#1a1a33"/>
          <path id="Trazado_906421" data-name="Trazado 906421" d="M113.447,177.314c.127-.705,1.206-.42,1.077.283a22.741,22.741,0,0,0-.363,3.932.558.558,0,0,1-1.115.013,24.587,24.587,0,0,1,.4-4.228" transform="translate(-68.31 -2.047)" fill="#1a1a33"/>
          <path id="Trazado_906422" data-name="Trazado 906422" d="M71.879,71.267a25.247,25.247,0,0,1,11.363,11.36c2.9,5.863,3.192,12.519.313,18s-9.028,9.617-16.272,10.456-15.377-1.829-20.041-6.933a21.3,21.3,0,0,1-5.2-13.089,21.158,21.158,0,0,1,2.6-12.625c4.861-8.022,16.81-12.307,27.238-7.165" transform="translate(30.86 -0.713)" fill="#bf360c"/>
          <path id="Trazado_906423" data-name="Trazado 906423" d="M55.7,65.256a13.42,13.42,0,0,1,5.63,7.9A15.3,15.3,0,0,1,48.36,92.421c-4.512.487-9.164-1.436-11.425-4.982a14.051,14.051,0,0,1-1.678-9.012,17.787,17.787,0,0,1,3.026-8.6c3.878-5.426,11.649-8.212,17.419-4.57" transform="translate(61.294 -0.646)" fill="#bf360c"/>
          <path id="Trazado_906424" data-name="Trazado 906424" d="M61.319,131.18a2.185,2.185,0,0,0,1.547.048,32.912,32.912,0,0,0,12.4-7.151,1.662,1.662,0,0,0,.1-2.427l-.01-.009c-3.806-3.562-1.954-10.542-1.172-15.876L62.13,109.741a14.108,14.108,0,0,1,.574,2.722,41.282,41.282,0,0,1-.028,8.24c-.344,3.746-1,6.9-1.358,7.276-.9.919-1.393,2.562,0,3.2" transform="translate(22.321 -1.167)" fill="#ffccbc"/>
          <path id="Trazado_906425" data-name="Trazado 906425" d="M66.4,120.758c.15-.092.3-.191.449-.282a14.811,14.811,0,0,0,6.835-10.293l.01-.059-7.267,2.395a41.282,41.282,0,0,1-.028,8.24" transform="translate(18.594 -1.221)" fill="#ffab91"/>
          <path id="Trazado_906426" data-name="Trazado 906426" d="M56.264,85.615c-3.664,8.022-7.606,26.4,3.448,29.793,3.586,1.1,7.71-.5,10.642-3.107s4.911-6.075,6.831-9.471a12.607,12.607,0,0,0,4.36-.32,4.344,4.344,0,0,0,2.906-2.944,2.328,2.328,0,0,0-2.142-2.875C73.121,97.217,66,87.205,62.02,79.176c-.045-.093-3.861,3.485-4.2,3.9a11.55,11.55,0,0,0-1.556,2.535" transform="translate(21.553 -0.838)" fill="#ffccbc"/>
          <path id="Trazado_906427" data-name="Trazado 906427" d="M66.848,87.885a5.81,5.81,0,0,1,5.769.765c.654.5-.293,1.46-.942.967a4.523,4.523,0,0,0-4.494-.484c-.8.321-1.128-.93-.333-1.248" transform="translate(19.466 -0.94)" fill="#bf360c"/>
          <path id="Trazado_906428" data-name="Trazado 906428" d="M77.772,87.876a4.19,4.19,0,0,1,5.094-.494c.675.457,0,1.624-.678,1.16a2.841,2.841,0,0,0-3.5.22c-.649.57-1.57-.313-.917-.887" transform="translate(-1.861 -0.932)" fill="#bf360c"/>
          <path id="Trazado_906429" data-name="Trazado 906429" d="M71.149,93.125a.648.648,0,0,1,1.262.293l-.56,2.543a.648.648,0,0,1-1.262-.293l.56-2.543" transform="translate(15.746 -1.005)" fill="#212121"/>
          <path id="Trazado_906430" data-name="Trazado 906430" d="M81.413,92.079a.648.648,0,0,1,1.262.293l-.56,2.543a.648.648,0,0,1-1.262-.293l.56-2.543" transform="translate(-4.655 -0.992)" fill="#212121"/>
          <path id="Trazado_906431" data-name="Trazado 906431" d="M54.01,99.514A3.223,3.223,0,0,1,58.317,98.4c.71.414.037,1.577-.679,1.16a1.838,1.838,0,0,0-2.5.567c-.487.71-1.618.1-1.126-.612" transform="translate(46.032 -1.071)" fill="#ffab91"/>
          <path id="Trazado_906432" data-name="Trazado 906432" d="M71.713,108.167a6.33,6.33,0,0,0,5.018-2.223c.458-.52,1.161.214.706.731a7.381,7.381,0,0,1-5.772,2.538.524.524,0,0,1,.047-1.046" transform="translate(9.984 -1.167)" fill="#212121"/>
          <path id="Trazado_906433" data-name="Trazado 906433" d="M79.155,100.067A8.582,8.582,0,0,0,81.508,97.1c.207-.446.9-.184.688.266a8.544,8.544,0,0,1-1.748,2.543c-.661.653-1.243,1.065-.809,2.078a5.758,5.758,0,0,0,1.551,1.686c.354.305-.114.919-.471.611-.764-.661-2.52-2.081-2.3-3.283.079-.431.424-.667.732-.937" transform="translate(-1.797 -1.057)" fill="#ffab91"/>
        </g>
      </g>
    </g>
  </g>
</svg>
