<svg xmlns="http://www.w3.org/2000/svg" xmlns:xlink="http://www.w3.org/1999/xlink" width="295" height="163.884" viewBox="0 0 295 163.884">
  <defs>
    <clipPath id="clip-path">
      <rect id="Rectángulo_409505" data-name="Rectángulo 409505" width="170.943" height="159.37" fill="none"/>
    </clipPath>
    <clipPath id="clip-path-3">
      <rect id="Rectángulo_409497" data-name="Rectángulo 409497" width="1.605" height="7.742" fill="none"/>
    </clipPath>
    <clipPath id="clip-path-4">
      <rect id="Rectángulo_409498" data-name="Rectángulo 409498" width="0.694" height="3.934" fill="none"/>
    </clipPath>
    <clipPath id="clip-path-5">
      <rect id="Rectángulo_409499" data-name="Rectángulo 409499" width="2.877" height="2.795" fill="none"/>
    </clipPath>
    <clipPath id="clip-path-6">
      <rect id="Rectángulo_409500" data-name="Rectángulo 409500" width="4.799" height="12.732" fill="none"/>
    </clipPath>
    <clipPath id="clip-path-7">
      <rect id="Rectángulo_409501" data-name="Rectángulo 409501" width="13.852" height="25.042" fill="none"/>
    </clipPath>
    <clipPath id="clip-path-8">
      <rect id="Rectángulo_409502" data-name="Rectángulo 409502" width="1.772" height="1.772" fill="none"/>
    </clipPath>
    <clipPath id="clip-path-9">
      <rect id="Rectángulo_409503" data-name="Rectángulo 409503" width="27.1" height="42.006" fill="none"/>
    </clipPath>
  </defs>
  <g id="Grupo_1099442" data-name="Grupo 1099442" transform="translate(-285.332 -3605.813)">
    <rect id="Rectángulo_401121" data-name="Rectángulo 401121" width="295" height="117.429" rx="30" transform="translate(285.332 3652.269)" fill="#bfc9ff"/>
    <g id="Grupo_1119580" data-name="Grupo 1119580" transform="translate(359.043 3605.813)">
      <g id="Grupo_1119579" data-name="Grupo 1119579" clip-path="url(#clip-path)">
        <g id="Grupo_1119578" data-name="Grupo 1119578">
          <g id="Grupo_1119577" data-name="Grupo 1119577" clip-path="url(#clip-path)">
            <path id="Trazado_906434" data-name="Trazado 906434" d="M102.826,46.968H3.285A3.416,3.416,0,0,0,0,50.418V180.629a3.416,3.416,0,0,0,3.285,3.45h99.541a3.416,3.416,0,0,0,3.285-3.45V50.418a3.416,3.416,0,0,0-3.285-3.45" transform="translate(0 -30.754)" fill="#7b1fa2"/>
            <path id="Trazado_906435" data-name="Trazado 906435" d="M108.658,71.826H19.085a3.08,3.08,0,0,0-2.963,3.111V192.111a3.08,3.08,0,0,0,2.963,3.111h89.573a3.08,3.08,0,0,0,2.963-3.111V74.937a3.08,3.08,0,0,0-2.963-3.111" transform="translate(-10.557 -47.031)" fill="#eef3d9"/>
            <path id="Trazado_906436" data-name="Trazado 906436" d="M47.106,189.349a15.5,15.5,0,0,0-6.9,26.7c.183-.17.365-.34.552-.505s.4-.35.62-.508c.116-.083.235-.166.357-.24s.267-.158.4-.232c.267-.144.537-.282.8-.439.23-.138.455-.282.677-.435.454-.309.889-.641,1.312-.987l0,0,.007-.006h0a28.926,28.926,0,0,0,2.993-2.922q.687-.764,1.34-1.557c.211-.256.421-.515.629-.774.108-.134.215-.269.321-.4.1-.12.193-.242.284-.368a4.806,4.806,0,0,0,.333-.538,5.47,5.47,0,0,0,.259-.569l-.008.021a5.309,5.309,0,0,0,.225-.746,7.173,7.173,0,0,0,.121-.746v0a11.213,11.213,0,0,0,.009-1.874c-.033-.487-.083-.973-.132-1.459-.026-.256-.052-.511-.075-.765s-.041-.508-.061-.763q-.128-1.755-.251-3.508c-.022-.3-.043-.608-.065-.912-.02-.256-.04-.512-.053-.77-.025-.505-.033-1.009-.04-1.514a21,21,0,0,0-.2-3.079l0,.023q-.043-.253-.1-.5a15.525,15.525,0,0,0-3.359.379" transform="translate(-22.92 -123.737)" fill="#201c61"/>
            <path id="Trazado_906437" data-name="Trazado 906437" d="M57.691,189.328a15.44,15.44,0,0,0-6.52,3.2l2.052,2.573,8.26,10.36c.306-.889.661-1.761,1.045-2.619.454-1.011.944-2,1.437-2.994l.209-.421c.156-.367.327-.728.5-1.085.23-.462.469-.919.7-1.378.115-.226.227-.45.337-.677.1-.209.2-.418.292-.627a50.731,50.731,0,0,1,2.4-4.853,15.345,15.345,0,0,0-7.309-1.862,15.54,15.54,0,0,0-3.408.381" transform="translate(-33.507 -123.722)" fill="#d4e157"/>
            <path id="Trazado_906438" data-name="Trazado 906438" d="M70.021,206.731l-10.028,9.406-10.142,9.514-.747.7a15.478,15.478,0,0,0,22.541-21.143l-1.623,1.522" transform="translate(-32.153 -134.37)" fill="#fba92d"/>
            <path id="Trazado_906439" data-name="Trazado 906439" d="M78.528,188.96q.087,1.707.174,3.416.33,6.526.665,13.055l6.744-4.364,6.422-4.157q-.191-.338-.4-.665.2.328.391.667l-.055-.1-.024-.039-.032-.056-.028-.048-.028-.046-.075-.128-.052-.086a15.755,15.755,0,0,0-2.316-2.921l-.053-.051-.035-.033-.039-.039-.058-.056-.047-.046-.051-.049-.031-.029-.082-.076-.1-.088-.093-.084a15.87,15.87,0,0,0-5.709-3.276,15.238,15.238,0,0,0-4.614-.716c-.162,0-.322,0-.484.008" transform="translate(-51.42 -123.725)" fill="#2fc3b0"/>
            <path id="Trazado_906440" data-name="Trazado 906440" d="M109.82,101.531a18.037,18.037,0,0,0-2.85,1.015,18.339,18.339,0,0,0-2.719,1.509,15.91,15.91,0,0,0-2.335,1.9,16.539,16.539,0,0,0-1.574,1.859c-.986,1.323-1.831,2.746-2.838,4.056a12.351,12.351,0,0,1-2.075,2.145,7.676,7.676,0,0,1-3.684,1.551l.07-.008a9.206,9.206,0,0,1-1.136.079,8.911,8.911,0,0,1-1.2-.083,27.364,27.364,0,0,1-5.689-1.8c-.483-.183-.969-.357-1.462-.512a14.594,14.594,0,0,0-1.57-.4,12.011,12.011,0,0,0-5.955.32,19.38,19.38,0,0,0-2.907,1.211c-.936.462-1.853.962-2.779,1.45-.963.506-1.935,1-2.939,1.42h0c-.387.159-.776.31-1.171.447-.475.166-.958.309-1.444.439a23.587,23.587,0,0,1-2.947.576l.071-.008a44.269,44.269,0,0,1-8.724.1.267.267,0,0,0-.266.266.27.27,0,0,0,.266.266,56.543,56.543,0,0,0,5.734.143,27.756,27.756,0,0,0,5.742-.764,20.265,20.265,0,0,0,2.7-.877c.831-.335,1.639-.723,2.436-1.128,1.675-.851,3.3-1.8,5.032-2.54l-.064.028a15.687,15.687,0,0,1,1.653-.59,12.287,12.287,0,0,1,1.759-.368l-.07.008a12.523,12.523,0,0,1,1.509-.1,11.926,11.926,0,0,1,1.521.1l-.07-.008a14.444,14.444,0,0,1,1.55.3c.563.14,1.115.322,1.662.518.99.355,1.961.757,2.948,1.12a17.807,17.807,0,0,0,3,.849,10.515,10.515,0,0,0,1.426.148,8.587,8.587,0,0,0,1.585-.1,8.138,8.138,0,0,0,2.471-.814,8.758,8.758,0,0,0,1.863-1.314,13.046,13.046,0,0,0,1.541-1.7c.475-.609.914-1.247,1.345-1.887.6-.893,1.2-1.791,1.852-2.643l-.028.036a16.419,16.419,0,0,1,1.1-1.274,14.406,14.406,0,0,1,1.5-1.33,18.517,18.517,0,0,1,3.922-2.278l-.062.028a18.787,18.787,0,0,1,2.092-.743,15.854,15.854,0,0,1,2.162-.457,17.4,17.4,0,0,1,2.143-.148,17.053,17.053,0,0,1,2.291.147,18.133,18.133,0,0,1,2.2.444,17.369,17.369,0,0,1,2.139.73l-.023-.01.04.018.022.009-.015-.006a17.939,17.939,0,0,1,1.91.953,16.208,16.208,0,0,1,1.771,1.19q.265.207.521.423c.182.154.356.314.533.474a.265.265,0,0,0,.375-.375c-.148-.134-.295-.269-.446-.4-.173-.149-.352-.295-.532-.439-.378-.3-.771-.581-1.173-.847A16.709,16.709,0,0,0,121,102.476a17.535,17.535,0,0,0-5.472-1.4c-.511-.049-1.024-.073-1.537-.073a16.7,16.7,0,0,0-4.167.531M66.242,117.215l-.033.014.033-.014m54.323-14.35-.007,0-.017-.007.024.01" transform="translate(-33.853 -66.134)" fill="#d4e157"/>
            <path id="Trazado_906441" data-name="Trazado 906441" d="M97.073,97.925a6.4,6.4,0,0,0-1.671.6,7.59,7.59,0,0,0-1.464,1,10.39,10.39,0,0,0-1.293,1.333,16.872,16.872,0,0,0-1.141,1.576,35.292,35.292,0,0,0-1.977,3.589c-.59,1.195-1.152,2.4-1.766,3.587a17.781,17.781,0,0,1-1.594,2.607,12.7,12.7,0,0,1-2.129,2.152,9.941,9.941,0,0,1-2.008,1.192,9.582,9.582,0,0,1-1.17.4,9.284,9.284,0,0,1-1.142.23,11.889,11.889,0,0,1-3.012-.031A24.829,24.829,0,0,1,70.6,114.3l.064.026c-1.635-.692-3.235-1.46-4.847-2.2a42.477,42.477,0,0,0-4.582-1.873q-.555-.181-1.12-.326a12.506,12.506,0,0,0-1.5-.277,11.492,11.492,0,0,0-2.868,0,13.61,13.61,0,0,0-5.16,1.8,19.225,19.225,0,0,0-3.422,2.576,26.07,26.07,0,0,0-2.9,3.223.259.259,0,0,0-.027.2.264.264,0,0,0,.327.186.3.3,0,0,0,.159-.122l.046-.06a24.337,24.337,0,0,1,4.236-4.3,16.806,16.806,0,0,1,3.493-2.076l-.006,0a13.662,13.662,0,0,1,1.574-.554,11.85,11.85,0,0,1,1.639-.339l-.07.008a12.681,12.681,0,0,1,1.468-.1,11.322,11.322,0,0,1,1.6.1,13.235,13.235,0,0,1,1.392.278c.4.1.787.224,1.176.351.769.256,1.525.555,2.273.87l-.064-.027c3.22,1.364,6.307,3.046,9.63,4.161a17.584,17.584,0,0,0,4.827.969,10.779,10.779,0,0,0,2.33-.159,9.283,9.283,0,0,0,2.249-.72,9.98,9.98,0,0,0,2.146-1.375,12.429,12.429,0,0,0,1.934-2.018,19.066,19.066,0,0,0,1.8-2.991,68.226,68.226,0,0,1,3.787-7.171q.291-.433.61-.847a10.737,10.737,0,0,1,1.829-1.871,7.165,7.165,0,0,1,1.489-.873,6.326,6.326,0,0,1,1.439-.393,7.167,7.167,0,0,1,1.791.007l-.023,0,.026,0,.046.006-.043-.005a9.451,9.451,0,0,1,.953.192,8.01,8.01,0,0,1,1,.34,10.987,10.987,0,0,1,2.32,1.377c2.544,1.979,4.38,4.673,6.653,6.929a26.379,26.379,0,0,0,2,1.763,23.546,23.546,0,0,0,2.388,1.707,15.133,15.133,0,0,0,2.618,1.3,11.325,11.325,0,0,0,1.366.418,8.661,8.661,0,0,0,1.588.243.266.266,0,1,0,0-.531c-.18-.011-.357-.026-.535-.047a11.505,11.505,0,0,1-2.722-.772,18.475,18.475,0,0,1-3.927-2.374,28.419,28.419,0,0,1-2.259-1.941c-.613-.591-1.186-1.225-1.751-1.865-1.19-1.344-2.336-2.73-3.631-3.977a16.664,16.664,0,0,0-1.989-1.653,10.177,10.177,0,0,0-2.208-1.178,8.234,8.234,0,0,0-2.239-.5c-.186-.017-.374-.025-.561-.025a7.033,7.033,0,0,0-1.341.133M52.551,111.053l-.035.016.035-.016M82,115.569l-.025.011.025-.011m-2.29.622h0m19.635-17.8h0" transform="translate(-28.958 -64.034)" fill="#fba92d"/>
            <path id="Trazado_906442" data-name="Trazado 906442" d="M115.8,83.734q-.06,12.818-.122,25.638-.007,1.267-.012,2.536-13.876-.068-27.755-.133L59.6,111.639q-10.5-.05-21-.1l-.673,0h-.024a.354.354,0,0,0,0,.709q8.028.037,16.055.078,13.808.064,27.616.132l29,.138q2.729.012,5.457.026a.359.359,0,0,0,.355-.354q.06-12.965.123-25.929.007-1.3.012-2.6a.354.354,0,1,0-.709,0" transform="translate(-24.581 -54.596)" fill="#201c61"/>
            <rect id="Rectángulo_409495" data-name="Rectángulo 409495" width="9.937" height="37.632" transform="translate(15.29 103.04)" fill="#2fc3b0"/>
            <rect id="Rectángulo_409496" data-name="Rectángulo 409496" width="9.938" height="28.628" transform="translate(57.432 112.178)" fill="#2fc3b0"/>
            <path id="Trazado_906443" data-name="Trazado 906443" d="M93.7,348.7H83.765l-.008,20.434,5.01.008H93.7l.008-20.434Z" transform="translate(-54.844 -228.325)" fill="#fb8c00"/>
            <path id="Trazado_906444" data-name="Trazado 906444" d="M133.915,313.853h-9.938l-.008,32.462,9.945.008.008-32.462Z" transform="translate(-81.175 -205.51)" fill="#d4e157"/>
            <path id="Trazado_906445" data-name="Trazado 906445" d="M218.191,355.486h-9.936l-.008,18.092.511.008h9.434l.007-18.092Z" transform="translate(-136.359 -232.771)" fill="#fba92d"/>
            <path id="Trazado_906446" data-name="Trazado 906446" d="M73.971,405.182H40.2a1.063,1.063,0,0,0,0,2.126h67.854a1.063,1.063,0,0,0,0-2.126Z" transform="translate(-25.625 -265.312)" fill="#201c61"/>
            <path id="Trazado_906447" data-name="Trazado 906447" d="M157.063,241.27H135.657a.443.443,0,0,0,0,.886h31.564a.443.443,0,1,0,0-.886Z" transform="translate(-88.538 -157.983)" fill="#2fc3b0"/>
            <path id="Trazado_906448" data-name="Trazado 906448" d="M157.914,253.817H135.677a.443.443,0,0,0,0,.886H167.2a.443.443,0,1,0,0-.886Z" transform="translate(-88.551 -166.198)" fill="#2fc3b0"/>
            <path id="Trazado_906449" data-name="Trazado 906449" d="M156.471,266.539H136.163a.443.443,0,1,0,0,.886h31.42a.443.443,0,1,0,0-.886Z" transform="translate(-88.868 -174.529)" fill="#2fc3b0"/>
            <path id="Trazado_906450" data-name="Trazado 906450" d="M117.994,0a8.729,8.729,0,0,0-8.588,10.31,8.382,8.382,0,0,0,.531,1.8l-6.748,0H99.8a.169.169,0,0,0-.092.026.2.2,0,0,0-.1.083,8.988,8.988,0,0,0-1.7,4.463,7.881,7.881,0,0,0,.129,2.407,6.5,6.5,0,0,0,.915,2.206,6.035,6.035,0,0,0,.506.662,3.728,3.728,0,0,0,.648.61.18.18,0,0,0,.137.061H136.94a.2.2,0,0,0,.088-.022h.015a.187.187,0,0,0,.054,0,.2.2,0,0,0,.108-.084,6.187,6.187,0,0,0,.72-1.322,11.207,11.207,0,0,0,.44-1.292,11.911,11.911,0,0,0,.422-2.475,7.111,7.111,0,0,0-1.208-4.755,5.213,5.213,0,0,0-.423-.489.175.175,0,0,0-.13-.054.414.414,0,0,0-.109-.02H126.07a7.714,7.714,0,0,0,.275-.733,8.635,8.635,0,0,0,.39-3.108,8.885,8.885,0,0,0-.23-1.562A8.76,8.76,0,0,0,118.327.007C118.216,0,118.105,0,117.994,0m-.53,4.326a5.256,5.256,0,0,1,.634-.039,5.037,5.037,0,0,1,.658.043,5.281,5.281,0,0,1,1.166.321A5.219,5.219,0,0,1,121,5.277l0,0,0-.007,0,0-.025-.029a5.689,5.689,0,0,1,.868.869,5.2,5.2,0,0,1,.623,1.058,5.168,5.168,0,0,1,.33,1.193,5.177,5.177,0,0,1,0,1.329,5.14,5.14,0,0,1-.34,1.206,5.2,5.2,0,0,1-.618,1.047c-.041.053-.084.1-.129.155h-7.235c-.049-.058-.1-.119-.145-.182a5.041,5.041,0,0,1-.613-1.054,5.352,5.352,0,0,1-.329-1.225,5.186,5.186,0,0,1,0-1.249,5.156,5.156,0,0,1,.337-1.223A4.778,4.778,0,0,1,115.166,5.3a4.771,4.771,0,0,1,2.3-.97Z" transform="translate(-64.078)" fill="#201c61"/>
            <g id="Grupo_1119558" data-name="Grupo 1119558" transform="translate(71.236 13.177)" style="mix-blend-mode: soft-light;isolation: isolate">
              <g id="Grupo_1119557" data-name="Grupo 1119557">
                <g id="Grupo_1119556" data-name="Grupo 1119556" clip-path="url(#clip-path-3)">
                  <path id="Trazado_906451" data-name="Trazado 906451" d="M207.017,38.188a.111.111,0,0,0-.039.148c.048.094.093.188.134.283l0-.006,0,.009,0,.01,0,0a5.655,5.655,0,0,1,.362,1.388,7.756,7.756,0,0,1-.01,1.968l0-.008a9.162,9.162,0,0,1-.275,1.277,12.014,12.014,0,0,1-.43,1.214c-.106.248-.222.491-.341.733a.5.5,0,0,0-.049.366.484.484,0,0,0,.219.285.476.476,0,0,0,.576-.075.464.464,0,0,0,.122-.21,9.032,9.032,0,0,0,.489-1.74,11.638,11.638,0,0,0,.183-1.957,8.816,8.816,0,0,0-.177-1.906,6.913,6.913,0,0,0-.62-1.736.1.1,0,0,0-.094-.054.108.108,0,0,0-.055.014M207.477,40a.066.066,0,0,1,0,.011s0-.007,0-.011m-.361-1.376,0-.005v0l0,.009" transform="translate(-206.358 -38.173)" fill="#fefefe"/>
                </g>
              </g>
            </g>
            <g id="Grupo_1119561" data-name="Grupo 1119561" transform="translate(70.519 13.63)" style="mix-blend-mode: soft-light;isolation: isolate">
              <g id="Grupo_1119560" data-name="Grupo 1119560">
                <g id="Grupo_1119559" data-name="Grupo 1119559" clip-path="url(#clip-path-4)">
                  <path id="Trazado_906452" data-name="Trazado 906452" d="M204.365,39.487a.108.108,0,0,0-.076.132,3.642,3.642,0,0,1,.136.419,3.88,3.88,0,0,1,.078.411,7.026,7.026,0,0,1,.058.794,5.7,5.7,0,0,1-.048.781,8.58,8.58,0,0,1-.212,1.015.3.3,0,0,0,.209.367.3.3,0,0,0,.23-.029.286.286,0,0,0,.137-.179,8.22,8.22,0,0,0,.094-.886,7.056,7.056,0,0,0-.021-.944,5.56,5.56,0,0,0-.151-.914,6.977,6.977,0,0,0-.3-.893.114.114,0,0,0-.1-.079.118.118,0,0,0-.03,0" transform="translate(-204.283 -39.483)" fill="#fefefe"/>
                </g>
              </g>
            </g>
            <path id="Trazado_906453" data-name="Trazado 906453" d="M305.175,414.25H244.1a.172.172,0,0,0-.12.048.17.17,0,0,0-.084.073,13.921,13.921,0,0,0-1.721,4.811,15.8,15.8,0,0,0-.03,5.354,12.3,12.3,0,0,0,.587,2.216,10.791,10.791,0,0,0,.437,1.019,9.683,9.683,0,0,0,.647,1.109.2.2,0,0,0,.1.076.174.174,0,0,0,.122.049h62.976a.18.18,0,0,0,.169-.244,14.289,14.289,0,0,0,1.077-3.823,16.95,16.95,0,0,0,.1-4.509,11.353,11.353,0,0,0-.922-3.439,7.361,7.361,0,0,0-.867-1.434,6.518,6.518,0,0,0-.558-.628,5.928,5.928,0,0,0-.644-.544.21.21,0,0,0-.185-.134" transform="translate(-158.414 -271.249)" fill="#fba92d"/>
            <path id="Trazado_906454" data-name="Trazado 906454" d="M314.819,371.551H253.742a.174.174,0,0,0-.12.048.171.171,0,0,0-.084.073,13.922,13.922,0,0,0-1.721,4.811,15.815,15.815,0,0,0-.03,5.354,12.3,12.3,0,0,0,.587,2.215,10.843,10.843,0,0,0,.437,1.019,9.653,9.653,0,0,0,.647,1.11.2.2,0,0,0,.1.076.173.173,0,0,0,.121.049h62.976a.18.18,0,0,0,.169-.244,14.29,14.29,0,0,0,1.077-3.823,16.965,16.965,0,0,0,.1-4.509,11.343,11.343,0,0,0-.922-3.439,7.359,7.359,0,0,0-.867-1.434,6.518,6.518,0,0,0-.558-.628,5.963,5.963,0,0,0-.644-.544.21.21,0,0,0-.185-.134" transform="translate(-164.73 -243.29)" fill="#fba92d"/>
            <path id="Trazado_906455" data-name="Trazado 906455" d="M316.549,329.3H255.472a.173.173,0,0,0-.12.048.17.17,0,0,0-.084.072,13.927,13.927,0,0,0-1.721,4.812,15.8,15.8,0,0,0-.03,5.354,12.316,12.316,0,0,0,.587,2.216,10.618,10.618,0,0,0,.437,1.019,9.6,9.6,0,0,0,.647,1.109.2.2,0,0,0,.1.076.173.173,0,0,0,.122.049h62.976a.181.181,0,0,0,.181-.181.185.185,0,0,0-.011-.064,14.28,14.28,0,0,0,1.077-3.823,16.938,16.938,0,0,0,.1-4.509,11.35,11.35,0,0,0-.922-3.439,7.383,7.383,0,0,0-.867-1.434,6.428,6.428,0,0,0-.558-.628,5.9,5.9,0,0,0-.644-.544.209.209,0,0,0-.185-.134" transform="translate(-165.862 -215.622)" fill="#fba92d"/>
            <path id="Trazado_906456" data-name="Trazado 906456" d="M311.007,371.225H272.858a.266.266,0,1,0,0,.532h57.7a.266.266,0,0,0,0-.532Z" transform="translate(-178.492 -243.077)" fill="#c97906"/>
            <path id="Trazado_906457" data-name="Trazado 906457" d="M291.571,413.41h-44.04a.266.266,0,1,0,0,.532h66.057a.266.266,0,1,0,0-.532Z" transform="translate(-161.908 -270.699)" fill="#c97906"/>
            <path id="Trazado_906458" data-name="Trazado 906458" d="M339.055,418.107v11.872a.177.177,0,0,0,.355,0V418.107a.177.177,0,0,0-.355,0" transform="translate(-222.012 -273.659)" fill="#c97906"/>
            <path id="Trazado_906459" data-name="Trazado 906459" d="M317.777,418.406V429.92a.177.177,0,0,0,.355,0V418.406a.177.177,0,0,0-.355,0" transform="translate(-208.079 -273.855)" fill="#c97906"/>
            <path id="Trazado_906460" data-name="Trazado 906460" d="M297.683,418.208V430.08a.177.177,0,0,0,.355,0V418.208a.177.177,0,0,0-.355,0" transform="translate(-194.922 -273.725)" fill="#c97906"/>
            <path id="Trazado_906461" data-name="Trazado 906461" d="M276.406,418.506V430.02a.177.177,0,1,0,.354,0V418.506a.177.177,0,1,0-.354,0" transform="translate(-180.99 -273.92)" fill="#c97906"/>
            <path id="Trazado_906462" data-name="Trazado 906462" d="M256.039,417.622v11.872a.177.177,0,0,0,.355,0V417.622a.177.177,0,0,0-.355,0" transform="translate(-167.653 -273.341)" fill="#c97906"/>
            <path id="Trazado_906463" data-name="Trazado 906463" d="M421.509,418.632v11.514a.177.177,0,0,0,.355,0V418.632a.177.177,0,0,0-.355,0" transform="translate(-276.003 -274.003)" fill="#c97906"/>
            <path id="Trazado_906464" data-name="Trazado 906464" d="M401.415,418.435v11.872a.177.177,0,0,0,.355,0V418.435a.177.177,0,0,0-.355,0" transform="translate(-262.845 -273.874)" fill="#c97906"/>
            <path id="Trazado_906465" data-name="Trazado 906465" d="M380.138,418.734v11.514a.177.177,0,0,0,.355,0V418.734a.177.177,0,0,0-.355,0" transform="translate(-248.913 -274.07)" fill="#c97906"/>
            <path id="Trazado_906466" data-name="Trazado 906466" d="M359.771,417.849v11.872a.177.177,0,0,0,.354,0V417.849a.177.177,0,0,0-.354,0" transform="translate(-235.577 -273.49)" fill="#c97906"/>
            <path id="Trazado_906467" data-name="Trazado 906467" d="M345.552,375.373v11.872a.177.177,0,0,0,.355,0V375.373a.177.177,0,0,0-.355,0" transform="translate(-226.266 -245.677)" fill="#c97906"/>
            <path id="Trazado_906468" data-name="Trazado 906468" d="M324.275,375.672v11.514a.177.177,0,0,0,.355,0V375.672a.177.177,0,0,0-.355,0" transform="translate(-212.334 -245.873)" fill="#c97906"/>
            <path id="Trazado_906469" data-name="Trazado 906469" d="M304.181,375.474v11.872a.177.177,0,0,0,.355,0V375.474a.177.177,0,0,0-.355,0" transform="translate(-199.177 -245.743)" fill="#c97906"/>
            <path id="Trazado_906470" data-name="Trazado 906470" d="M282.9,375.772v11.514a.177.177,0,0,0,.355,0V375.772a.177.177,0,0,0-.355,0" transform="translate(-185.244 -245.938)" fill="#c97906"/>
            <path id="Trazado_906471" data-name="Trazado 906471" d="M262.538,374.888V386.76a.177.177,0,0,0,.355,0V374.888a.177.177,0,0,0-.355,0" transform="translate(-171.909 -245.359)" fill="#c97906"/>
            <path id="Trazado_906472" data-name="Trazado 906472" d="M428.008,375.9v11.514a.177.177,0,0,0,.355,0V375.9a.177.177,0,0,0-.355,0" transform="translate(-280.258 -246.021)" fill="#c97906"/>
            <path id="Trazado_906473" data-name="Trazado 906473" d="M407.914,375.7v11.872a.177.177,0,0,0,.355,0V375.7a.177.177,0,0,0-.355,0" transform="translate(-267.101 -245.892)" fill="#c97906"/>
            <path id="Trazado_906474" data-name="Trazado 906474" d="M386.636,376v11.514a.177.177,0,0,0,.355,0V376a.177.177,0,0,0-.355,0" transform="translate(-253.168 -246.087)" fill="#c97906"/>
            <path id="Trazado_906475" data-name="Trazado 906475" d="M366.27,375.115v11.872a.177.177,0,0,0,.355,0V375.115a.177.177,0,0,0-.355,0" transform="translate(-239.832 -245.508)" fill="#c97906"/>
            <path id="Trazado_906476" data-name="Trazado 906476" d="M348.744,333.067v11.872a.177.177,0,0,0,.355,0V333.067a.177.177,0,0,0-.355,0" transform="translate(-228.356 -217.975)" fill="#c97906"/>
            <path id="Trazado_906477" data-name="Trazado 906477" d="M327.467,333.365v11.514a.177.177,0,0,0,.355,0V333.365a.177.177,0,0,0-.355,0" transform="translate(-214.424 -218.17)" fill="#c97906"/>
            <path id="Trazado_906478" data-name="Trazado 906478" d="M307.374,333.168V345.04a.177.177,0,1,0,.354,0V333.168a.177.177,0,1,0-.354,0" transform="translate(-201.267 -218.041)" fill="#c97906"/>
            <path id="Trazado_906479" data-name="Trazado 906479" d="M286.1,333.466V344.98a.177.177,0,0,0,.354,0V333.466a.177.177,0,0,0-.354,0" transform="translate(-187.335 -218.236)" fill="#c97906"/>
            <path id="Trazado_906480" data-name="Trazado 906480" d="M265.729,332.582v11.872a.177.177,0,0,0,.355,0V332.582a.177.177,0,0,0-.355,0" transform="translate(-173.998 -217.658)" fill="#c97906"/>
            <path id="Trazado_906481" data-name="Trazado 906481" d="M431.2,333.592v11.514a.177.177,0,1,0,.354,0V333.592a.177.177,0,1,0-.354,0" transform="translate(-282.348 -218.319)" fill="#c97906"/>
            <path id="Trazado_906482" data-name="Trazado 906482" d="M411.105,333.394v11.872a.177.177,0,0,0,.354,0V333.394a.177.177,0,0,0-.354,0" transform="translate(-269.19 -218.189)" fill="#c97906"/>
            <path id="Trazado_906483" data-name="Trazado 906483" d="M389.828,333.693v11.514a.177.177,0,0,0,.355,0V333.693a.177.177,0,0,0-.355,0" transform="translate(-255.258 -218.385)" fill="#c97906"/>
            <path id="Trazado_906484" data-name="Trazado 906484" d="M369.461,332.809v11.872a.177.177,0,0,0,.354,0V332.809a.177.177,0,1,0-.354,0" transform="translate(-241.922 -217.806)" fill="#c97906"/>
            <path id="Trazado_906485" data-name="Trazado 906485" d="M267.027,424.131a.189.189,0,0,0-.092.024.183.183,0,0,0-.085.11.194.194,0,0,0,.02.137l.041.1-.016-.041c.019.044.037.088.055.134a8.359,8.359,0,0,0-2.357.73,10.313,10.313,0,0,0-2.169,1.431,15.325,15.325,0,0,0-1.849,1.891,24.452,24.452,0,0,0-1.582,2.147c-.212.317-.418.636-.62.959a4.336,4.336,0,0,0-.411.776,1.011,1.011,0,0,0-.068.308.473.473,0,0,0,.011.142.492.492,0,0,0,.074.166.389.389,0,0,0,.1.094.448.448,0,0,0,.138.062.848.848,0,0,0,.241.031,1.86,1.86,0,0,0,.187-.011,3.29,3.29,0,0,0,.576-.127c.277-.08.552-.168.825-.261.477-.161.979-.35,1.582-.594.94-.382,1.877-.811,2.784-1.226l.314-.143c.182-.084.366-.167.549-.249.391-.176.783-.353,1.168-.542a8.186,8.186,0,0,0,1.6-.994.216.216,0,0,0,.132-.188,12.7,12.7,0,0,0-.266-2.41,11.489,11.489,0,0,0-.729-2.365.175.175,0,0,0-.11-.084.156.156,0,0,0-.045-.006" transform="translate(-168.867 -277.719)" fill="#021621"/>
            <path id="Trazado_906486" data-name="Trazado 906486" d="M198.04,376.652a.2.2,0,0,0-.081-.048.18.18,0,0,0-.138.018.193.193,0,0,0-.084.11l-.04.1.018-.04c-.018.045-.036.089-.056.134a8.349,8.349,0,0,0-2.183-1.15,10.328,10.328,0,0,0-2.545-.522,15.293,15.293,0,0,0-2.644.03,24.41,24.41,0,0,0-2.638.4c-.374.075-.745.154-1.117.24a4.4,4.4,0,0,0-.84.258,1.022,1.022,0,0,0-.265.169.476.476,0,0,0-.158.278.384.384,0,0,0,0,.137.459.459,0,0,0,.053.143.86.86,0,0,0,.149.192,1.681,1.681,0,0,0,.14.124,3.272,3.272,0,0,0,.5.319c.252.139.51.271.768.4.451.224.94.446,1.539.7.934.395,1.9.754,2.835,1.1l.324.12.564.212c.4.152.8.3,1.209.444a8.206,8.206,0,0,0,1.835.429.216.216,0,0,0,.226-.04,12.677,12.677,0,0,0,1.516-1.892,11.494,11.494,0,0,0,1.156-2.188.168.168,0,0,0-.019-.137.154.154,0,0,0-.028-.036" transform="translate(-121.311 -245.685)" fill="#021621"/>
            <path id="Trazado_906487" data-name="Trazado 906487" d="M293.377,113.163c-.242,0-.509.015-.793.043a6.25,6.25,0,0,0-2.376.785,6.326,6.326,0,0,0-1.022.722,6.175,6.175,0,0,0-.853.907,5.563,5.563,0,0,0-.65,1.075,5.021,5.021,0,0,0-.4,1.223,4.259,4.259,0,0,0-.067.626,5.206,5.206,0,0,0,.032.665,7.482,7.482,0,0,0,.276,1.258c.077.258.163.514.249.769l.03.089a12.573,12.573,0,0,1,.459,1.568c.032.165.057.332.073.5a3.679,3.679,0,0,1-.022.824,4.6,4.6,0,0,1-.31.72,6.114,6.114,0,0,1-.354.542.135.135,0,0,0-.066.057,3.407,3.407,0,0,1-.453.556,8.443,8.443,0,0,1-1.364,1.008l-.067.042c-.207.133-.415.266-.617.408a5.094,5.094,0,0,0-.943.831,4.763,4.763,0,0,0-.673,1.035,4.622,4.622,0,0,0-.369,1.122,4.455,4.455,0,0,0,.681,3.325,4.6,4.6,0,0,0,1.255,1.258c.118.082.24.158.365.23a6.182,6.182,0,0,0-.491.909,6.805,6.805,0,0,0-.568,2.187,5.275,5.275,0,0,0,.258,2.166,4.391,4.391,0,0,0,.487.978,4.463,4.463,0,0,0,.751.863,3.935,3.935,0,0,0,.334.271l.128.09a.207.207,0,0,0,.117.038,51.926,51.926,0,0,0,12,3.778,34.6,34.6,0,0,0,4.279.475c.437.02.88.031,1.316.031.263,0,.526,0,.789-.011.361-.008.721-.026,1.081-.05q.245-.017.49-.038l.119-.009.058-.005c.135-.012.267-.024.4-.041a.168.168,0,0,0,.1-.052c.152.015.314.021.475.021a6.814,6.814,0,0,0,2.444-.454,7.325,7.325,0,0,0,2.06-1.206,8.755,8.755,0,0,0,1.565-1.688,9.57,9.57,0,0,0,1.106-2.052,9.074,9.074,0,0,0,.64-3.314,7.576,7.576,0,0,0-.319-2.191,6.465,6.465,0,0,0,.727-.375,7.329,7.329,0,0,0,.968-.683,5.4,5.4,0,0,0,.8-.83,3.833,3.833,0,0,0,.54-.976,3.234,3.234,0,0,0,.207-1.117,4.1,4.1,0,0,0-.044-.612,3.946,3.946,0,0,0-.144-.636,4.518,4.518,0,0,0-.509-1.083,9.566,9.566,0,0,0-1.681-1.871l-.316-.288c-.217-.2-.425-.386-.627-.58s-.355-.346-.5-.5a6.656,6.656,0,0,1-.51-.626,8.848,8.848,0,0,1-.689-1.14,12.124,12.124,0,0,1-.542-1.247c-.188-.516-.352-1.021-.562-1.679l-.021-.065-.021-.065c-.094-.294-.188-.589-.288-.883-.182-.544-.336-.957-.5-1.337a8.756,8.756,0,0,0-.579-1.117,7.006,7.006,0,0,0-1.473-1.712,6.651,6.651,0,0,0-.875-.616,6.916,6.916,0,0,0-.958-.469,8.654,8.654,0,0,0-2.4-.565c-.386-.039-.784-.059-1.184-.059-.447,0-.92.023-1.445.071-.212.019-.431.029-.652.029a8.162,8.162,0,0,1-1.35-.115,17.674,17.674,0,0,1-2.556-.71l-.281-.1a23.4,23.4,0,0,0-2.28-.7,9.25,9.25,0,0,0-1.316-.211c-.188-.015-.375-.023-.569-.023" transform="translate(-185.317 -74.099)" fill="#fba92d"/>
            <path id="Trazado_906488" data-name="Trazado 906488" d="M295.546,182.329h0" transform="translate(-193.522 -119.388)" fill="#e38907"/>
            <path id="Trazado_906489" data-name="Trazado 906489" d="M356.588,188.109h0" transform="translate(-233.492 -123.173)" fill="#e38907"/>
            <path id="Trazado_906490" data-name="Trazado 906490" d="M299.764,124.59a5.718,5.718,0,0,0-.731.047,4.159,4.159,0,0,0-.549.112,3.84,3.84,0,0,0-.468.162,3.645,3.645,0,0,0-.778.454,4.16,4.16,0,0,0-.678.685,6.106,6.106,0,0,0-.757,1.344,14.747,14.747,0,0,0-.642,2c-.083.323-.162.646-.24.968q-.106.434-.213.865a16.463,16.463,0,0,1-.522,1.727,8.224,8.224,0,0,1-.34.781c-.231.452-.5.881-.674,1.164l-.21.328a13.528,13.528,0,0,0-1.122,1.994,5.389,5.389,0,0,0-.219.627,4.887,4.887,0,0,0-.129.618,4.559,4.559,0,0,0-.037.6c.006.188.018.366.039.544a3.92,3.92,0,0,0,.09.423,3.163,3.163,0,0,0,.135.388,2.99,2.99,0,0,0,.167.324c.064.1.13.2.2.3a4,4,0,0,0,.421.452c.138.128.295.26.482.4.164.126.33.248.5.369l.217.159c.193.144.448.335.7.544a.085.085,0,0,1,.023.078.1.1,0,0,1-.039.05c-.109.076-.214.154-.32.234a7.161,7.161,0,0,0-.668.579,7.006,7.006,0,0,0-.533.6,5.162,5.162,0,0,0-.379.561,4.886,4.886,0,0,0-.292.578,4.34,4.34,0,0,0-.2.571,5.369,5.369,0,0,0-.122.583,4.914,4.914,0,0,0-.041.653,4.952,4.952,0,0,0,.2,1.384,6.411,6.411,0,0,0,.258.735,7.111,7.111,0,0,0,.453.888c.067.109.134.216.2.323a50.569,50.569,0,0,0,10.981,3.343,35.487,35.487,0,0,0,4.281.475c.524.02.954.03,1.317.03q.395,0,.789-.011c.361-.008.721-.026,1.082-.049q.245-.017.49-.038l.119-.01.057-.006.061-.006.065-.007c.093-.008.181-.017.271-.028a.213.213,0,0,0,.107-.058,3.226,3.226,0,0,0,.464.026c.173,0,.369-.009.6-.029l.065-.1a5.948,5.948,0,0,0,.332-.65,4.272,4.272,0,0,0,.3-1.059,3.977,3.977,0,0,0,.032-.5,4.24,4.24,0,0,0-.035-.473,2.834,2.834,0,0,0-.07-.349,2.443,2.443,0,0,0-.1-.288,3.648,3.648,0,0,0-.371-.636c-.062-.09-.128-.178-.192-.268l-.048-.065c-.059-.081-.119-.162-.175-.243a3.629,3.629,0,0,1-.346-.6,1.905,1.905,0,0,1-.1-.3,2.118,2.118,0,0,1-.055-.328,1.6,1.6,0,0,1,.072-.647,2.057,2.057,0,0,1,.257-.5,6.466,6.466,0,0,1,.436-.531l.037-.043c.094-.109.189-.218.279-.331a3.256,3.256,0,0,0,.2-.3,2.921,2.921,0,0,0,.163-.317,3.014,3.014,0,0,0,.132-.384,3.179,3.179,0,0,0,.081-.4,3.438,3.438,0,0,0,.033-.5,5.18,5.18,0,0,0-.037-.528,4.473,4.473,0,0,0-.3-1.1,3.892,3.892,0,0,0-.245-.475,4.684,4.684,0,0,0-.281-.411,5.737,5.737,0,0,0-.65-.7c-.213-.2-.447-.391-.716-.6-.238-.183-.479-.36-.723-.534l-.056-.041c-.266-.194-.534-.388-.793-.59a9.146,9.146,0,0,1-.8-.688,5.243,5.243,0,0,1-.658-.768,3.951,3.951,0,0,1-.47-.908,5.4,5.4,0,0,1-.18-.652c-.05-.225-.092-.457-.122-.688a13.645,13.645,0,0,1-.115-1.388c-.01-.245-.016-.49-.021-.735a19.687,19.687,0,0,0-.122-2.052,7.461,7.461,0,0,0-.166-.852,6.285,6.285,0,0,0-.292-.867,5.632,5.632,0,0,0-.314-.622,6.65,6.65,0,0,0-.425-.632,12.372,12.372,0,0,0-2.192-2.183,11.252,11.252,0,0,0-2.4-1.424,8.48,8.48,0,0,0-.944-.331,7.082,7.082,0,0,0-.968-.2,6.364,6.364,0,0,0-.789-.051" transform="translate(-190.843 -81.581)" fill="#ed9618"/>
            <path id="Trazado_906491" data-name="Trazado 906491" d="M297.01,140.413c-.035,0-.069,0-.1.006a1.656,1.656,0,0,0-.981.525,2.745,2.745,0,0,0-.362.442,2.584,2.584,0,0,0-.244.5,3.508,3.508,0,0,0-.212,1.088,4.678,4.678,0,0,0,.1,1.2,4.542,4.542,0,0,0,.387,1.118,3.21,3.21,0,0,0,.625.872.168.168,0,0,0,.233,0,.171.171,0,0,0,.048-.117.16.16,0,0,0-.048-.116,2.639,2.639,0,0,1-.2-.219.158.158,0,0,0,.087.021.269.269,0,0,0,.13-.034,4.9,4.9,0,0,0,1.1-.811,3.863,3.863,0,0,0,.425-.515,3.286,3.286,0,0,0,.34-.638,2.842,2.842,0,0,0,.2-1.162,3.535,3.535,0,0,0-.061-.549,2.687,2.687,0,0,0-.152-.516,1.983,1.983,0,0,0-.555-.814,1.19,1.19,0,0,0-.751-.286" transform="translate(-193.231 -91.942)" fill="#f0bea9"/>
            <path id="Trazado_906492" data-name="Trazado 906492" d="M299.148,142.2a.092.092,0,0,0,.063.109.713.713,0,0,1,.08.029h0a1,1,0,0,1,.178.108,1.2,1.2,0,0,1,.165.172.257.257,0,0,1-.018-.022,1.715,1.715,0,0,1,.168.3,3.467,3.467,0,0,1,.2.8c.019.146.03.292.036.439a.187.187,0,0,0,.374,0,3.14,3.14,0,0,0-.049-.577,2.315,2.315,0,0,0-.206-.623,1.636,1.636,0,0,0-.374-.5,1.326,1.326,0,0,0-.507-.289.07.07,0,0,0-.023,0,.092.092,0,0,0-.086.065m.322.248.011.009-.011-.009m.32.462.007.016-.007-.016m.2.8,0,.023c0-.008,0-.016,0-.023" transform="translate(-195.879 -93.069)" fill="#da8c67"/>
            <path id="Trazado_906493" data-name="Trazado 906493" d="M302.929,123.234a3.353,3.353,0,0,0-1.348.262.184.184,0,0,0-.11.2,5.224,5.224,0,0,0-.516.6,5.459,5.459,0,0,0-.4.636,6.915,6.915,0,0,0-.533,1.349c-.123.418-.22.852-.314,1.271l-.037.166c-.11.486-.23,1-.395,1.511a15.451,15.451,0,0,1-.824,1.88c-.141.288-.282.574-.414.865a9.182,9.182,0,0,0-.522,1.427,7.961,7.961,0,0,0-.223,1.262,7.623,7.623,0,0,0-.015,1.219,7.14,7.14,0,0,0,.184,1.163,6.845,6.845,0,0,0,.912,2.1,7.58,7.58,0,0,0,3.223,2.731,8.7,8.7,0,0,0,1.1.418,6.835,6.835,0,0,1-.2.954h0a6.074,6.074,0,0,1-.626,1.457l.028-.03a4.681,4.681,0,0,1-.695.855l0,0a4.2,4.2,0,0,1-.738.543c-.118.064-.24.125-.366.18q-.078.318-.137.64c-.1.515-.169,1.036-.23,1.556,0,.032-.007.065-.011.1.013.03.027.06.042.089a3.529,3.529,0,0,0,1.023,1.238,4.669,4.669,0,0,0,1.474.731,7.392,7.392,0,0,0,1.748.3c.18.01.36.015.541.015a10.4,10.4,0,0,0,3.035-.461,7.271,7.271,0,0,0,1.457-.61,5.942,5.942,0,0,0,1.145-.846,9.368,9.368,0,0,0,.921-1.021.161.161,0,0,0,.074.017.177.177,0,0,0,.137-.065.2.2,0,0,0,.037-.145.16.16,0,0,0-.065-.109,5.065,5.065,0,0,1-.748-.643l0,.005a4.5,4.5,0,0,1-.61-.826,4.144,4.144,0,0,1-.366-.915,4.678,4.678,0,0,1-.126-1.14,5.8,5.8,0,0,1,.23-1.424,8.3,8.3,0,0,1,.864-1.913l-.006.009c.1-.154.2-.306.3-.454a3.25,3.25,0,0,0,.406.069,4.273,4.273,0,0,0,.459.022c.115,0,.231,0,.348-.008a4.681,4.681,0,0,0,1.12-.2,4.539,4.539,0,0,0,1.063-.479,3.468,3.468,0,0,0,.865-.749,2.642,2.642,0,0,0,.572-2.152,2.048,2.048,0,0,0-.436-.913,2.173,2.173,0,0,0-.792-.587,2.412,2.412,0,0,0-.992-.2H313.4a2.357,2.357,0,0,0-.666.109,8.08,8.08,0,0,0,.735-2.1,6.345,6.345,0,0,0,.015-2.347,6.229,6.229,0,0,0-.316-1.108,6.845,6.845,0,0,0-.521-1.055,8.828,8.828,0,0,0-1.619-1.955,11.386,11.386,0,0,0-1.841-1.394,17.327,17.327,0,0,0-4.063-1.765,8.017,8.017,0,0,0-2.18-.333Z" transform="translate(-194.645 -80.693)" fill="#f6cfbe"/>
            <path id="Trazado_906494" data-name="Trazado 906494" d="M310.6,185.466l0,.006.006,0Z" transform="translate(-203.379 -121.442)" fill="#f6cfbe"/>
            <path id="Trazado_906495" data-name="Trazado 906495" d="M307.739,123.21a3.332,3.332,0,0,0-1.351.264.19.19,0,0,0-.115.211,5.055,5.055,0,0,0-.515.6,5.821,5.821,0,0,0-.4.638,6.936,6.936,0,0,0-.533,1.35c-.083.282-.155.573-.22.85.056-.039.112-.077.169-.115a9.712,9.712,0,0,1,.924-.545,12.85,12.85,0,0,1,2-.808.074.074,0,0,1,.029-.006.088.088,0,0,1,.061.023l.013,0,.018,0a.087.087,0,0,1,.048.015.1.1,0,0,1,.037.057c.022.084.047.166.074.248l0,0a.171.171,0,0,1,.007.019,7.106,7.106,0,0,0,.378.915,8.9,8.9,0,0,0,.489.852l0-.007A12.651,12.651,0,0,0,311,130.213l0,0a14.825,14.825,0,0,0,1.511,1.181,15.514,15.514,0,0,0,1.773,1.037l-.021-.01a15.009,15.009,0,0,0,1.847.771c.314.107.631.205.952.288.291.077.585.144.88.2l-.022,0,.238.046q.075-.272.129-.547a6.34,6.34,0,0,0,.015-2.348,6.257,6.257,0,0,0-.317-1.11,6.813,6.813,0,0,0-.522-1.055,8.846,8.846,0,0,0-1.619-1.958A11.28,11.28,0,0,0,314,125.312a15.635,15.635,0,0,0-1.835-.951,15.952,15.952,0,0,0-2.23-.814,7.981,7.981,0,0,0-2.182-.336Zm.238,2.771c0,.006,0,.011,0,.015s0-.01,0-.015m.858,1.762a.091.091,0,0,1,.008.012Z" transform="translate(-199.454 -80.677)" fill="#f0bea9"/>
            <path id="Trazado_906496" data-name="Trazado 906496" d="M315.925,177.93a7.693,7.693,0,0,1-1.53.223,6.382,6.382,0,0,1-1.525-.108,5.338,5.338,0,0,1-.561-.141,7.912,7.912,0,0,1-.2.923c-.048.165-.1.323-.156.473l.109.013a6.869,6.869,0,0,0,.908.026,7.5,7.5,0,0,0,.918-.093h-.011a6.4,6.4,0,0,0,.793-.187,6.086,6.086,0,0,0,.75-.28h0s0,0,0,0,0,0,0,0h0l.011-.006-.011.006.014-.007h0l0,0a5.3,5.3,0,0,0,.569-.306,5.416,5.416,0,0,0,.486-.342h0a4.317,4.317,0,0,0,.417-.382c.059-.065.117-.129.174-.2a7.584,7.584,0,0,1-1.151.382m-2.053,1.318h0" transform="translate(-204.262 -116.258)" fill="#da8c67"/>
            <path id="Trazado_906497" data-name="Trazado 906497" d="M322.1,178.18q-.186.034-.374.063c.168-.022.336-.051.5-.088l-.129.025" transform="translate(-210.667 -116.655)" fill="#da8c67"/>
            <path id="Trazado_906498" data-name="Trazado 906498" d="M312.279,182.645h0" transform="translate(-204.471 -119.595)" fill="#da8c67"/>
            <path id="Trazado_906499" data-name="Trazado 906499" d="M312.313,182.649h0" transform="translate(-204.494 -119.597)" fill="#da8c67"/>
            <path id="Trazado_906500" data-name="Trazado 906500" d="M339.87,161.026a.148.148,0,0,0-.1.05.158.158,0,0,0-.035.11c0,.115.005.231,0,.348v.016c-.008.153-.021.3-.043.454a3.73,3.73,0,0,1-.112.495v0a.052.052,0,0,0,0,.008l-.007.024,0-.012a3.493,3.493,0,0,1-.349.752,3.065,3.065,0,0,1-.468.559l.017-.017c-.04.037-.081.072-.125.107a.089.089,0,1,0,.1.145,3.564,3.564,0,0,0,.548-.551,3.425,3.425,0,0,0,.425-.713,3.747,3.747,0,0,0,.249-.8,3.11,3.11,0,0,0,.05-.839.147.147,0,0,0-.145-.133h-.014m-.627,2.222-.01.016a.094.094,0,0,1,.01-.016m.337-.734,0-.011v0l-.005.016m.16-.965v0" transform="translate(-221.725 -105.439)" fill="#da8c67"/>
            <path id="Trazado_906501" data-name="Trazado 906501" d="M342.662,160.086a2.011,2.011,0,0,0-.384.115,1.189,1.189,0,0,0-.338.2.126.126,0,0,0-.03.153.118.118,0,0,0,.043.05.121.121,0,0,0,.1.019c.13-.043.255-.1.383-.143l-.01,0,.013,0,.027-.01-.018.007c.092-.029.186-.054.281-.076a2.381,2.381,0,0,1,.321-.045,2.107,2.107,0,0,1,.477.03c.055.014.108.028.161.045a1.531,1.531,0,0,1,.171.072h0a1.463,1.463,0,0,1,.28.191,1.532,1.532,0,0,1,.182.21c.026.041.051.081.072.124a.09.09,0,0,0,.119.04.088.088,0,0,0,.04-.119,2.067,2.067,0,0,0-.191-.295,1.54,1.54,0,0,0-.269-.266,1.664,1.664,0,0,0-.321-.19,1.51,1.51,0,0,0-.361-.115,1.946,1.946,0,0,0-.346-.035h-.031a1.954,1.954,0,0,0-.365.038m.413.269h0m.448.033.029.006-.029-.006m-1.089.093h0l.012,0-.009,0" transform="translate(-223.873 -104.799)" fill="#da8c67"/>
            <path id="Trazado_906502" data-name="Trazado 906502" d="M289.911,189.132a.241.241,0,0,0-.061.006.2.2,0,0,0-.106.083l-.034.046-.06.078a15.612,15.612,0,0,1-2.83,2.64l-.3.232a17.6,17.6,0,0,0-3.387,3.109,8.882,8.882,0,0,0-.706,1.082,9.474,9.474,0,0,0-.634,1.447,7.755,7.755,0,0,0-.413,2.836,13.932,13.932,0,0,0,1.2,4.549l.242.6c.23.573.47,1.167.686,1.76.174.477.293.845.385,1.2a10.375,10.375,0,0,1,.241,1.207,10.7,10.7,0,0,1,0,2.739v-.007a11.33,11.33,0,0,1-.767,2.8,12.3,12.3,0,0,1-1.523,2.614l-.019.033h0l-.087.1a.2.2,0,0,0-.053.127.183.183,0,0,0,.053.129.192.192,0,0,0,.155.145,35.512,35.512,0,0,1,7.309,1.643c1.185.381,2.382.8,3.538,1.2.911.316,1.82.631,2.735.934,1.174.389,2.15.686,3.074.938.5.137,1.005.269,1.509.4.577.151,1.156.3,1.73.46s1.078.31,1.542.458h-.005c.384.123.745.248,1.1.379.338.126.7.27,1.139.454a.188.188,0,0,0,.079.017.175.175,0,0,0,.162-.1.191.191,0,0,0-.025-.2c.075-1.251.123-2.4.148-3.517.025-1.155.03-2.322.035-3.515.01-2.532-.019-4.834-.087-7.038-.038-1.239-.087-2.389-.149-3.515-.045-.825-.1-1.65-.159-2.473l-.038-.54-.035-.521c-.083-1.211-.169-2.464-.306-3.692a27.094,27.094,0,0,0-.833-4.481,15.379,15.379,0,0,0-.76-2.081,10.094,10.094,0,0,0-1.066-1.834,8.035,8.035,0,0,0-1.026-1.143,6.827,6.827,0,0,0-.964-.739c-.18-.1-.361-.187-.544-.276a.211.211,0,0,0-.031.028c-.111.119-.223.235-.339.35a5.686,5.686,0,0,1-1.163.826l.01,0a8.254,8.254,0,0,1-1.835.716l-.033.012v0a8.569,8.569,0,0,1-2.068.257h-.047l.046.007a6.891,6.891,0,0,1-1.737-.244l.045.02a5.129,5.129,0,0,1-1.156-.5,4.07,4.07,0,0,1-.728-.584,3.781,3.781,0,0,1-.541-.74l0,.007a4.2,4.2,0,0,1-.322-.8.174.174,0,0,0-.171-.113Z" transform="translate(-184.241 -123.843)" fill="#d4e157"/>
            <path id="Trazado_906503" data-name="Trazado 906503" d="M217.113,187.727a.16.16,0,0,0-.079.024l-.057.034h-.019a.3.3,0,0,1-.089-.014.649.649,0,0,0-.144-.015h0a.654.654,0,0,0-.157.022.49.49,0,0,0-.243.163.8.8,0,0,0-.15.321,1.8,1.8,0,0,0-.043.5.146.146,0,0,0,.089.125,2.45,2.45,0,0,0-.043.519,4.227,4.227,0,0,0,.171,1.056,9.192,9.192,0,0,0,.357,1.027c.06.147.122.294.184.439l.046.106c.032.076.064.153.1.227a4.93,4.93,0,0,0,.317.532,7.525,7.525,0,0,0,1.057,1.282,2.557,2.557,0,0,0,.581.43.981.981,0,0,0,.267.094.543.543,0,0,0,.11.011.708.708,0,0,0,.179-.025.559.559,0,0,0,.226-.145.74.74,0,0,0,.163-.28,1.683,1.683,0,0,0,.09-.4,3.111,3.111,0,0,0,.01-.57,5.016,5.016,0,0,0-.253-1.2,9.042,9.042,0,0,0-.512-1.239c-.173-.356-.38-.73-.631-1.145-.225-.369-.42-.663-.615-.927a3.345,3.345,0,0,0-.537-.569,2.017,2.017,0,0,0-.251-.181.138.138,0,0,0-.009-.146.134.134,0,0,0-.088-.054Z" transform="translate(-141.521 -122.923)" fill="#f6cfbe"/>
            <path id="Trazado_906504" data-name="Trazado 906504" d="M216.585,191.807l0,0Z" transform="translate(-141.819 -125.592)" fill="#da8c67"/>
            <path id="Trazado_906505" data-name="Trazado 906505" d="M214.9,193.317h0" transform="translate(-140.719 -126.583)" fill="#da8c67"/>
            <path id="Trazado_906506" data-name="Trazado 906506" d="M284.439,202.313a12.294,12.294,0,0,0-1.837,1.968,8.934,8.934,0,0,0-1.227,2.3,7.988,7.988,0,0,0-.334,1.264,8.219,8.219,0,0,0-.116,1.337,9.822,9.822,0,0,0,.474,2.906c.27.9.621,1.77.963,2.644a22.678,22.678,0,0,1,.9,2.659c-.006-.019-.009-.039-.015-.058a11.773,11.773,0,0,1,.343,2.925s0-.008,0-.012a10.974,10.974,0,0,1-.1,1.331,10.257,10.257,0,0,1-.294,1.383,12.68,12.68,0,0,1-.52,1.436,12.207,12.207,0,0,1-.737,1.451l-.031.05-.035.057a.249.249,0,0,0-.018.127.254.254,0,0,0,.09.165.249.249,0,0,0,.186.053.257.257,0,0,0,.2-.147c.114-.226.229-.452.339-.678q.177-.363.331-.735a13.66,13.66,0,0,0,.509-1.427,12.406,12.406,0,0,0,.5-2.929,11.283,11.283,0,0,0-.031-1.528,10.43,10.43,0,0,0-.253-1.517,22.129,22.129,0,0,0-.969-2.89,29.048,29.048,0,0,1-1.189-3.4l0,.016a10.762,10.762,0,0,1-.213-1.087,7.653,7.653,0,0,1-.073-1.111s0,.008,0,.012a7.834,7.834,0,0,1,.28-1.95l-.006.017a8.665,8.665,0,0,1,.374-1.038,8.782,8.782,0,0,1,.511-.983l-.016.026a10.707,10.707,0,0,1,1.766-2.18l-.017.017c.12-.115.244-.226.369-.337a.089.089,0,0,0,.018-.123.1.1,0,0,0-.075-.037.071.071,0,0,0-.048.018M283.2,222.926l-.005.017.005-.017m-1.273,2.932-.006.009.006-.009m-.354-14.753c0-.012-.006-.025-.009-.037l.009.037m-.015-4.172c0-.007,0-.014.005-.02s0,.013-.005.02" transform="translate(-183.949 -132.462)" fill="#8a8e2e"/>
            <path id="Trazado_906507" data-name="Trazado 906507" d="M249.179,189.147h-.027a14.522,14.522,0,0,0-2.657.624,14.751,14.751,0,0,0-2.414,1.072,19.725,19.725,0,0,0-4.185,3.173,35.629,35.629,0,0,0-3.032,3.392c-.433.543-.881,1.128-1.37,1.789-.241.325-.482.652-.715.984l-.255.366-.256.366c-1.716-.9-3.5-1.942-5.781-3.369-1.341-.839-2.691-1.712-4-2.556q-.842-.545-1.686-1.089l-.142-.09-.142-.091a.137.137,0,0,0-.074-.019.479.479,0,0,0-.064-.007.216.216,0,0,0-.114.035,11.581,11.581,0,0,0-1.682,1.332,8.1,8.1,0,0,0-.7.766,6.524,6.524,0,0,0-.6.912.175.175,0,0,0,0,.138.181.181,0,0,0,.061.077.1.1,0,0,0,.022.04c.864,1.011,1.7,2.076,2.5,3.106q.416.531.833,1.061a48.167,48.167,0,0,0,3.556,4.108,19.329,19.329,0,0,0,4.208,3.283c.4.224.8.426,1.2.6a9.21,9.21,0,0,0,1.193.422,8.359,8.359,0,0,0,2.244.3h.126a9.3,9.3,0,0,0,2.314-.346,11.734,11.734,0,0,0,2.224-.885,17.909,17.909,0,0,0,4.07-2.959,28.19,28.19,0,0,0,3.36-3.823c.466-.633.916-1.293,1.336-1.962q.3-.474.579-.958a10.98,10.98,0,0,0,.645-1.329,10.086,10.086,0,0,0,.744-4.222,8.907,8.907,0,0,0-.349-2.088,8.709,8.709,0,0,0-.816-1.9.168.168,0,0,0,.016-.1.18.18,0,0,0-.179-.152" transform="translate(-143.58 -123.853)" fill="#d4e157"/>
            <path id="Trazado_906508" data-name="Trazado 906508" d="M272.777,232.238c-.038,0-.075,0-.112,0a1.063,1.063,0,0,0-.363.1.818.818,0,0,0-.3.271.9.9,0,0,0-.153.378,1.281,1.281,0,0,0,.015.458,1.939,1.939,0,0,0,.154.426,3.163,3.163,0,0,0,.273.454,6.029,6.029,0,0,0,.586.7c-.318-.021-.639-.036-.961-.054l-.135-.008c-.351-.019-.713-.039-1.067-.075l-.089-.009a10.5,10.5,0,0,0-1.065-.072c-.14,0-.279.006-.417.018a1.605,1.605,0,0,0-.692.19.716.716,0,0,0-.222.21.6.6,0,0,0-.092.319.934.934,0,0,0,.08.364,1.343,1.343,0,0,0,.195.326,1.639,1.639,0,0,0-.516.114.582.582,0,0,0-.235.178.419.419,0,0,0-.084.233.51.51,0,0,0,.057.248.921.921,0,0,0,.161.231,1.777,1.777,0,0,0,.224.205,2.836,2.836,0,0,0,.313.216,3.579,3.579,0,0,0,.358.18,1.733,1.733,0,0,0,.43.517,2.9,2.9,0,0,0,.73.425,5,5,0,0,0,.875.273,9.229,9.229,0,0,0,.912.154c.244.031.5.054.82.073.144.008.287.015.43.018h.08c.186,0,.39-.011.64-.034.473-.043.947-.129,1.406-.213.41-.074.835-.15,1.257-.2h0c.137-.013.273-.025.411-.03a.184.184,0,0,0,.185-.176.171.171,0,0,0-.013-.07c.232-.092.465-.194.7-.3a9.278,9.278,0,0,0,1.572-.9,3.124,3.124,0,0,0,.581-.537,1.248,1.248,0,0,0,.284-.59.829.829,0,0,0-.138-.587,2.179,2.179,0,0,0-.743-.6,12.52,12.52,0,0,0-1.454-.709c-.179-.078-.359-.153-.539-.228-.328-.138-.657-.277-.981-.425l.031.023c-.177-.09-.357-.174-.532-.268-.08-.042-.159-.088-.238-.133l-.076-.044c-.273-.159-.545-.318-.825-.466a6.923,6.923,0,0,0-.947-.423,2.947,2.947,0,0,0-.434-.115,1.967,1.967,0,0,0-.324-.03" transform="translate(-175.204 -152.069)" fill="#f6cfbe"/>
            <path id="Trazado_906509" data-name="Trazado 906509" d="M270.234,243.648a.091.091,0,0,0,.053.115c.278.105.559.2.844.285a7.8,7.8,0,0,0,.9.2,5.52,5.52,0,0,0,.892.075,4.6,4.6,0,0,0,.912-.087.09.09,0,0,0,.072-.1.088.088,0,0,0-.1-.072c-.105.02-.21.037-.316.051-.128.017-.255.025-.382.032h.008a5.607,5.607,0,0,1-.75-.028,6.7,6.7,0,0,1-.76-.129l.024,0a9.8,9.8,0,0,1-1.281-.4.1.1,0,0,0-.031-.006.092.092,0,0,0-.084.057m2.882.5h0" transform="translate(-176.945 -159.503)" fill="#da8c67"/>
            <path id="Trazado_906510" data-name="Trazado 906510" d="M271.285,247.9a.091.091,0,0,0,.052.115c.223.083.449.161.677.228s.43.117.649.161a5.709,5.709,0,0,0,.7.1,5.264,5.264,0,0,0,.738.008.086.086,0,0,0,.057-.036.089.089,0,0,0,.015-.067.087.087,0,0,0-.035-.057.1.1,0,0,0-.068-.017l-.043,0c-.13.005-.259.007-.39,0s-.257-.014-.386-.026a6.194,6.194,0,0,1-.762-.129h0a9.308,9.308,0,0,1-1.095-.339.084.084,0,0,0-.03-.006.091.091,0,0,0-.084.057m2.743.439h0" transform="translate(-177.633 -162.288)" fill="#da8c67"/>
            <path id="Trazado_906511" data-name="Trazado 906511" d="M306.589,191.735a.188.188,0,0,0-.008.177c-.12.182-.233.336-.352.483-.248.3-.526.572-.8.837l-.181.181c-.165.166-.326.334-.479.51a6.475,6.475,0,0,0-.454.59,9.342,9.342,0,0,0-1.278,2.678,8.531,8.531,0,0,0-.344,2.95,9.757,9.757,0,0,0,.85,3.084c.112.27.228.537.346.806l.163.377.35.816.2.465q.565,1.314,1.137,2.623c.786,1.8,1.46,3.287,2.12,4.692-.422-.263-.864-.508-1.309-.736a22.49,22.49,0,0,0-2.71-1.163c-.454-.161-.929-.311-1.41-.45-.515-.147-1.028-.3-1.538-.458-.4-.126-.8-.255-1.2-.384a37.839,37.839,0,0,0-5.019-1.366,6.575,6.575,0,0,0-.569.355,7.434,7.434,0,0,0-.666.527h0l0,0,0,0a7.139,7.139,0,0,0-.686.708,7.839,7.839,0,0,0-.556.751l0,0,0,0-.006.009a7.582,7.582,0,0,0-.481.875,7.915,7.915,0,0,0-.306.765c1.616,1.28,3.4,2.7,5.216,3.977.468.33.937.648,1.4.95l.63.411.628.413c.823.541,1.676,1.1,2.534,1.618a17.858,17.858,0,0,0,5.475,2.319,10.488,10.488,0,0,0,2.073.209,9.754,9.754,0,0,0,2.8-.4,9,9,0,0,0,3.809-2.271,8.619,8.619,0,0,0,2.208-3.909,9.18,9.18,0,0,0,.225-1.179,10.4,10.4,0,0,0,.076-1.294,19.7,19.7,0,0,0-.2-2.914,29.321,29.321,0,0,0-1.51-5.938,39.873,39.873,0,0,0-2.423-5.431,17.224,17.224,0,0,0-3.362-4.377,18.985,18.985,0,0,0-4.145-2.941.208.208,0,0,0-.1-.023.17.17,0,0,0-.15.083" transform="translate(-190.811 -125.493)" fill="#d4e157"/>
            <path id="Trazado_906512" data-name="Trazado 906512" d="M300.794,240.051a.126.126,0,0,0,.082.092c1.109.32,2.219.639,3.317,1,.962.313,1.929.606,2.9.908a43.48,43.48,0,0,1,5.643,2.1q.59.279,1.164.587c.048.023.1.048.144.075l.017.01a3.07,3.07,0,0,1,.349.2l.124.071a18.042,18.042,0,0,1,2.328,1.607.089.089,0,1,0,.109-.14,20.987,20.987,0,0,0-2.474-1.748,24.377,24.377,0,0,0-2.634-1.369,50.285,50.285,0,0,0-5.67-2.064c-.817-.252-1.636-.494-2.457-.732-.882-.257-1.769-.5-2.655-.743l-.282.148" transform="translate(-196.959 -157.088)" fill="#8a8e2e"/>
            <path id="Trazado_906513" data-name="Trazado 906513" d="M340.584,254.934h0" transform="translate(-223.012 -166.93)" fill="#8a8e2e"/>
            <path id="Trazado_906514" data-name="Trazado 906514" d="M340.592,254.94l-.006,0,.006,0" transform="translate(-223.014 -166.932)" fill="#8a8e2e"/>
            <path id="Trazado_906515" data-name="Trazado 906515" d="M291.38,251.391a.182.182,0,0,0,.019.285c.219.169.432.346.644.522q.348.285.695.572.668.548,1.346,1.088,1.3,1.038,2.643,2.028a43.667,43.667,0,0,0,5.41,3.471,27.317,27.317,0,0,0,2.885,1.332,12.8,12.8,0,0,0,1.249.413,13.216,13.216,0,0,0,1.3.282,11.368,11.368,0,0,0,2.688.14,8.393,8.393,0,0,0,2.276-.463q.2-.08.4-.171a.164.164,0,0,0-.022.01,7.242,7.242,0,0,0,1.525-.95.08.08,0,0,0-.011-.027l-.036.022a5.674,5.674,0,0,1-1.149.609c-.089.04-.177.079-.267.114-.158.064-.319.12-.481.173a.111.111,0,0,1-.03,0,8.2,8.2,0,0,1-.851.22,8.674,8.674,0,0,1-1.086.147,11.681,11.681,0,0,1-2.986-.208,19.045,19.045,0,0,1-4.628-1.672l.007,0-.012-.006h.005l-.02-.011-.006,0s0,0,0,0l-.01,0h0a40.248,40.248,0,0,1-5.428-3.35c-.889-.637-1.758-1.3-2.622-1.97-.911-.707-1.818-1.42-2.7-2.162-.114-.1-.229-.194-.342-.293-.049-.043-.1-.087-.145-.132a.2.2,0,0,0-.125-.059H291.5a.18.18,0,0,0-.118.046" transform="translate(-190.755 -164.58)" fill="#8a8e2e"/>
            <path id="Trazado_906516" data-name="Trazado 906516" d="M324.781,274.429h0" transform="translate(-212.665 -179.695)" fill="#8a8e2e"/>
            <path id="Trazado_906517" data-name="Trazado 906517" d="M324.807,274.439h0Z" transform="translate(-212.68 -179.701)" fill="#8a8e2e"/>
            <path id="Trazado_906518" data-name="Trazado 906518" d="M329.587,232.286a.09.09,0,0,0-.044.118q.4.911.8,1.822c.267.608.544,1.213.8,1.823s.522,1.222.774,1.837c.13.318.26.635.386.953.026.064.051.128.076.191.034.087.062.176.092.264s.058.177.091.264c.017.043.036.085.057.126l.017.025c.075.035.148.071.219.111h0l.038.019.009,0a.19.19,0,0,0,.107-.2,2.092,2.092,0,0,0-.148-.446c-.064-.149-.13-.3-.194-.445-.136-.315-.275-.628-.415-.941-.13-.292-.267-.583-.4-.872q-.218-.467-.44-.931-.43-.9-.851-1.8c-.291-.622-.581-1.243-.858-1.872a.092.092,0,0,0-.081-.052.079.079,0,0,0-.035.008" transform="translate(-215.778 -152.095)" fill="#8a8e2e"/>
            <path id="Trazado_906519" data-name="Trazado 906519" d="M305.893,188.5a.269.269,0,0,0-.219.307,3.709,3.709,0,0,0,.372.987,3.619,3.619,0,0,0,.613.8,4.841,4.841,0,0,0,1.748,1.074,7.09,7.09,0,0,0,2.082.4,7.219,7.219,0,0,0,2.028-.174,7.051,7.051,0,0,0,1.917-.781,6.806,6.806,0,0,0,1.766-1.457.265.265,0,0,0-.259-.418.276.276,0,0,0-.171.105c-.075.087-.15.172-.23.255l.046-.05a6.82,6.82,0,0,1-1.251,1.009l.031-.019-.037.023-.021.013.02-.013a7.35,7.35,0,0,1-1.607.73l.009,0a6.807,6.807,0,0,1-1.676.259h.07a7.426,7.426,0,0,1-1.893-.186,5.774,5.774,0,0,1-1.33-.5,4.416,4.416,0,0,1-.818-.59,3.624,3.624,0,0,1-.5-.606,3.36,3.36,0,0,1-.327-.717c-.023-.077-.043-.155-.061-.233a.273.273,0,0,0-.261-.222.249.249,0,0,0-.045,0m1.157,1.743.027.025-.027-.025m.806.6.044.024-.044-.024m6.475-.271h0l.006,0-.007,0" transform="translate(-200.151 -123.43)" fill="#8a8e2e"/>
            <path id="Trazado_906520" data-name="Trazado 906520" d="M222.913,264.375c-.374.022-.7.052-1.006.1a6.813,6.813,0,0,0-.86.185,7.484,7.484,0,0,0-1.509.61,8.89,8.89,0,0,0-1.352.905,11.728,11.728,0,0,0-1.207,1.138,17.908,17.908,0,0,0-2.075,2.765c-.613.975-1.16,1.988-1.661,2.936-.265.505-.577,1.1-.874,1.7-.319.646-.633,1.315-.963,2.051a80.118,80.118,0,0,0-3.2,8.563c-.948,3-1.766,6.023-2.51,8.841q-.324,1.231-.645,2.464l-.413,1.581c-.179.681-.357,1.362-.54,2.042s-.327,1.244-.459,1.823c.476.375.967.733,1.478,1.06a14.717,14.717,0,0,0,1.758.973,11.1,11.1,0,0,0,1.348.522,10.25,10.25,0,0,0,1.416.338l-.023,0c.147.024.294.043.441.06.264-.423.52-.848.776-1.274l.054-.088q.444-.737.882-1.477c.6-1.008,1.182-2.012,1.739-2.982,1.147-2,2.276-4.032,3.355-6.048.527-.986,1.048-1.977,1.548-2.947.392,2.142.76,4.327,1.117,6.44.282,1.672.573,3.4.878,5.1.212,1.18.429,2.331.646,3.424.2,1.009.434,2.091.728,3.408q.357,1.593.706,3.188.4,1.808.8,3.616c.621,2.744,1.141,4.866,1.671,6.829.169.041.341.076.513.1l-.023,0a7.23,7.23,0,0,0,1,.088,9.423,9.423,0,0,0,1.035-.046l-.023,0a10.823,10.823,0,0,0,2.7-.655l-.021.008a10.593,10.593,0,0,0,2.078-1.06c-.015-.622-.033-1.242-.051-1.863l-.043-1.561q-.047-1.763-.087-3.527-.07-3.025-.13-6.048l-.021-1.008-.015-.745c-.021-.923-.042-1.848-.05-2.771-.007-1.049,0-2.2.023-3.5.019-1.067.046-2.134.072-3.2.032-1.272.064-2.545.082-3.816.032-2.207.015-4.022-.054-5.712,2.427.088,4.633.134,6.741.141h.519c.913,0,1.849-.008,2.862-.027l.422-.005c.658-.01,1.315-.02,1.971-.043a20.553,20.553,0,0,0,4.958-.677,9.55,9.55,0,0,0,2.223-.959,7.049,7.049,0,0,0,1.832-1.593,8.411,8.411,0,0,0,1.274-2.2,10.86,10.86,0,0,0,.655-2.517,13.145,13.145,0,0,0,.1-2.62,13.546,13.546,0,0,0-.391-2.521c-.048-.19-.1-.379-.159-.567a.169.169,0,0,0-.13-.116.16.16,0,0,0-.1-.094c-1.754-.641-3.528-1.318-5.245-1.974-4.139-1.581-8.421-3.216-12.755-4.467-.788-.227-1.567-.439-2.316-.628-.8-.2-1.588-.385-2.249-.534-1.347-.306-2.95-.651-4.622-.886a25.051,25.051,0,0,0-3.49-.262c-.395,0-.778.011-1.14.032m2.783,57.918h.168l-.147,0Z" transform="translate(-133.345 -173.091)" fill="#201c61"/>
            <path id="Trazado_906521" data-name="Trazado 906521" d="M209.495,378.3l.149.071c-.067-.037-.133-.074-.2-.112l.049.041" transform="translate(-137.144 -247.684)" fill="#201c61"/>
            <path id="Trazado_906522" data-name="Trazado 906522" d="M262.643,299.3a.362.362,0,0,0-.222.149.357.357,0,0,0-.051.271c.01.028.019.057.03.085a.355.355,0,0,0,.119.136c.75.628,1.535,1.215,2.331,1.783.822.582,1.66,1.145,2.514,1.677.438.274.878.542,1.321.806s.9.516,1.357.769q1.366.755,2.774,1.43a35.92,35.92,0,0,0,9.532,3.188.1.1,0,0,0,.1-.091.1.1,0,0,0-.091-.1q-.224-.037-.449-.079l.025,0a32.452,32.452,0,0,1-8.113-2.808l.009,0c-.927-.453-1.831-.946-2.726-1.455s-1.78-1.069-2.65-1.635c-1.671-1.091-3.278-2.281-4.843-3.519q-.353-.278-.7-.566a.3.3,0,0,0-.193-.059.366.366,0,0,0-.077.008" transform="translate(-171.794 -195.974)" fill="#14113d"/>
            <path id="Trazado_906523" data-name="Trazado 906523" d="M251.839,302a4.661,4.661,0,0,0-.655.116c-.2.047-.406.1-.607.166a11.119,11.119,0,0,0-1.2.457,10.368,10.368,0,0,0-1.127.585,10.689,10.689,0,0,0-1.087.753,8.55,8.55,0,0,0-1.754,1.851,6.2,6.2,0,0,0-.982,2.256,5.9,5.9,0,0,0-.091.617c-.029.281-.049.562-.065.843-.031.542-.029,1.085-.011,1.627a26.545,26.545,0,0,0,.331,3.267c.175,1.091.4,2.173.627,3.256.218,1.036.452,2.07.666,3.108.213.824.4,1.653.567,2.488.057.229.114.458.17.687-.19-1.432-.452-2.85-.717-4.269-.138-.742-.278-1.483-.413-2.226s-.256-1.519-.359-2.28a.008.008,0,0,1,0-.005v0a24.551,24.551,0,0,1-.152-6.424c0,.029-.009.057-.012.086a5.71,5.71,0,0,1,.4-1.463l-.035.084a7.222,7.222,0,0,1,.879-1.5,9.1,9.1,0,0,1,1.506-1.492,10.587,10.587,0,0,1,2.3-1.34c.263-.107.528-.2.8-.288a6.893,6.893,0,0,1,.927-.234c.063-.008.128-.017.192-.028a.365.365,0,0,0,.156-.09.356.356,0,0,0-.234-.6h-.017" transform="translate(-159.931 -197.747)" fill="#14113d"/>
            <path id="Trazado_906524" data-name="Trazado 906524" d="M246.8,340.477c0-.006,0-.01,0-.015s0,.01,0,.015" transform="translate(-161.602 -222.933)" fill="#14113d"/>
            <path id="Trazado_906525" data-name="Trazado 906525" d="M246.8,340.51v0" transform="translate(-161.603 -222.963)" fill="#14113d"/>
            <path id="Trazado_906526" data-name="Trazado 906526" d="M306.86,120.265a4.991,4.991,0,0,0-.556.033,4.075,4.075,0,0,0-.756.169,3.546,3.546,0,0,0-.65.284,3.9,3.9,0,0,0-.956.748,5.214,5.214,0,0,0-.737,1,5.811,5.811,0,0,0-.506,1.152,5.873,5.873,0,0,0-.279,1.379.2.2,0,0,0,.031.139.2.2,0,0,0,.123.078h0a.414.414,0,0,0,.067,0,.185.185,0,0,0,.152-.072,6.221,6.221,0,0,1,.923-1.075,6.893,6.893,0,0,1,1.354-.958,5.965,5.965,0,0,1,1.315-.5,5.155,5.155,0,0,1,.528-.085,9.072,9.072,0,0,0,2.336,3.943,13.951,13.951,0,0,0,2.011,1.725,14.551,14.551,0,0,0,2.239,1.308c.351.167.719.32,1.094.454s.773.246,1.138.343a10.113,10.113,0,0,0-.319,1.209,8.316,8.316,0,0,0-.142.907,3.171,3.171,0,0,0,.01.808,1.257,1.257,0,0,0,.091.307.694.694,0,0,0,.192.251.568.568,0,0,0,.272.112.455.455,0,0,0,.078.006.706.706,0,0,0,.249-.053.785.785,0,0,0,.259-.173,1.651,1.651,0,0,0,.253-.3,4.1,4.1,0,0,0,.41-.807,10.4,10.4,0,0,0,.423-1.322c.046-.179.089-.357.126-.537.035-.162.061-.325.08-.489a.108.108,0,0,0,.044-.06,11.4,11.4,0,0,0,.378-1.45c.033-.161.065-.321.1-.483l.044-.217c.021-.111.04-.221.055-.331s.019-.237.023-.356a2.728,2.728,0,0,0-.232-1.144,3.36,3.36,0,0,0-.65-.954,7.192,7.192,0,0,0-.956-.836c-.381-.287-.793-.569-1.3-.889a25.387,25.387,0,0,0-2.79-1.537,27.223,27.223,0,0,0-2.964-1.192,11.414,11.414,0,0,0-1.573-.436,5.457,5.457,0,0,0-1.037-.1" transform="translate(-198.023 -78.749)" fill="#fba92d"/>
            <path id="Trazado_906527" data-name="Trazado 906527" d="M313.735,144.656a.094.094,0,0,0-.091.072,12.236,12.236,0,0,1-.392,1.172,5.912,5.912,0,0,1-.258.544,4.138,4.138,0,0,1-.331.5,3.626,3.626,0,0,1-.26.3,3.469,3.469,0,0,1-.365.322c-.1.075-.218.166-.33.267a1.969,1.969,0,0,0-.3.343,1.084,1.084,0,0,0-.147.332.826.826,0,0,0,0,.384.788.788,0,0,0,.055.153,1.157,1.157,0,0,0,.123.213,1.724,1.724,0,0,0,.172.2,1.749,1.749,0,0,0,.22.189,2.01,2.01,0,0,0,.243.148,1.965,1.965,0,0,0,.785.2.149.149,0,1,0,0-.3c-.069,0-.138-.01-.207-.018s-.134-.023-.2-.039a1.7,1.7,0,0,1-.2-.066c-.046-.02-.091-.041-.135-.066a1.19,1.19,0,0,1-.186-.124,2.093,2.093,0,0,1-.272-.269,1.106,1.106,0,0,1-.117-.195.735.735,0,0,1-.044-.159.858.858,0,0,1,0-.136.969.969,0,0,1,.054-.2,1.44,1.44,0,0,1,.149-.238,2.562,2.562,0,0,1,.329-.331l.091-.076.059-.049.06-.047c.071-.057.137-.119.2-.182a3.854,3.854,0,0,0,.627-.784,5.237,5.237,0,0,0,.429-.9c.137-.358.245-.723.337-1.037a.09.09,0,0,0-.009-.072.091.091,0,0,0-.059-.045l-.026-.006" transform="translate(-203.799 -94.72)" fill="#da8c67"/>
            <path id="Trazado_906528" data-name="Trazado 906528" d="M315.9,163.871h0a3.687,3.687,0,0,1-.554.25,5.367,5.367,0,0,1-.966.248,5.149,5.149,0,0,1-.821.07c-.058,0-.115,0-.173,0a3.141,3.141,0,0,1-.472-.046l-.037-.006h0l-.034,0h0a2.357,2.357,0,0,0,.069.4,2.187,2.187,0,0,0,.136.369,1.788,1.788,0,0,0,.4.555,1.506,1.506,0,0,0,.482.3,4.234,4.234,0,0,1,.348-.366,3.344,3.344,0,0,1,.278-.233,3.013,3.013,0,0,1,.256-.17,2.583,2.583,0,0,1,.589-.256,2.223,2.223,0,0,1,.467-.087,2.612,2.612,0,0,0,.059-.954.228.228,0,0,0-.017-.068l-.008,0" transform="translate(-204.845 -107.302)" fill="#021621"/>
            <path id="Trazado_906529" data-name="Trazado 906529" d="M317.7,166.65h0a2.08,2.08,0,0,0-.311.033,2.8,2.8,0,0,0-.282.068,2.878,2.878,0,0,0-.35.134,2.664,2.664,0,0,0-.3.163l.012-.01a2.866,2.866,0,0,0-.284.205,3.062,3.062,0,0,0-.251.236l.017-.017a2.011,2.011,0,0,0-.183.226c-.021.032-.042.065-.062.1a1.448,1.448,0,0,0,.613.14c.039,0,.078,0,.115,0a1.422,1.422,0,0,0,.568-.177,1.53,1.53,0,0,0,.464-.419,1.79,1.79,0,0,0,.286-.641l.009-.035H317.7m-1.24.4-.008,0Z" transform="translate(-206.726 -109.121)" fill="#f68677"/>
            <path id="Trazado_906530" data-name="Trazado 906530" d="M307.461,146.574c-.214,0-.474.318-.6.74-.146.472-.085.912.135.98a.161.161,0,0,0,.06.01c.213,0,.474-.319.6-.742a1.212,1.212,0,0,0,.01-.847.241.241,0,0,0-.144-.132.178.178,0,0,0-.062-.01" transform="translate(-200.876 -95.976)" fill="#021621"/>
            <path id="Trazado_906531" data-name="Trazado 906531" d="M327.207,152.42c-.218,0-.483.326-.617.758a1.258,1.258,0,0,0-.011.868.258.258,0,0,0,.148.133.207.207,0,0,0,.063.01c.217,0,.483-.326.618-.757a1.57,1.57,0,0,0,.073-.655c-.027-.191-.1-.314-.21-.348a.194.194,0,0,0-.064-.01" transform="translate(-213.797 -99.804)" fill="#021621"/>
            <path id="Trazado_906532" data-name="Trazado 906532" d="M308.72,134.665a4.154,4.154,0,0,0-.517.035,2.262,2.262,0,0,0-1.35.537.265.265,0,0,0-.064.192c.03.225.448.376,1.04.376a4.088,4.088,0,0,0,.514-.035,3.25,3.25,0,0,0,1.027-.294c.269-.138.406-.292.388-.435-.029-.225-.447-.376-1.038-.376" transform="translate(-200.883 -88.178)" fill="#fba92d"/>
            <path id="Trazado_906533" data-name="Trazado 906533" d="M201.3,171.164a2.041,2.041,0,0,0-1.716,1.087,1.955,1.955,0,0,0-.137,1.583l2.967,6.485,1.4,3.066,2.8,6.118.226.478a2.046,2.046,0,0,0,2.347.838,2.051,2.051,0,0,0,1.179-.991,1.954,1.954,0,0,0,.137-1.583l-3.56-7.781-3.561-7.782a.27.27,0,0,0-.014-.029l-.017-.039-.018-.039-.226-.478a2.044,2.044,0,0,0-1.81-.935" transform="translate(-130.525 -112.076)" fill="#b86f05"/>
            <path id="Trazado_906534" data-name="Trazado 906534" d="M198.94,165.987a.179.179,0,0,0-.092.029.189.189,0,0,0-.075.1c-.058,0-.116,0-.176,0a6.277,6.277,0,0,0-1.4.235,8.74,8.74,0,0,0-1.658.66,8.411,8.411,0,0,0-1.476.962,7.008,7.008,0,0,0-.617.568,5.074,5.074,0,0,0-.424.512.162.162,0,0,0-.1-.028.182.182,0,0,0-.049.009.19.19,0,0,0-.121.236,1.9,1.9,0,0,0,.559.855,2.171,2.171,0,0,0,.9.446,3.371,3.371,0,0,0,.962.084l.126-.007a5.4,5.4,0,0,0,1.176-.225,6.329,6.329,0,0,0,1.14-.476,5.431,5.431,0,0,0,.985-.672,3.5,3.5,0,0,0,.709-.817,2.114,2.114,0,0,0,.318-.94,1.714,1.714,0,0,0-.044-.527,2.01,2.01,0,0,0-.188-.465,3.528,3.528,0,0,0-.284-.454.2.2,0,0,0-.168-.085" transform="translate(-126.204 -108.687)" fill="#021621"/>
            <path id="Trazado_906535" data-name="Trazado 906535" d="M156.186,114.03a11.257,11.257,0,1,0,14.534-6.5,11.263,11.263,0,0,0-14.534,6.5" transform="translate(-101.783 -69.926)" fill="#cfe7e0"/>
            <path id="Trazado_906536" data-name="Trazado 906536" d="M162.472,100.987c-.391.017-.792.054-1.193.108l-.062.009-.038.006a13.609,13.609,0,0,0-1.652.347,13.047,13.047,0,0,0-2.82,1.153c-.094.052-.187.1-.279.158-.3.177-.611.374-.912.586-.137.095-.271.193-.4.293-.283.214-.56.443-.823.679a12.876,12.876,0,0,0-2.312,2.733c-.033.05-.064.1-.095.152a12.974,12.974,0,0,0-1.446,3.3l-.008.029c-.028.1-.055.2-.08.3-.094.364-.172.74-.234,1.119,0,.018-.006.036-.009.054a13.106,13.106,0,0,0-.159,1.794v.072c0,.041,0,.083,0,.124,0,.1,0,.18,0,.263a13.161,13.161,0,0,0,2.179,7.018,12.9,12.9,0,0,0,3.318,3.433,13.159,13.159,0,0,0,4.341,2.014,12.86,12.86,0,0,0,3.8.4c.382-.017.769-.05,1.148-.1a13.154,13.154,0,0,0,4.618-1.519,13.015,13.015,0,0,0,5.942-6.9,13.074,13.074,0,0,0-6.95-16.505,13.329,13.329,0,0,0-2.34-.787,13.137,13.137,0,0,0-2.465-.332c-.348-.014-.705-.014-1.061,0m-3.1,3.4.051-.019.027-.01.062-.022.086-.032a11.047,11.047,0,0,1,1.68-.448,10.926,10.926,0,0,1,1.387-.15h0a10.679,10.679,0,0,1,1.391.031,10.931,10.931,0,0,1,2.691.611l.024.007v0a10.5,10.5,0,0,1,6.65,7.965s0,.014,0,.014l0,.01h0a11.011,11.011,0,0,1,.114,2.79,10.839,10.839,0,0,1-.624,2.717l.022-.043a11.084,11.084,0,0,1-1.272,2.409,10.462,10.462,0,0,1-4.077,3.424l.046-.016a11.13,11.13,0,0,1-2.692.864,10.816,10.816,0,0,1-2.8.121l.049.009a11.1,11.1,0,0,1-2.781-.638l.025.014a11.094,11.094,0,0,1-2.373-1.256,10.446,10.446,0,0,1-3.447-4.115l.009.03a11.028,11.028,0,0,1-.842-2.651,10.823,10.823,0,0,1-.134-2.617c0-.043.006-.085.009-.128v0a10.769,10.769,0,0,1,.624-2.751,10.939,10.939,0,0,1,.505-1.137l.015-.034h0a11.052,11.052,0,0,1,.7-1.17l.014-.02.014-.02.042-.058.016-.028h0a10.866,10.866,0,0,1,1.744-1.88c.282-.234.577-.456.876-.659l.039-.026.031-.021.025-.016.022-.015.022-.015.036-.023.036-.022.021-.014.035-.025v0l.06-.038.027-.017.023-.014.023-.014.027-.016.046-.027.028-.018.027-.016.031-.022v0l.054-.031c.013-.008.026-.015.039-.023l.033-.017a.472.472,0,0,1,.045-.026l.025-.015.053-.029.079-.043c.176-.1.348-.183.522-.266.144-.068.289-.132.436-.193l.042-.017.035-.013.075-.03.03-.015v0l.046-.018.041-.016.033-.015Z" transform="translate(-98.184 -66.118)" fill="#7b1fa2"/>
            <g id="Grupo_1119564" data-name="Grupo 1119564" transform="translate(60.543 54.009)" style="mix-blend-mode: soft-light;isolation: isolate">
              <g id="Grupo_1119563" data-name="Grupo 1119563">
                <g id="Grupo_1119562" data-name="Grupo 1119562" clip-path="url(#clip-path-5)">
                  <path id="Trazado_906537" data-name="Trazado 906537" d="M176.26,156.458h0a.86.86,0,0,0-.547.245,1.131,1.131,0,0,0-.324.659,1.192,1.192,0,0,0,.016.349,1.569,1.569,0,0,0,.132.369,2.091,2.091,0,0,0,.5.617,2.3,2.3,0,0,0,.611.378,1.7,1.7,0,0,0,.209.07c.052.019.1.036.159.051a1.439,1.439,0,0,0,.44.056.859.859,0,0,0,.524-.189.8.8,0,0,0,.253-.454,1.216,1.216,0,0,0,.025-.266,1.437,1.437,0,0,0-.038-.329,1.694,1.694,0,0,0-.279-.559,2.82,2.82,0,0,0-.474-.5,2.419,2.419,0,0,0-.584-.369,1.6,1.6,0,0,0-.3-.1,1.2,1.2,0,0,0-.321-.025" transform="translate(-175.382 -156.456)" fill="#fefefe"/>
                </g>
              </g>
            </g>
            <g id="Grupo_1119567" data-name="Grupo 1119567" transform="translate(56.187 41.247)" style="mix-blend-mode: soft-light;isolation: isolate">
              <g id="Grupo_1119566" data-name="Grupo 1119566">
                <g id="Grupo_1119565" data-name="Grupo 1119565" clip-path="url(#clip-path-6)">
                  <path id="Trazado_906538" data-name="Trazado 906538" d="M166.588,119.487a1.2,1.2,0,0,0-.382.086,2.223,2.223,0,0,0-.648.405,5.393,5.393,0,0,0-.7.721,8.154,8.154,0,0,0-1.1,1.781,11.281,11.281,0,0,0-.888,3.218,9.971,9.971,0,0,0,.043,3.243,4.975,4.975,0,0,0,.75,1.865c.044.066.089.129.137.192s.085.12.132.178a3.449,3.449,0,0,0,.255.274c.07.072.144.142.22.209l.022.021c.061.054.114.1.167.144a.162.162,0,0,0,.054.028,1.96,1.96,0,0,0,.293.183,1.671,1.671,0,0,0,.3.117,1.578,1.578,0,0,0,.347.059,1.178,1.178,0,0,0,.167,0,1.8,1.8,0,0,0,.531-.11,2.129,2.129,0,0,0,.346-.159,1.8,1.8,0,0,0,.3-.217,1.573,1.573,0,0,0,.38-.517,2.418,2.418,0,0,0,.206-1,5.672,5.672,0,0,0-.115-1.1c-.066-.35-.152-.695-.251-1.076l-.032-.124-.01-.04c-.067-.258-.126-.49-.169-.726l-.005-.03a7.112,7.112,0,0,1-.058-1.805,18.389,18.389,0,0,1,.322-1.948,17.177,17.177,0,0,0,.347-2.184,3.127,3.127,0,0,0-.049-.841,1.284,1.284,0,0,0-.252-.553.912.912,0,0,0-.213-.188.74.74,0,0,0-.252-.1.8.8,0,0,0-.2-.016" transform="translate(-162.766 -119.486)" fill="#fefefe"/>
                </g>
              </g>
            </g>
            <path id="Trazado_906539" data-name="Trazado 906539" d="M206.587,182.315a1.573,1.573,0,0,0-.585.119,1.938,1.938,0,0,0-.3.157,1.986,1.986,0,0,0-.219.162,2.4,2.4,0,0,0-.394.43,3.092,3.092,0,0,0-.415.8,3.029,3.029,0,0,0-.124.464c-.008.048-.017.1-.022.15a.387.387,0,0,0-.138-.017,2.464,2.464,0,0,0-.688.109,3.187,3.187,0,0,0-1.037.548,2.743,2.743,0,0,0-.738.858,1.907,1.907,0,0,0-.2.992,1.2,1.2,0,0,0,.078.368.8.8,0,0,0,.2.292.707.707,0,0,0,.25.149,1.055,1.055,0,0,0,.352.057,1.075,1.075,0,0,0-.085.253,1.755,1.755,0,0,0-.036.44,1.2,1.2,0,0,0,.274.718,1.145,1.145,0,0,0,.264.224,1.366,1.366,0,0,0,.375.148,1.156,1.156,0,0,0,.3.033,1.727,1.727,0,0,0-.041.524,1.042,1.042,0,0,0,.162.511.7.7,0,0,0,.348.27.944.944,0,0,0,.328.056,1.174,1.174,0,0,0,.145-.009,1.911,1.911,0,0,0,.511-.14,3.174,3.174,0,0,0,.527-.281,3.567,3.567,0,0,0,.9-.827,1.648,1.648,0,0,0,.391-1.163.978.978,0,0,0-.265-.536,1.672,1.672,0,0,0-.665-.4.7.7,0,0,0,.047-.187,1.909,1.909,0,0,0,.017-.3,1.753,1.753,0,0,0-.089-.508,1.779,1.779,0,0,0-.153-.341h.026a.478.478,0,0,0,.129-.022,1.557,1.557,0,0,0,.346-.162,1.915,1.915,0,0,0,.326-.241,3.417,3.417,0,0,0,.56-.646,3.312,3.312,0,0,0,.278-.495.286.286,0,0,0,.078.1l.033.033.035.023a8.413,8.413,0,0,1,1.114,1.571c.366.658.671,1.345.966,2.01l.035.078c.2.452.864.827.706.256-.075-.267-.125-.961-.193-1.233l-.03-.12-.022-.085-.108-.423c-.148-.568-.285-1.016-.432-1.413a8.191,8.191,0,0,0-.663-1.37c-.1-.172-.233-.361-.409-.6a6.63,6.63,0,0,0-.436-.523,2.949,2.949,0,0,0-1-.744,1.589,1.589,0,0,0-.555-.122h-.051" transform="translate(-132.089 -119.379)" fill="#f6cfbe"/>
            <path id="Trazado_906540" data-name="Trazado 906540" d="M209.412,187.825c-.018.08-.03.162-.04.244a1.894,1.894,0,0,0,0,.262,1.96,1.96,0,0,0,.03.244,1.526,1.526,0,0,0,.074.235,1.419,1.419,0,0,0,.28.424,1.509,1.509,0,0,0,.323.264,1.035,1.035,0,0,0,.329.132,1.085,1.085,0,0,0,.325.018,1.235,1.235,0,0,0,.33-.085,1.691,1.691,0,0,0,.329-.177,2.936,2.936,0,0,0,.587-.532,5,5,0,0,0,.5-.69,4.011,4.011,0,0,0,.328-.678.09.09,0,0,0-.054-.114.092.092,0,0,0-.114.055,3.427,3.427,0,0,1-.149.348c0-.007.007-.014.01-.021a4.669,4.669,0,0,1-.637.956l0-.007a3.183,3.183,0,0,1-.579.518h0a1.839,1.839,0,0,1-.347.172.2.2,0,0,1,.025-.01,1.185,1.185,0,0,1-.267.057,1.084,1.084,0,0,1-.2-.014.9.9,0,0,1-.173-.057,1.247,1.247,0,0,1-.2-.128,1.635,1.635,0,0,1-.25-.283,1.567,1.567,0,0,1-.148-.306c0-.009-.005-.018-.008-.027a.182.182,0,0,1-.01-.024,2.111,2.111,0,0,1-.094-.411,2.783,2.783,0,0,1-.022-.36V187.8c0-.054,0-.108.006-.162a3.066,3.066,0,0,1,.1-.577,2.993,2.993,0,0,0-.281.763m.7,1.4.012.011-.012-.011m.609.209h0Z" transform="translate(-137.091 -122.488)" fill="#da8c67"/>
            <path id="Trazado_906541" data-name="Trazado 906541" d="M206.685,193.7c-.043.08-.09.156-.14.232a2.406,2.406,0,0,1-.162.208l0,0a2.63,2.63,0,0,1-.524.459,4.688,4.688,0,0,1-.67.361c-.258.113-.523.206-.789.3a.082.082,0,0,0-.045.05.088.088,0,0,0,0,.068.087.087,0,0,0,.051.046.1.1,0,0,0,.068,0,6.874,6.874,0,0,0,1.343-.584,3.091,3.091,0,0,0,.548-.42,2.457,2.457,0,0,0,.46-.609.089.089,0,0,0,.012-.065.086.086,0,0,0-.088-.072.081.081,0,0,0-.073.039m-.807.884-.008.005.008-.005" transform="translate(-133.811 -126.809)" fill="#da8c67"/>
            <path id="Trazado_906542" data-name="Trazado 906542" d="M209.59,194.132a.117.117,0,0,0-.01.163.483.483,0,0,1,.057.073l-.017-.025a1.579,1.579,0,0,1,.163.329,1.445,1.445,0,0,1,.057.3v-.011s0,.008,0,.013v.012a.048.048,0,0,1,0-.01,1.433,1.433,0,0,1-.025.31v0a1.7,1.7,0,0,1-.131.371l.011-.021a2.522,2.522,0,0,1-.345.506l0,0a4.6,4.6,0,0,1-.886.759l.01-.006a6.2,6.2,0,0,1-.789.443.087.087,0,0,0-.04.117.089.089,0,0,0,.118.041,6.2,6.2,0,0,0,.922-.533,4.341,4.341,0,0,0,.868-.789,2.363,2.363,0,0,0,.3-.457,1.917,1.917,0,0,0,.1-.231,1.669,1.669,0,0,0,.064-.261A1.418,1.418,0,0,0,210,194.7a1.635,1.635,0,0,0-.092-.281c-.018-.044-.04-.087-.061-.13s-.032-.059-.048-.088a.228.228,0,0,0-.046-.058.116.116,0,0,0-.162-.011m-1.13,2.767.009-.006-.009.006m1.381-1.924v0" transform="translate(-135.963 -127.099)" fill="#da8c67"/>
            <path id="Trazado_906543" data-name="Trazado 906543" d="M210.87,198.248c-.022.05-.078.08-.029.1.109.048.292.131.394.191l-.026-.016a1.89,1.89,0,0,1,.342.267,1.1,1.1,0,0,1,.14.19l0,0,0,0,.013.023a.162.162,0,0,1-.01-.017.938.938,0,0,1,.061.163.872.872,0,0,1,.018.185,1.131,1.131,0,0,1-.032.2,1.561,1.561,0,0,1-.126.29c0-.006.006-.012.009-.018a2.542,2.542,0,0,1-.382.487l0,0a4.794,4.794,0,0,1-.969.73,3.936,3.936,0,0,1-.9.389l.011,0-.021,0h0c-.047.01-.093.02-.141.028a.092.092,0,0,0-.079.1.088.088,0,0,0,.1.081,2.488,2.488,0,0,0,.515-.146,5.225,5.225,0,0,0,1.794-1.207,2.061,2.061,0,0,0,.355-.544,1.219,1.219,0,0,0,.081-.279.949.949,0,0,0,0-.281,1,1,0,0,0-.27-.541,1.638,1.638,0,0,0-.291-.246,1.476,1.476,0,0,0-.205-.119,1.587,1.587,0,0,0-.327-.125h0c-.041,0-.014.074-.03.113m.87,1.295a.048.048,0,0,0,0,.008.048.048,0,0,1,0-.008m-1.452,1.471-.007,0,.007,0m-.919.4h0l.01,0-.011,0m2.326-2.423,0-.007h0l0,.008" transform="translate(-136.95 -129.738)" fill="#da8c67"/>
            <path id="Trazado_906544" data-name="Trazado 906544" d="M388.707,360.138a13.768,13.768,0,0,0,.081-3.708,27.861,27.861,0,0,0-.7-3.867c-.288-1.193-.63-2.376-.961-3.521l-.015-.051-.024-.085q-.262-.907-.52-1.814-.3-1.05-.6-2.094c-1.842-6.353-3.517-11.548-5.27-16.347a137.813,137.813,0,0,0-6.214-14.564.292.292,0,0,0-.066-.089c.2-.021.4-.05.61-.079l.537-.075.071,0,.07,0a.234.234,0,0,0,.091-.024c1.094-.138,2.251-.241,3.437-.306a.281.281,0,0,0,.259-.291.279.279,0,0,0-.276-.258H379.2c-.723.041-1.43.094-2.1.158a.251.251,0,0,0-.15-.049c-.312.023-.607.052-.9.086a24.194,24.194,0,0,0-6.744,1.485,19.125,19.125,0,0,0-7.108,3.875,21.334,21.334,0,0,0-3.1,3.314,24.137,24.137,0,0,0-3.912,7.919,27.624,27.624,0,0,0-1.021,9.187,29.524,29.524,0,0,0,1.806,8.687,28.771,28.771,0,0,0,1.938,4.177,27.547,27.547,0,0,0,2.669,3.89,24.489,24.489,0,0,0,6.837,5.811,21.667,21.667,0,0,0,3.867,1.724,19.863,19.863,0,0,0,4.335.921c.162.017.323.027.485.038a9.944,9.944,0,0,0,2.1.1c.278,0,.555-.016.832-.033.143,0,.287,0,.43-.01a25.289,25.289,0,0,0,3.915-.466c.367-.053.733-.113,1.1-.185a27.052,27.052,0,0,0,3.015-.8l.251-.063a.28.28,0,0,0,.1-.051l.051-.017a.3.3,0,0,0,.165-.114.264.264,0,0,0,.039-.2.229.229,0,0,0-.147-.18s.007-.006.01-.01a.271.271,0,0,0,.044-.207.281.281,0,0,0-.115-.173.292.292,0,0,0-.157-.053.165.165,0,0,0-.052.01c-.749.245-1.49.469-2.2.665a9.371,9.371,0,0,0,.979-.478l.04-.027c.182-.1.358-.2.531-.3.284-.169.566-.348.889-.563l.071-.05.066-.044.054-.037.033-.023.033-.023.029-.023.07-.046.07-.048.1-.071.036-.026.048-.036.028-.027,0,0a.307.307,0,0,0,.15-.179.267.267,0,0,0-.021-.2.129.129,0,0,0,.018-.05" transform="translate(-231.877 -204.924)" fill="#e38907"/>
            <path id="Trazado_906545" data-name="Trazado 906545" d="M360.684,393.5c-.9.137-1.8.295-2.7.446a.177.177,0,1,0,.057.35c.9-.151,1.8-.309,2.7-.446a.177.177,0,0,0-.031-.352l-.026,0" transform="translate(-234.312 -257.662)" fill="#c97906"/>
            <path id="Trazado_906546" data-name="Trazado 906546" d="M360.23,377.344c-.941.032-1.884.074-2.825.118a.169.169,0,0,0-.115.069.182.182,0,0,0-.032.134.179.179,0,0,0,.069.114.2.2,0,0,0,.134.033c.941-.044,1.882-.087,2.825-.118a.178.178,0,0,0,.078-.318.185.185,0,0,0-.117-.032h-.018" transform="translate(-233.93 -247.083)" fill="#c97906"/>
            <path id="Trazado_906547" data-name="Trazado 906547" d="M360.533,359.673a.178.178,0,0,0,.156.2c.8.1,1.6.2,2.395.35a.178.178,0,0,0,.158-.287.185.185,0,0,0-.119-.065c-.793-.15-1.593-.257-2.395-.35h-.02a.177.177,0,0,0-.175.157" transform="translate(-236.075 -235.41)" fill="#c97906"/>
            <path id="Trazado_906548" data-name="Trazado 906548" d="M367.705,343.211a.179.179,0,0,0,.156.2,7.1,7.1,0,0,1,1.339.2c.188.047.374.1.56.157a.177.177,0,0,0,.13-.33,7.933,7.933,0,0,0-1.99-.376h-.009a.18.18,0,0,0-.186.158" transform="translate(-240.772 -224.63)" fill="#c97906"/>
            <path id="Trazado_906549" data-name="Trazado 906549" d="M378.412,329.456a.18.18,0,0,0,.156.2c.587.041,1.171.1,1.755.167a.177.177,0,1,0,.037-.353c-.583-.069-1.167-.126-1.754-.166h-.014a.179.179,0,0,0-.182.157" transform="translate(-247.782 -215.624)" fill="#c97906"/>
            <path id="Trazado_906550" data-name="Trazado 906550" d="M364.272,408.507c-.795.259-1.569.574-2.348.876a.177.177,0,0,0,.145.324c.778-.3,1.552-.619,2.346-.878a.17.17,0,0,0,.093-.1.177.177,0,0,0,0-.138.186.186,0,0,0-.1-.093.174.174,0,0,0-.06-.011.232.232,0,0,0-.077.015" transform="translate(-236.919 -267.479)" fill="#c97906"/>
            <path id="Trazado_906551" data-name="Trazado 906551" d="M371.42,422.63c-.373.23-.741.47-1.114.7a11.114,11.114,0,0,1-1,.546.177.177,0,1,0,.144.323,22.911,22.911,0,0,0,2.191-1.292.176.176,0,0,0,.026-.249.172.172,0,0,0-.118-.065h-.018a.208.208,0,0,0-.112.039m-1.077.677-.035.021.035-.021" transform="translate(-241.752 -276.711)" fill="#c97906"/>
            <path id="Trazado_906552" data-name="Trazado 906552" d="M380.214,434.789a13.873,13.873,0,0,0-1.687,1.415.178.178,0,0,0,.223.277,13.509,13.509,0,0,1,1.686-1.415.177.177,0,0,0,.026-.249.181.181,0,0,0-.118-.065h-.02a.2.2,0,0,0-.11.038" transform="translate(-247.815 -284.673)" fill="#c97906"/>
            <path id="Trazado_906553" data-name="Trazado 906553" d="M390.981,444.74c-.108.129-.22.255-.336.376l.032-.031a7.308,7.308,0,0,1-.944.825.178.178,0,0,0-.028.249.181.181,0,0,0,.25.028,7.4,7.4,0,0,0,1.311-1.234.18.18,0,0,0-.036-.249.17.17,0,0,0-.1-.033.192.192,0,0,0-.146.071" transform="translate(-255.152 -291.168)" fill="#c97906"/>
            <path id="Trazado_906554" data-name="Trazado 906554" d="M404.214,452.982a9.28,9.28,0,0,1-.777.931l-.042.043a.189.189,0,0,0-.065.119.18.18,0,0,0,.038.13.187.187,0,0,0,.119.065.17.17,0,0,0,.13-.039,9.376,9.376,0,0,0,.883-1.039.176.176,0,0,0-.142-.281.178.178,0,0,0-.144.071m-.791.946-.013.013.013-.013" transform="translate(-264.098 -296.564)" fill="#c97906"/>
            <path id="Trazado_906555" data-name="Trazado 906555" d="M388.224,312.614c-.548,0-1.1.024-1.646.07-.28.024-.526.05-.773.082q-.258.033-.515.071a18.172,18.172,0,0,0-2.739.639c-.136.041-.27.084-.4.128a19.024,19.024,0,0,0-4.179,2.01,19.667,19.667,0,0,0-2.8,2.169,21.81,21.81,0,0,0-2.718,3.057l-.07.1c-.32.44-.631.9-.925,1.371a24.411,24.411,0,0,0-2.45,5.246l-.019.058-.017.05-.021.064c-.005.017-.011.035-.018.054l-.041.135c-.259.814-.48,1.648-.659,2.487a27.522,27.522,0,0,0-.557,4.062c-.029.463-.047.933-.054,1.4-.01.653,0,1.341.044,2.042l0,.065,0,.065c.055.871.15,1.758.285,2.655a29.562,29.562,0,0,0,2.894,9.027,27.018,27.018,0,0,0,5.588,7.472,24.472,24.472,0,0,0,3.77,2.9,22.19,22.19,0,0,0,4.2,2.041,20.189,20.189,0,0,0,4.562,1.066,18.826,18.826,0,0,0,2.152.12h.221a18.956,18.956,0,0,0,10.65-3.458,21.414,21.414,0,0,0,6.024-6.557,24.839,24.839,0,0,0,1.994-4.181,26.514,26.514,0,0,0,1.234-4.618,28.534,28.534,0,0,0,.415-4.794,29.854,29.854,0,0,0-3.386-13.782,26.889,26.889,0,0,0-5.722-7.443,24.212,24.212,0,0,0-3.777-2.817A21.9,21.9,0,0,0,394.6,313.7a20.129,20.129,0,0,0-4.552-1c-.593-.06-1.205-.09-1.819-.09" transform="translate(-240.715 -204.699)" fill="#fba92d"/>
            <path id="Trazado_906556" data-name="Trazado 906556" d="M391.391,320.992a16.313,16.313,0,0,0-2.663.746l-.033.01q-.334.126-.664.266t-.652.288a17.231,17.231,0,0,0-4.13,2.724q-.692.61-1.321,1.285a20.02,20.02,0,0,0-2.833,3.905,22.323,22.323,0,0,0-1.4,3c-.029.076-.058.152-.086.228a22.841,22.841,0,0,0-.83,2.769,24.5,24.5,0,0,0-.6,4.127q-.039.638-.047,1.277a26.345,26.345,0,0,0,.727,6.428c.013.053.025.106.038.159a.2.2,0,0,0,.006.019q.227.927.52,1.836a24.282,24.282,0,0,0,10.017,13.2,20.017,20.017,0,0,0,3.813,1.841,18.125,18.125,0,0,0,4.142.946,16.914,16.914,0,0,0,8.376-1.229,17.258,17.258,0,0,0,3.53-2,18.584,18.584,0,0,0,2.994-2.755,21.542,21.542,0,0,0,4.078-7.151,24.681,24.681,0,0,0,1.3-8.383,26.652,26.652,0,0,0-1.507-8.408,24.049,24.049,0,0,0-10.3-12.86A19.567,19.567,0,0,0,400,321.537a17.966,17.966,0,0,0-4.228-.814q-.567-.041-1.136-.041a17.553,17.553,0,0,0-3.245.31m5.367.714-.015,0,.015,0,.1.013-.087-.011a18.17,18.17,0,0,1,4.537,1.257l-.077-.031a20.494,20.494,0,0,1,4.358,2.551,23.013,23.013,0,0,1,4.033,4.046,25.174,25.174,0,0,1,3.146,5.408c-.011-.025-.022-.05-.032-.074a26.6,26.6,0,0,1,1.84,6.737l-.011-.086a25.67,25.67,0,0,1,.007,6.737c.005-.039.011-.079.016-.118a23.749,23.749,0,0,1-1.594,5.92l.006-.014-.008.02-.036.086.022-.052a21.218,21.218,0,0,1-2.616,4.5,18.849,18.849,0,0,1-3.2,3.232,17.244,17.244,0,0,1-3.73,2.188c.036-.015.07-.03.106-.044a16.145,16.145,0,0,1-8.465,1.159,18.133,18.133,0,0,1-4.478-1.223,20.414,20.414,0,0,1-4.442-2.612l.065.051a22.978,22.978,0,0,1-3.978-3.978,25.115,25.115,0,0,1-3.2-5.493l.045.107a26.574,26.574,0,0,1-1.527-4.908q-.185-.9-.311-1.806-.065-.5-.111-1a25.632,25.632,0,0,1,.094-5.567l0,.016v0l0-.021c0-.014,0-.028.006-.042l0,.03c0-.008,0-.016,0-.025,0,.015,0,.029-.006.043v0a23.662,23.662,0,0,1,1.59-5.913q.418-.98.927-1.915.473-.866,1.025-1.684l.038-.056.02-.029q.3-.442.627-.867.388-.5.808-.972l.013-.015.047-.052.054-.061.02-.021.082-.089,0,0q.251-.272.51-.534h0l.1-.1.014-.014.088-.087.035-.033.068-.066.057-.055.045-.042.091-.085L383.5,326q.571-.532,1.189-1.015c.1-.077.2-.154.306-.229l.013-.01.09-.065.035-.025.071-.051.046-.032.062-.044.054-.037.057-.039.055-.037.058-.039.053-.036.06-.04.047-.031.067-.044.039-.025.077-.05.025-.016.091-.058.015-.009q.56-.353,1.147-.661t1.2-.572a16.126,16.126,0,0,1,8.4-1.124m-14.579,35.586a.458.458,0,0,1,.029.036c-.009-.012-.019-.024-.029-.036m28.182,1.306-.043.056c.013-.019.028-.038.043-.056m-3.2,3.229-.072.057c.023-.019.048-.038.072-.057m-16.531,2.094.029.012-.029-.012m22.352-9.827c0-.012.009-.023.014-.034l0-.005c-.005.013-.011.026-.016.039m-35.755-15.4v.006l0-.018v.012m19.55-16.986-.016,0,.016,0" transform="translate(-246.289 -209.981)" fill="#e38907"/>
            <g id="Grupo_1119570" data-name="Grupo 1119570" transform="translate(131.71 113.548)" style="mix-blend-mode: soft-light;isolation: isolate">
              <g id="Grupo_1119569" data-name="Grupo 1119569">
                <g id="Grupo_1119568" data-name="Grupo 1119568" clip-path="url(#clip-path-7)">
                  <path id="Trazado_906557" data-name="Trazado 906557" d="M395.186,328.933c-.225.051-.451.109-.675.168s-.418.124-.628.182a.128.128,0,0,0-.049.01c-.428.133-.853.273-1.269.439-.443.176-.871.381-1.294.6a15.058,15.058,0,0,0-2.4,1.539,12.544,12.544,0,0,0-1.054.883c-.357.322-.695.664-1.02,1.018l0,0A20.655,20.655,0,0,0,384.9,336.2a.4.4,0,0,0-.075.1,21.122,21.122,0,0,0-1.494,2.8v0c-.018.042-.036.085-.054.127.013-.031.026-.063.04-.095-.055.125-.109.25-.161.376a18.882,18.882,0,0,0-.687,1.871,21.371,21.371,0,0,0-.529,2.109,22,22,0,0,0-.393,4.116.652.652,0,0,0,0,.207c.009.591.037,1.181.087,1.77q0,.022,0,.045c0,.013,0,.026,0,.038q.077.8.194,1.586a.794.794,0,0,0,.027.2c.016.1.034.2.051.3a.811.811,0,0,0,.028.188c.019.116.042.232.064.348a.871.871,0,0,0,.022.144l.065.327a.816.816,0,0,0,.025.166l0,.024a.789.789,0,0,0,.024.14c.019.093.039.184.058.277a.807.807,0,0,0,.381.5.829.829,0,0,0,1.218-.936c-.026-.091-.051-.182-.076-.273a.748.748,0,0,0-.028-.084c-.006-.025-.013-.05-.019-.076a.846.846,0,0,0-.036-.106c-.032-.125-.062-.251-.09-.377a.708.708,0,0,0-.021-.074c-.03-.137-.057-.274-.087-.411a.448.448,0,0,0-.023-.088c-.008-.041-.016-.083-.023-.125a.864.864,0,0,0-.016-.086c-.011-.062-.022-.124-.033-.186a.473.473,0,0,0-.013-.055c-.04-.226-.078-.454-.11-.681s-.056-.451-.078-.676l-.006-.044c-.063-.622-.1-1.247-.116-1.873,0-.017,0-.035,0-.051a23.66,23.66,0,0,1,.2-3.585,21.754,21.754,0,0,1,1.426-5.368c-.017.041-.035.083-.051.123a18.229,18.229,0,0,1,1.024-2.065.418.418,0,0,0,.034-.072,18.273,18.273,0,0,1,1.293-1.942c.121-.154.246-.3.373-.454a.431.431,0,0,0,.038-.052,16.4,16.4,0,0,1,2.405-2.323l-.058.046a15.755,15.755,0,0,1,1.68-1.138c.582-.339,1.192-.623,1.8-.9h0c.145-.057.293-.11.432-.175l.306-.108a.239.239,0,0,0,.047-.023,10.144,10.144,0,0,1,1.3-.361c.2-.044.132-.326-.048-.326a.176.176,0,0,0-.041.005m-8.195,5.757-.019.025.019-.025m-3.845,4.85-.038.091c.012-.031.025-.061.038-.091m.06,10.608c0,.027.008.055.011.083,0-.028-.007-.055-.011-.083m.115-11.018.014-.032h0l-.014.033" transform="translate(-381.542 -328.928)" fill="#fefefe"/>
                </g>
              </g>
            </g>
            <g id="Grupo_1119573" data-name="Grupo 1119573" transform="translate(133.33 139.356)" style="mix-blend-mode: soft-light;isolation: isolate">
              <g id="Grupo_1119572" data-name="Grupo 1119572">
                <g id="Grupo_1119571" data-name="Grupo 1119571" clip-path="url(#clip-path-8)">
                  <path id="Trazado_906558" data-name="Trazado 906558" d="M386.237,404.578a.886.886,0,1,0,.886-.886.894.894,0,0,0-.886.886" transform="translate(-386.237 -403.692)" fill="#fefefe"/>
                </g>
              </g>
            </g>
            <g id="Grupo_1119576" data-name="Grupo 1119576" transform="translate(136.729 114.362)" style="mix-blend-mode: soft-light;isolation: isolate">
              <g id="Grupo_1119575" data-name="Grupo 1119575">
                <g id="Grupo_1119574" data-name="Grupo 1119574" clip-path="url(#clip-path-9)">
                  <text id="_" data-name="$" transform="translate(7.06 32.763) rotate(-13.985)" fill="#fefefe" font-size="35" font-family="SegoeUI, Segoe UI"><tspan x="0" y="0">$</tspan></text>
                </g>
              </g>
            </g>
          </g>
        </g>
      </g>
    </g>
  </g>
</svg>
