<svg xmlns="http://www.w3.org/2000/svg" width="89" height="89" viewBox="0 0 89 89">
  <g id="Grupo_1119889" data-name="Grupo 1119889" transform="translate(-756.711 -6722)">
    <circle id="Elipse_11508" data-name="Elipse 11508" cx="44.5" cy="44.5" r="44.5" transform="translate(756.711 6722)" fill="#fff"/>
    <g id="Grupo_1101117" data-name="Grupo 1101117" transform="translate(353.574 694.531)">
      <rect id="Rectángulo_401104" data-name="Rectángulo 401104" width="59" height="59" transform="translate(418.137 6042.469)" fill="none"/>
      <g id="Layer_1" data-name="Layer 1" transform="translate(410.479 6034.723)">
        <path id="Trazado_906622" data-name="Trazado 906622" d="M312.922,310.7l-2.13,2.13-5.67-5.67,2.13-2.13Z" transform="translate(-262.771 -262.597)" fill="#bfbfbf"/>
        <path id="Trazado_906623" data-name="Trazado 906623" d="M311.877,320.609l-1.083,1.083-5.67-5.67,1.083-1.082Z" transform="translate(-262.774 -271.462)" fill="#8c8c8c"/>
        <path id="Trazado_906624" data-name="Trazado 906624" d="M49.076,30.279a18.9,18.9,0,1,1-18.9-18.9,18.9,18.9,0,0,1,18.9,18.9Z" fill="#6cf"/>
        <path id="Trazado_906625" data-name="Trazado 906625" d="M31.3,49.141c-.371.022-.745.034-1.121.034a18.9,18.9,0,1,1,0-37.791c.377,0,.751.012,1.121.034a18.895,18.895,0,0,0,0,37.723Z" fill="#4da6ff"/>
        <path id="Trazado_906626" data-name="Trazado 906626" d="M78.961,64.171A14.888,14.888,0,1,1,64.072,49.283,14.888,14.888,0,0,1,78.961,64.171Z" transform="translate(-33.892 -33.892)" fill="#f5f5f5"/>
        <path id="Trazado_906627" data-name="Trazado 906627" d="M65.262,79.013q-.589.046-1.189.047a14.888,14.888,0,0,1,0-29.777q.6,0,1.189.047a14.889,14.889,0,0,0,0,29.682Z" transform="translate(-33.892 -33.892)" fill="#e6e6e6"/>
        <path id="Trazado_906628" data-name="Trazado 906628" d="M359.072,363.353l-10.26-10.26a.677.677,0,0,1,0-.957l.2-.2,3.018-3.018.2-.2a.677.677,0,0,1,.957,0l10.26,10.26C366.876,362.4,362.5,366.778,359.072,363.353Z" transform="translate(-301.665 -301.488)" fill="#393939"/>
        <path id="Trazado_906629" data-name="Trazado 906629" d="M363.8,383.86c-1.1,1.067-3.03,1.285-4.724-.41l-10.26-10.26a.677.677,0,0,1,0-.957l.2-.2,1.043-1.043a.677.677,0,0,0,0,.957l10.26,10.26A5.645,5.645,0,0,0,363.8,383.86Z" transform="translate(-301.665 -321.584)" fill="#343434"/>
        <path id="Trazado_906630" data-name="Trazado 906630" d="M37.357,166.444l13.184,22.179a3.135,3.135,0,0,1-2.695,4.736H21.479a3.135,3.135,0,0,1-2.695-4.736l13.183-22.179a3.135,3.135,0,0,1,5.39,0Z" transform="translate(-6.313 -137.295)" fill="#ffdf40"/>
        <path id="Trazado_906631" data-name="Trazado 906631" d="M22.864,193.342H21.479a3.135,3.135,0,0,1-2.695-4.736l13.183-22.179a3.134,3.134,0,0,1,3.936-1.279,3.093,3.093,0,0,0-1.735,1.385L20.985,188.712a3.138,3.138,0,0,0,1.879,4.631Z" transform="translate(-6.313 -137.277)" fill="#ffbe40"/>
        <path id="Trazado_906632" data-name="Trazado 906632" d="M155.639,226.546a1.563,1.563,0,1,1-1.563-1.563,1.563,1.563,0,0,1,1.563,1.563Zm.638-17.855a2.2,2.2,0,1,0-4.4,0c0,.077.638,12.388.638,12.388a1.563,1.563,0,1,0,3.127,0S156.277,208.768,156.277,208.691Z" transform="translate(-125.726 -174.478)" fill="#ff5959"/>
        <path id="Trazado_906633" data-name="Trazado 906633" d="M152.513,221.079s-.638-12.311-.638-12.388a2.2,2.2,0,0,1,2.2-2.2v16.152A1.563,1.563,0,0,1,152.513,221.079Zm1.563,3.9a1.563,1.563,0,1,0,0,3.127Z" transform="translate(-125.726 -174.478)" fill="#e63a57"/>
      </g>
    </g>
  </g>
</svg>
