<svg xmlns="http://www.w3.org/2000/svg" xmlns:xlink="http://www.w3.org/1999/xlink" width="120" height="120" viewBox="0 0 120 120">
  <defs>
    <clipPath id="clip-path">
      <rect id="Rectángulo_400938" data-name="Rectángulo 400938" width="113" height="113" fill="none"/>
    </clipPath>
    <clipPath id="clip-path-2">
      <rect id="Rectángulo_401742" data-name="Rectángulo 401742" width="120" height="120" fill="none"/>
    </clipPath>
    <clipPath id="clip-path-3">
      <rect id="Rectángulo_401301" data-name="Rectángulo 401301" width="64.317" height="193.113" fill="#d4e157"/>
    </clipPath>
    <clipPath id="clip-path-5">
      <rect id="Rectángulo_401247" data-name="Rectángulo 401247" width="15.921" height="15.92" fill="#d4e157"/>
    </clipPath>
    <clipPath id="clip-path-6">
      <path id="Trazado_873506" data-name="Trazado 873506" d="M15.921,7.96A7.96,7.96,0,1,1,7.96,0a7.961,7.961,0,0,1,7.961,7.96" fill="#d4e157"/>
    </clipPath>
    <clipPath id="clip-path-8">
      <path id="Trazado_873507" data-name="Trazado 873507" d="M15.921,7.96A7.96,7.96,0,1,1,7.96,0a7.96,7.96,0,0,1,7.961,7.96" fill="#d4e157"/>
    </clipPath>
    <clipPath id="clip-path-13">
      <rect id="Rectángulo_401261" data-name="Rectángulo 401261" width="15.92" height="15.92" fill="#d4e157"/>
    </clipPath>
    <clipPath id="clip-path-14">
      <path id="Trazado_873513" data-name="Trazado 873513" d="M15.92,7.96A7.96,7.96,0,1,1,7.96,0a7.96,7.96,0,0,1,7.96,7.96" fill="#d4e157"/>
    </clipPath>
    <clipPath id="clip-path-15">
      <rect id="Rectángulo_401263" data-name="Rectángulo 401263" width="15.921" height="15.921" fill="#d4e157"/>
    </clipPath>
    <clipPath id="clip-path-16">
      <path id="Trazado_873514" data-name="Trazado 873514" d="M15.921,7.961A7.96,7.96,0,1,1,7.96,0a7.961,7.961,0,0,1,7.961,7.961" fill="#d4e157"/>
    </clipPath>
    <clipPath id="clip-path-21">
      <rect id="Rectángulo_401273" data-name="Rectángulo 401273" width="15.92" height="15.921" fill="#d4e157"/>
    </clipPath>
    <clipPath id="clip-path-22">
      <path id="Trazado_873519" data-name="Trazado 873519" d="M15.92,7.961A7.96,7.96,0,1,1,7.96,0a7.96,7.96,0,0,1,7.96,7.961" fill="#d4e157"/>
    </clipPath>
    <clipPath id="clip-path-24">
      <path id="Trazado_873521" data-name="Trazado 873521" d="M15.921,7.96A7.96,7.96,0,1,1,7.961,0a7.96,7.96,0,0,1,7.96,7.96" fill="#d4e157"/>
    </clipPath>
    <clipPath id="clip-path-32">
      <path id="Trazado_873532" data-name="Trazado 873532" d="M15.921,7.961A7.96,7.96,0,1,1,7.961,0a7.96,7.96,0,0,1,7.96,7.961" fill="#d4e157"/>
    </clipPath>
  </defs>
  <g id="Grupo_1119772" data-name="Grupo 1119772" transform="translate(-180.711 -1833.329)">
    <g id="Grupo_1101281" data-name="Grupo 1101281" transform="translate(180.711 1833.763)">
      <g id="Grupo_1099379" data-name="Grupo 1099379" transform="translate(0 -0.434)">
        <rect id="Rectángulo_401103" data-name="Rectángulo 401103" width="120" height="120" transform="translate(0 0)" fill="none"/>
        <path id="Trazado_873425" data-name="Trazado 873425" d="M49.147,0C76.29,0,98.293,23.571,98.293,52.647s-22,52.647-49.147,52.647S0,81.723,0,52.647,22,0,49.147,0Z" transform="translate(15.677 12.583)" fill="#b9bfe2"/>
        <g id="Enmascarar_grupo_1100032" data-name="Enmascarar grupo 1100032" transform="translate(0 0)" clip-path="url(#clip-path-2)">
          <g id="Grupo_1101051" data-name="Grupo 1101051" transform="translate(148.45 -27.966) rotate(90)" style="isolation: isolate">
            <g id="Grupo_1099913" data-name="Grupo 1099913" clip-path="url(#clip-path-3)" style="isolation: isolate">
              <g id="Grupo_1099912" data-name="Grupo 1099912">
                <g id="Grupo_1099911" data-name="Grupo 1099911" clip-path="url(#clip-path-3)">
                  <g id="Grupo_1099780" data-name="Grupo 1099780" transform="translate(48.396 81.162)" style="isolation: isolate">
                    <g id="Grupo_1099779" data-name="Grupo 1099779">
                      <g id="Grupo_1099778" data-name="Grupo 1099778" transform="translate(0 0)" clip-path="url(#clip-path-5)">
                        <g id="Grupo_1099777" data-name="Grupo 1099777" transform="translate(0 0)">
                          <g id="Grupo_1099776" data-name="Grupo 1099776" clip-path="url(#clip-path-6)">
                            <path id="Trazado_875145" data-name="Trazado 875145" d="M0,0H20.238V20.238H0Z" transform="translate(-4.903 14.231) rotate(-70.991)" fill="#d4e157"/>
                          </g>
                        </g>
                      </g>
                    </g>
                  </g>
                  <g id="Grupo_1099785" data-name="Grupo 1099785" transform="translate(48.396 97.082)" style="isolation: isolate">
                    <g id="Grupo_1099784" data-name="Grupo 1099784">
                      <g id="Grupo_1099783" data-name="Grupo 1099783" clip-path="url(#clip-path-5)">
                        <g id="Grupo_1099782" data-name="Grupo 1099782" transform="translate(0)">
                          <g id="Grupo_1099781" data-name="Grupo 1099781" clip-path="url(#clip-path-8)">
                            <path id="Trazado_875146" data-name="Trazado 875146" d="M0,0H20.238V20.238H0Z" transform="translate(-4.903 14.231) rotate(-70.991)" fill="#d4e157"/>
                          </g>
                        </g>
                      </g>
                    </g>
                  </g>
                  <g id="Grupo_1099790" data-name="Grupo 1099790" transform="translate(48.396 113.052)" style="isolation: isolate">
                    <g id="Grupo_1099789" data-name="Grupo 1099789">
                      <g id="Grupo_1099788" data-name="Grupo 1099788" transform="translate(0 0)" clip-path="url(#clip-path-5)">
                        <g id="Grupo_1099787" data-name="Grupo 1099787" transform="translate(0 0)">
                          <g id="Grupo_1099786" data-name="Grupo 1099786" clip-path="url(#clip-path-6)">
                            <path id="Trazado_875147" data-name="Trazado 875147" d="M0,0H20.238V20.238H0Z" transform="translate(-4.903 14.231) rotate(-70.991)" fill="#d4e157"/>
                          </g>
                        </g>
                      </g>
                    </g>
                  </g>
                  <g id="Grupo_1099795" data-name="Grupo 1099795" transform="translate(48.396 128.972)" style="isolation: isolate">
                    <g id="Grupo_1099794" data-name="Grupo 1099794">
                      <g id="Grupo_1099793" data-name="Grupo 1099793" transform="translate(0 0)" clip-path="url(#clip-path-5)">
                        <g id="Grupo_1099792" data-name="Grupo 1099792" transform="translate(0 0)">
                          <g id="Grupo_1099791" data-name="Grupo 1099791" clip-path="url(#clip-path-8)">
                            <path id="Trazado_875148" data-name="Trazado 875148" d="M0,0H20.238V20.238H0Z" transform="translate(-4.903 14.231) rotate(-70.991)" fill="#d4e157"/>
                          </g>
                        </g>
                      </g>
                    </g>
                  </g>
                  <g id="Grupo_1099815" data-name="Grupo 1099815" transform="translate(32.476 81.162)" style="isolation: isolate">
                    <g id="Grupo_1099814" data-name="Grupo 1099814">
                      <g id="Grupo_1099813" data-name="Grupo 1099813" transform="translate(0 0)" clip-path="url(#clip-path-13)">
                        <g id="Grupo_1099812" data-name="Grupo 1099812" transform="translate(0 0)">
                          <g id="Grupo_1099811" data-name="Grupo 1099811" clip-path="url(#clip-path-14)">
                            <path id="Trazado_875149" data-name="Trazado 875149" d="M0,0H20.238V20.238H0Z" transform="translate(-4.903 14.231) rotate(-70.991)" fill="#d4e157"/>
                          </g>
                        </g>
                      </g>
                    </g>
                  </g>
                  <g id="Grupo_1099820" data-name="Grupo 1099820" transform="translate(48.396 64.723)" style="isolation: isolate">
                    <g id="Grupo_1099819" data-name="Grupo 1099819">
                      <g id="Grupo_1099818" data-name="Grupo 1099818" transform="translate(0 0)" clip-path="url(#clip-path-15)">
                        <g id="Grupo_1099817" data-name="Grupo 1099817" transform="translate(0 0)">
                          <g id="Grupo_1099816" data-name="Grupo 1099816" clip-path="url(#clip-path-16)">
                            <path id="Trazado_875150" data-name="Trazado 875150" d="M0,0H20.238V20.238H0Z" transform="matrix(0.326, -0.945, 0.945, 0.326, -4.903, 14.232)" fill="#d4e157"/>
                          </g>
                        </g>
                      </g>
                    </g>
                  </g>
                  <g id="Grupo_1099825" data-name="Grupo 1099825" transform="translate(48.396 48.715)" style="isolation: isolate">
                    <g id="Grupo_1099824" data-name="Grupo 1099824">
                      <g id="Grupo_1099823" data-name="Grupo 1099823" transform="translate(0 0)" clip-path="url(#clip-path-5)">
                        <g id="Grupo_1099822" data-name="Grupo 1099822" transform="translate(0 0)">
                          <g id="Grupo_1099821" data-name="Grupo 1099821" clip-path="url(#clip-path-6)">
                            <path id="Trazado_875151" data-name="Trazado 875151" d="M0,0H20.238V20.238H0Z" transform="translate(-4.903 14.231) rotate(-70.991)" fill="#d4e157"/>
                          </g>
                        </g>
                      </g>
                    </g>
                  </g>
                  <g id="Grupo_1099830" data-name="Grupo 1099830" transform="translate(48.396 32.501)" style="isolation: isolate">
                    <g id="Grupo_1099829" data-name="Grupo 1099829">
                      <g id="Grupo_1099828" data-name="Grupo 1099828" transform="translate(0 0)" clip-path="url(#clip-path-15)">
                        <g id="Grupo_1099827" data-name="Grupo 1099827" transform="translate(0 0)">
                          <g id="Grupo_1099826" data-name="Grupo 1099826" clip-path="url(#clip-path-16)">
                            <path id="Trazado_875152" data-name="Trazado 875152" d="M0,0H20.238V20.238H0Z" transform="translate(-4.903 14.232) rotate(-70.991)" fill="#d4e157"/>
                          </g>
                        </g>
                      </g>
                    </g>
                  </g>
                  <g id="Grupo_1099845" data-name="Grupo 1099845" transform="translate(32.476 64.723)" style="isolation: isolate">
                    <g id="Grupo_1099844" data-name="Grupo 1099844">
                      <g id="Grupo_1099843" data-name="Grupo 1099843" transform="translate(0 0)" clip-path="url(#clip-path-21)">
                        <g id="Grupo_1099842" data-name="Grupo 1099842" transform="translate(0 0)">
                          <g id="Grupo_1099841" data-name="Grupo 1099841" clip-path="url(#clip-path-22)">
                            <path id="Trazado_875153" data-name="Trazado 875153" d="M0,0H20.238V20.238H0Z" transform="translate(-4.903 14.232) rotate(-70.991)" fill="#d4e157"/>
                          </g>
                        </g>
                      </g>
                    </g>
                  </g>
                  <g id="Grupo_1099855" data-name="Grupo 1099855" transform="translate(32.11 97.082)" style="isolation: isolate">
                    <g id="Grupo_1099854" data-name="Grupo 1099854">
                      <g id="Grupo_1099853" data-name="Grupo 1099853" clip-path="url(#clip-path-5)">
                        <g id="Grupo_1099852" data-name="Grupo 1099852" transform="translate(0)">
                          <g id="Grupo_1099851" data-name="Grupo 1099851" clip-path="url(#clip-path-24)">
                            <path id="Trazado_875154" data-name="Trazado 875154" d="M0,0H20.238V20.238H0Z" transform="translate(-4.903 14.231) rotate(-70.991)" fill="#d4e157"/>
                          </g>
                        </g>
                      </g>
                    </g>
                  </g>
                  <g id="Grupo_1099870" data-name="Grupo 1099870" transform="translate(32.11 113.052)" style="isolation: isolate">
                    <g id="Grupo_1099869" data-name="Grupo 1099869">
                      <g id="Grupo_1099868" data-name="Grupo 1099868" transform="translate(0 0)" clip-path="url(#clip-path-5)">
                        <g id="Grupo_1099867" data-name="Grupo 1099867" transform="translate(0 0)">
                          <g id="Grupo_1099866" data-name="Grupo 1099866" clip-path="url(#clip-path-24)">
                            <path id="Trazado_875155" data-name="Trazado 875155" d="M0,0H20.238V20.238H0Z" transform="translate(-4.903 14.231) rotate(-70.991)" fill="#d4e157"/>
                          </g>
                        </g>
                      </g>
                    </g>
                  </g>
                  <g id="Grupo_1099885" data-name="Grupo 1099885" transform="translate(32.11 128.972)" style="isolation: isolate">
                    <g id="Grupo_1099884" data-name="Grupo 1099884">
                      <g id="Grupo_1099883" data-name="Grupo 1099883" transform="translate(0 0)" clip-path="url(#clip-path-5)">
                        <g id="Grupo_1099882" data-name="Grupo 1099882" transform="translate(0 0)">
                          <g id="Grupo_1099881" data-name="Grupo 1099881" clip-path="url(#clip-path-24)">
                            <path id="Trazado_875156" data-name="Trazado 875156" d="M0,0H20.238V20.238H0Z" transform="translate(-4.903 14.231) rotate(-70.991)" fill="#d4e157"/>
                          </g>
                        </g>
                      </g>
                    </g>
                  </g>
                  <g id="Grupo_1099900" data-name="Grupo 1099900" transform="translate(32.476 48.788)" style="isolation: isolate">
                    <g id="Grupo_1099899" data-name="Grupo 1099899">
                      <g id="Grupo_1099898" data-name="Grupo 1099898" transform="translate(0 0)" clip-path="url(#clip-path-21)">
                        <g id="Grupo_1099897" data-name="Grupo 1099897" transform="translate(0 0)">
                          <g id="Grupo_1099896" data-name="Grupo 1099896" clip-path="url(#clip-path-22)">
                            <path id="Trazado_875157" data-name="Trazado 875157" d="M0,0H20.238V20.238H0Z" transform="translate(-4.903 14.232) rotate(-70.991)" fill="#d4e157"/>
                          </g>
                        </g>
                      </g>
                    </g>
                  </g>
                  <g id="Grupo_1099910" data-name="Grupo 1099910" transform="translate(32.11 32.501)" style="isolation: isolate">
                    <g id="Grupo_1099909" data-name="Grupo 1099909">
                      <g id="Grupo_1099908" data-name="Grupo 1099908" transform="translate(0 0)" clip-path="url(#clip-path-15)">
                        <g id="Grupo_1099907" data-name="Grupo 1099907" transform="translate(0 0)">
                          <g id="Grupo_1099906" data-name="Grupo 1099906" clip-path="url(#clip-path-32)">
                            <path id="Trazado_875158" data-name="Trazado 875158" d="M0,0H20.238V20.238H0Z" transform="matrix(0.326, -0.945, 0.945, 0.326, -4.903, 14.232)" fill="#d4e157"/>
                          </g>
                        </g>
                      </g>
                    </g>
                  </g>
                </g>
              </g>
            </g>
          </g>
        </g>
        <circle id="Elipse_11503" data-name="Elipse 11503" cx="51.5" cy="51.5" r="51.5" transform="translate(8 9)" fill="#f3f9ff"/>
      </g>
    </g>
    <g id="Grupo_1101283" data-name="Grupo 1101283" transform="translate(207.504 1858.585)">
      <g id="Grupo_1099389" data-name="Grupo 1099389" transform="translate(0.293 -0.141)">
        <rect id="Rectángulo_401104" data-name="Rectángulo 401104" width="67" height="68" transform="translate(-0.086 -0.116)" fill="none"/>
      </g>
      <g id="Grupo_1119616" data-name="Grupo 1119616" transform="translate(-3.793 -0.256)">
        <g id="Grupo_1119591" data-name="Grupo 1119591" transform="translate(4)">
          <g id="Grupo_1119590" data-name="Grupo 1119590" transform="translate(0)">
            <path id="Trazado_906596" data-name="Trazado 906596" d="M55,0H9.667A5.673,5.673,0,0,0,4,5.667V41.933a5.667,5.667,0,0,0,4.251,5.488l.567-2.194a3.4,3.4,0,0,1-2.551-3.293V5.667a3.4,3.4,0,0,1,3.4-3.4H55a3.4,3.4,0,0,1,3.4,3.4V6.8h2.267V5.667A5.673,5.673,0,0,0,55,0Z" transform="translate(-4)" fill="#474d41"/>
          </g>
        </g>
        <g id="Grupo_1119593" data-name="Grupo 1119593" transform="translate(8.246 4.312)">
          <g id="Grupo_1119592" data-name="Grupo 1119592" transform="translate(0 0)">
            <rect id="Rectángulo_409522" data-name="Rectángulo 409522" width="2.548" height="2.548" fill="#474d41"/>
          </g>
        </g>
        <g id="Grupo_1119595" data-name="Grupo 1119595" transform="translate(13.341 4.312)">
          <g id="Grupo_1119594" data-name="Grupo 1119594" transform="translate(0 0)">
            <rect id="Rectángulo_409523" data-name="Rectángulo 409523" width="1.698" height="2.548" fill="#474d41"/>
          </g>
        </g>
        <g id="Grupo_1119597" data-name="Grupo 1119597" transform="translate(17.587 4.312)">
          <g id="Grupo_1119596" data-name="Grupo 1119596" transform="translate(0 0)">
            <rect id="Rectángulo_409524" data-name="Rectángulo 409524" width="2.548" height="2.548" fill="#474d41"/>
          </g>
        </g>
        <g id="Grupo_1119599" data-name="Grupo 1119599" transform="translate(15.333 18.133)">
          <g id="Grupo_1119598" data-name="Grupo 1119598">
            <path id="Trazado_906597" data-name="Trazado 906597" d="M139.2,172.532l-10.75-10.75A15.673,15.673,0,0,0,129.8,158.6h1.8v-2.267h-1.315a15.27,15.27,0,0,0-.952-8.121V137.067h-2.267v7.217a15.951,15.951,0,0,0-2.267-2.353v-9.4h-2.267v7.813a15.764,15.764,0,0,0-2.267-1.082V128H118v10.576a15.7,15.7,0,0,0-2.267-.318v-7.991h-2.267v7.991a15.7,15.7,0,0,0-2.267.318V134.8h-2.267v4.464a15.771,15.771,0,0,0-2.267,1.082v-6.68H104.4v8.264a15.95,15.95,0,0,0-2.267,2.353v-8.35H99.867v12.279a15.271,15.271,0,0,0-.952,8.121H84V158.6H99.4a15.834,15.834,0,0,0,24.3,8.441L134.2,177.535a1.133,1.133,0,0,0,1.6,0l3.4-3.4A1.133,1.133,0,0,0,139.2,172.532Zm-24.6-4.865a13.6,13.6,0,1,1,13.6-13.6A13.615,13.615,0,0,1,114.6,167.667Zm20.4,7.464-9.534-9.534a16.061,16.061,0,0,0,1.706-1.889l9.625,9.625Z" transform="translate(-84 -128)" fill="#474d41"/>
          </g>
        </g>
        <g id="Grupo_1119601" data-name="Grupo 1119601" transform="translate(34.6 32.867)">
          <g id="Grupo_1119600" data-name="Grupo 1119600">
            <path id="Trazado_906598" data-name="Trazado 906598" d="M231.333,232a11.333,11.333,0,1,0,11.333,11.333A11.333,11.333,0,0,0,231.333,232Zm0,20.4a9.067,9.067,0,0,1-7.84-4.533h15.681A9.067,9.067,0,0,1,231.333,252.4Zm-8.769-6.8a8.984,8.984,0,0,1,3.1-9.333v7.066h2.267v-8.4a9.026,9.026,0,0,1,2.267-.589v8.988h2.267v-8.988a9.027,9.027,0,0,1,2.267.589v8.4H237v-7.066a8.984,8.984,0,0,1,3.1,9.333Z" transform="translate(-220 -232)" fill="#474d41"/>
          </g>
        </g>
        <g id="Grupo_1119603" data-name="Grupo 1119603" transform="translate(10.8 9.067)">
          <g id="Grupo_1119602" data-name="Grupo 1119602">
            <path id="Trazado_906599" data-name="Trazado 906599" d="M103,64H57.667A5.673,5.673,0,0,0,52,69.667v36.267a5.673,5.673,0,0,0,5.667,5.667H72.4v-2.267H57.667a3.4,3.4,0,0,1-3.4-3.4V69.667a3.4,3.4,0,0,1,3.4-3.4H103a3.4,3.4,0,0,1,3.4,3.4v36.267a3.4,3.4,0,0,1-.85,2.249l1.7,1.5a5.66,5.66,0,0,0,1.417-3.748V69.667A5.673,5.673,0,0,0,103,64Z" transform="translate(-52 -64)" fill="#474d41"/>
          </g>
        </g>
        <g id="Grupo_1119605" data-name="Grupo 1119605" transform="translate(15.04 13.653)">
          <g id="Grupo_1119604" data-name="Grupo 1119604" transform="translate(0 0)">
            <rect id="Rectángulo_409525" data-name="Rectángulo 409525" width="2.548" height="2.548" fill="#474d41"/>
          </g>
        </g>
        <g id="Grupo_1119607" data-name="Grupo 1119607" transform="translate(20.135 13.653)">
          <g id="Grupo_1119606" data-name="Grupo 1119606" transform="translate(0 0)">
            <rect id="Rectángulo_409526" data-name="Rectángulo 409526" width="1.698" height="2.548" fill="#474d41"/>
          </g>
        </g>
        <g id="Grupo_1119609" data-name="Grupo 1119609" transform="translate(24.381 13.653)">
          <g id="Grupo_1119608" data-name="Grupo 1119608" transform="translate(0 0)">
            <rect id="Rectángulo_409527" data-name="Rectángulo 409527" width="2.548" height="2.548" fill="#474d41"/>
          </g>
        </g>
        <g id="Grupo_1119611" data-name="Grupo 1119611" transform="translate(17.587 37.43)">
          <g id="Grupo_1119610" data-name="Grupo 1119610" transform="translate(0 0)">
            <rect id="Rectángulo_409528" data-name="Rectángulo 409528" width="2.548" height="6.794" fill="#474d41"/>
          </g>
        </g>
        <g id="Grupo_1119613" data-name="Grupo 1119613" transform="translate(21.833 30.637)">
          <g id="Grupo_1119612" data-name="Grupo 1119612" transform="translate(0 0)">
            <rect id="Rectángulo_409529" data-name="Rectángulo 409529" width="2.548" height="13.587" fill="#474d41"/>
          </g>
        </g>
        <g id="Grupo_1119615" data-name="Grupo 1119615" transform="translate(26.928 34.034)">
          <g id="Grupo_1119614" data-name="Grupo 1119614" transform="translate(0 0)">
            <rect id="Rectángulo_409530" data-name="Rectángulo 409530" width="1.698" height="10.19" fill="#474d41"/>
          </g>
        </g>
      </g>
    </g>
  </g>
</svg>
