<svg xmlns="http://www.w3.org/2000/svg" xmlns:xlink="http://www.w3.org/1999/xlink" width="121" height="121" viewBox="0 0 121 121">
  <defs>
    <clipPath id="clip-path">
      <rect id="Rectángulo_400938" data-name="Rectángulo 400938" width="121" height="121" fill="none"/>
    </clipPath>
  </defs>
  <g id="Grupo_1119881" data-name="Grupo 1119881" transform="translate(10399.164 5929.134)">
    <g id="Grupo_1119818" data-name="Grupo 1119818" transform="translate(-10664.121 -11213.091)">
      <g id="Grupo_1099379" data-name="Grupo 1099379" transform="translate(264.957 5283.957)">
        <rect id="Rectángulo_401103" data-name="Rectángulo 401103" width="121" height="121" transform="translate(0 0)" fill="none"/>
        <circle id="Elipse_11503" data-name="Elipse 11503" cx="60.5" cy="60.5" r="60.5" transform="translate(0 0)" fill="#fff"/>
      </g>
    </g>
    <g id="Grupo_1119820" data-name="Grupo 1119820" transform="translate(-10372.762 -5902.876)">
      <rect id="Rectángulo_401104" data-name="Rectángulo 401104" width="70" height="71" transform="translate(-0.402 -1.257)" fill="none"/>
      <g id="Grupo_1119863" data-name="Grupo 1119863" transform="translate(0.099 -57.844)">
        <path id="Trazado_906990" data-name="Trazado 906990" d="M102.787,177.47l.829.829a2.715,2.715,0,0,0,3.84-3.84l1.379,1.379a2.715,2.715,0,0,0,3.84-3.84l1.206,1.206a2.715,2.715,0,0,0,3.908-.071,2.758,2.758,0,0,0-.115-3.814l-13.042-13.042a2.715,2.715,0,0,0,3.908-.071,2.758,2.758,0,0,0-.115-3.814l-5.973-5.973a6.464,6.464,0,0,0-6.554-1.581l-2.547.821a2.335,2.335,0,0,1-2.367-.571l-4.336-4.336-7.328,3.29-4.287,8.326,3.707,3.707a5.148,5.148,0,0,1,1.5,3.95,5.411,5.411,0,0,0,1.575,4.152L98.9,181.264a2.758,2.758,0,0,0,3.814.115,2.715,2.715,0,0,0,.071-3.908" transform="translate(-64.852 -64.139)" fill="#fed2a4"/>
        <path id="Trazado_906991" data-name="Trazado 906991" d="M180.564,173.133a2.681,2.681,0,0,1-.964.667,2.494,2.494,0,0,0-.911-2.719l-17.445-17.49,3.789-3.846-.267-.267a6.462,6.462,0,0,0-6.554-1.581l-2.548.821a2.331,2.331,0,0,1-2.366-.57l-5.634-5.634,1.761-1.762,4.336,4.337a2.334,2.334,0,0,0,2.368.57l2.547-.82a6.464,6.464,0,0,1,6.554,1.581l5.974,5.973a2.761,2.761,0,0,1,.115,3.816,2.717,2.717,0,0,1-3.909.071l13.042,13.041A2.757,2.757,0,0,1,180.564,173.133Z" transform="translate(-127.626 -64.138)" fill="#ffbd86"/>
        <g id="Grupo_1119859" data-name="Grupo 1119859" transform="translate(40.3 101.817)">
          <path id="Trazado_906992" data-name="Trazado 906992" d="M305.723,333.744l-1.206-1.206a2.711,2.711,0,0,1,.387,3.349l-7.6-7.605a1.048,1.048,0,0,1,1.483-1.482l7.04,7.04Q305.774,333.794,305.723,333.744Z" transform="translate(-296.993 -326.492)" fill="#ffbd86"/>
        </g>
        <g id="Grupo_1119860" data-name="Grupo 1119860" transform="translate(34.138 103.342)">
          <path id="Trazado_906993" data-name="Trazado 906993" d="M260.849,346.63a2.69,2.69,0,0,1-.411,1.434l-8.543-8.543a1.049,1.049,0,0,1,1.483-1.483l6.74,6.74.032.033A2.7,2.7,0,0,1,260.849,346.63Z" transform="translate(-251.588 -337.732)" fill="#ffbd86"/>
        </g>
        <g id="Grupo_1119861" data-name="Grupo 1119861" transform="translate(33.213 110.089)">
          <path id="Trazado_906994" data-name="Trazado 906994" d="M250.319,391.525l-.83-.83a2.712,2.712,0,0,1,.4,3.331,1.087,1.087,0,0,1-.166-.136l-4.647-4.647a1.048,1.048,0,1,1,1.482-1.483l3.83,3.83Z" transform="translate(-244.768 -387.453)" fill="#ffbd86"/>
        </g>
        <g id="Grupo_1119862" data-name="Grupo 1119862" transform="translate(14.346 101.576)">
          <path id="Trazado_906995" data-name="Trazado 906995" d="M110.2,332.508l3.315-3.315a2.556,2.556,0,0,0,0-3.615l-.109-.109a2.556,2.556,0,0,0-3.615,0l-3.315,3.315a2.556,2.556,0,0,0,0,3.615l.109.109A2.556,2.556,0,0,0,110.2,332.508Z" transform="translate(-105.727 -324.72)" fill="#eb9c8d"/>
          <path id="Trazado_906996" data-name="Trazado 906996" d="M114.243,330.029l-3.206,3.206a2.633,2.633,0,0,1-4.4-1.177,2.63,2.63,0,0,0,2.547-.681l3.206-3.205a2.632,2.632,0,0,0,.681-2.548,2.633,2.633,0,0,1,1.177,4.4Z" transform="translate(-106.509 -325.502)" fill="#d78878"/>
          <path id="Trazado_906997" data-name="Trazado 906997" d="M143.706,353.665l3.315-3.315a2.556,2.556,0,0,0,0-3.615l-.109-.109a2.556,2.556,0,0,0-3.615,0l-3.315,3.315a2.556,2.556,0,0,0,0,3.615l.109.109A2.557,2.557,0,0,0,143.706,353.665Z" transform="translate(-134.687 -343.006)" fill="#eb9c8d"/>
          <path id="Trazado_906998" data-name="Trazado 906998" d="M147.749,351.2l-3.205,3.206a2.637,2.637,0,0,1-3.725,0,2.6,2.6,0,0,1-.679-1.177,2.6,2.6,0,0,0,.686.092,2.624,2.624,0,0,0,1.862-.772l3.206-3.206a2.629,2.629,0,0,0,.681-2.547,2.632,2.632,0,0,1,1.174,4.4Z" transform="translate(-135.47 -343.798)" fill="#d78878"/>
          <path id="Trazado_906999" data-name="Trazado 906999" d="M180.434,371.6l3.315-3.315a2.556,2.556,0,0,0,0-3.615l-.109-.109a2.556,2.556,0,0,0-3.615,0l-3.315,3.315a2.556,2.556,0,0,0,0,3.615l.109.109A2.556,2.556,0,0,0,180.434,371.6Z" transform="translate(-166.431 -358.507)" fill="#eb9c8d"/>
          <path id="Trazado_907000" data-name="Trazado 907000" d="M184.482,369.13l-3.206,3.206a2.631,2.631,0,0,1-4.4-1.177,2.586,2.586,0,0,0,.685.092,2.626,2.626,0,0,0,1.863-.772l3.206-3.206a2.625,2.625,0,0,0,.678-2.547,2.6,2.6,0,0,1,1.177.679A2.632,2.632,0,0,1,184.482,369.13Z" transform="translate(-167.219 -359.298)" fill="#d78878"/>
          <path id="Trazado_907001" data-name="Trazado 907001" d="M216.187,390.509l3.315-3.315a2.556,2.556,0,0,0,0-3.615l-.109-.109a2.556,2.556,0,0,0-3.615,0l-3.315,3.315a2.556,2.556,0,0,0,0,3.615l.109.109A2.556,2.556,0,0,0,216.187,390.509Z" transform="translate(-197.333 -374.851)" fill="#eb9c8d"/>
          <path id="Trazado_907002" data-name="Trazado 907002" d="M220.129,387.935l-3.206,3.206a2.633,2.633,0,0,1-4.42-1.237,2.633,2.633,0,0,0,2.488-.7L218.2,386a2.63,2.63,0,0,0,.7-2.488,2.632,2.632,0,0,1,1.236,4.42Z" transform="translate(-198.014 -375.537)" fill="#d78878"/>
        </g>
        <path id="Trazado_907003" data-name="Trazado 907003" d="M224.026,152.057l-4.188-8.283-7.427-3.332-4.379,4.379a2.335,2.335,0,0,1-2.367.571l-2.547-.821-.038-.012A5.182,5.182,0,0,0,198,145.744l-6.7,6.243a2.749,2.749,0,0,0,3.741,4.029l3.1-2.868s2.225,1.519,4.136.771l12.46,12.46,2.47-2.47a5.412,5.412,0,0,0,1.575-4.152,5.149,5.149,0,0,1,1.5-3.951Z" transform="translate(-164.583 -63.87)" fill="#eb9c8d"/>
        <path id="Trazado_907004" data-name="Trazado 907004" d="M362.981,216.432a5.147,5.147,0,0,0-1.5,3.95,5.411,5.411,0,0,1-1.574,4.153l-2.47,2.47L355.53,225.1l1.966-1.887a3.6,3.6,0,0,0,1.3-3.348c-.089-1.482.367-3.845,1.417-4.895l4.384-4.383,2.137,2.1Z" transform="translate(-307.287 -124.496)" fill="#d78878"/>
        <path id="Trazado_907005" data-name="Trazado 907005" d="M367.614,81.094l-7.826,7.826a.942.942,0,0,1-1.332,0L345.514,75.978a.942.942,0,0,1,0-1.332l7.826-7.826a.942.942,0,0,1,1.332,0l12.942,12.942a.942.942,0,0,1,0,1.332Z" transform="translate(-298.392)" fill="#7acaa6"/>
        <path id="Trazado_907006" data-name="Trazado 907006" d="M437.46,150.978l-7.785,7.787a.971.971,0,0,1-1.372,0l-2.229-2.23a.969.969,0,0,0,1.371,0l7.787-7.785a.971.971,0,0,0,0-1.373l2.229,2.229A.971.971,0,0,1,437.46,150.978Z" transform="translate(-368.258 -69.865)" fill="#57be92"/>
        <path id="Trazado_907007" data-name="Trazado 907007" d="M.276,81.094,8.1,88.92a.942.942,0,0,0,1.332,0L22.376,75.978a.942.942,0,0,0,0-1.332L14.55,66.82a.942.942,0,0,0-1.332,0L.276,79.762a.942.942,0,0,0,0,1.332Z" transform="translate(0)" fill="#528fd8"/>
        <path id="Trazado_907008" data-name="Trazado 907008" d="M93.651,76.075l-2,2a.971.971,0,0,0,0-1.373l-7.785-7.785a.971.971,0,0,0-1.373,0l2-2a.971.971,0,0,1,1.373,0L93.651,74.7A.968.968,0,0,1,93.651,76.075Z" transform="translate(-71.296 -0.077)" fill="#0573ce"/>
      </g>
    </g>
  </g>
</svg>
