<svg xmlns="http://www.w3.org/2000/svg" xmlns:xlink="http://www.w3.org/1999/xlink" width="121" height="121" viewBox="0 0 121 121">
  <defs>
    <clipPath id="clip-path">
      <rect id="Rectángulo_400938" data-name="Rectángulo 400938" width="121" height="121" fill="none"/>
    </clipPath>
  </defs>
  <g id="Grupo_1119878" data-name="Grupo 1119878" transform="translate(-739.5 -5299.866)">
    <g id="Grupo_1119814" data-name="Grupo 1119814" transform="translate(474.543 15.909)">
      <g id="Grupo_1099379" data-name="Grupo 1099379" transform="translate(264.957 5283.957)">
        <rect id="Rectángulo_401103" data-name="Rectángulo 401103" width="121" height="121" transform="translate(0 0)" fill="none"/>
        <circle id="Elipse_11503" data-name="Elipse 11503" cx="60.5" cy="60.5" r="60.5" transform="translate(0 0)" fill="#fff"/>
      </g>
    </g>
    <g id="Grupo_1119815" data-name="Grupo 1119815" transform="translate(765.902 5326.124)">
      <rect id="Rectángulo_401104" data-name="Rectángulo 401104" width="70" height="71" transform="translate(-0.402 -1.257)" fill="none"/>
      <g id="Grupo_1119824" data-name="Grupo 1119824" transform="translate(-11.113 -11.881)">
        <path id="Trazado_906931" data-name="Trazado 906931" d="M192.523,11.744l8.643,8.643a2.491,2.491,0,0,1,.812,1.833V53.066h-33V10.932h21.713a2.49,2.49,0,0,1,1.833.812Z" transform="translate(-135.492)" fill="#e3f1ff" fill-rule="evenodd"/>
        <path id="Trazado_906932" data-name="Trazado 906932" d="M376.777,69.7l1.1,1.1a2.49,2.49,0,0,1,.812,1.833v30.847h-1.267V71.55c0-.519-.15-1.819-2.43-1.853h1.788Z" transform="translate(-312.199 -50.406)" fill="#b6dbff" fill-rule="evenodd"/>
        <path id="Trazado_906933" data-name="Trazado 906933" d="M335.015,17.15l8.5,8.5a2.881,2.881,0,0,0-2.006-.813h-5.68v-5.68a2.88,2.88,0,0,0-.813-2.006Z" transform="translate(-277.912 -5.334)" fill="#61a0e0" fill-rule="evenodd"/>
        <path id="Trazado_906934" data-name="Trazado 906934" d="M335.015,17.15l6.764,6.764a2.869,2.869,0,0,0-1.251-.286h-4.7V19.156A2.88,2.88,0,0,0,335.015,17.15Z" transform="translate(-277.912 -5.334)" fill="#7cb5ef" fill-rule="evenodd"/>
        <rect id="Rectángulo_409653" data-name="Rectángulo 409653" width="11.735" height="4.908" rx="2.454" transform="translate(38.506 16.381)" fill="#2a92fa"/>
        <rect id="Rectángulo_409654" data-name="Rectángulo 409654" width="10.748" height="4.908" rx="2.454" transform="translate(38.506 16.381)" fill="#4eb1fc"/>
        <path id="Trazado_906935" data-name="Trazado 906935" d="M198.268,126.237a1,1,0,1,1,0-1.991h22.96a1,1,0,0,1,0,1.991Zm0,5.867a1,1,0,1,1,0-1.991h4.373a1,1,0,1,1,0,1.991Zm0-20.75a1,1,0,1,1,0-1.991h22.96a1,1,0,0,1,0,1.991Zm0,4.961a1,1,0,0,1,0-1.991h22.96a1,1,0,0,1,0,1.991Zm0,4.961a1,1,0,0,1,0-1.991h22.96a1,1,0,0,1,0,1.991Z" transform="translate(-159.762 -84.43)" fill="#909cd1" fill-rule="evenodd"/>
        <path id="Trazado_906936" data-name="Trazado 906936" d="M0,0H20.71V5.969H0Z" transform="matrix(0.5, -0.866, 0.866, 0.5, 63.582, 48.776)" fill="#dea368"/>
        <path id="Trazado_906937" data-name="Trazado 906937" d="M458.654,126.119a2.993,2.993,0,0,1,1.092,4.077l-1.206,2.089-5.169-2.984,1.206-2.089a2.993,2.993,0,0,1,4.077-1.092Z" transform="translate(-379.432 -98.462)" fill="#495586" fill-rule="evenodd"/>
        <path id="Trazado_906938" data-name="Trazado 906938" d="M0,0H20.71V3.914H0Z" transform="matrix(0.5, -0.866, 0.866, 0.5, 63.582, 48.775)" fill="#e6b17c"/>
        <path id="Trazado_906939" data-name="Trazado 906939" d="M453.37,129.3l1.206-2.089a2.084,2.084,0,1,1,3.39,1.957l-1.206,2.089-3.39-1.957Z" transform="translate(-379.432 -98.461)" fill="#5d689e" fill-rule="evenodd"/>
        <path id="Trazado_906940" data-name="Trazado 906940" d="M0,0H4.149V5.969H0Z" transform="matrix(0.5, -0.866, 0.866, 0.5, 71.863, 34.434)" fill="#f9ac00"/>
        <path id="Trazado_906941" data-name="Trazado 906941" d="M0,0H4.149V3.914H0Z" transform="matrix(0.5, -0.866, 0.866, 0.5, 71.863, 34.434)" fill="#fcdb35"/>
        <g id="Grupo_1119823" data-name="Grupo 1119823" transform="translate(11.017 48.774)">
          <path id="Trazado_906942" data-name="Trazado 906942" d="M374.943,279.958l-6.449,5.783a.306.306,0,0,1-.5-.291l1.784-8.476,5.169,2.984Z" transform="translate(-317.207 -276.974)" fill="#495586" fill-rule="evenodd"/>
          <path id="Trazado_906943" data-name="Trazado 906943" d="M371.46,283.133l1.3-6.159,3.39,1.957Z" transform="translate(-320.19 -276.974)" fill="#5d689e" fill-rule="evenodd"/>
          <path id="Trazado_906944" data-name="Trazado 906944" d="M81.184,330.1a2.745,2.745,0,0,0-2.46-4.14c-17.789,0-17.821-14.465-34.461,6.935l8.806,9.232c3.922-3.955,8.585-4.138,13.727-3.83,2.805.168,6.153.573,9.224.5,4.291-.095,6.921-1.26,10.69-3.256,4.29-2.273,11.747-6.8,13.047-8.509,1.862-2.447-.542-4.752-3.381-3.113-3.34,1.928-12.182,6.145-16.737,7.416a3.211,3.211,0,0,0,1.546-1.24Z" transform="translate(-39.534 -314.896)" fill="#fdb0a0" fill-rule="evenodd"/>
          <path id="Trazado_906945" data-name="Trazado 906945" d="M81.184,330.1a2.745,2.745,0,0,0-2.46-4.14c-17.789,0-17.821-14.465-34.461,6.935l6.8,7.126c4.11-4.053,8.982-4.239,14.35-3.918,2.957.177,6.486.6,9.724.532,4.524-.1,7.3-1.328,11.269-3.432,4.478-2.372,12.227-7.073,13.711-8.915-.615-.944-2.1-1.307-3.739-.364-3.34,1.928-12.182,6.145-16.737,7.416a3.211,3.211,0,0,0,1.546-1.24Z" transform="translate(-39.534 -314.896)" fill="#ffcec0" fill-rule="evenodd"/>
          <path id="Trazado_906946" data-name="Trazado 906946" d="M208.989,360.546a2.75,2.75,0,0,0-1.161-3.87c.985,1.079.324,2.611-1.221,3.173a10.764,10.764,0,0,1-3.259.489,21.588,21.588,0,0,1-8.521-1.462,1.071,1.071,0,0,0-.988,1.9,24.051,24.051,0,0,0,9.559,1.7,12.335,12.335,0,0,0,4.046-.685,3.211,3.211,0,0,0,1.546-1.24Z" transform="translate(-167.339 -345.339)" fill="#fdb0a0" fill-rule="evenodd"/>
          <path id="Trazado_906947" data-name="Trazado 906947" d="M11.017,384.267l4.077-4.077a2.064,2.064,0,0,1,2.91,0l9.692,9.692a2.064,2.064,0,0,1,0,2.91l-4.077,4.077Z" transform="translate(-11.017 -364.993)" fill="#2a93fc" fill-rule="evenodd"/>
          <path id="Trazado_906948" data-name="Trazado 906948" d="M11.017,384.266l4.077-4.077a2.064,2.064,0,0,1,2.909,0h0l7.633,7.633a2.064,2.064,0,0,1,0,2.91l-4.077,4.077Z" transform="translate(-11.017 -364.993)" fill="#4eb1fc" fill-rule="evenodd"/>
        </g>
      </g>
    </g>
  </g>
</svg>
