<svg xmlns="http://www.w3.org/2000/svg" xmlns:xlink="http://www.w3.org/1999/xlink" width="353" height="223" viewBox="0 0 353 223">
  <defs>
    <clipPath id="clip-path">
      <rect id="Rectángulo_409176" data-name="Rectángulo 409176" width="238.749" height="213.449" fill="none"/>
    </clipPath>
    <clipPath id="clip-path-3">
      <rect id="Rectángulo_409155" data-name="Rectángulo 409155" width="41.644" height="11.108" fill="none"/>
    </clipPath>
    <clipPath id="clip-path-4">
      <rect id="Rectángulo_409157" data-name="Rectángulo 409157" width="25.193" height="23.087" fill="none"/>
    </clipPath>
    <clipPath id="clip-path-5">
      <rect id="Rectángulo_409158" data-name="Rectángulo 409158" width="25.153" height="25.153" fill="none"/>
    </clipPath>
    <clipPath id="clip-path-6">
      <rect id="Rectángulo_409159" data-name="Rectángulo 409159" width="5.836" height="4.963" fill="none"/>
    </clipPath>
    <clipPath id="clip-path-7">
      <rect id="Rectángulo_409160" data-name="Rectángulo 409160" width="3.649" height="3.229" fill="none"/>
    </clipPath>
    <clipPath id="clip-path-9">
      <rect id="Rectángulo_409162" data-name="Rectángulo 409162" width="3.107" height="4.529" fill="none"/>
    </clipPath>
    <clipPath id="clip-path-10">
      <rect id="Rectángulo_409163" data-name="Rectángulo 409163" width="5.138" height="1.86" fill="none"/>
    </clipPath>
    <clipPath id="clip-path-11">
      <rect id="Rectángulo_409164" data-name="Rectángulo 409164" width="141.32" height="105.31" fill="none"/>
    </clipPath>
    <clipPath id="clip-path-12">
      <rect id="Rectángulo_409166" data-name="Rectángulo 409166" width="72.998" height="4.124" fill="none"/>
    </clipPath>
    <clipPath id="clip-path-13">
      <rect id="Rectángulo_409167" data-name="Rectángulo 409167" width="26.945" height="39.062" fill="none"/>
    </clipPath>
    <clipPath id="clip-path-14">
      <rect id="Rectángulo_409168" data-name="Rectángulo 409168" width="147.603" height="93.885" fill="none"/>
    </clipPath>
    <clipPath id="clip-path-15">
      <path id="Trazado_875378" data-name="Trazado 875378" d="M93.589,13.631l33,61.572.68,1.269,1.311-.668,27.854-14.19,19.737,38.745,1.393,2.734,2.851-1.453L203.79,89.732l51.457,86.792-13.674-1.006,37.708,27.288L270.52,155.73l-5.172,13.688-56.93-86.632-1.978-3.01-2.993,1.687L180.125,94.607,159.3,57.662l-1.09-1.934-1.855,1.046L128.47,72.49,96.155,12.256Z" transform="translate(-93.589 -12.256)" fill="#bac36a"/>
    </clipPath>
    <clipPath id="clip-path-17">
      <rect id="Rectángulo_409173" data-name="Rectángulo 409173" width="46.573" height="12.069" fill="none"/>
    </clipPath>
    <clipPath id="clip-path-18">
      <rect id="Rectángulo_409174" data-name="Rectángulo 409174" width="45.244" height="12.069" fill="none"/>
    </clipPath>
  </defs>
  <g id="Grupo_1118954" data-name="Grupo 1118954" transform="translate(-915.289 -1358)">
    <rect id="Rectángulo_409117" data-name="Rectángulo 409117" width="353" height="223" transform="translate(915.289 1358)" fill="none"/>
    <g id="Grupo_1119004" data-name="Grupo 1119004" transform="translate(971.829 1362.775)">
      <g id="Grupo_1119003" data-name="Grupo 1119003" clip-path="url(#clip-path)">
        <g id="Grupo_1118992" data-name="Grupo 1118992">
          <g id="Grupo_1118991" data-name="Grupo 1118991" clip-path="url(#clip-path)">
            <g id="Grupo_1118957" data-name="Grupo 1118957" transform="translate(80.856 184.088)" opacity="0.2">
              <g id="Grupo_1118956" data-name="Grupo 1118956">
                <g id="Grupo_1118955" data-name="Grupo 1118955" clip-path="url(#clip-path-3)">
                  <path id="Trazado_875343" data-name="Trazado 875343" d="M193.518,351.329c0,3.068-9.322,5.554-20.822,5.554s-20.822-2.487-20.822-5.554,9.322-5.554,20.822-5.554,20.822,2.486,20.822,5.554" transform="translate(-151.874 -345.775)" fill="#88a7eb"/>
                </g>
              </g>
            </g>
            <path id="Trazado_875344" data-name="Trazado 875344" d="M157.757,349.215v3.82c0,2.518,8.1,4.56,18.091,4.56s18.092-2.041,18.092-4.56v-3.82Z" transform="translate(-73.768 -163.296)" fill="#ecb64a"/>
            <path id="Trazado_875345" data-name="Trazado 875345" d="M193.939,345.21c0,2.518-8.1,4.559-18.091,4.559s-18.091-2.041-18.091-4.559,8.1-4.559,18.091-4.559,18.091,2.041,18.091,4.559" transform="translate(-73.768 -159.291)" fill="#f0ca4d"/>
            <path id="Trazado_875346" data-name="Trazado 875346" d="M193.374,346.691c0,1.587-6.02,2.874-13.447,2.874s-13.447-1.287-13.447-2.874,6.02-2.874,13.447-2.874,13.447,1.287,13.447,2.874" transform="translate(-77.848 -160.772)" fill="#ffe48a"/>
            <path id="Trazado_875347" data-name="Trazado 875347" d="M164.615,337.9v3.82c0,2.518,8.1,4.559,18.091,4.559s18.092-2.041,18.092-4.559V337.9Z" transform="translate(-76.975 -158.007)" fill="#ecb64a"/>
            <path id="Trazado_875348" data-name="Trazado 875348" d="M200.8,333.9c0,2.518-8.1,4.559-18.091,4.559s-18.092-2.041-18.092-4.559,8.1-4.559,18.092-4.559S200.8,331.381,200.8,333.9" transform="translate(-76.975 -154.002)" fill="#f0ca4d"/>
            <path id="Trazado_875349" data-name="Trazado 875349" d="M200.233,335.38c0,1.587-6.02,2.874-13.447,2.874s-13.447-1.287-13.447-2.874,6.02-2.874,13.447-2.874,13.447,1.287,13.447,2.874" transform="translate(-81.055 -155.482)" fill="#ffe48a"/>
            <path id="Trazado_875350" data-name="Trazado 875350" d="M157.812,325.754v3.82c0,2.518,8.1,4.559,18.091,4.559s18.092-2.041,18.092-4.559v-3.82Z" transform="translate(-73.794 -152.325)" fill="#ecb64a"/>
            <path id="Trazado_875351" data-name="Trazado 875351" d="M193.995,321.749c0,2.518-8.1,4.559-18.091,4.559s-18.092-2.041-18.092-4.559,8.1-4.559,18.092-4.559,18.091,2.041,18.091,4.559" transform="translate(-73.794 -148.321)" fill="#f0ca4d"/>
            <path id="Trazado_875352" data-name="Trazado 875352" d="M193.43,323.23c0,1.587-6.02,2.874-13.447,2.874s-13.447-1.287-13.447-2.874,6.021-2.874,13.447-2.874,13.447,1.287,13.447,2.874" transform="translate(-77.874 -149.801)" fill="#ffe48a"/>
            <path id="Trazado_875353" data-name="Trazado 875353" d="M164.615,316.137v3.82c0,2.518,8.1,4.559,18.091,4.559s18.092-2.041,18.092-4.559v-3.82Z" transform="translate(-76.975 -147.828)" fill="#ecb64a"/>
            <path id="Trazado_875354" data-name="Trazado 875354" d="M200.8,312.132c0,2.518-8.1,4.559-18.091,4.559s-18.092-2.041-18.092-4.559,8.1-4.559,18.092-4.559,18.091,2.041,18.091,4.559" transform="translate(-76.975 -143.824)" fill="#f0ca4d"/>
            <path id="Trazado_875355" data-name="Trazado 875355" d="M200.233,313.613c0,1.587-6.02,2.874-13.447,2.874s-13.447-1.287-13.447-2.874,6.02-2.874,13.447-2.874,13.447,1.287,13.447,2.874" transform="translate(-81.055 -145.304)" fill="#ffe48a"/>
            <path id="Trazado_875356" data-name="Trazado 875356" d="M162.213,304.617v3.82c0,2.518,8.1,4.559,18.091,4.559s18.092-2.041,18.092-4.559v-3.82Z" transform="translate(-75.852 -142.441)" fill="#ecb64a"/>
            <path id="Trazado_875357" data-name="Trazado 875357" d="M198.4,300.612c0,2.518-8.1,4.559-18.091,4.559s-18.092-2.041-18.092-4.559,8.1-4.559,18.092-4.559,18.091,2.041,18.091,4.559" transform="translate(-75.852 -138.437)" fill="#f0ca4d"/>
            <path id="Trazado_875358" data-name="Trazado 875358" d="M197.83,302.093c0,1.587-6.02,2.874-13.447,2.874s-13.447-1.287-13.447-2.874,6.02-2.874,13.447-2.874,13.447,1.287,13.447,2.874" transform="translate(-79.932 -139.917)" fill="#ffe48a"/>
            <path id="Trazado_875359" data-name="Trazado 875359" d="M169.87,295.631v3.82c0,2.518,8.1,4.559,18.091,4.559s18.092-2.041,18.092-4.559v-3.82Z" transform="translate(-79.433 -138.239)" fill="#ecb64a"/>
            <path id="Trazado_875360" data-name="Trazado 875360" d="M206.052,291.626c0,2.518-8.1,4.559-18.091,4.559s-18.092-2.041-18.092-4.559,8.1-4.559,18.092-4.559,18.091,2.041,18.091,4.559" transform="translate(-79.432 -134.235)" fill="#f0ca4d"/>
            <path id="Trazado_875361" data-name="Trazado 875361" d="M205.487,293.107c0,1.587-6.02,2.874-13.447,2.874s-13.447-1.287-13.447-2.874,6.02-2.874,13.447-2.874,13.447,1.287,13.447,2.874" transform="translate(-83.512 -135.715)" fill="#ffe48a"/>
            <path id="Trazado_875362" data-name="Trazado 875362" d="M106.245,55.9A24.769,24.769,0,1,0,81.476,80.671,24.769,24.769,0,0,0,106.245,55.9M81.476,73.254A17.351,17.351,0,1,1,98.828,55.9,17.351,17.351,0,0,1,81.476,73.254" transform="translate(-26.517 -14.559)" fill="#cce4ff"/>
            <path id="Trazado_875363" data-name="Trazado 875363" d="M108.076,46.54V38.834h-6.6A33.29,33.29,0,0,0,100.3,33.1l6.054-2.605-3.046-7.079-6.059,2.607a33.47,33.47,0,0,0-2.781-4.095l4.667-4.667-5.45-5.449-4.667,4.667a33.41,33.41,0,0,0-4.885-3.232l2.438-6.12L79.416,4.272,76.977,10.4a33.228,33.228,0,0,0-4.864-.927v-6.6H64.407v6.6a33.294,33.294,0,0,0-5.738,1.175l-2.6-6.054L48.985,7.635l2.607,6.06A33.41,33.41,0,0,0,47.5,16.476L42.83,11.808l-5.449,5.449,4.667,4.667a33.466,33.466,0,0,0-3.232,4.885L32.7,24.372l-2.853,7.159,6.123,2.44a33.363,33.363,0,0,0-.927,4.863h-6.6V46.54h6.6a33.285,33.285,0,0,0,1.176,5.738l-6.054,2.6,3.045,7.079,6.059-2.607a33.529,33.529,0,0,0,2.781,4.095l-4.667,4.667,5.449,5.449L47.5,68.9a33.442,33.442,0,0,0,4.886,3.232l-2.439,6.12L57.1,81.1l2.439-6.124a33.235,33.235,0,0,0,4.863.927v6.6h7.706v-6.6a33.218,33.218,0,0,0,5.738-1.175l2.6,6.054,7.08-3.045-2.608-6.06A33.474,33.474,0,0,0,89.022,68.9l4.667,4.667,5.45-5.449-4.667-4.667A33.553,33.553,0,0,0,97.7,58.564L103.823,61l2.853-7.159L100.551,51.4a33.177,33.177,0,0,0,.927-4.863ZM68.26,64.289a21.6,21.6,0,1,1,21.6-21.6,21.6,21.6,0,0,1-21.6,21.6" transform="translate(-13.301 -1.343)" fill="#bfc9ff"/>
            <path id="Trazado_875364" data-name="Trazado 875364" d="M224.672,36.237a15.819,15.819,0,1,0-17.855,13.479,15.819,15.819,0,0,0,17.855-13.479m-17.2,8.787a11.082,11.082,0,1,1,12.508-9.442,11.082,11.082,0,0,1-12.508,9.442" transform="translate(-90.334 -8.523)" fill="#cce4ff"/>
            <path id="Trazado_875365" data-name="Trazado 875365" d="M225.326,31.48l.68-4.875-4.173-.582a21.272,21.272,0,0,0-.236-3.734l4.059-1.113-1.3-4.747-4.063,1.114a21.386,21.386,0,0,0-1.4-2.836l3.365-2.54L219.295,8.24l-3.365,2.54a21.411,21.411,0,0,0-2.8-2.475l2.083-3.656-4.276-2.436L208.848,5.87a21.253,21.253,0,0,0-2.995-1.016l.583-4.173L201.562,0l-.583,4.173a21.265,21.265,0,0,0-3.733.236L196.133.35l-4.747,1.3L192.5,5.714a21.393,21.393,0,0,0-2.836,1.4l-2.54-3.365L183.2,6.712l2.54,3.365a21.376,21.376,0,0,0-2.476,2.8L179.6,10.8l-2.437,4.277,3.658,2.084a21.277,21.277,0,0,0-1.016,2.995l-4.173-.583-.681,4.875,4.173.582a21.172,21.172,0,0,0,.236,3.734l-4.06,1.113,1.3,4.746,4.063-1.113a21.422,21.422,0,0,0,1.4,2.836l-3.364,2.54,2.965,3.929,3.365-2.54a21.377,21.377,0,0,0,2.8,2.476L185.755,46.4l4.276,2.436,2.084-3.658a21.225,21.225,0,0,0,2.994,1.016l-.583,4.173,4.875.681.583-4.173a21.265,21.265,0,0,0,3.733-.236L204.83,50.7l4.747-1.3-1.114-4.063a21.36,21.36,0,0,0,2.836-1.4l2.54,3.365,3.929-2.965-2.54-3.365a21.379,21.379,0,0,0,2.476-2.8l3.655,2.083,2.437-4.277-3.658-2.084a21.231,21.231,0,0,0,1.016-2.995Zm-26.753,7.709a13.8,13.8,0,1,1,15.572-11.755,13.8,13.8,0,0,1-15.572,11.755" transform="translate(-81.811)" fill="#bfc9ff"/>
            <path id="Trazado_875366" data-name="Trazado 875366" d="M113.161,284.4l39.7-76.226h-9.77l-39.7,76.226Z" transform="translate(-48.346 -97.344)" fill="#7b1fa2"/>
            <path id="Trazado_875367" data-name="Trazado 875367" d="M340.59,284.4l-39.7-76.226h-9.77l39.7,76.226Z" transform="translate(-136.13 -97.344)" fill="#7b1fa2"/>
            <rect id="Rectángulo_409156" data-name="Rectángulo 409156" width="159.852" height="105.31" transform="translate(49.827 33.611)" fill="#fbe3ff"/>
            <g id="Grupo_1118960" data-name="Grupo 1118960" transform="translate(132.469 47.152)" opacity="0.4">
              <g id="Grupo_1118959" data-name="Grupo 1118959">
                <g id="Grupo_1118958" data-name="Grupo 1118958" clip-path="url(#clip-path-4)">
                  <path id="Trazado_875368" data-name="Trazado 875368" d="M261.085,101.566l12.927,9.737L262.26,100.527l10.972-9.713-2.049-2.248L261.067,99.432l-10.226-9.378-2.023,2.272,11.088,8.352-10.216,10.974Z" transform="translate(-248.819 -88.566)" fill="#a2c3fc"/>
                </g>
              </g>
            </g>
            <g id="Grupo_1118963" data-name="Grupo 1118963" transform="translate(104.852 102.154)" opacity="0.4">
              <g id="Grupo_1118962" data-name="Grupo 1118962">
                <g id="Grupo_1118961" data-name="Grupo 1118961" clip-path="url(#clip-path-5)">
                  <path id="Trazado_875369" data-name="Trazado 875369" d="M219.911,197.714a12.322,12.322,0,1,1-17.129-3.207A12.322,12.322,0,0,1,219.911,197.714Z" transform="translate(-197.167 -192.099)" fill="none" stroke="#a2c3fc" stroke-miterlimit="10" stroke-width="0.95"/>
                </g>
              </g>
            </g>
            <g id="Grupo_1118966" data-name="Grupo 1118966" transform="translate(118.079 117.305)" opacity="0.4">
              <g id="Grupo_1118965" data-name="Grupo 1118965">
                <g id="Grupo_1118964" data-name="Grupo 1118964" clip-path="url(#clip-path-6)">
                  <path id="Trazado_875370" data-name="Trazado 875370" d="M224.6,222.846c1.407-.963,2.858-.169,3.019-1.026s-1.965-2.376-4.268-.8-1.589,4.12-.8,4.268.642-1.48,2.048-2.443" transform="translate(-221.79 -220.336)" fill="#a2c3fc"/>
                </g>
              </g>
            </g>
            <g id="Grupo_1118969" data-name="Grupo 1118969" transform="translate(111.667 116.063)" opacity="0.4">
              <g id="Grupo_1118968" data-name="Grupo 1118968">
                <g id="Grupo_1118967" data-name="Grupo 1118967" clip-path="url(#clip-path-7)">
                  <path id="Trazado_875371" data-name="Trazado 875371" d="M213.24,219.348a.353.353,0,0,1-.491-.092,1.259,1.259,0,0,0-2.078,1.423.353.353,0,1,1-.582.4,1.966,1.966,0,1,1,3.244-2.221.353.353,0,0,1-.092.491" transform="translate(-209.745 -218.003)" fill="#a2c3fc"/>
                </g>
              </g>
            </g>
            <g id="Grupo_1118972" data-name="Grupo 1118972" transform="translate(120.019 110.345)" opacity="0.4">
              <g id="Grupo_1118971" data-name="Grupo 1118971">
                <g id="Grupo_1118970" data-name="Grupo 1118970" clip-path="url(#clip-path-7)">
                  <path id="Trazado_875372" data-name="Trazado 875372" d="M228.928,208.608a.353.353,0,0,1-.491-.092,1.259,1.259,0,0,0-2.078,1.423.353.353,0,1,1-.582.4,1.966,1.966,0,1,1,3.244-2.221.353.353,0,0,1-.092.491" transform="translate(-225.433 -207.262)" fill="#a2c3fc"/>
                </g>
              </g>
            </g>
            <g id="Grupo_1118975" data-name="Grupo 1118975" transform="translate(109.663 113.045)" opacity="0.4">
              <g id="Grupo_1118974" data-name="Grupo 1118974">
                <g id="Grupo_1118973" data-name="Grupo 1118973" clip-path="url(#clip-path-9)">
                  <path id="Trazado_875373" data-name="Trazado 875373" d="M207.2,216.449a3.238,3.238,0,0,1-.759.4.353.353,0,0,1-.22-.671,3.611,3.611,0,0,0,2.158-3.5.353.353,0,1,1,.706.028,4.513,4.513,0,0,1-1.885,3.747" transform="translate(-205.982 -212.335)" fill="#a2c3fc"/>
                </g>
              </g>
            </g>
            <g id="Grupo_1118978" data-name="Grupo 1118978" transform="translate(117.377 108.554)" opacity="0.4">
              <g id="Grupo_1118977" data-name="Grupo 1118977">
                <g id="Grupo_1118976" data-name="Grupo 1118976" clip-path="url(#clip-path-10)">
                  <path id="Trazado_875374" data-name="Trazado 875374" d="M224.885,205.038a4.511,4.511,0,0,1-4.175.4.353.353,0,1,1,.229-.668,3.61,3.61,0,0,0,4.045-.745.353.353,0,0,1,.546.448,3.236,3.236,0,0,1-.645.564" transform="translate(-220.471 -203.898)" fill="#a2c3fc"/>
                </g>
              </g>
            </g>
            <g id="Grupo_1118981" data-name="Grupo 1118981" transform="translate(61.162 33.611)" opacity="0.2">
              <g id="Grupo_1118980" data-name="Grupo 1118980">
                <g id="Grupo_1118979" data-name="Grupo 1118979" clip-path="url(#clip-path-11)">
                  <path id="Trazado_875375" data-name="Trazado 875375" d="M217.635,109.754l-1.978-3.01-2.992,1.687-23.324,13.146L168.517,84.631l-1.09-1.935-1.854,1.046L137.687,99.459,118.2,63.132h-3.316l20.924,39.04.68,1.269,1.311-.668,27.854-14.189,19.737,38.744,1.393,2.734,2.851-1.453L213.007,116.7l30.676,51.741H256.2Z" transform="translate(-114.881 -63.132)" fill="#88a7eb"/>
                </g>
              </g>
            </g>
            <g id="Grupo_1118984" data-name="Grupo 1118984" transform="translate(93.145 33.611)" opacity="0.2">
              <g id="Grupo_1118983" data-name="Grupo 1118983">
                <g id="Grupo_1118982" data-name="Grupo 1118982" clip-path="url(#clip-path-12)">
                  <rect id="Rectángulo_409165" data-name="Rectángulo 409165" width="72.998" height="4.124" fill="#88a7eb"/>
                </g>
              </g>
            </g>
            <g id="Grupo_1118987" data-name="Grupo 1118987" transform="translate(182.733 33.611)" opacity="0.2">
              <g id="Grupo_1118986" data-name="Grupo 1118986">
                <g id="Grupo_1118985" data-name="Grupo 1118985" clip-path="url(#clip-path-13)">
                  <path id="Trazado_875376" data-name="Trazado 875376" d="M343.23,73.125a29.157,29.157,0,0,0,26.945,29.069V63.132H344.988a29.112,29.112,0,0,0-1.758,9.993" transform="translate(-343.23 -63.132)" fill="#88a7eb"/>
                </g>
              </g>
            </g>
            <g id="Grupo_1118990" data-name="Grupo 1118990" transform="translate(55.951 39.324)" opacity="0.4">
              <g id="Grupo_1118989" data-name="Grupo 1118989">
                <g id="Grupo_1118988" data-name="Grupo 1118988" clip-path="url(#clip-path-14)">
                  <path id="Trazado_875377" data-name="Trazado 875377" d="M252.7,73.862h-147.6v93.885H252.7Zm-.533,9.193h-8.551V74.4h8.551Zm-95.22,34.021h8.132v7.836h-8.132Zm-.536,7.836h-8.132v-7.836h8.132Zm9.2-7.836h8.132v7.836h-8.132Zm8.667,0h8.131v7.836h-8.131Zm8.666,0h8.132v7.836h-8.132Zm8.667,0h8.132v7.836H191.61Zm8.667,0h8.131v7.836h-8.131Zm8.667,0h8.132v7.836h-8.132Zm0-8.371h8.132v7.836h-8.132Zm-.536,7.836h-8.131V108.7h8.131Zm-8.666,0H191.61V108.7h8.132Zm-8.667,0h-8.132V108.7h8.132Zm-8.667,0h-8.131V108.7h8.131Zm-8.667,0h-8.132V108.7h8.132Zm-8.667,0h-8.132V108.7h8.132Zm-8.667,0h-8.132V108.7h8.132Zm-8.667,0h-8.131V108.7h8.131Zm0,8.372h-8.131v-7.836h8.131Zm0,8.371h-8.131v-7.836h8.131Zm.535-7.836h8.132v7.836h-8.132Zm8.667,0h8.132v7.836h-8.132Zm8.667,0h8.132v7.836h-8.132Zm8.667,0h8.131v7.836h-8.131Zm8.666,0h8.132v7.836h-8.132Zm8.667,0h8.132v7.836H191.61Zm8.667,0h8.131v7.836h-8.131Zm8.667,0h8.132v7.836h-8.132Zm8.667,0h8.132v7.836h-8.132Zm0-8.372h8.132v7.836h-8.132Zm0-8.371h8.132v7.836h-8.132Zm0-8.372h8.132v7.836h-8.132Zm-.535,7.836h-8.132v-7.836h8.132Zm-8.667,0h-8.131v-7.836h8.131Zm-8.666,0H191.61v-7.836h8.132Zm-8.667,0h-8.132v-7.836h8.132Zm-8.667,0h-8.131v-7.836h8.131Zm-8.667,0h-8.132v-7.836h8.132Zm-8.667,0h-8.132v-7.836h8.132Zm-8.667,0h-8.132v-7.836h8.132Zm-8.667,0h-8.131v-7.836h8.131Zm-8.667,0h-8.132v-7.836h8.132Zm0,8.371h-8.132V108.7h8.132Zm0,8.372h-8.132v-7.836h8.132Zm0,8.371h-8.132v-7.836h8.132Zm0,8.372h-8.132v-7.836h8.132Zm.536-7.836h8.131v7.836h-8.131Zm8.666,0h8.132v7.836h-8.132Zm8.667,0h8.132v7.836h-8.132Zm8.667,0h8.132v7.836h-8.132Zm8.667,0h8.131v7.836h-8.131Zm8.666,0h8.132v7.836h-8.132Zm8.667,0h8.132v7.836H191.61Zm8.667,0h8.131v7.836h-8.131Zm8.667,0h8.132v7.836h-8.132Zm8.667,0h8.132v7.836h-8.132Zm8.667,0h8.132v7.836h-8.132Zm0-8.371h8.132v7.836h-8.132Zm0-8.372h8.132v7.836h-8.132Zm0-8.371h8.132v7.836h-8.132Zm0-8.372h8.132v7.836h-8.132Zm0-8.371h8.132V99.8h-8.132Zm-.536,7.836h-8.132V91.962h8.132Zm-8.667,0h-8.132V91.962h8.132Zm-8.667,0h-8.131V91.962h8.131Zm-8.666,0H191.61V91.962h8.132Zm-8.667,0h-8.132V91.962h8.132Zm-8.667,0h-8.131V91.962h8.131Zm-8.667,0h-8.132V91.962h8.132Zm-8.667,0h-8.132V91.962h8.132Zm-8.667,0h-8.132V91.962h8.132Zm-8.667,0h-8.131V91.962h8.131Zm-8.667,0h-8.132V91.962h8.132Zm-8.667,0h-8.132V91.962h8.132Zm0,8.372h-8.132v-7.836h8.132Zm0,8.371h-8.132V108.7h8.132Zm0,8.372h-8.132v-7.836h8.132Zm0,8.371h-8.132v-7.836h8.132Zm0,8.372h-8.132v-7.836h8.132Zm0,8.371h-8.132v-7.836h8.132Zm.535-7.836h8.132v7.836h-8.132Zm8.667,0h8.131v7.836h-8.131Zm8.666,0h8.132v7.836h-8.132Zm8.667,0h8.132v7.836h-8.132Zm8.667,0h8.132v7.836h-8.132Zm8.667,0h8.131v7.836h-8.131Zm8.666,0h8.132v7.836h-8.132Zm8.667,0h8.132v7.836H191.61Zm8.667,0h8.131v7.836h-8.131Zm8.667,0h8.132v7.836h-8.132Zm8.667,0h8.132v7.836h-8.132Zm8.667,0h8.132v7.836h-8.132Zm8.667,0h8.131v7.836h-8.131Zm0-8.372h8.131v7.836h-8.131Zm0-8.371h8.131v7.836h-8.131Zm0-8.372h8.131v7.836h-8.131Zm0-8.371h8.131v7.836h-8.131Zm0-8.372h8.131v7.836h-8.131Zm0-8.371h8.131V99.8h-8.131Zm0-8.371h8.131v7.836h-8.131Zm-.535,7.836h-8.132V83.591h8.132Zm-8.667,0h-8.132V83.591h8.132Zm-8.667,0h-8.132V83.591h8.132Zm-8.667,0h-8.131V83.591h8.131Zm-8.666,0H191.61V83.591h8.132Zm-8.667,0h-8.132V83.591h8.132Zm-8.667,0h-8.131V83.591h8.131Zm-8.667,0h-8.132V83.591h8.132Zm-8.667,0h-8.132V83.591h8.132Zm-8.667,0h-8.132V83.591h8.132Zm-8.667,0h-8.131V83.591h8.131Zm-8.667,0h-8.132V83.591h8.132Zm-8.667,0h-8.132V83.591h8.132Zm-8.667,0h-8.132V83.591h8.132Zm0,8.371h-8.132V91.962h8.132Zm0,8.372h-8.132v-7.836h8.132Zm0,8.371h-8.132V108.7h8.132Zm0,8.372h-8.132v-7.836h8.132Zm0,8.371h-8.132v-7.836h8.132Zm0,8.372h-8.132v-7.836h8.132Zm0,8.371h-8.132v-7.836h8.132Zm0,8.371h-8.132v-7.836h8.132Zm.536-7.836h8.132V158.4h-8.132Zm8.667,0h8.132V158.4h-8.132Zm8.667,0h8.131V158.4h-8.131Zm8.666,0h8.132V158.4h-8.132Zm8.667,0h8.132V158.4h-8.132Zm8.667,0h8.132V158.4h-8.132Zm8.667,0h8.131V158.4h-8.131Zm8.666,0h8.132V158.4h-8.132Zm8.667,0h8.132V158.4H191.61Zm8.667,0h8.131V158.4h-8.131Zm8.667,0h8.132V158.4h-8.132Zm8.667,0h8.132V158.4h-8.132Zm8.667,0h8.132V158.4h-8.132Zm8.667,0h8.131V158.4h-8.131Zm8.667,0h8.551V158.4h-8.551Zm0-8.371h8.551v7.836h-8.551Zm0-8.372h8.551v7.836h-8.551Zm0-8.371h8.551v7.836h-8.551Zm0-8.372h8.551v7.836h-8.551Zm0-8.371h8.551v7.836h-8.551Zm0-8.372h8.551v7.836h-8.551Zm0-8.371h8.551V99.8h-8.551Zm0-8.371h8.551v7.836h-8.551Zm-.536-.535h-8.131V74.4h8.131Zm-8.666,0h-8.132V74.4h8.132Zm-8.667,0h-8.132V74.4h8.132Zm-8.667,0h-8.132V74.4h8.132Zm-8.667,0h-8.131V74.4h8.131Zm-8.666,0H191.61V74.4h8.132Zm-8.667,0h-8.132V74.4h8.132Zm-8.667,0h-8.131V74.4h8.131Zm-8.667,0h-8.132V74.4h8.132Zm-8.667,0h-8.132V74.4h8.132Zm-8.667,0h-8.132V74.4h8.132Zm-8.667,0h-8.131V74.4h8.131Zm-8.667,0h-8.132V74.4h8.132Zm-8.667,0h-8.132V74.4h8.132Zm-8.667,0h-8.132V74.4h8.132ZM105.626,74.4h7.446v8.659h-7.446Zm0,9.195h7.446v7.836h-7.446Zm0,8.371h7.446V99.8h-7.446Zm0,8.371h7.446v7.836h-7.446Zm0,8.372h7.446v7.836h-7.446Zm0,8.371h7.446v7.836h-7.446Zm0,8.372h7.446v7.836h-7.446Zm0,8.371h7.446v7.836h-7.446Zm0,8.372h7.446v7.836h-7.446Zm0,8.371h7.446V158.4h-7.446Zm0,8.371h7.446v8.28h-7.446Zm7.981,0h8.132v8.28h-8.132Zm8.667,0h8.132v8.28h-8.132Zm8.667,0h8.132v8.28h-8.132Zm8.667,0h8.131v8.28h-8.131Zm8.666,0h8.132v8.28h-8.132Zm8.667,0h8.132v8.28h-8.132Zm8.667,0h8.132v8.28h-8.132Zm8.667,0h8.131v8.28h-8.131Zm8.666,0h8.132v8.28h-8.132Zm8.667,0h8.132v8.28H191.61Zm8.667,0h8.131v8.28h-8.131Zm8.667,0h8.132v8.28h-8.132Zm8.667,0h8.132v8.28h-8.132Zm8.667,0h8.132v8.28h-8.132Zm8.667,0h8.131v8.28h-8.131Zm8.667,0h8.551v8.28h-8.551Z" transform="translate(-105.093 -73.862)" fill="#a2c3fc"/>
                </g>
              </g>
            </g>
          </g>
        </g>
        <g id="Grupo_1118994" data-name="Grupo 1118994" transform="translate(49.826 6.525)">
          <g id="Grupo_1118993" data-name="Grupo 1118993" clip-path="url(#clip-path-15)">
            <rect id="Rectángulo_409170" data-name="Rectángulo 409170" width="266.043" height="265.863" transform="matrix(0.688, -0.725, 0.725, 0.688, -95.144, 100.271)" fill="#4c5066"/>
          </g>
        </g>
        <g id="Grupo_1119002" data-name="Grupo 1119002">
          <g id="Grupo_1119001" data-name="Grupo 1119001" clip-path="url(#clip-path)">
            <rect id="Rectángulo_409171" data-name="Rectángulo 409171" width="69.853" height="6.35" transform="translate(94.826 30.079)" fill="#7b1fa2"/>
            <rect id="Rectángulo_409172" data-name="Rectángulo 409172" width="69.853" height="6.35" transform="translate(94.826 135.747)" fill="#7b1fa2"/>
            <path id="Trazado_875379" data-name="Trazado 875379" d="M400.858,61.311a23.443,23.443,0,1,1-23.443-23.443,23.444,23.444,0,0,1,23.443,23.443" transform="translate(-165.52 -17.707)" fill="#88a7eb"/>
            <path id="Trazado_875380" data-name="Trazado 875380" d="M388.258,56.031h25.759a27.066,27.066,0,0,0-39.2-21.981Z" transform="translate(-175.268 -14.559)" fill="#bfc9ff"/>
            <path id="Trazado_875381" data-name="Trazado 875381" d="M371.806,63.383l-13.755-22.5A27.067,27.067,0,0,0,371.806,89.75Z" transform="translate(-162.218 -19.118)" fill="#ff4263"/>
            <path id="Trazado_875382" data-name="Trazado 875382" d="M401.86,86.085v24.8a27.07,27.07,0,0,0,24.8-24.8Z" transform="translate(-187.913 -40.254)" fill="#d4e157"/>
            <g id="Grupo_1118997" data-name="Grupo 1118997" transform="translate(0 187.672)" opacity="0.2">
              <g id="Grupo_1118996" data-name="Grupo 1118996">
                <g id="Grupo_1118995" data-name="Grupo 1118995" clip-path="url(#clip-path-17)">
                  <path id="Trazado_875383" data-name="Trazado 875383" d="M46.574,358.541c0,3.333-10.426,6.034-23.287,6.034S0,361.874,0,358.541s10.426-6.034,23.287-6.034,23.287,2.7,23.287,6.034" transform="translate(0 -352.507)" fill="#88a7eb"/>
                </g>
              </g>
            </g>
            <path id="Trazado_875384" data-name="Trazado 875384" d="M8.926,356.647V360.8c0,2.735,8.8,4.953,19.655,4.953s19.655-2.218,19.655-4.953v-4.151Z" transform="translate(-4.174 -166.771)" fill="#ecb64a"/>
            <path id="Trazado_875385" data-name="Trazado 875385" d="M48.237,352.3c0,2.736-8.8,4.953-19.655,4.953S8.926,355.032,8.926,352.3s8.8-4.953,19.655-4.953,19.655,2.217,19.655,4.953" transform="translate(-4.174 -162.42)" fill="#f0ca4d"/>
            <path id="Trazado_875386" data-name="Trazado 875386" d="M47.623,353.9c0,1.724-6.541,3.122-14.609,3.122s-14.609-1.4-14.609-3.122,6.54-3.123,14.609-3.123,14.609,1.4,14.609,3.123" transform="translate(-8.606 -164.029)" fill="#ffe48a"/>
            <path id="Trazado_875387" data-name="Trazado 875387" d="M36.255,352.958a.931.931,0,0,1-.24-.2.4.4,0,0,1-.109-.265q0-.257.316-.369a2.329,2.329,0,0,1,.773-.112h9.145a1.106,1.106,0,0,1,.229.195.384.384,0,0,1,.12.261.4.4,0,0,1-.316.377,2.335,2.335,0,0,1-.773.112Z" transform="translate(-16.79 -164.604)" fill="#e17844"/>
            <path id="Trazado_875388" data-name="Trazado 875388" d="M16.378,344.359v4.151c0,2.735,8.8,4.953,19.655,4.953s19.655-2.218,19.655-4.953v-4.151Z" transform="translate(-7.658 -161.025)" fill="#ecb64a"/>
            <path id="Trazado_875389" data-name="Trazado 875389" d="M55.689,340.008c0,2.736-8.8,4.953-19.655,4.953s-19.655-2.217-19.655-4.953,8.8-4.953,19.655-4.953,19.655,2.218,19.655,4.953" transform="translate(-7.658 -156.674)" fill="#f0ca4d"/>
            <path id="Trazado_875390" data-name="Trazado 875390" d="M55.074,341.616c0,1.724-6.541,3.122-14.609,3.122s-14.609-1.4-14.609-3.122,6.54-3.122,14.609-3.122,14.609,1.4,14.609,3.122" transform="translate(-12.09 -158.283)" fill="#ffe48a"/>
            <path id="Trazado_875391" data-name="Trazado 875391" d="M8.986,331.159v4.151c0,2.735,8.8,4.953,19.655,4.953S48.3,338.045,48.3,335.31v-4.151Z" transform="translate(-4.202 -154.853)" fill="#ecb64a"/>
            <path id="Trazado_875392" data-name="Trazado 875392" d="M48.3,326.808c0,2.736-8.8,4.953-19.655,4.953s-19.655-2.217-19.655-4.953,8.8-4.953,19.655-4.953S48.3,324.072,48.3,326.808" transform="translate(-4.202 -150.502)" fill="#f0ca4d"/>
            <path id="Trazado_875393" data-name="Trazado 875393" d="M47.683,328.416c0,1.724-6.541,3.122-14.609,3.122s-14.609-1.4-14.609-3.122,6.54-3.122,14.609-3.122,14.609,1.4,14.609,3.122" transform="translate(-8.634 -152.11)" fill="#ffe48a"/>
            <path id="Trazado_875394" data-name="Trazado 875394" d="M36.315,327.47a.93.93,0,0,1-.24-.2.4.4,0,0,1-.109-.265q0-.257.316-.369a2.331,2.331,0,0,1,.773-.112H46.2a1.108,1.108,0,0,1,.229.195.384.384,0,0,1,.12.261.4.4,0,0,1-.316.377,2.335,2.335,0,0,1-.773.112Z" transform="translate(-16.818 -152.686)" fill="#e17844"/>
            <path id="Trazado_875395" data-name="Trazado 875395" d="M18.4,319.109v4.151c0,2.735,8.8,4.953,19.655,4.953S57.715,326,57.715,323.26v-4.151Z" transform="translate(-8.606 -149.218)" fill="#ecb64a"/>
            <path id="Trazado_875396" data-name="Trazado 875396" d="M57.716,314.758c0,2.736-8.8,4.953-19.655,4.953s-19.655-2.217-19.655-4.953S27.2,309.8,38.06,309.8s19.655,2.217,19.655,4.953" transform="translate(-8.606 -144.867)" fill="#f0ca4d"/>
            <path id="Trazado_875397" data-name="Trazado 875397" d="M57.1,316.366c0,1.724-6.541,3.122-14.609,3.122s-14.609-1.4-14.609-3.122,6.54-3.122,14.609-3.122,14.609,1.4,14.609,3.122" transform="translate(-13.038 -146.475)" fill="#ffe48a"/>
            <g id="Grupo_1119000" data-name="Grupo 1119000" transform="translate(46.573 201.381)" opacity="0.2">
              <g id="Grupo_1118999" data-name="Grupo 1118999">
                <g id="Grupo_1118998" data-name="Grupo 1118998" clip-path="url(#clip-path-18)">
                  <path id="Trazado_875398" data-name="Trazado 875398" d="M132.724,384.291c0,3.333-10.128,6.034-22.622,6.034s-22.622-2.7-22.622-6.034,10.128-6.034,22.622-6.034,22.622,2.7,22.622,6.034" transform="translate(-87.48 -378.257)" fill="#88a7eb"/>
                </g>
              </g>
            </g>
            <path id="Trazado_875399" data-name="Trazado 875399" d="M93.871,381.994v4.151c0,2.736,8.8,4.954,19.655,4.954s19.655-2.218,19.655-4.954v-4.151Z" transform="translate(-43.895 -178.623)" fill="#ecb64a"/>
            <path id="Trazado_875400" data-name="Trazado 875400" d="M133.183,377.643c0,2.736-8.8,4.953-19.655,4.953s-19.655-2.217-19.655-4.953,8.8-4.953,19.655-4.953,19.655,2.217,19.655,4.953" transform="translate(-43.895 -174.273)" fill="#f0ca4d"/>
            <path id="Trazado_875401" data-name="Trazado 875401" d="M132.568,379.252c0,1.724-6.541,3.122-14.609,3.122s-14.609-1.4-14.609-3.122,6.54-3.123,14.609-3.123,14.609,1.4,14.609,3.123" transform="translate(-48.327 -175.881)" fill="#ffe48a"/>
            <path id="Trazado_875402" data-name="Trazado 875402" d="M101.323,369.706v4.151c0,2.735,8.8,4.953,19.655,4.953s19.655-2.218,19.655-4.953v-4.151Z" transform="translate(-47.379 -172.878)" fill="#ecb64a"/>
            <path id="Trazado_875403" data-name="Trazado 875403" d="M140.634,365.355c0,2.736-8.8,4.953-19.655,4.953s-19.655-2.217-19.655-4.953,8.8-4.953,19.655-4.953,19.655,2.217,19.655,4.953" transform="translate(-47.379 -168.527)" fill="#f0ca4d"/>
            <path id="Trazado_875404" data-name="Trazado 875404" d="M140.02,366.964c0,1.724-6.54,3.123-14.609,3.123s-14.609-1.4-14.609-3.123,6.54-3.122,14.609-3.122,14.609,1.4,14.609,3.122" transform="translate(-51.812 -170.135)" fill="#ffe48a"/>
            <path id="Trazado_875405" data-name="Trazado 875405" d="M93.932,356.506v4.151c0,2.735,8.8,4.953,19.655,4.953s19.656-2.218,19.656-4.953v-4.151Z" transform="translate(-43.923 -166.705)" fill="#ecb64a"/>
            <path id="Trazado_875406" data-name="Trazado 875406" d="M133.243,352.155c0,2.736-8.8,4.953-19.655,4.953s-19.655-2.217-19.655-4.953,8.8-4.953,19.655-4.953,19.655,2.217,19.655,4.953" transform="translate(-43.923 -162.354)" fill="#f0ca4d"/>
            <path id="Trazado_875407" data-name="Trazado 875407" d="M132.628,353.764c0,1.724-6.541,3.122-14.609,3.122s-14.609-1.4-14.609-3.122,6.54-3.122,14.609-3.122,14.609,1.4,14.609,3.122" transform="translate(-48.355 -163.963)" fill="#ffe48a"/>
            <path id="Trazado_875408" data-name="Trazado 875408" d="M112.973,201.757,50.418,221.485a4.334,4.334,0,0,1-5.584-4.816L59.81,155.115a4.335,4.335,0,0,1,7.395-2.332l47.579,41.826a4.334,4.334,0,0,1-1.811,7.148" transform="translate(-20.938 -70.823)" fill="#ff4263"/>
            <path id="Trazado_875409" data-name="Trazado 875409" d="M109.831,207.325,62.772,222.166a3.261,3.261,0,0,1-4.2-3.623l11.266-46.3a3.261,3.261,0,0,1,5.563-1.754l35.792,31.464a3.261,3.261,0,0,1-1.362,5.378" transform="translate(-27.369 -79.253)" fill="#ffe48a"/>
            <path id="Trazado_875410" data-name="Trazado 875410" d="M93.14,208.575a1.307,1.307,0,0,1-2.318.815c-4.913-6.01-15.607-20.534-6.983-23.629s9.372,15.025,9.3,22.814" transform="translate(-37.682 -86.699)" fill="#333232"/>
            <path id="Trazado_875411" data-name="Trazado 875411" d="M106.812,237.668a4.105,4.105,0,1,1-4.772-3.306,4.106,4.106,0,0,1,4.772,3.306" transform="translate(-46.137 -109.558)" fill="#333232"/>
          </g>
        </g>
      </g>
    </g>
  </g>
</svg>
