<svg xmlns="http://www.w3.org/2000/svg" xmlns:xlink="http://www.w3.org/1999/xlink" width="353" height="223" viewBox="0 0 353 223">
  <defs>
    <clipPath id="clip-path">
      <rect id="Rectángulo_409274" data-name="Rectángulo 409274" width="237.578" height="203.91" fill="none"/>
    </clipPath>
    <clipPath id="clip-path-4">
      <rect id="Rectángulo_409257" data-name="Rectángulo 409257" width="23.522" height="14.169" fill="none"/>
    </clipPath>
    <clipPath id="clip-path-5">
      <rect id="Rectángulo_409258" data-name="Rectángulo 409258" width="23.478" height="14.007" fill="none"/>
    </clipPath>
    <clipPath id="clip-path-6">
      <rect id="Rectángulo_409259" data-name="Rectángulo 409259" width="27.221" height="2.042" fill="none"/>
    </clipPath>
    <clipPath id="clip-path-7">
      <rect id="Rectángulo_409260" data-name="Rectángulo 409260" width="26.958" height="2.344" fill="none"/>
    </clipPath>
    <clipPath id="clip-path-8">
      <rect id="Rectángulo_409261" data-name="Rectángulo 409261" width="26.899" height="4.649" fill="none"/>
    </clipPath>
    <clipPath id="clip-path-9">
      <rect id="Rectángulo_409262" data-name="Rectángulo 409262" width="26.608" height="4.925" fill="none"/>
    </clipPath>
    <clipPath id="clip-path-10">
      <rect id="Rectángulo_409263" data-name="Rectángulo 409263" width="19.614" height="18.986" fill="none"/>
    </clipPath>
    <clipPath id="clip-path-11">
      <rect id="Rectángulo_409264" data-name="Rectángulo 409264" width="19.665" height="18.648" fill="none"/>
    </clipPath>
  </defs>
  <g id="Grupo_1119200" data-name="Grupo 1119200" transform="translate(-915.289 -1358)">
    <rect id="Rectángulo_409117" data-name="Rectángulo 409117" width="353" height="223" transform="translate(915.289 1358)" fill="none"/>
    <g id="Grupo_1119231" data-name="Grupo 1119231" transform="translate(973 1364.226)">
      <g id="Grupo_1119230" data-name="Grupo 1119230" clip-path="url(#clip-path)">
        <g id="Grupo_1119229" data-name="Grupo 1119229">
          <g id="Grupo_1119228" data-name="Grupo 1119228" clip-path="url(#clip-path)">
            <g id="Grupo_1119203" data-name="Grupo 1119203" opacity="0.6" style="mix-blend-mode: multiply;isolation: isolate">
              <g id="Grupo_1119202" data-name="Grupo 1119202">
                <g id="Grupo_1119201" data-name="Grupo 1119201" clip-path="url(#clip-path)">
                  <path id="Trazado_875631" data-name="Trazado 875631" d="M186.684,7.952C147.263-2.549,109.271-1.6,69.448,4.736c-21.426,3.41-47.134,8.12-58.138,33.953C3.6,56.792,12.694,61.728,17.6,76.338c4.772,14.211-5.1,23.228-10.524,34.168C1.308,122.148-2.41,140.14,1.819,153.187c16.6,51.21,88.3,52.987,125,49.7,32.016-2.87,94.754-.6,108.432-46.281,7.257-24.238-4.8-49.092-4.766-73.542.021-15.892,3.332-31.6-4.161-46.082-8.975-17.348-23.79-24.8-39.642-29.027" transform="translate(0 0)" fill="#e5e9fe"/>
                </g>
              </g>
            </g>
            <path id="Trazado_875632" data-name="Trazado 875632" d="M105.753,332.569v-5.785h-4.626c-.082-.514-.185-1.02-.306-1.52l4.318-1.7-2.125-5.381-4.37,1.725a19.637,19.637,0,0,0-1.206-1.806l3.335-3.334-4.091-4.091-3.366,3.366c-.486-.355-.988-.69-1.507-1l1.828-4.4-5.343-2.219-1.837,4.424c-.589-.145-1.187-.265-1.8-.354v-4.794H78.876v4.794c-.495.073-.982.168-1.465.278l-1.76-4.458-5.381,2.124,1.753,4.439a19.5,19.5,0,0,0-1.8,1.169l-3.366-3.366-4.091,4.091L66.1,318.1q-.55.731-1.031,1.513l-4.341-1.8-2.219,5.343,4.287,1.78q-.237.91-.385,1.853H57.785v5.785h4.57q.108.787.278,1.553L58.4,335.794l2.124,5.381,4.183-1.652a19.618,19.618,0,0,0,1.225,1.9l-3.167,3.167,4.091,4.091,3.136-3.136q.774.583,1.6,1.089l-1.7,4.083,5.343,2.219,1.686-4.062a19.528,19.528,0,0,0,1.947.389v4.4h5.785v-4.4c.544-.08,1.08-.187,1.608-.311l1.616,4.094,5.381-2.125-1.625-4.115a19.691,19.691,0,0,0,1.9-1.263l3.136,3.136,4.091-4.091-3.167-3.167q.564-.773,1.053-1.6l4.151,1.724,2.218-5.342-4.2-1.745q.222-.927.355-1.889Zm-23.984,8.437A11.329,11.329,0,1,1,93.1,329.677a11.329,11.329,0,0,1-11.329,11.329" transform="translate(-40.264 -213.002)" fill="#f6c3ff"/>
            <path id="Trazado_875633" data-name="Trazado 875633" d="M429.8,44.929V39.144h-4.626c-.082-.514-.186-1.02-.306-1.52l4.318-1.7-2.124-5.381-4.37,1.725a19.72,19.72,0,0,0-1.206-1.806l3.334-3.335-4.09-4.091L417.368,26.4q-.729-.533-1.507-1l1.828-4.4-5.343-2.219L410.509,23.2c-.589-.145-1.187-.264-1.8-.354V18.053h-5.785v4.794c-.5.073-.982.169-1.465.278l-1.76-4.458-5.381,2.124,1.753,4.439a19.562,19.562,0,0,0-1.8,1.169l-3.366-3.366-4.091,4.091,3.335,3.335q-.55.73-1.031,1.513l-4.341-1.8-2.219,5.343,4.287,1.78q-.237.911-.385,1.854h-4.626v5.785h4.57q.108.787.278,1.553l-4.234,1.672,2.125,5.381,4.183-1.652a19.624,19.624,0,0,0,1.225,1.9l-3.167,3.167,4.091,4.091,3.136-3.136q.774.582,1.6,1.089l-1.7,4.083,5.343,2.219,1.686-4.062a19.433,19.433,0,0,0,1.947.389v4.4h5.785v-4.4c.544-.081,1.08-.187,1.608-.311l1.616,4.094,5.381-2.125-1.625-4.115a19.728,19.728,0,0,0,1.9-1.262l3.136,3.136,4.09-4.091-3.167-3.167q.564-.773,1.053-1.6l4.151,1.723,2.218-5.343-4.2-1.744q.222-.928.355-1.889Zm-23.984,8.437A11.329,11.329,0,1,1,417.15,42.037a11.329,11.329,0,0,1-11.329,11.329" transform="translate(-266.058 -12.579)" fill="#bfc9ff"/>
            <path id="Trazado_875634" data-name="Trazado 875634" d="M617.092,369.383v-5.918h-2.333a20.845,20.845,0,0,0-.424-2.159l2.156-.885-2.248-5.475-2.165.889a20.943,20.943,0,0,0-1.291-1.938l1.656-1.656-4.185-4.185-1.659,1.658a21.14,21.14,0,0,0-1.823-1.22l.905-2.166-5.461-2.283-.9,2.164a20.758,20.758,0,0,0-2.281-.45v-2.352h-5.919v2.352a20.8,20.8,0,0,0-2.152.42l-.892-2.172-5.475,2.248.892,2.173a20.886,20.886,0,0,0-1.938,1.285l-1.659-1.658-4.185,4.185,1.656,1.656a21.07,21.07,0,0,0-1.225,1.823l-2.158-.9-2.282,5.461,2.149.9a20.929,20.929,0,0,0-.455,2.288H571.06v5.918h2.327a20.816,20.816,0,0,0,.42,2.163l-2.147.881,2.248,5.475,2.145-.88a20.874,20.874,0,0,0,1.292,1.948l-1.637,1.636,4.185,4.185,1.634-1.634a20.916,20.916,0,0,0,1.833,1.231l-.891,2.13,5.461,2.282.888-2.124a20.972,20.972,0,0,0,2.3.455v2.308h5.919v-2.308a20.978,20.978,0,0,0,2.169-.423l.875,2.131,5.475-2.247-.878-2.137a21.01,21.01,0,0,0,1.948-1.3l1.634,1.634,4.185-4.185-1.637-1.636a20.839,20.839,0,0,0,1.227-1.834l2.138.894,2.282-5.461-2.139-.894a20.761,20.761,0,0,0,.45-2.292Zm-23.016,9.909a12.845,12.845,0,1,1,12.845-12.845,12.845,12.845,0,0,1-12.845,12.845" transform="translate(-397.906 -239.281)" fill="#f6c3ff"/>
            <path id="Trazado_875635" data-name="Trazado 875635" d="M342.273,428.235V422.13h-2.407a21.415,21.415,0,0,0-.437-2.227l2.225-.913-2.319-5.649-2.234.918a21.544,21.544,0,0,0-1.332-2l1.708-1.709-4.317-4.318-1.711,1.711a21.593,21.593,0,0,0-1.882-1.259l.934-2.234-5.634-2.354-.933,2.232a21.482,21.482,0,0,0-2.354-.465v-2.427h-6.106v2.427a21.335,21.335,0,0,0-2.22.433l-.92-2.241-5.649,2.319.92,2.242a21.64,21.64,0,0,0-2,1.327l-1.711-1.711-4.318,4.318,1.708,1.709a21.613,21.613,0,0,0-1.264,1.881l-2.227-.931-2.354,5.634,2.218.927a21.408,21.408,0,0,0-.471,2.36h-2.407v6.106h2.4a21.4,21.4,0,0,0,.433,2.231l-2.215.909,2.319,5.649,2.213-.909a21.475,21.475,0,0,0,1.333,2.011l-1.688,1.689,4.318,4.317,1.686-1.685a21.348,21.348,0,0,0,1.891,1.27l-.918,2.2,5.634,2.355.915-2.192a21.522,21.522,0,0,0,2.371.47v2.381h6.106v-2.381a21.49,21.49,0,0,0,2.237-.437l.9,2.2,5.648-2.318-.905-2.206a21.6,21.6,0,0,0,2.01-1.338l1.686,1.685,4.317-4.317-1.688-1.689a21.674,21.674,0,0,0,1.265-1.892l2.205.922,2.354-5.634-2.207-.922a21.464,21.464,0,0,0,.465-2.365Zm-23.746,10.222a13.253,13.253,0,1,1,13.253-13.253,13.253,13.253,0,0,1-13.253,13.253" transform="translate(-205.399 -279.714)" fill="#bfc9ff"/>
            <path id="Trazado_875636" data-name="Trazado 875636" d="M388.061,444.541c-3.834-1.362-11.016-1.1-18.852.981s-14.207,5.4-16.864,8.485l-2.074.55.787,2.966.032-.009c.983,3.71,10.69,4.357,21.68,1.444s19.1-8.282,18.118-11.992L390.1,444Z" transform="translate(-244.063 -309.163)" fill="#f8a55d"/>
            <path id="Trazado_875637" data-name="Trazado 875637" d="M390.02,437.288c.983,3.71-7.129,9.079-18.119,11.992s-20.7,2.267-21.68-1.444,7.129-9.079,18.119-11.992,20.7-2.266,21.68,1.444" transform="translate(-243.972 -302.419)" fill="#fdc363"/>
            <path id="Trazado_875638" data-name="Trazado 875638" d="M394.422,441.5c.817,3.082-5.922,7.543-15.053,9.962s-17.194,1.883-18.011-1.2,5.922-7.542,15.053-9.962,17.194-1.883,18.011,1.2" transform="translate(-251.742 -305.74)" fill="#ffd685"/>
            <path id="Trazado_875639" data-name="Trazado 875639" d="M370.373,451.072q12.786-8.475,25.6-16.947c-.755-.067-1.56-.1-2.41-.1q-12.766,8.418-25.471,16.841c.706.1,1.469.173,2.28.21" transform="translate(-256.481 -302.419)" fill="#ffd967"/>
            <path id="Trazado_875640" data-name="Trazado 875640" d="M406.434,435.127a15.212,15.212,0,0,0-2.408-.486q-12.79,8.443-25.513,16.889c1.051.017,2.174-.021,3.353-.109q12.3-8.146,24.569-16.294" transform="translate(-263.741 -302.851)" fill="#ffd967"/>
            <path id="Trazado_875641" data-name="Trazado 875641" d="M394.422,441.5c.817,3.082-5.922,7.543-15.053,9.962s-17.194,1.883-18.011-1.2,5.922-7.542,15.053-9.962,17.194-1.883,18.011,1.2" transform="translate(-251.742 -305.74)" fill="#ffd685"/>
            <path id="Trazado_875642" data-name="Trazado 875642" d="M385.671,438.883a44.112,44.112,0,0,0-9.26,1.486c-9.13,2.42-15.869,6.88-15.052,9.962.3,1.121,1.555,1.9,3.471,2.331q10.4-6.891,20.841-13.779" transform="translate(-251.742 -305.807)" fill="#ffd685"/>
            <path id="Trazado_875643" data-name="Trazado 875643" d="M400.734,454.912a47.769,47.769,0,0,0,6.118-1.213c9.13-2.419,15.869-6.88,15.053-9.962A2.87,2.87,0,0,0,420.211,442q-9.723,6.458-19.477,12.916" transform="translate(-279.225 -307.976)" fill="#ffd685"/>
            <path id="Trazado_875644" data-name="Trazado 875644" d="M362.174,450.457c-.817-3.082,5.922-7.543,15.053-9.962,5.627-1.492,10.846-1.858,14.216-1.2-3.3-.9-8.927-.608-15.031,1.01-9.13,2.42-15.869,6.88-15.052,9.962.313,1.183,1.7,1.989,3.795,2.4-1.639-.447-2.709-1.188-2.98-2.209" transform="translate(-251.743 -305.743)" fill="#f9a855"/>
            <path id="Trazado_875645" data-name="Trazado 875645" d="M400.433,448.388l2.254-.6.167.627a18.768,18.768,0,0,1,4.91-.551l-2.207,1.7a14.455,14.455,0,0,0-2.408.123l.351,1.324q5.313-.839,5.694.6.192.724-.994,1.568a14.577,14.577,0,0,1-3.71,1.68l.211.8-2.213.587-.209-.788-.366.1a21.818,21.818,0,0,1-2.982.535,12.093,12.093,0,0,1-2.754.078l2.11-1.634a13.749,13.749,0,0,0,3.677-.268l-.408-1.54a14.132,14.132,0,0,1-3.961.265q-1.435-.179-1.617-.866-.193-.729.93-1.563a11.878,11.878,0,0,1,3.691-1.559Zm.764,2.991-.3-1.127q-1.224.482-1.118.88.114.431,1.417.247m2.67,1.029.316,1.192q1.367-.49,1.242-.962-.114-.431-1.557-.23" transform="translate(-275.89 -312.014)" fill="#fdc363"/>
            <path id="Trazado_875646" data-name="Trazado 875646" d="M398.638,448.863l2.254-.6.166.627a18.768,18.768,0,0,1,4.91-.551l-2.207,1.7a14.454,14.454,0,0,0-2.408.123l.351,1.324q5.313-.839,5.694.6.192.724-.994,1.568a14.56,14.56,0,0,1-3.71,1.68l.211.8-2.213.587-.209-.788-.366.1a21.818,21.818,0,0,1-2.982.536,12.075,12.075,0,0,1-2.754.077l2.11-1.633a13.771,13.771,0,0,0,3.677-.268l-.408-1.54a14.133,14.133,0,0,1-3.962.265q-1.435-.179-1.617-.866-.193-.729.93-1.563a11.89,11.89,0,0,1,3.691-1.56Zm.764,2.991-.3-1.128q-1.223.482-1.118.88.114.431,1.417.247m2.67,1.028.316,1.192q1.367-.49,1.242-.962-.114-.431-1.557-.23" transform="translate(-274.639 -312.345)" fill="#f8a55d"/>
            <path id="Trazado_875647" data-name="Trazado 875647" d="M400.433,448.388l2.254-.6.167.627a18.768,18.768,0,0,1,4.91-.551l-2.207,1.7a14.455,14.455,0,0,0-2.408.123l.351,1.324q5.313-.839,5.694.6.192.724-.994,1.568a14.577,14.577,0,0,1-3.71,1.68l.211.8-2.213.587-.209-.788-.366.1a21.818,21.818,0,0,1-2.982.535,12.093,12.093,0,0,1-2.754.078l2.11-1.634a13.749,13.749,0,0,0,3.677-.268l-.408-1.54a14.132,14.132,0,0,1-3.961.265q-1.435-.179-1.617-.866-.193-.729.93-1.563a11.878,11.878,0,0,1,3.691-1.559Zm.764,2.991-.3-1.127q-1.224.482-1.118.88.114.431,1.417.247m2.67,1.029.316,1.192q1.367-.49,1.242-.962-.114-.431-1.557-.23" transform="translate(-275.89 -312.014)" fill="#fdc363"/>
            <g id="Grupo_1119206" data-name="Grupo 1119206" transform="translate(113.796 133.048)" opacity="0.4">
              <g id="Grupo_1119205" data-name="Grupo 1119205">
                <g id="Grupo_1119204" data-name="Grupo 1119204" clip-path="url(#clip-path-4)">
                  <path id="Trazado_875648" data-name="Trazado 875648" d="M377.561,452.957q10.618-7.038,21.258-14.075a23.61,23.61,0,0,0-2.429-.092q-10.567,6.972-21.093,13.946a18.5,18.5,0,0,0,2.263.222" transform="translate(-375.298 -438.788)" fill="#fff3cd"/>
                </g>
              </g>
            </g>
            <g id="Grupo_1119209" data-name="Grupo 1119209" transform="translate(116.946 133.231)" opacity="0.4">
              <g id="Grupo_1119208" data-name="Grupo 1119208">
                <g id="Grupo_1119207" data-name="Grupo 1119207" clip-path="url(#clip-path-5)">
                  <path id="Trazado_875649" data-name="Trazado 875649" d="M409.165,439.946a11.156,11.156,0,0,0-2.323-.552q-10.6,7-21.155,14.007a32.676,32.676,0,0,0,3.452-.175q10.026-6.639,20.026-13.28" transform="translate(-385.687 -439.394)" fill="#fff3cd"/>
                </g>
              </g>
            </g>
            <path id="Trazado_875650" data-name="Trazado 875650" d="M239.87,56.848c-2.372-3.307-8.422-7.184-16.043-9.949s-14.751-3.669-18.691-2.653l-2.017-.732L202.074,46.4l.032.012c-1.309,3.608,6.294,9.677,16.982,13.554s20.413,4.1,21.722.488l1.047-2.884Z" transform="translate(-140.722 -30.32)" fill="#f8a55d"/>
            <path id="Trazado_875651" data-name="Trazado 875651" d="M244.224,51.791c-1.31,3.608-11.035,3.39-21.722-.488s-18.291-9.946-16.982-13.554,11.035-3.39,21.722.488,18.291,9.946,16.982,13.554" transform="translate(-143.101 -24.512)" fill="#fdc363"/>
            <path id="Trazado_875652" data-name="Trazado 875652" d="M248.532,54.332c-1.088,3-9.167,2.816-18.046-.405s-15.2-8.263-14.108-11.261,9.167-2.816,18.046.405,15.2,8.263,14.108,11.261" transform="translate(-150.684 -28.241)" fill="#ffd685"/>
            <path id="Trazado_875653" data-name="Trazado 875653" d="M216.444,63.412q15.336.335,30.694.687-.873-.729-1.92-1.46-15.288-.37-30.527-.7c.521.488,1.108.98,1.753,1.473" transform="translate(-149.593 -43.158)" fill="#ffd967"/>
            <path id="Trazado_875654" data-name="Trazado 875654" d="M255.09,70.981a15.244,15.244,0,0,0-1.7-1.773q-15.321-.363-30.59-.685c.854.613,1.8,1.223,2.817,1.823q14.751.33,29.474.635" transform="translate(-155.244 -47.746)" fill="#ffd967"/>
            <path id="Trazado_875655" data-name="Trazado 875655" d="M248.532,54.332c-1.088,3-9.167,2.816-18.046-.405s-15.2-8.263-14.108-11.261,9.167-2.816,18.046.405,15.2,8.263,14.108,11.261" transform="translate(-150.684 -28.241)" fill="#ffd685"/>
            <path id="Trazado_875656" data-name="Trazado 875656" d="M242.878,47.134a44.141,44.141,0,0,0-8.452-4.063c-8.879-3.221-16.959-3.4-18.046-.405-.4,1.09.192,2.451,1.521,3.895q12.473.274,24.978.573" transform="translate(-150.685 -28.241)" fill="#ffd685"/>
            <path id="Trazado_875657" data-name="Trazado 875657" d="M244.333,76.48a47.791,47.791,0,0,0,5.716,2.495c8.879,3.222,16.959,3.4,18.046.405a2.87,2.87,0,0,0-.4-2.4q-11.671-.242-23.365-.5" transform="translate(-170.247 -53.29)" fill="#ffd685"/>
            <path id="Trazado_875658" data-name="Trazado 875658" d="M216.94,43.286c1.088-3,9.167-2.816,18.046.405,5.472,1.985,9.968,4.662,12.36,7.125-2.2-2.626-6.985-5.592-12.921-7.746-8.879-3.221-16.959-3.4-18.046-.405-.418,1.15.259,2.6,1.748,4.135-1.09-1.3-1.548-2.521-1.187-3.515" transform="translate(-150.685 -28.241)" fill="#f9a855"/>
            <path id="Trazado_875659" data-name="Trazado 875659" d="M254.183,53.061l2.192.8-.222.61a18.77,18.77,0,0,1,4.347,2.349l-2.785.139a14.423,14.423,0,0,0-2.048-1.273l-.468,1.288q4.843,2.342,4.335,3.741-.256.7-1.711.721a14.549,14.549,0,0,1-4.005-.737l-.281.776-2.152-.781.278-.767-.356-.129a21.752,21.752,0,0,1-2.754-1.262,12.06,12.06,0,0,1-2.307-1.508l2.665-.138a13.751,13.751,0,0,0,3.173,1.878l.543-1.5a14.142,14.142,0,0,1-3.4-2.042q-1.077-.965-.834-1.634.257-.709,1.655-.754a11.878,11.878,0,0,1,3.922.825ZM253.1,55.953l.4-1.1q-1.279-.3-1.42.085-.151.419,1.022,1.012m1.606,2.368-.421,1.159q1.4.378,1.569-.082.152-.419-1.148-1.077" transform="translate(-171.58 -36.815)" fill="#fdc363"/>
            <path id="Trazado_875660" data-name="Trazado 875660" d="M252.437,52.427l2.192.8-.221.61a18.771,18.771,0,0,1,4.347,2.349l-2.785.139a14.435,14.435,0,0,0-2.048-1.273l-.467,1.288q4.843,2.342,4.335,3.742-.255.7-1.711.721a14.561,14.561,0,0,1-4.005-.737l-.281.776-2.152-.781.278-.767-.356-.129a21.8,21.8,0,0,1-2.754-1.262,12.065,12.065,0,0,1-2.307-1.508l2.665-.138a13.772,13.772,0,0,0,3.173,1.878l.543-1.5a14.134,14.134,0,0,1-3.4-2.042q-1.077-.966-.834-1.634.257-.709,1.655-.754a11.883,11.883,0,0,1,3.921.825Zm-1.079,2.892.4-1.1q-1.279-.3-1.42.085-.151.419,1.022,1.011m1.606,2.368-.421,1.159q1.4.377,1.568-.082.152-.419-1.148-1.077" transform="translate(-170.364 -36.373)" fill="#f8a55d"/>
            <path id="Trazado_875661" data-name="Trazado 875661" d="M254.183,53.061l2.192.8-.222.61a18.77,18.77,0,0,1,4.347,2.349l-2.785.139a14.423,14.423,0,0,0-2.048-1.273l-.468,1.288q4.843,2.342,4.335,3.741-.256.7-1.711.721a14.549,14.549,0,0,1-4.005-.737l-.281.776-2.152-.781.278-.767-.356-.129a21.752,21.752,0,0,1-2.754-1.262,12.06,12.06,0,0,1-2.307-1.508l2.665-.138a13.751,13.751,0,0,0,3.173,1.878l.543-1.5a14.142,14.142,0,0,1-3.4-2.042q-1.077-.965-.834-1.634.257-.709,1.655-.754a11.878,11.878,0,0,1,3.922.825ZM253.1,55.953l.4-1.1q-1.279-.3-1.42.085-.151.419,1.022,1.012m1.606,2.368-.421,1.159q1.4.378,1.569-.082.152-.419-1.148-1.077" transform="translate(-171.58 -36.815)" fill="#fdc363"/>
            <g id="Grupo_1119212" data-name="Grupo 1119212" transform="translate(67.718 18.838)" opacity="0.4">
              <g id="Grupo_1119211" data-name="Grupo 1119211">
                <g id="Grupo_1119210" data-name="Grupo 1119210" clip-path="url(#clip-path-6)">
                  <path id="Trazado_875662" data-name="Trazado 875662" d="M225.063,63.6q12.735.277,25.49.569a23.586,23.586,0,0,0-1.942-1.461q-12.657-.3-25.28-.58a18.745,18.745,0,0,0,1.732,1.473" transform="translate(-223.331 -62.127)" fill="#fff3cd"/>
                </g>
              </g>
            </g>
            <g id="Grupo_1119215" data-name="Grupo 1119215" transform="translate(70.166 20.835)" opacity="0.4">
              <g id="Grupo_1119214" data-name="Grupo 1119214">
                <g id="Grupo_1119213" data-name="Grupo 1119213" clip-path="url(#clip-path-7)">
                  <path id="Trazado_875663" data-name="Trazado 875663" d="M258.364,71.056a11.157,11.157,0,0,0-1.593-1.779q-12.7-.3-25.366-.566a32.793,32.793,0,0,0,2.935,1.826q12.022.267,24.024.518" transform="translate(-231.406 -68.712)" fill="#fff3cd"/>
                </g>
              </g>
            </g>
            <path id="Trazado_875664" data-name="Trazado 875664" d="M48.927,441.136c-2.043-3.519-7.693-7.961-15.012-11.445s-14.329-5.07-18.349-4.437l-1.937-.922L12.31,427.1l.03.014c-1.65,3.465,5.334,10.237,15.6,15.124s19.925,6.04,21.575,2.575l1.319-2.771Z" transform="translate(-8.43 -295.667)" fill="#f8a55d"/>
            <path id="Trazado_875665" data-name="Trazado 875665" d="M53.819,437.579c-1.65,3.465-11.309,2.313-21.574-2.575s-17.25-11.659-15.6-15.124,11.309-2.313,21.575,2.575,17.25,11.659,15.6,15.124" transform="translate(-11.429 -291.173)" fill="#fdc363"/>
            <path id="Trazado_875666" data-name="Trazado 875666" d="M58,440.3c-1.371,2.879-9.4,1.921-17.924-2.139s-14.331-9.686-12.96-12.565,9.4-1.921,17.923,2.139S59.367,437.421,58,440.3" transform="translate(-18.752 -295.392)" fill="#ffd685"/>
            <path id="Trazado_875667" data-name="Trazado 875667" d="M25.838,445.16q15.233,1.808,30.485,3.636-.8-.809-1.771-1.638-15.181-1.837-30.317-3.633a22.716,22.716,0,0,0,1.6,1.635" transform="translate(-16.887 -309.041)" fill="#ffd967"/>
            <path id="Trazado_875668" data-name="Trazado 875668" d="M63.578,456.411a15.249,15.249,0,0,0-1.522-1.928q-15.215-1.835-30.382-3.623c.79.692,1.672,1.39,2.628,2.085q14.652,1.746,29.276,3.466" transform="translate(-22.07 -314.152)" fill="#ffd967"/>
            <path id="Trazado_875669" data-name="Trazado 875669" d="M58,440.3c-1.371,2.879-9.4,1.921-17.924-2.139s-14.331-9.686-12.96-12.565,9.4-1.921,17.923,2.139S59.367,437.421,58,440.3" transform="translate(-18.752 -295.392)" fill="#ffd685"/>
            <path id="Trazado_875670" data-name="Trazado 875670" d="M53.061,432.592a44.151,44.151,0,0,0-8.023-4.856c-8.528-4.06-16.553-5.018-17.923-2.138-.5,1.047-.045,2.457,1.139,4.022q12.388,1.472,24.807,2.972" transform="translate(-18.754 -295.392)" fill="#ffd685"/>
            <path id="Trazado_875671" data-name="Trazado 875671" d="M52.34,460.85a47.853,47.853,0,0,0,5.45,3.033c8.529,4.06,16.553,5.018,17.924,2.139a2.871,2.871,0,0,0-.165-2.424q-11.593-1.363-23.209-2.748" transform="translate(-36.47 -321.113)" fill="#ffd685"/>
            <path id="Trazado_875672" data-name="Trazado 875672" d="M27.612,426.269c1.371-2.879,9.4-1.921,17.923,2.139,5.256,2.5,9.473,5.6,11.618,8.281-1.936-2.825-6.415-6.237-12.116-8.952-8.528-4.06-16.553-5.017-17.924-2.138-.526,1.1.007,2.614,1.342,4.284-.96-1.4-1.3-2.659-.844-3.613" transform="translate(-18.753 -295.392)" fill="#f9a855"/>
            <path id="Trazado_875673" data-name="Trazado 875673" d="M63.472,439.306l2.1,1-.279.586a18.754,18.754,0,0,1,4.1,2.756l-2.785-.129a14.591,14.591,0,0,0-1.916-1.464l-.589,1.238q4.595,2.8,3.955,4.141-.322.676-1.772.553a14.574,14.574,0,0,1-3.916-1.119l-.354.745-2.067-.984.35-.737-.342-.163a21.764,21.764,0,0,1-2.62-1.521,12.051,12.051,0,0,1-2.151-1.723l2.666.119a13.766,13.766,0,0,0,2.978,2.174l.685-1.438a14.149,14.149,0,0,1-3.193-2.36q-.979-1.065-.673-1.707.324-.68,1.72-.591a11.884,11.884,0,0,1,3.824,1.2Zm-1.352,2.775.5-1.053q-1.244-.424-1.422-.052-.192.4.92,1.1m1.371,2.512-.53,1.113q1.359.511,1.569.069.191-.4-1.039-1.182" transform="translate(-38.456 -305.662)" fill="#fdc363"/>
            <path id="Trazado_875674" data-name="Trazado 875674" d="M61.795,438.509l2.1,1-.279.586a18.758,18.758,0,0,1,4.1,2.756l-2.785-.129a14.463,14.463,0,0,0-1.916-1.464l-.589,1.238q4.595,2.8,3.955,4.141-.322.676-1.772.552a14.561,14.561,0,0,1-3.916-1.119l-.354.745-2.067-.984.351-.736-.343-.163a21.743,21.743,0,0,1-2.62-1.52,12.046,12.046,0,0,1-2.151-1.723l2.665.119a13.8,13.8,0,0,0,2.978,2.174l.685-1.439a14.11,14.11,0,0,1-3.193-2.36q-.979-1.064-.673-1.706.324-.681,1.72-.591a11.883,11.883,0,0,1,3.824,1.2Zm-1.352,2.774.5-1.053q-1.244-.424-1.422-.052-.192.4.92,1.1m1.371,2.512-.53,1.113q1.359.51,1.569.069.192-.4-1.039-1.182" transform="translate(-37.287 -305.107)" fill="#f8a55d"/>
            <path id="Trazado_875675" data-name="Trazado 875675" d="M63.472,439.306l2.1,1-.279.586a18.754,18.754,0,0,1,4.1,2.756l-2.785-.129a14.591,14.591,0,0,0-1.916-1.464l-.589,1.238q4.595,2.8,3.955,4.141-.322.676-1.772.553a14.574,14.574,0,0,1-3.916-1.119l-.354.745-2.067-.984.35-.737-.342-.163a21.764,21.764,0,0,1-2.62-1.521,12.051,12.051,0,0,1-2.151-1.723l2.666.119a13.766,13.766,0,0,0,2.978,2.174l.685-1.438a14.149,14.149,0,0,1-3.193-2.36q-.979-1.065-.673-1.707.324-.68,1.72-.591a11.884,11.884,0,0,1,3.824,1.2Zm-1.352,2.775.5-1.053q-1.244-.424-1.422-.052-.192.4.92,1.1m1.371,2.512-.53,1.113q1.359.511,1.569.069.191-.4-1.039-1.182" transform="translate(-38.456 -305.662)" fill="#fdc363"/>
            <g id="Grupo_1119218" data-name="Grupo 1119218" transform="translate(9.951 134.793)" opacity="0.4">
              <g id="Grupo_1119217" data-name="Grupo 1119217">
                <g id="Grupo_1119216" data-name="Grupo 1119216" clip-path="url(#clip-path-8)">
                  <path id="Trazado_875676" data-name="Trazado 875676" d="M34.4,446.178q12.65,1.5,25.317,3.017a23.491,23.491,0,0,0-1.793-1.641q-12.569-1.52-25.106-3.008a18.652,18.652,0,0,0,1.582,1.632" transform="translate(-32.817 -444.546)" fill="#fff3cd"/>
                </g>
              </g>
            </g>
            <g id="Grupo_1119221" data-name="Grupo 1119221" transform="translate(12.196 137.016)" opacity="0.4">
              <g id="Grupo_1119220" data-name="Grupo 1119220">
                <g id="Grupo_1119219" data-name="Grupo 1119219" clip-path="url(#clip-path-9)">
                  <path id="Trazado_875677" data-name="Trazado 875677" d="M66.828,456.8a11.107,11.107,0,0,0-1.415-1.923q-12.612-1.516-25.193-3a32.975,32.975,0,0,0,2.745,2.1Q54.906,455.4,66.828,456.8" transform="translate(-40.22 -451.876)" fill="#fff3cd"/>
                </g>
              </g>
            </g>
            <path id="Trazado_875678" data-name="Trazado 875678" d="M666.9,225.625c-4.047-.424-10.966,1.521-18.1,5.378s-12.543,8.585-14.4,12.205l-1.887,1.021,1.46,2.7.03-.016c1.826,3.376,11.413,1.727,21.413-3.684s16.626-12.533,14.8-15.909l-1.46-2.7Z" transform="translate(-440.726 -156.512)" fill="#f8a55d"/>
            <path id="Trazado_875679" data-name="Trazado 875679" d="M668.179,220.688c1.827,3.376-4.8,10.5-14.8,15.909s-19.587,7.06-21.413,3.684,4.8-10.5,14.8-15.909,19.587-7.06,21.413-3.684" transform="translate(-440.134 -152.551)" fill="#fdc363"/>
            <path id="Trazado_875680" data-name="Trazado 875680" d="M672.275,226.837c1.518,2.8-3.987,8.722-12.295,13.217s-16.272,5.865-17.789,3.06,3.987-8.721,12.294-13.217,16.272-5.865,17.789-3.06" transform="translate(-447.293 -157.042)" fill="#ffd685"/>
            <path id="Trazado_875681" data-name="Trazado 875681" d="M654.463,242.129q10.44-11.239,20.909-22.481c-.75.112-1.541.266-2.367.465Q662.57,231.291,652.2,242.46c.711-.065,1.469-.176,2.266-.331" transform="translate(-454.441 -153.047)" fill="#ffd967"/>
            <path id="Trazado_875682" data-name="Trazado 875682" d="M685.8,218.963a15.212,15.212,0,0,0-2.455.093q-10.452,11.208-20.838,22.4c1.025-.231,2.109-.531,3.233-.894q10.048-10.8,20.06-21.6" transform="translate(-461.625 -152.559)" fill="#ffd967"/>
            <path id="Trazado_875683" data-name="Trazado 875683" d="M672.275,226.837c1.518,2.8-3.987,8.722-12.295,13.217s-16.272,5.865-17.789,3.06,3.987-8.721,12.294-13.217,16.272-5.865,17.789-3.06" transform="translate(-447.293 -157.042)" fill="#ffd685"/>
            <path id="Trazado_875684" data-name="Trazado 875684" d="M663.138,228.347a44.126,44.126,0,0,0-8.652,3.617c-8.307,4.495-13.812,10.412-12.294,13.217.552,1.02,1.959,1.485,3.922,1.451q8.492-9.139,17.025-18.285" transform="translate(-447.293 -159.109)" fill="#ffd685"/>
            <path id="Trazado_875685" data-name="Trazado 875685" d="M682.761,243.037a47.874,47.874,0,0,0,5.663-2.614c8.307-4.495,13.812-10.412,12.294-13.217a2.87,2.87,0,0,0-2.055-1.3q-7.936,8.56-15.9,17.126" transform="translate(-475.737 -157.411)" fill="#ffd685"/>
            <path id="Trazado_875686" data-name="Trazado 875686" d="M643.027,243.114c-1.518-2.8,3.987-8.721,12.294-13.217,5.12-2.77,10.107-4.351,13.537-4.5-3.423-.1-8.82,1.5-14.374,4.509-8.307,4.495-13.811,10.412-12.294,13.217.583,1.076,2.116,1.535,4.252,1.441-1.7-.05-2.912-.518-3.415-1.448" transform="translate(-447.293 -157.049)" fill="#f9a855"/>
            <path id="Trazado_875687" data-name="Trazado 875687" d="M676.14,241.067l2.05-1.109.309.571a18.761,18.761,0,0,1,4.644-1.688l-1.746,2.174a14.459,14.459,0,0,0-2.312.685l.652,1.205q4.968-2.063,5.677-.753.356.659-.6,1.757a14.572,14.572,0,0,1-3.213,2.5l.393.725-2.013,1.089-.388-.717-.333.181a21.756,21.756,0,0,1-2.773,1.22,12.052,12.052,0,0,1-2.66.722l1.668-2.082a13.789,13.789,0,0,0,3.512-1.124l-.758-1.4a14.141,14.141,0,0,1-3.789,1.187q-1.437.163-1.775-.463-.358-.663.537-1.738a11.864,11.864,0,0,1,3.222-2.382Zm1.444,2.728-.555-1.026q-1.077.755-.881,1.118.212.392,1.435-.092m2.837.374.586,1.084q1.213-.8.982-1.226-.212-.392-1.568.142" transform="translate(-468.645 -166.421)" fill="#fdc363"/>
            <path id="Trazado_875688" data-name="Trazado 875688" d="M674.507,241.951l2.05-1.109.309.571a18.761,18.761,0,0,1,4.644-1.688l-1.746,2.174a14.429,14.429,0,0,0-2.312.685l.652,1.205q4.968-2.063,5.677-.753.356.659-.6,1.757a14.556,14.556,0,0,1-3.212,2.5l.393.725-2.013,1.089-.388-.717-.334.181a21.817,21.817,0,0,1-2.773,1.22,12.062,12.062,0,0,1-2.659.722l1.667-2.083a13.772,13.772,0,0,0,3.512-1.124l-.758-1.4a14.146,14.146,0,0,1-3.789,1.187q-1.437.163-1.775-.463-.359-.663.537-1.738a11.863,11.863,0,0,1,3.222-2.382Zm1.444,2.728-.555-1.026q-1.077.755-.88,1.118.212.392,1.435-.092m2.837.374.587,1.084q1.213-.8.981-1.226-.212-.392-1.568.142" transform="translate(-467.507 -167.037)" fill="#f8a55d"/>
            <path id="Trazado_875689" data-name="Trazado 875689" d="M676.14,241.067l2.05-1.109.309.571a18.761,18.761,0,0,1,4.644-1.688l-1.746,2.174a14.459,14.459,0,0,0-2.312.685l.652,1.205q4.968-2.063,5.677-.753.356.659-.6,1.757a14.572,14.572,0,0,1-3.213,2.5l.393.725-2.013,1.089-.388-.717-.333.181a21.756,21.756,0,0,1-2.773,1.22,12.052,12.052,0,0,1-2.66.722l1.668-2.082a13.789,13.789,0,0,0,3.512-1.124l-.758-1.4a14.141,14.141,0,0,1-3.789,1.187q-1.437.163-1.775-.463-.358-.663.537-1.738a11.864,11.864,0,0,1,3.222-2.382Zm1.444,2.728-.555-1.026q-1.077.755-.881,1.118.212.392,1.435-.092m2.837.374.586,1.084q1.213-.8.982-1.226-.212-.392-1.568.142" transform="translate(-468.645 -166.421)" fill="#fdc363"/>
            <g id="Grupo_1119224" data-name="Grupo 1119224" transform="translate(199.541 68.506)" opacity="0.4">
              <g id="Grupo_1119223" data-name="Grupo 1119223">
                <g id="Grupo_1119222" data-name="Grupo 1119222" clip-path="url(#clip-path-10)">
                  <path id="Trazado_875690" data-name="Trazado 875690" d="M660.333,244.6q8.67-9.333,17.363-18.671a23.726,23.726,0,0,0-2.383.48q-8.637,9.257-17.231,18.506a18.657,18.657,0,0,0,2.251-.316" transform="translate(-658.082 -225.933)" fill="#fff3cd"/>
                </g>
              </g>
            </g>
            <g id="Grupo_1119227" data-name="Grupo 1119227" transform="translate(202.66 68.342)" opacity="0.4">
              <g id="Grupo_1119226" data-name="Grupo 1119226">
                <g id="Grupo_1119225" data-name="Grupo 1119225" clip-path="url(#clip-path-11)">
                  <path id="Trazado_875691" data-name="Trazado 875691" d="M688.032,225.448a11.11,11.11,0,0,0-2.387.009q-8.66,9.293-17.278,18.579a32.723,32.723,0,0,0,3.314-.979q8.189-8.807,16.351-17.609" transform="translate(-668.367 -225.388)" fill="#fff3cd"/>
                </g>
              </g>
            </g>
            <path id="Trazado_875692" data-name="Trazado 875692" d="M240.045,232.275c-3.693-9.5-5.862-9.752-8.871-13.931-4.405-6.118-13.494-11.039-14.467-6.267-.478,2.339,16.909,20.112,19.663,23.647,1.322-.585,2.208-2.491,3.675-3.449" transform="translate(-150.991 -146.438)" fill="#e9b0b7"/>
            <path id="Trazado_875693" data-name="Trazado 875693" d="M233.667,232.223c-2.394-2.913-12.223-14.55-13.242-15.587-5.941-6.038-8.727-8.553-6.4-12.168,2.636-4.095,9.944,2.159,14.9,7.609,3.273,3.6,4.834,5.573,9.339,13.049.762,2.514-1.872,7.953-4.6,7.1" transform="translate(-148.558 -141.551)" fill="#bac26a"/>
            <path id="Trazado_875694" data-name="Trazado 875694" d="M178.223,120.362a7.139,7.139,0,0,0-4.4.826,8.469,8.469,0,0,1-1.777.721c-2.329.623-2.852,4.106-2.67,6.113a17.562,17.562,0,0,0,.855,3.248c.813,2.769,3.074,5.576,6.227,5.437a7.47,7.47,0,0,0,5.317-2.768c3.1-3.939,2.275-12.607-3.551-13.576" transform="translate(-117.995 -83.812)" fill="#4c5066"/>
            <path id="Trazado_875695" data-name="Trazado 875695" d="M278.7,265.033c-.841-.578-3.041-2.665-2.613-4.111.359-1.211.965-1.369.963-1.369a116.1,116.1,0,0,1,17.256-6.3c4.9-1.307,2.145,2.67,2.145,2.67-4.8,2.989-9.088,6.2-17.751,9.108" transform="translate(-192.338 -176.28)" fill="#e9b0b7"/>
            <path id="Trazado_875696" data-name="Trazado 875696" d="M338.7,242.705c-1.024,1.108-1.976,2.3-1.762,2.728l.043.086.343-.136s-.288.235.134-.054l.1-.042a1.028,1.028,0,0,0-.109,1.179c.8,1.338,2.784.233,3.8-.212a12.332,12.332,0,0,0,2.313-1.412c.849-.622,1.564-2.631.651-3.472-.935-.862-1.664.9-2.421.2-.42-.385.294-2.047-.955-1.042-.24.246-1.221,1.176-2.144,2.175" transform="translate(-234.755 -167.376)" fill="#e9b0b7"/>
            <path id="Trazado_875697" data-name="Trazado 875697" d="M293.182,254.574a114.419,114.419,0,0,0-16.789,5.584c-.828,1.674,0,.656-.36,1.867-.428,1.446.961,5.532,1.8,6.109,7.838-2.631,12.813-7.176,17.11-9.914Z" transform="translate(-192.28 -177.383)" fill="#bac26a"/>
            <path id="Trazado_875698" data-name="Trazado 875698" d="M328.084,259.373c.587-.41,1.159-.8,1.719-1.154l-1.764-3.647c-.664.186-1.353.387-2.061.6Z" transform="translate(-227.136 -177.382)" fill="#bfc9ff"/>
            <path id="Trazado_875699" data-name="Trazado 875699" d="M212.425,511.834s-2.779,7.1,2.95,29.965c.459,1.83,1.884,1.713,2.648,1.124a1.589,1.589,0,0,0,.514-1.142s2.7-26.047,2.02-29.26-8.132-.687-8.132-.687" transform="translate(-147.545 -355.98)" fill="#e9b0b7"/>
            <path id="Trazado_875700" data-name="Trazado 875700" d="M207.773,340.59H194.5c0,.059,0,.118,0,.175q.014,3.811.062,7.623c.087,6.427-.056,4.774.317,11.192.318,5.459,4.307,30.265,4.88,31.586.58,1.342.3,3.782,1.46,4.8,1.838,1.614,5.433,2.469,6.977.453,1.043-1.361.572-8.346.762-10.081.161-1.475.155-2.987.223-4.365.271-5.541-.1-11.094-.126-16.637a185.049,185.049,0,0,0-1.279-24.742" transform="translate(-135.522 -237.318)" fill="#4c5066"/>
            <path id="Trazado_875701" data-name="Trazado 875701" d="M232.645,613.208c-.9-.132-1.185-.007-2.091-.156a9.229,9.229,0,0,1-2.581-.861,17.891,17.891,0,0,1-2.654-1.759,2.344,2.344,0,0,0-.263-.18,3.327,3.327,0,0,1-3.234-.027.479.479,0,0,1-.251-.217.607.607,0,0,0-.1.1,2.025,2.025,0,0,0-.3.965,21.641,21.641,0,0,0-.253,3.722c.176.844,4.769,1.849,6.276,1.943a23.1,23.1,0,0,0,5.582-.113c1.954-.316,1.4-3.2-.132-3.421" transform="translate(-153.912 -425.044)" fill="#374d7f"/>
            <path id="Trazado_875702" data-name="Trazado 875702" d="M178.836,155.041c.537,1.168,2.7,2.383,2.9,1.228a6.584,6.584,0,0,0-.511-3.345c-.537-1.168-.37-1.374-1.434-.885a2.232,2.232,0,0,0-.955,3" transform="translate(-124.448 -105.766)" fill="#e9b0b7"/>
            <path id="Trazado_875703" data-name="Trazado 875703" d="M187.861,168.143c.194-2.542,7.646,2.183,7.646,2.183l-.8,9.7s-.078-.389-3.743-.3c-2.233.052-3.623.756-3.512-1.331.069-1.29.339-9.369.406-10.248" transform="translate(-130.611 -116.636)" fill="#e9b0b7"/>
            <path id="Trazado_875704" data-name="Trazado 875704" d="M188.429,170.595c1.055,3.406,4.082,5.862,7.251,5.609l.507-5.878s-7.452-4.725-7.646-2.183c-.021.269.027-.526-.085.586.045.055-.052,1.785-.027,1.866" transform="translate(-131.291 -116.636)" fill="#e69589"/>
            <path id="Trazado_875705" data-name="Trazado 875705" d="M194.845,138.787c-2.122,1.706-6.306,1.234-8.147-.649a7.063,7.063,0,0,1-1.992-3.924c-.284-1.7-.15-3.314-.422-5.029a10.715,10.715,0,0,1-.178-2.237,6.229,6.229,0,0,1,1.226-3.367,9.358,9.358,0,0,1,2.854-2.075A8.573,8.573,0,0,1,191,120.157c.694-.121,1.161.292,1.735.649,3.116,1.937,4.684,6.345,4.772,9.88.065,2.632-.478,6.344-2.662,8.1" transform="translate(-128.276 -83.709)" fill="#e9b0b7"/>
            <path id="Trazado_875706" data-name="Trazado 875706" d="M186.1,150.8a37.4,37.4,0,0,0,3.167,2.643,3.645,3.645,0,0,0,4.367.011,5.585,5.585,0,0,1,4.3-.925c-.089,2.5-.743,5.537-2.656,7.075-2.122,1.706-6.306,1.234-8.146-.649a7.064,7.064,0,0,1-1.992-3.924c-.284-1.7-.151-3.308-.421-5.02a5.142,5.142,0,0,1,1.38.788" transform="translate(-128.709 -104.524)" fill="#4c5066"/>
            <path id="Trazado_875707" data-name="Trazado 875707" d="M166.3,508.542s2.779,7.1-2.95,29.965c-.458,1.83-1.884,1.714-2.648,1.124a1.588,1.588,0,0,1-.514-1.141s-1.377-26.518-.7-29.732,6.809-.216,6.809-.216" transform="translate(-110.998 -353.459)" fill="#e9b0b7"/>
            <path id="Trazado_875708" data-name="Trazado 875708" d="M155.561,340.59A6.29,6.29,0,0,0,155,342.3a155.74,155.74,0,0,0-1.157,22.259c-.022,5.543.586,22.694.924,29.136.133,2.536,5.773,4.333,7.612,2.718a8.735,8.735,0,0,0,2.548-3.227c.572-1.322,2.649-30.824,2.966-36.282.373-6.418.354-2.861.441-9.288q.048-3.514.059-7.027Z" transform="translate(-107.198 -237.318)" fill="#4c5066"/>
            <path id="Trazado_875709" data-name="Trazado 875709" d="M186.142,245.046c.575-11.475,2.806-28.357,1.359-29.99-2.546-2.874,1.062-.712-.78-3.015-2.755-3.444-11.323-7.039-14.766-2.054-1.167,1.69-.15,5.359-.426,6.624-.611,2.8-.842,16.777-1.534,28.031Z" transform="translate(-118.45 -144.605)" fill="#e9b0b7"/>
            <path id="Trazado_875710" data-name="Trazado 875710" d="M174.47,200.935c-.636-.223-4.763-1.1-5.511-1.237-.872.789-1.938-.355-3.237-.407-1.354-.054-2.942.952-3.844.251a1.128,1.128,0,0,1-.136-.129c-.666.036,1.093.092.406.152-1.8.2-7.288,2.825-8.443,3.537-4.729,2.917-3.029,7.015-2.929,8.682.266,4.431.687,39.484-.114,44.269h28.752c.486-.423-.685-39.2-1.027-44.839-.457-7.53-.235-8.985-3.916-10.279" transform="translate(-104.794 -138.861)" fill="#d3df59"/>
            <path id="Trazado_875711" data-name="Trazado 875711" d="M170.673,614.141c-.9-.132-1.185-.007-2.091-.155a9.236,9.236,0,0,1-2.581-.861,17.874,17.874,0,0,1-2.654-1.759,2.279,2.279,0,0,0-.263-.18,3.324,3.324,0,0,1-3.234-.027.475.475,0,0,1-.251-.217.6.6,0,0,0-.1.1,2.031,2.031,0,0,0-.3.965,21.6,21.6,0,0,0-.253,3.721c.175.844,4.769,1.85,6.276,1.943a23.127,23.127,0,0,0,5.582-.113c1.954-.316,1.4-3.2-.132-3.421" transform="translate(-110.73 -425.695)" fill="#374d7f"/>
            <path id="Trazado_875712" data-name="Trazado 875712" d="M218.6,541.8c.737-7.61,1.86-26.912,1.36-29.279-.68-3.215-8.132-.687-8.132-.687s-3.325,7.118,2.579,29.795Z" transform="translate(-146.949 -355.98)" fill="#4c5066"/>
            <path id="Trazado_875713" data-name="Trazado 875713" d="M162.582,535.93c4.744-20.485,4.963-32.274,4.963-32.274s-10.543-3.894-10.269,2.054c.115,2.5.357,22.374.844,30.322Z" transform="translate(-109.584 -350.067)" fill="#4c5066"/>
            <path id="Trazado_875714" data-name="Trazado 875714" d="M178.791,190.829,183.6,193.1l-2.054,5.02-7.074-3.08s2.376-4.039,4.315-4.211" transform="translate(-121.572 -132.967)" fill="#bfc9ff"/>
            <path id="Trazado_875715" data-name="Trazado 875715" d="M204.578,195.329l2.852,4.45,2.2-2.9s-.8-2.567-2.567-2.852Z" transform="translate(-142.547 -135.196)" fill="#bfc9ff"/>
            <path id="Trazado_875716" data-name="Trazado 875716" d="M187.281,111.99c-.092-1.235-.837-1.25-1.9-1.089a29.706,29.706,0,0,1-3.126.511,16.167,16.167,0,0,1-3.36-.363,9.5,9.5,0,0,0-5.817,1.133c-2.7,1.411-4.34,6.086-3.851,9.156.162,1.015.558.776,1.332,1.452a4.424,4.424,0,0,0,1.267.854,3.407,3.407,0,0,0,1.351-.088c.169-.231.636.189.779.384.23.317.372.943.9.784.478-.143.643-.751.692-1.177.1-.906-.023-1.814.008-2.722.065-1.866,1.779-1.867,3.252-2.139,2.525-.466,4.846-.823,6.954-2.5a5.111,5.111,0,0,0,1.517-4.2" transform="translate(-117.854 -77.224)" fill="#4c5066"/>
            <path id="Trazado_875717" data-name="Trazado 875717" d="M319.648,186.479a31.259,31.259,0,1,1-31.259-31.259,31.259,31.259,0,0,1,31.259,31.259" transform="translate(-179.164 -108.155)" fill="#7b1fa2"/>
            <path id="Trazado_875718" data-name="Trazado 875718" d="M322.877,192.192A28.772,28.772,0,1,1,294.1,163.42a28.773,28.773,0,0,1,28.773,28.772" transform="translate(-184.879 -113.868)" fill="#4c5066"/>
            <path id="Trazado_875719" data-name="Trazado 875719" d="M324.775,195.552a27.31,27.31,0,1,1-27.311-27.31,27.311,27.311,0,0,1,27.311,27.31" transform="translate(-188.239 -117.228)" fill="#fff"/>
            <rect id="Rectángulo_409265" data-name="Rectángulo 409265" width="1.755" height="6.435" transform="translate(108.348 52.806)" fill="#4c5066"/>
            <rect id="Rectángulo_409266" data-name="Rectángulo 409266" width="1.755" height="6.435" transform="translate(108.348 96.68)" fill="#4c5066"/>
            <rect id="Rectángulo_409267" data-name="Rectángulo 409267" width="6.435" height="1.755" transform="translate(127.945 77.083)" fill="#4c5066"/>
            <rect id="Rectángulo_409268" data-name="Rectángulo 409268" width="6.435" height="1.755" transform="translate(84.071 77.083)" fill="#4c5066"/>
            <rect id="Rectángulo_409269" data-name="Rectángulo 409269" width="6.435" height="1.755" transform="translate(121.842 64.103) rotate(-45)" fill="#4c5066"/>
            <rect id="Rectángulo_409270" data-name="Rectángulo 409270" width="6.435" height="1.755" transform="matrix(0.707, -0.707, 0.707, 0.707, 90.818, 95.127)" fill="#4c5066"/>
            <rect id="Rectángulo_409271" data-name="Rectángulo 409271" width="1.755" height="6.435" transform="translate(121.841 91.818) rotate(-45.004)" fill="#4c5066"/>
            <rect id="Rectángulo_409272" data-name="Rectángulo 409272" width="1.755" height="6.435" transform="translate(90.818 60.794) rotate(-45)" fill="#4c5066"/>
            <path id="Trazado_875720" data-name="Trazado 875720" d="M357.4,234.013a1.226,1.226,0,0,1-1.226-1.226V214.14a1.226,1.226,0,1,1,2.452,0v18.647a1.226,1.226,0,0,1-1.226,1.226" transform="translate(-248.179 -148.355)" fill="#4a6cb3"/>
            <path id="Trazado_875721" data-name="Trazado 875721" d="M355.513,255.917H339.9a.92.92,0,0,1,0-1.839h15.612a.92.92,0,0,1,0,1.839" transform="translate(-236.197 -177.038)" fill="#4a6cb3"/>
            <path id="Trazado_875722" data-name="Trazado 875722" d="M355.272,254.861a1.5,1.5,0,1,1,1.5,1.5,1.5,1.5,0,0,1-1.5-1.5" transform="translate(-247.548 -176.537)" fill="#7b1fa2"/>
            <path id="Trazado_875723" data-name="Trazado 875723" d="M172.916,249.086c-2.315-9.923-4.427-10.482-6.815-15.043-3.5-6.68-11.8-12.834-13.438-8.247-.8,2.248,13.9,22.3,16.128,26.186,1.391-.393,2.537-2.153,4.125-2.9" transform="translate(-106.351 -156.224)" fill="#e9b0b7"/>
            <path id="Trazado_875724" data-name="Trazado 875724" d="M204.5,292.632c-.751-.691-2.634-3.067-2.006-4.438.526-1.149,1.148-1.219,1.147-1.219a116.107,116.107,0,0,1,17.972-3.8c5.032-.6,1.746,2.946,1.746,2.946-5.178,2.28-9.873,4.855-18.859,6.511" transform="translate(-141.004 -197.264)" fill="#e9b0b7"/>
            <path id="Trazado_875725" data-name="Trazado 875725" d="M165.522,248.391c-1.959-3.221-10.7-15.073-11.469-16.305-5.362-8.557-6.872-10.694-4.058-13.944,3.188-3.682,9.539,3.541,13.678,9.636,2.733,4.025,4,6.2,7.4,14.237.4,2.6-2.976,7.609-5.554,6.376" transform="translate(-103.545 -151.301)" fill="#bac26a"/>
            <path id="Trazado_875726" data-name="Trazado 875726" d="M268.129,274.089c-1.17.952-2.281,2-2.129,2.452l.031.091.359-.086s-.318.192.14-.034l.109-.027a1.028,1.028,0,0,0-.274,1.152c.6,1.438,2.723.623,3.794.327a12.354,12.354,0,0,0,2.489-1.072c.928-.5,1.92-2.384,1.135-3.345-.8-.985-1.773.652-2.425-.143-.361-.441.581-1.985-.8-1.166-.272.21-1.375.992-2.43,1.851" transform="translate(-185.335 -189.528)" fill="#e9b0b7"/>
            <path id="Trazado_875727" data-name="Trazado 875727" d="M220.289,283.541a114.437,114.437,0,0,0-17.409,3.158c-1.056,1.54-.093.649-.62,1.8-.628,1.371.171,5.611.922,6.3,8.13-1.5,13.7-5.3,18.338-7.4Z" transform="translate(-140.773 -197.567)" fill="#bac26a"/>
            <path id="Trazado_875728" data-name="Trazado 875728" d="M256.725,288.3c.639-.323,1.26-.626,1.865-.9l-1.231-3.859c-.683.09-1.394.191-2.124.3Z" transform="translate(-177.843 -197.567)" fill="#bfc9ff"/>
            <path id="Trazado_875729" data-name="Trazado 875729" d="M574.855,152.777a7.742,7.742,0,0,1,.405,3.521c-.237,1.87-1,3.588.484,5.144,1.558,1.633,2.633,2.162,2.749,4.613.089,1.89-.582,3.91-2.738,4.1-1.877.163-3.765-.949-5.589-.22-1.592.636-1.757,2.462-3.055,3.395-1.66,1.193-4.67.89-6.542.556-1.557-.278-3.838.133-5.171-.744-2.12-1.4-1.567-4.139-.827-6.059.943-2.445-.458-4.628-1.057-6.989a11.181,11.181,0,0,1,1.109-7.76c.668-1.4.418-2.828,1.218-4.2a9.6,9.6,0,0,1,3.111-3.764c3.2-1.993,8.325-1.078,10.928,1.472,1.916,1.878,4.055,4.261,4.975,6.935" transform="translate(-385.478 -99.841)" fill="#4c5066"/>
            <path id="Trazado_875730" data-name="Trazado 875730" d="M475.851,240.622c.692-.543,2.469-2.458,2.021-3.677-.375-1.022-.9-1.124-.9-1.124-2.843-1.068-5.726-2.033-8.646-2.868-.924-.264-3.046-1.269-3.975-1.033-1.169.3-1.861,2.094-2.4,3.033.8-.059,1.941.9,2.67,1.283,1.024.538,2.06,1.054,3.114,1.53a52.571,52.571,0,0,0,8.119,2.857" transform="translate(-321.877 -161.573)" fill="#e9b0b7"/>
            <path id="Trazado_875731" data-name="Trazado 875731" d="M505.6,235.067c2.9-.593,6.7-.847,7.818-1.175,6.492-1.913,12.713-3.463,13.655-.5,1.067,3.358-5.682,6.483-11.341,7.874-4.921,1.21-8.468.988-13.78,1.241a12.662,12.662,0,0,1,3.647-7.44" transform="translate(-349.753 -161.47)" fill="#7b1fa2"/>
            <path id="Trazado_875732" data-name="Trazado 875732" d="M594.018,180.9c-.217,1.086-1.79,2.537-2.186,1.608a5.669,5.669,0,0,1-.24-2.906c.217-1.086.036-1.226,1.026-1.028a1.923,1.923,0,0,1,1.4,2.325" transform="translate(-412.15 -124.372)" fill="#e9b0b7"/>
            <path id="Trazado_875733" data-name="Trazado 875733" d="M577.983,196.863c-.167-2.19-6.587,1.881-6.587,1.881l.687,8.355s.067-.335,3.224-.26c1.924.045,3.557-.047,3.461-1.845-.06-1.111-.727-7.373-.785-8.13" transform="translate(-398.14 -136.72)" fill="#e9b0b7"/>
            <path id="Trazado_875734" data-name="Trazado 875734" d="M578.08,198.976c-.908,2.935-3.516,5.05-6.247,4.833l-.437-5.064s6.42-4.071,6.587-1.881c.018.232.093.981.19,1.938a.5.5,0,0,0-.093.174" transform="translate(-398.14 -136.72)" fill="#e69589"/>
            <path id="Trazado_875735" data-name="Trazado 875735" d="M560.5,172.815c2.12,1.006,5.532-.224,6.7-2.17a6.086,6.086,0,0,0,.887-3.686c-.1-1.485-.536-2.807-.65-4.3a9.2,9.2,0,0,0-.3-1.911,5.363,5.363,0,0,0-1.7-2.576,8.064,8.064,0,0,0-2.806-1.17,7.377,7.377,0,0,0-2.627-.569c-.606.037-.915.477-1.325.89-2.225,2.245-2.659,6.253-2.027,9.234.471,2.219,1.666,5.222,3.848,6.257" transform="translate(-387.682 -108.997)" fill="#e9b0b7"/>
            <path id="Trazado_875736" data-name="Trazado 875736" d="M563.562,369.158a26.973,26.973,0,0,0,2.357,9.291c4.724,12.374,8.148,24.107,10.149,27.474,2.188,3.683,8.64-2.936,8.64-2.936s-8.9-36.883-10.955-39.253-10.351,2.077-10.191,5.423" transform="translate(-392.679 -252.98)" fill="#e9b0b7"/>
            <path id="Trazado_875737" data-name="Trazado 875737" d="M563.563,369.621a26.972,26.972,0,0,0,2.357,9.291c4.724,12.374,8.148,24.107,10.149,27.474,2.188,3.683,9.181-1.438,9.181-1.438s-7.9-38.156-9.954-40.527-11.894,1.853-11.733,5.2" transform="translate(-392.68 -253.442)" fill="#4c5066"/>
            <path id="Trazado_875738" data-name="Trazado 875738" d="M608.625,506.938s1.632,5.3,14.423,21.068c1.71,2.109,2.393-.942,2.393-.942s-9.968-23.532-11.668-25.795-5.148,5.668-5.148,5.668" transform="translate(-424.08 -348.994)" fill="#e9b0b7"/>
            <path id="Trazado_875739" data-name="Trazado 875739" d="M609.435,516.574c-4.5-8.157-6.084-18.7-6.084-18.7s7.7-3.369,9.4-1.106c.858,1.143,3.958,7.932,6.859,14.492-2.257,1.121-10.155,5.3-10.177,5.31" transform="translate(-420.405 -345.599)" fill="#4c5066"/>
            <path id="Trazado_875740" data-name="Trazado 875740" d="M542.675,373.393A26.968,26.968,0,0,0,539,382.248c-3.621,12.74-5.446,22.517-5.858,26.413-.451,4.26,6.225,4.49,6.225,4.49s14.941-34.876,14.716-38-9.536-4.532-11.41-1.755" transform="translate(-371.472 -259.136)" fill="#e9b0b7"/>
            <path id="Trazado_875741" data-name="Trazado 875741" d="M533.478,518.692s-.914,5.662,4.022,25.359c.66,2.635,2.724-.014,2.724-.014s.845-21.984.26-24.752-7.006-.592-7.006-.592" transform="translate(-371.672 -360.849)" fill="#e9b0b7"/>
            <path id="Trazado_875742" data-name="Trazado 875742" d="M526.559,522.763c-1.619-12.089.83-24.558.83-24.558s7.379.218,7.965,2.987c.33,1.56,2.9,15.34,2.987,21.571Z" transform="translate(-366.513 -347.141)" fill="#4c5066"/>
            <path id="Trazado_875743" data-name="Trazado 875743" d="M531.641,376.085a150.292,150.292,0,0,1,3.813-16.1,146.593,146.593,0,0,1,5.746-17.029c.633-1.476-.2-7.747.761-8.386,2.247-1.49,7.992.328,11.056.933a5.178,5.178,0,0,1,1.825.912c1.029.649,2.389,4.145,2.738,5.31a12.758,12.758,0,0,1-1.454,9.816c-1.352,2.157-2.627,4.361-3.869,6.583-1.067,1.909-2.387,3.612-3.483,5.531-2.442,4.278-4.032,8.931-5.814,13.531-.6,1.557-4.434,8.937-4.452,10.016-.093,5.712-5.2-2.4-6.952-2.916-1.01-.3-.951-.482-.89-1.569.047-.83.167-1.655.29-2.476q.313-2.08.684-4.152" transform="translate(-369.74 -232.721)" fill="#4c5066"/>
            <path id="Trazado_875744" data-name="Trazado 875744" d="M562.82,257.151c-.5-9.887-2.418-24.431-1.171-25.838,2.193-2.476,2.3-7.884,3.884-9.868,2.373-2.967,4.424-4.361,7.391-.066,1.006,1.456,2.249,10.184,2.486,11.274.526,2.416.725,14.454,1.322,24.151Z" transform="translate(-391.06 -152.36)" fill="#e9b0b7"/>
            <path id="Trazado_875745" data-name="Trazado 875745" d="M560.784,259.34c-.512-7.241-1-13.229-1.629-17.509-.19-1.3-.585-2.552-.8-3.829a7.79,7.79,0,0,1,.837-3.875c.485-1.088.994-2.176,1.455-3.275.454-1.082.807-2.2,1.162-3.318.11-.348.7-2.879,1.047-2.908.039,0,1.361-.116,1.884-.229a8.75,8.75,0,0,0,2.639-1.058c.225-.134,2.013-1.592,2.069-1.534a20.4,20.4,0,0,1,5,11.324c.167,1.407-.085,22.915.422,25.94Z" transform="translate(-389.024 -154.549)" fill="#fff"/>
            <path id="Trazado_875746" data-name="Trazado 875746" d="M570.516,246.124a40.352,40.352,0,0,1,1.3-13.081,44.755,44.755,0,0,1,4.773-10.263,11.277,11.277,0,0,1,1.331-.975,20.392,20.392,0,0,1,5,11.324c.167,1.407,3.207,27.312,3.713,30.337l-13.828,2.655c-.741-4.583-2.159-15.386-2.3-20" transform="translate(-397.499 -154.548)" fill="#7b1fa2"/>
            <path id="Trazado_875747" data-name="Trazado 875747" d="M571.244,267.339c.265.269,3.542,1.717,4.144.375a124.724,124.724,0,0,0,5.011-13.033c1.847-5.526,1.964-12.268-1.517-12.81-3.073-.478-4.189,7.9-5.372,14.559-.251,1.417-1.1,3.066-2.124,7.626,0,0-.676,2.414-.142,3.282" transform="translate(-397.891 -168.519)" fill="#e9b0b7"/>
            <path id="Trazado_875748" data-name="Trazado 875748" d="M570.417,144.6a8.49,8.49,0,0,0-1.032.976,6.636,6.636,0,0,0-1.948,2.779,12.172,12.172,0,0,0-.387,2.328,3.814,3.814,0,0,0,1.484,3.484,6.008,6.008,0,0,0,2.826,1.108,3.687,3.687,0,0,1,1.648.561c.318.248.365.7.665.923,1.028.774,1.023-.88,1.119-1.41q-.075.417.178-.625c.367-1.521.359-2.764,1.243-4.087a4.56,4.56,0,0,0,.268-4.5c-.918-1.382-3.484-1.8-5-1.814a1.817,1.817,0,0,0-1.067.28" transform="translate(-395.099 -100.56)" fill="#4c5066"/>
            <path id="Trazado_875749" data-name="Trazado 875749" d="M521.857,603.421c.779-.114,1.021-.006,1.8-.133a7.976,7.976,0,0,0,2.223-.742,15.392,15.392,0,0,0,2.286-1.516,1.944,1.944,0,0,1,.227-.154,2.868,2.868,0,0,0,2.786-.023.415.415,0,0,0,.216-.187.547.547,0,0,1,.088.09,1.745,1.745,0,0,1,.255.831,18.664,18.664,0,0,1,.218,3.207c-.151.727-4.108,1.593-5.407,1.674a19.94,19.94,0,0,1-4.809-.1c-1.683-.273-1.206-2.755.113-2.948" transform="translate(-362.79 -418.533)" fill="#374d7f"/>
            <path id="Trazado_875750" data-name="Trazado 875750" d="M634.517,587.485c.691-.378.955-.361,1.642-.752a7.946,7.946,0,0,0,1.827-1.469,15.421,15.421,0,0,0,1.616-2.216,1.927,1.927,0,0,1,.159-.224,2.865,2.865,0,0,0,2.6-.991.416.416,0,0,0,.138-.251.527.527,0,0,1,.114.053,1.743,1.743,0,0,1,.528.69,18.637,18.637,0,0,1,1.319,2.931c.111.734-3.3,2.923-4.487,3.45a19.927,19.927,0,0,1-4.542,1.581c-1.673.33-2.088-2.163-.918-2.8" transform="translate(-441.658 -405.238)" fill="#374d7f"/>
            <path id="Trazado_875751" data-name="Trazado 875751" d="M555.3,152.863a13.524,13.524,0,0,1,1.813-5.265,8.211,8.211,0,0,1,3.1-2.864,5.232,5.232,0,0,1,2.369-.6c.893,1.762-.78,4.247-1.57,5.848-.535,1.086-1.465,1.361-2.252,2.127a17.607,17.607,0,0,0-1.524,1.975,10.941,10.941,0,0,0-1.568,2.036c-.72-.331-.471-2.643-.365-3.258" transform="translate(-386.837 -100.419)" fill="#4c5066"/>
            <path id="Trazado_875752" data-name="Trazado 875752" d="M459.786,229.782a2.731,2.731,0,0,1,2.57-2.476c1.208.017,1.554,1.329,1.748,2.29.325,1.613.1,2.406-1.517,3.193-2.285,1.114-3.2-1.074-2.8-3.007" transform="translate(-320.31 -158.383)" fill="#e9b0b7"/>
            <path id="Trazado_875753" data-name="Trazado 875753" d="M507.123,318.019c1.986,8.569-2.755,20.771-2.755,20.771s-9.581-9.338-11.567-17.907.806-12.3,4.376-13.124,7.961,1.69,9.946,10.259" transform="translate(-342.915 -214.338)" fill="#fcb62a"/>
            <path id="Trazado_875754" data-name="Trazado 875754" d="M507.675,315.064c1.4,6.03-1.939,14.617-1.939,14.617s-6.742-6.571-8.14-12.6.567-8.654,3.079-9.236,5.6,1.19,7,7.22" transform="translate(-346.393 -214.428)" fill="#f89e2b"/>
            <path id="Trazado_875755" data-name="Trazado 875755" d="M440.265,229.55a101.862,101.862,0,0,0-1.845,25.026s.142,10.412,16.8-.336c0,0-3.112-18.655-14.955-24.69" transform="translate(-305.374 -159.947)" fill="#ffd685"/>
            <path id="Trazado_875756" data-name="Trazado 875756" d="M442.571,229.55s-.5,2.277-1,5.9a22.773,22.773,0,0,1,4.154,7.844c.91,3.034,1.332,6.609-.162,9.537a15.752,15.752,0,0,1-3.789,4.634c1.595,2.016,5.615,3.312,15.753-3.228,0,0-3.112-18.655-14.955-24.69" transform="translate(-307.68 -159.947)" fill="#fbbd7f"/>
            <path id="Trazado_875757" data-name="Trazado 875757" d="M520.872,210.362a101.873,101.873,0,0,1,12.665,21.664s4.452,9.413-15.236,7.088c0,0-5.411-18.122,2.571-28.752" transform="translate(-359.895 -146.577)" fill="#ffd685"/>
            <path id="Trazado_875758" data-name="Trazado 875758" d="M520.872,210.362s1.451,1.826,3.494,4.861a22.767,22.767,0,0,0-.281,8.872c.518,3.125,1.71,6.521,4.341,8.494a15.761,15.761,0,0,0,5.441,2.5c-.545,2.512-3.586,5.445-15.567,4.029,0,0-5.411-18.122,2.571-28.752" transform="translate(-359.895 -146.577)" fill="#fbbd7f"/>
            <path id="Trazado_875759" data-name="Trazado 875759" d="M467.542,138.048c3.944,17.019.669,31.482-5.936,33.013s-16.2-9.648-20.144-26.667,4.03-34.539,5.862-34.963c2.047-.475,16.274,11.6,20.217,28.617" transform="translate(-306.85 -76.24)" fill="#cd6b70"/>
            <path id="Trazado_875760" data-name="Trazado 875760" d="M465.715,167.724c-6.605,1.53-16.2-9.648-20.144-26.667-2.856-12.324.538-24.909,3.323-31.077a2.734,2.734,0,0,0-1.57-.55c-1.831.424-9.806,17.945-5.862,34.964s13.539,28.2,20.143,26.667a7.147,7.147,0,0,0,4.243-3.371c-.045.011-.089.025-.134.035" transform="translate(-306.851 -76.24)" fill="#cc5369"/>
            <path id="Trazado_875761" data-name="Trazado 875761" d="M502.923,306.287a1.4,1.4,0,0,1-1.049,1.681l-6.465,1.5a1.4,1.4,0,0,1-.633-2.729l6.465-1.5a1.4,1.4,0,0,1,1.681,1.048" transform="translate(-343.997 -212.66)" fill="#4c5066"/>
            <path id="Trazado_875762" data-name="Trazado 875762" d="M461.348,119.628c-4.964-6.588-10.175-10.471-11.353-10.2-1.046.242-4.092,6.057-5.781,14.169,0,0,2.323.71,8.9-.813s8.239-3.158,8.239-3.158" transform="translate(-309.521 -76.24)" fill="#ffd685"/>
            <path id="Trazado_875763" data-name="Trazado 875763" d="M451.31,109.836A2.285,2.285,0,0,0,450,109.43c-1.046.242-4.093,6.058-5.781,14.169a10.483,10.483,0,0,0,3.418.1,47.213,47.213,0,0,1,3.677-13.859" transform="translate(-309.521 -76.24)" fill="#fbbd7f"/>
            <path id="Trazado_875764" data-name="Trazado 875764" d="M471.638,171.981a6.857,6.857,0,1,1-8.228-5.132,6.857,6.857,0,0,1,8.228,5.132" transform="translate(-319.196 -116.133)" fill="#4c5066"/>
            <path id="Trazado_875765" data-name="Trazado 875765" d="M473.127,174.82a5.733,5.733,0,1,1-6.879-4.291,5.733,5.733,0,0,1,6.879,4.291" transform="translate(-321.78 -118.718)" fill="#b2e2f9"/>
            <path id="Trazado_875766" data-name="Trazado 875766" d="M473.127,174.82a5.733,5.733,0,1,1-6.879-4.291,5.733,5.733,0,0,1,6.879,4.291" transform="translate(-321.78 -118.718)" fill="#b2e2f9"/>
            <path id="Trazado_875767" data-name="Trazado 875767" d="M473.423,181.04a5.836,5.836,0,0,1,.165.576,5.733,5.733,0,0,1-10.743,3.8,5.733,5.733,0,1,0,10.578-4.372" transform="translate(-322.503 -126.146)" fill="#009bd7"/>
            <path id="Trazado_875768" data-name="Trazado 875768" d="M467.413,173.33a5.747,5.747,0,0,0-1.38,1.235q4.823,3.013,9.645,6.027a5.737,5.737,0,0,0,.507-1.8q-4.38-2.738-8.772-5.458" transform="translate(-324.724 -120.774)" fill="#fff"/>
            <path id="Trazado_875769" data-name="Trazado 875769" d="M462.793,180.707a5.75,5.75,0,0,0-.476,1.286q4.622,2.859,9.233,5.735a5.746,5.746,0,0,0,.924-.972q-4.843-3.02-9.68-6.049" transform="translate(-322.135 -125.914)" fill="#fff"/>
            <path id="Trazado_875770" data-name="Trazado 875770" d="M493.629,243.042c2.041,8.807,2.489,16.226,1,16.57s-4.348-6.515-6.389-15.322-2.489-16.225-1-16.57,4.348,6.515,6.389,15.322" transform="translate(-338.889 -158.663)" fill="#ffd685"/>
            <path id="Trazado_875771" data-name="Trazado 875771" d="M474.091,119.743l.092.082.267.246c.224.213.546.528.939.939a41.258,41.258,0,0,1,3.021,3.578c.3.382.585.794.892,1.214s.61.865.909,1.331c.618.917,1.217,1.916,1.825,2.956.59,1.05,1.186,2.143,1.732,3.282.137.284.28.568.413.856l.395.871c.271.579.505,1.176.757,1.766s.466,1.195.7,1.789.425,1.2.636,1.795l.569,1.785.5,1.758c.153.58.292,1.154.434,1.713s.249,1.115.371,1.65.22,1.061.312,1.57.195,1,.262,1.473c.14.948.289,1.814.368,2.589s.182,1.446.22,2l.15,1.749a.408.408,0,0,1-.813.078l0-.014s-.065-.628-.18-1.726c-.047-.55-.152-1.213-.253-1.975s-.254-1.615-.409-2.547c-.075-.467-.187-.947-.284-1.447s-.2-1.015-.336-1.54-.243-1.07-.394-1.618-.3-1.108-.458-1.677l-.523-1.718-.59-1.743c-.218-.58-.43-1.166-.656-1.75s-.464-1.166-.717-1.741-.5-1.154-.772-1.716l-.4-.845c-.136-.28-.28-.555-.42-.83-.554-1.1-1.156-2.162-1.749-3.176-.612-1-1.213-1.968-1.831-2.849-.3-.448-.614-.864-.906-1.277s-.593-.8-.888-1.163a39.689,39.689,0,0,0-2.973-3.4c-.382-.385-.69-.674-.9-.868s-.312-.275-.319-.281l-.012-.01a.774.774,0,0,1,1.009-1.175l.01.009" transform="translate(-329.441 -83.298)" fill="#fff"/>
            <path id="Trazado_875772" data-name="Trazado 875772" d="M538.13,300.405c.757-.447,2.771-2.111,2.488-3.379-.237-1.063-.749-1.233-.747-1.233a100.022,100.022,0,0,0-14.461-6.431c-4.131-1.412-2,2.169-2,2.169,3.953,2.852,7.446,5.865,14.721,8.875" transform="translate(-364.32 -201.393)" fill="#e9b0b7"/>
            <path id="Trazado_875773" data-name="Trazado 875773" d="M571.063,261.274c.76-2.856,2.231-6.378,2.434-7.522,1.182-6.664,2.569-12.924,5.642-12.445,3.481.542,3.269,7.977,1.991,13.662-1.111,4.944-2.891,8.02-5.033,12.888a12.664,12.664,0,0,1-5.033-6.582" transform="translate(-397.908 -168.121)" fill="#fff"/>
            <path id="Trazado_875774" data-name="Trazado 875774" d="M505.421,273.962a3.448,3.448,0,0,0-.447-.332.611.611,0,0,0-.9.827,1.66,1.66,0,0,0,.319.481,6.627,6.627,0,0,0,.889.655,1.626,1.626,0,0,1,.345.362,18.094,18.094,0,0,1-4.061-1.975.964.964,0,0,0-.724-.277.905.905,0,0,0-.507.453q-.37.568-.713,1.153a1.318,1.318,0,0,0,.369,2.14,12.668,12.668,0,0,0,4.105,2.412c1.21.3,2.342.853,3.576,1.1a20.654,20.654,0,0,0,1.616-1.87,1.646,1.646,0,0,0-.349-.752,13.512,13.512,0,0,0-.53-1.689,13.766,13.766,0,0,0-2.995-2.686" transform="translate(-347.869 -190.561)" fill="#e9b0b7"/>
          </g>
        </g>
      </g>
    </g>
  </g>
</svg>
