<svg xmlns="http://www.w3.org/2000/svg" xmlns:xlink="http://www.w3.org/1999/xlink" width="353" height="209" viewBox="0 0 353 209">
  <defs>
    <clipPath id="clip-path">
      <rect id="Rectángulo_409151" data-name="Rectángulo 409151" width="242.167" height="192.991" fill="none"/>
    </clipPath>
    <clipPath id="clip-path-3">
      <rect id="Rectángulo_409125" data-name="Rectángulo 409125" width="75.734" height="2.117" fill="none"/>
    </clipPath>
    <clipPath id="clip-path-4">
      <rect id="Rectángulo_409130" data-name="Rectángulo 409130" width="75.734" height="2.118" fill="none"/>
    </clipPath>
    <clipPath id="clip-path-6">
      <rect id="Rectángulo_409136" data-name="Rectángulo 409136" width="39.352" height="32.525" fill="none"/>
    </clipPath>
    <clipPath id="clip-path-7">
      <rect id="Rectángulo_409137" data-name="Rectángulo 409137" width="33.066" height="24.52" fill="none"/>
    </clipPath>
    <clipPath id="clip-path-8">
      <rect id="Rectángulo_409138" data-name="Rectángulo 409138" width="18.102" height="21.467" fill="none"/>
    </clipPath>
    <clipPath id="clip-path-9">
      <rect id="Rectángulo_409139" data-name="Rectángulo 409139" width="4.316" height="28.88" fill="none"/>
    </clipPath>
    <clipPath id="clip-path-10">
      <rect id="Rectángulo_409140" data-name="Rectángulo 409140" width="33.28" height="20.624" fill="none"/>
    </clipPath>
    <clipPath id="clip-path-11">
      <rect id="Rectángulo_409141" data-name="Rectángulo 409141" width="3.865" height="3.761" fill="none"/>
    </clipPath>
    <clipPath id="clip-path-12">
      <rect id="Rectángulo_409142" data-name="Rectángulo 409142" width="11.614" height="11.106" fill="none"/>
    </clipPath>
    <clipPath id="clip-path-13">
      <rect id="Rectángulo_409143" data-name="Rectángulo 409143" width="5.767" height="33.886" fill="none"/>
    </clipPath>
    <clipPath id="clip-path-14">
      <rect id="Rectángulo_409144" data-name="Rectángulo 409144" width="12.89" height="20.91" fill="none"/>
    </clipPath>
    <clipPath id="clip-path-15">
      <rect id="Rectángulo_409145" data-name="Rectángulo 409145" width="24.815" height="29.671" fill="none"/>
    </clipPath>
    <clipPath id="clip-path-16">
      <rect id="Rectángulo_409146" data-name="Rectángulo 409146" width="13.259" height="15.645" fill="none"/>
    </clipPath>
    <clipPath id="clip-path-17">
      <rect id="Rectángulo_409147" data-name="Rectángulo 409147" width="29.165" height="31.699" fill="none"/>
    </clipPath>
    <clipPath id="clip-path-18">
      <rect id="Rectángulo_409148" data-name="Rectángulo 409148" width="21.263" height="21.739" fill="none"/>
    </clipPath>
    <clipPath id="clip-path-19">
      <rect id="Rectángulo_409149" data-name="Rectángulo 409149" width="23.209" height="19.39" fill="none"/>
    </clipPath>
  </defs>
  <g id="Grupo_1118898" data-name="Grupo 1118898" transform="translate(-915.289 -1358)">
    <rect id="Rectángulo_409117" data-name="Rectángulo 409117" width="353" height="209" transform="translate(915.289 1358)" fill="none"/>
    <g id="Grupo_1118953" data-name="Grupo 1118953" transform="translate(978.35 1361.566)">
      <g id="Grupo_1118952" data-name="Grupo 1118952" clip-path="url(#clip-path)">
        <g id="Grupo_1118951" data-name="Grupo 1118951">
          <g id="Grupo_1118950" data-name="Grupo 1118950" clip-path="url(#clip-path)">
            <path id="Trazado_875199" data-name="Trazado 875199" d="M228.911,121.651a19.71,19.71,0,0,1,2.806-12.757c3.817-6.559,10.486-9.659,12.189-17.136a40.694,40.694,0,0,0-.957-22.96c-4.28-11.734-16.436-21.137-29.239-20.02-8.885.775-16.56,6.123-25.005,8.906a44.977,44.977,0,0,1-38.6-5.345c-9.592-6.521-16.3-16.727-26.664-22.026-13.884-7.1-32.035-3.321-43.607,6.952A44.6,44.6,0,0,0,66.027,60.357c-1.186,5.116-1.435,10.417-2.856,15.477C59.191,90,46.834,100.2,35.525,109.981s-22.866,21.372-24.237,35.993c-.888,9.463,2.786,18.924,8.413,26.71a112.621,112.621,0,0,0,20.692,21.3H213.2c.024-3.045.081-6.228,1.559-8.916a14.776,14.776,0,0,1,3.815-4.232c3.8-3.06,8.567-4.217,12.393-6.952a30.089,30.089,0,0,0,8.607-9.785c4.966-8.975,2.442-19.737-2.849-28.145-2.656-4.222-6.235-8.056-7.5-12.844a14.486,14.486,0,0,1-.307-1.46" transform="translate(-2.934 -7.644)" fill="#ffe6fc"/>
            <path id="Trazado_875200" data-name="Trazado 875200" d="M234.471,258.668H6.437a1.54,1.54,0,1,0,0,3.079H234.471a1.54,1.54,0,1,0,0-3.079" transform="translate(-1.275 -74.146)" fill="#7b1fa2"/>
            <path id="Trazado_875201" data-name="Trazado 875201" d="M242.937,183.594s-17.353-51.958,28.05-81.285c22.787-11.46,35.609,2.375,29.891,16.586s-39.661,27.463-48.926,63.891c-1.13,4.849-7.219,8.242-9.015.808" transform="translate(-63.044 -28.109)" fill="#7b1fa2"/>
            <path id="Trazado_875202" data-name="Trazado 875202" d="M217.865,158.545S195.4,83.051,229.057,31.658c18.23-24.89,46.8.615,38.644,18.32S230.36,111.454,230.41,156.8c-.5,7.767-10.183,11.347-12.545,1.742" transform="translate(-55.374 -6.103)" fill="#d4e157"/>
            <path id="Trazado_875203" data-name="Trazado 875203" d="M296.672,117.819a38.023,38.023,0,0,1-12.825-2.739,59.289,59.289,0,0,1,5.88-4.111.453.453,0,0,0,.168-.632.488.488,0,0,0-.654-.163,61.385,61.385,0,0,0-6.48,4.571.462.462,0,0,0-.275.218c-1.15.916-2.406,1.964-3.739,3.147a38.431,38.431,0,0,1-2.989-10.884.5.5,0,0,0-.534-.4.467.467,0,0,0-.413.517,38.071,38.071,0,0,0,3.2,11.426c-1.1.994-2.236,2.076-3.4,3.246a.468.468,0,0,0-.255.166.452.452,0,0,0-.078.171c-1.145,1.158-2.315,2.4-3.495,3.725a38.587,38.587,0,0,1-4.218-10.247.479.479,0,0,0-.569-.352.462.462,0,0,0-.363.551,38.933,38.933,0,0,0,4.495,10.8c-1.631,1.874-3.274,3.907-4.887,6.107a.458.458,0,0,0-.215.16.442.442,0,0,0-.072.236q-1.3,1.789-2.562,3.717c-1.175-1.249-4.961-5.538-6.268-10.252a.477.477,0,0,0-.585-.327.463.463,0,0,0-.337.566c1.455,5.245,5.7,9.829,6.667,10.829-1.288,2.02-2.537,4.151-3.72,6.4a.448.448,0,0,0-.172.2.439.439,0,0,0-.032.2q-.685,1.318-1.339,2.688c-1.292-1.1-5.231-4.682-6.748-8.6a.48.48,0,0,0-.615-.27.458.458,0,0,0-.279.594c1.711,4.413,6.167,8.274,7.23,9.152-1.008,2.176-1.951,4.448-2.811,6.818a.457.457,0,0,0-.123.225.468.468,0,0,0,0,.111q-1.048,2.925-1.919,6.046c-1.269-.631-4.7-2.486-6.172-4.775a.488.488,0,0,0-.657-.149.455.455,0,0,0-.153.636c1.7,2.639,5.573,4.644,6.734,5.2-.674,2.538-1.249,5.171-1.708,7.9a.459.459,0,0,0-.018.119q-.316,1.9-.557,3.862l-4.471-3.911a.493.493,0,0,0-.674.034.453.453,0,0,0,.035.653l4.986,4.362c-.279,2.577-.461,5.228-.52,7.965a.469.469,0,0,0,.467.472l.055,0a.468.468,0,0,0,.433-.45,90.014,90.014,0,0,1,1.149-12.571l5.364-.944a.463.463,0,0,0,.383-.537.483.483,0,0,0-.554-.372l-5.031.885a85.382,85.382,0,0,1,3.663-13.933,50.989,50.989,0,0,0,9.486.536h.018a.468.468,0,0,0,.433-.484.473.473,0,0,0-.5-.437,49.859,49.859,0,0,1-9.118-.5,85.655,85.655,0,0,1,4.3-9.748,33.982,33.982,0,0,0,10.357,2.174l.044,0a.461.461,0,0,0-.046-.922,33.288,33.288,0,0,1-9.92-2.08,89.106,89.106,0,0,1,6.473-10.39c1.586.952,7.029,3.963,12.566,4l.047,0a.462.462,0,0,0-.042-.922c-5.179-.031-10.448-2.9-12.018-3.831a94.005,94.005,0,0,1,8.7-10.171,26.356,26.356,0,0,0,14.013,4.064h.029a.462.462,0,1,0-.059-.922c-6.223.188-11.657-2.812-13.3-3.822a92.463,92.463,0,0,1,7.472-6.671,38.515,38.515,0,0,0,13.648,3,.429.429,0,0,0,.052,0,.461.461,0,0,0-.038-.922" transform="translate(-64.058 -30.622)" fill="#fff"/>
            <path id="Trazado_875204" data-name="Trazado 875204" d="M237.664,113.417a18.7,18.7,0,0,1-11.113,1.472c.854-6.118,1.983-12.011,3.289-17.6.5.078,1.246.175,2.2.232a27.924,27.924,0,0,0,11.517-1.726.63.63,0,0,0,.371-.825.663.663,0,0,0-.852-.359,26.848,26.848,0,0,1-12.933,1.431c1.851-7.713,4.019-14.832,6.221-21.153a38.435,38.435,0,0,0,5.6.728,43.643,43.643,0,0,0,11.66-.847.636.636,0,0,0,.5-.758.651.651,0,0,0-.783-.484,42.568,42.568,0,0,1-16.549.146c2.552-7.193,5.122-13.3,7.269-18.005.523.073,1.394.175,2.526.244a36.243,36.243,0,0,0,16.2-2.579.626.626,0,0,0,.331-.84.664.664,0,0,0-.868-.32c-7.247,3.148-15.074,2.577-17.627,2.278,2.75-5.919,4.684-9.321,4.762-9.454a.628.628,0,0,0-.252-.867.673.673,0,0,0-.9.245c-.081.14-2.172,3.816-5.1,10.187a.619.619,0,0,0-.145.284c0,.011,0,.021,0,.031-.934,2.04-1.95,4.346-3.013,6.9-1.852-.811-8.054-3.859-11.653-9.714a.673.673,0,0,0-.9-.221.626.626,0,0,0-.228.872c3.853,6.268,10.348,9.415,12.293,10.249-1.326,3.234-2.711,6.826-4.088,10.735a.636.636,0,0,0-.158.263.606.606,0,0,0-.015.229c-1,2.863-2,5.892-2.96,9.065A41.445,41.445,0,0,1,221.231,74.5a.673.673,0,0,0-.926-.073.622.622,0,0,0-.076.9A42.052,42.052,0,0,0,231.885,84.5c-1.1,3.7-2.153,7.594-3.117,11.648a.639.639,0,0,0-.127.249.607.607,0,0,0,0,.272c-.746,3.17-1.437,6.436-2.054,9.787a43.7,43.7,0,0,1-9.153-6.3.674.674,0,0,0-.929.019.621.621,0,0,0,.021.9,44.586,44.586,0,0,0,9.826,6.7,184.161,184.161,0,0,0-2.382,19.035,43.744,43.744,0,0,1-6.986-3.664.674.674,0,0,0-.923.108.622.622,0,0,0,.112.893,47.305,47.305,0,0,0,7.709,4.019q-.326,5.158-.33,10.452a.6.6,0,0,0-.014.206.378.378,0,0,0,.014.041q.009,4.795.321,9.672a11.356,11.356,0,0,1-4.26-1.892.679.679,0,0,0-.929.044.623.623,0,0,0,.045.9,13.348,13.348,0,0,0,5.239,2.286c.228,3.056.548,6.129.98,9.215a.647.647,0,0,0,.609.55.658.658,0,0,0,.13,0,.64.64,0,0,0,.564-.715,146.466,146.466,0,0,1-1.385-19.637,27.958,27.958,0,0,0,6.041-1.6.629.629,0,0,0,.334-.84.669.669,0,0,0-.868-.322,26.349,26.349,0,0,1-5.507,1.475,170.591,170.591,0,0,1,1.512-21.838,15.781,15.781,0,0,0,2.132.264,20.217,20.217,0,0,0,9.727-1.857.626.626,0,0,0,.305-.849.663.663,0,0,0-.877-.3" transform="translate(-56.795 -12.626)" fill="#fff"/>
            <path id="Trazado_875205" data-name="Trazado 875205" d="M241.642,101.85s9.569-21.423,12.622-29.377c-2.044-2.176-8.894-2-14.019,2.535S236.5,71.12,227.5,71.12s-8.6,5.516-11.224,5.516S204.8,71.12,200.866,71.12c2.5,7.5,12.918,30.73,12.918,30.73Z" transform="translate(-52.835 -20.386)" fill="#bfc9ff"/>
            <path id="Trazado_875206" data-name="Trazado 875206" d="M257.095,72.389c-2.553,4.242-13.432,21.987-16.736,21.987H213.686c1.984,4.526,3.47,7.838,3.47,7.838h27.858s9.569-21.423,12.623-29.377a3.07,3.07,0,0,0-.542-.447" transform="translate(-56.207 -20.75)" fill="#b0c0d2"/>
            <path id="Trazado_875207" data-name="Trazado 875207" d="M271.272,174.639c-1.4-34.945-38.932-60.442-38.932-60.442H204.482s-37.532,25.5-38.932,60.442,30.16,44.156,52.861,44.156,54.261-9.211,52.861-44.156" transform="translate(-43.534 -32.734)" fill="#bfc9ff"/>
            <path id="Trazado_875208" data-name="Trazado 875208" d="M246.368,109.943H214.877a3.054,3.054,0,0,0,0,6.07h31.491a3.053,3.053,0,0,0,0-6.07" transform="translate(-55.806 -31.515)" fill="#7b1fa2"/>
            <path id="Trazado_875209" data-name="Trazado 875209" d="M200.851,145.909a2.811,2.811,0,0,1-2.809-2.375,2.766,2.766,0,0,1,2.427-3.1c5.851-.778,9.818-6.788,10.106-15.312.15-4.462,1.232-9.769,5.15-12.633a5.57,5.57,0,0,1,3.5-1.344c2.153.151,2.528,2.54,1.935,4.169a2.519,2.519,0,0,1-1.378,1.515,3.369,3.369,0,0,0-2.089,1.867,15.141,15.141,0,0,0-1.444,6.606c-.384,11.339-6.275,19.417-15.009,20.577a3.007,3.007,0,0,1-.39.026" transform="translate(-52.085 -31.858)" fill="#7b1fa2"/>
            <path id="Trazado_875210" data-name="Trazado 875210" d="M187.817,139.734a2.814,2.814,0,0,1-2.8-2.317,2.761,2.761,0,0,1,2.358-3.146c6.16-.949,8.617-5.812,11.462-11.443.425-.842.851-1.686,1.292-2.519,4.107-7.77,12.6-9.532,12.959-9.6a2.837,2.837,0,0,1,3.351,2.141,2.751,2.751,0,0,1-2.2,3.241c-.119.026-6.229,1.378-9.055,6.725-.424.8-.835,1.617-1.245,2.43-3.093,6.121-6.6,13.059-15.672,14.457a3.011,3.011,0,0,1-.45.034" transform="translate(-48.656 -31.717)" fill="#7b1fa2"/>
            <path id="Trazado_875211" data-name="Trazado 875211" d="M261.88,155.564c-5.563,17.792-27.013,66.48-91.995,49.895,8.447,19.481,31.806,25.194,49.678,25.194,22.7,0,54.26-9.211,52.862-44.156-.462-11.533-4.86-22.035-10.545-30.933" transform="translate(-44.686 -44.592)" fill="#b0c0d2"/>
            <path id="Trazado_875212" data-name="Trazado 875212" d="M227.449,205.207a41.915,41.915,0,0,1-14.476-3.254V190.928a50.43,50.43,0,0,0,8.645,3.271,30.837,30.837,0,0,0,8.2,1.311,10.034,10.034,0,0,0,4.271-.681,2.352,2.352,0,0,0,1.355-2.275,2.288,2.288,0,0,0-.978-1.859,15.248,15.248,0,0,0-3.259-1.727q-2.282-.963-6.157-2.324a28.247,28.247,0,0,1-7.033-3.5,12.346,12.346,0,0,1-3.893-4.35A13.209,13.209,0,0,1,212.9,172.8a10.635,10.635,0,0,1,3.636-8.567q3.636-3.088,10.909-3.819v-4.549h7.1v4.483a41.347,41.347,0,0,1,13.756,3.254l-4.082,9.463a32.867,32.867,0,0,0-12.933-3.122,8.242,8.242,0,0,0-3.859.648,2.079,2.079,0,0,0-1.115,1.909,2.313,2.313,0,0,0,.806,1.81,11.427,11.427,0,0,0,2.8,1.594q1.99.88,5.524,2.042,7.169,2.458,10.291,5.6a10.973,10.973,0,0,1,3.122,8.085,11.964,11.964,0,0,1-3.654,9.065q-3.652,3.487-10.651,4.317v6.408h-7.1Z" transform="translate(-56.001 -44.678)" fill="#4a4f1e"/>
            <path id="Trazado_875213" data-name="Trazado 875213" d="M144.394,72.7c0,10.842-9.079,19.63-20.28,19.63s-20.28-8.789-20.28-19.63,9.08-19.63,20.28-19.63,20.28,8.789,20.28,19.63" transform="translate(-27.312 -15.212)" fill="#ffea00"/>
            <path id="Trazado_875214" data-name="Trazado 875214" d="M141.779,74.279a16.223,16.223,0,1,1-16.214-15.694,15.96,15.96,0,0,1,16.214,15.694" transform="translate(-28.763 -16.793)" fill="#f8b500"/>
            <path id="Trazado_875215" data-name="Trazado 875215" d="M127.614,84.537a15.914,15.914,0,0,1-5.5-1.236V79.116a19.125,19.125,0,0,0,3.282,1.241,11.686,11.686,0,0,0,3.112.5,3.8,3.8,0,0,0,1.622-.259.893.893,0,0,0,.514-.863.869.869,0,0,0-.371-.706,5.805,5.805,0,0,0-1.237-.656q-.866-.366-2.338-.882a10.7,10.7,0,0,1-2.67-1.33,4.685,4.685,0,0,1-1.478-1.651,5.014,5.014,0,0,1-.462-2.276,4.036,4.036,0,0,1,1.38-3.252,7.467,7.467,0,0,1,4.142-1.45V65.8h2.7v1.7a15.692,15.692,0,0,1,5.223,1.236l-1.55,3.593a12.471,12.471,0,0,0-4.91-1.186,3.127,3.127,0,0,0-1.465.246.79.79,0,0,0-.423.725.877.877,0,0,0,.306.687,4.343,4.343,0,0,0,1.061.606q.756.334,2.1.775a10.222,10.222,0,0,1,3.907,2.124,4.168,4.168,0,0,1,1.185,3.07,4.541,4.541,0,0,1-1.387,3.441,6.866,6.866,0,0,1-4.044,1.639v2.433h-2.7Z" transform="translate(-32.114 -18.862)" fill="#ffea00"/>
            <path id="Trazado_875216" data-name="Trazado 875216" d="M131.913,55.589a.873.873,0,1,1-.873-.845.859.859,0,0,1,.873.845" transform="translate(-34.239 -15.692)" fill="#f8b500"/>
            <path id="Trazado_875217" data-name="Trazado 875217" d="M149.093,63.409a.894.894,0,0,1-1.234,0,.827.827,0,0,1,0-1.195.894.894,0,0,1,1.234,0,.827.827,0,0,1,0,1.195" transform="translate(-38.825 -17.762)" fill="#f8b500"/>
            <path id="Trazado_875218" data-name="Trazado 875218" d="M155.7,81.091a.845.845,0,1,1,.873-.845.858.858,0,0,1-.873.845" transform="translate(-40.725 -22.76)" fill="#f8b500"/>
            <path id="Trazado_875219" data-name="Trazado 875219" d="M147.859,98.28a.827.827,0,0,1,0-1.195.894.894,0,0,1,1.234,0,.827.827,0,0,1,0,1.195.893.893,0,0,1-1.234,0" transform="translate(-38.825 -27.758)" fill="#f8b500"/>
            <path id="Trazado_875220" data-name="Trazado 875220" d="M130.168,104.9a.873.873,0,1,1,.873.845.859.859,0,0,1-.873-.845" transform="translate(-34.239 -29.828)" fill="#f8b500"/>
            <path id="Trazado_875221" data-name="Trazado 875221" d="M112.988,97.085a.894.894,0,0,1,1.234,0,.827.827,0,0,1,0,1.195.894.894,0,0,1-1.234,0,.825.825,0,0,1,0-1.195" transform="translate(-29.652 -27.758)" fill="#f8b500"/>
            <path id="Trazado_875222" data-name="Trazado 875222" d="M106.383,79.4a.845.845,0,1,1-.873.845.859.859,0,0,1,.873-.845" transform="translate(-27.753 -22.76)" fill="#f8b500"/>
            <path id="Trazado_875223" data-name="Trazado 875223" d="M114.222,62.214a.825.825,0,0,1,0,1.195.894.894,0,0,1-1.234,0,.827.827,0,0,1,0-1.195.894.894,0,0,1,1.234,0" transform="translate(-29.653 -17.762)" fill="#f8b500"/>
            <path id="Trazado_875224" data-name="Trazado 875224" d="M189.585,33.362a15.6,15.6,0,0,1-31.174,0,15.6,15.6,0,0,1,31.174,0" transform="translate(-41.668 -5.238)" fill="#ffea00"/>
            <path id="Trazado_875225" data-name="Trazado 875225" d="M187.575,34.578a12.469,12.469,0,0,1-24.925,0,12.469,12.469,0,0,1,24.925,0" transform="translate(-42.783 -6.454)" fill="#f8b500"/>
            <path id="Trazado_875226" data-name="Trazado 875226" d="M176.688,42.462a12.218,12.218,0,0,1-4.224-.949V38.3a14.73,14.73,0,0,0,2.523.954,8.986,8.986,0,0,0,2.392.383,2.919,2.919,0,0,0,1.246-.2.686.686,0,0,0,.4-.663.668.668,0,0,0-.285-.543,4.436,4.436,0,0,0-.951-.5q-.665-.281-1.8-.678a8.274,8.274,0,0,1-2.052-1.022,3.6,3.6,0,0,1-1.136-1.27A3.847,3.847,0,0,1,172.444,33a3.1,3.1,0,0,1,1.06-2.5,5.742,5.742,0,0,1,3.184-1.114V28.063h2.072v1.308a12.074,12.074,0,0,1,4.014.95l-1.192,2.761a9.59,9.59,0,0,0-3.774-.911,2.4,2.4,0,0,0-1.126.189.607.607,0,0,0-.325.557.673.673,0,0,0,.235.528,3.311,3.311,0,0,0,.816.465q.58.257,1.612.6a7.848,7.848,0,0,1,3,1.633,3.2,3.2,0,0,1,.911,2.359,3.493,3.493,0,0,1-1.066,2.646,5.283,5.283,0,0,1-3.109,1.26v1.87h-2.072Z" transform="translate(-45.359 -8.044)" fill="#ffea00"/>
            <path id="Trazado_875227" data-name="Trazado 875227" d="M179.992,20.212a.671.671,0,1,1-.671-.649.66.66,0,0,1,.671.649" transform="translate(-46.991 -5.608)" fill="#f8b500"/>
            <path id="Trazado_875228" data-name="Trazado 875228" d="M193.2,26.223a.687.687,0,0,1-.948,0,.634.634,0,0,1,0-.918.686.686,0,0,1,.948,0,.635.635,0,0,1,0,.918" transform="translate(-50.516 -7.199)" fill="#f8b500"/>
            <path id="Trazado_875229" data-name="Trazado 875229" d="M198.274,39.813a.649.649,0,1,1,.671-.649.66.66,0,0,1-.671.649" transform="translate(-51.977 -11.04)" fill="#f8b500"/>
            <path id="Trazado_875230" data-name="Trazado 875230" d="M192.249,53.025a.635.635,0,0,1,0-.918.686.686,0,0,1,.948,0,.634.634,0,0,1,0,.918.687.687,0,0,1-.948,0" transform="translate(-50.517 -14.882)" fill="#f8b500"/>
            <path id="Trazado_875231" data-name="Trazado 875231" d="M178.651,58.116a.671.671,0,1,1,.671.649.66.66,0,0,1-.671-.649" transform="translate(-46.991 -16.473)" fill="#f8b500"/>
            <path id="Trazado_875232" data-name="Trazado 875232" d="M165.446,52.107a.687.687,0,0,1,.948,0,.634.634,0,0,1,0,.918.686.686,0,0,1-.948,0,.635.635,0,0,1,0-.918" transform="translate(-43.466 -14.882)" fill="#f8b500"/>
            <path id="Trazado_875233" data-name="Trazado 875233" d="M160.37,38.515a.649.649,0,1,1-.671.649.66.66,0,0,1,.671-.649" transform="translate(-42.006 -11.04)" fill="#f8b500"/>
            <path id="Trazado_875234" data-name="Trazado 875234" d="M166.394,25.3a.635.635,0,0,1,0,.918.686.686,0,0,1-.948,0,.634.634,0,0,1,0-.918.687.687,0,0,1,.948,0" transform="translate(-43.466 -7.199)" fill="#f8b500"/>
            <path id="Trazado_875235" data-name="Trazado 875235" d="M64.138,240.073s-3.515-41.4-44.261-49.141C.411,189.335-4.413,202.68,3.9,211.042s36.153,8.057,53.667,31.016c2.259,3.085,7.56,3.744,6.575-1.985" transform="translate(0 -54.692)" fill="#7b1fa2"/>
            <path id="Trazado_875236" data-name="Trazado 875236" d="M83.14,218.4s2.263-53.826-28.8-82.75c-16.33-13.7-31.066,7.786-22.657,18.295S66.894,189,74.491,219.216c1.641,5.094,8.692,5.952,8.649-.818" transform="translate(-7.691 -37.612)" fill="#7b1fa2"/>
            <path id="Trazado_875237" data-name="Trazado 875237" d="M8.713,208.024a28.14,28.14,0,0,0,8.179-5.554,46.118,46.118,0,0,0-5.371-1.222.354.354,0,0,1-.31-.4.363.363,0,0,1,.41-.3,48.185,48.185,0,0,1,5.932,1.375.366.366,0,0,1,.259.076c1.085.317,2.284.7,3.577,1.151a29.078,29.078,0,0,0-1.189-8.489.362.362,0,0,1,.7-.185,28.741,28.741,0,0,1,1.206,8.93c1.07.388,2.2.825,3.372,1.315a.367.367,0,0,1,.229.045.343.343,0,0,1,.106.1q1.732.733,3.58,1.627a28.914,28.914,0,0,0-.134-8.391.353.353,0,0,1,.293-.408.362.362,0,0,1,.421.284,29.17,29.17,0,0,1,.106,8.854c1.712.855,3.479,1.818,5.277,2.906a.36.36,0,0,1,.2.052.344.344,0,0,1,.122.146q1.451.889,2.922,1.885a20.574,20.574,0,0,0,1.3-8.974.353.353,0,0,1,.312-.4.362.362,0,0,1,.408.3c.564,4.1-1.03,8.516-1.409,9.493,1.515,1.054,3.036,2.2,4.546,3.441a.328.328,0,0,1,.263.218q.879.732,1.752,1.509c.575-1.14,2.259-4.77,2.141-7.947a.363.363,0,0,1,.726-.025c.133,3.582-1.831,7.557-2.312,8.473q2.048,1.864,4.035,3.992a.358.358,0,0,1,.154.123.326.326,0,0,1,.032.079q1.621,1.758,3.176,3.7c.7-.8,2.548-3.076,2.891-5.1a.363.363,0,0,1,.416-.29.353.353,0,0,1,.3.4c-.394,2.334-2.51,4.839-3.157,5.561q1.86,2.387,3.588,5.067a.317.317,0,0,1,.049.078q.8,1.246,1.559,2.555l1.958-4.013a.371.371,0,0,1,.483-.168.347.347,0,0,1,.173.468l-2.184,4.475c.975,1.731,1.9,3.541,2.772,5.446a.348.348,0,0,1-.185.464l-.04.014a.366.366,0,0,1-.439-.194,69.934,69.934,0,0,0-4.606-8.5l-4.052.855a.362.362,0,0,1-.431-.268.356.356,0,0,1,.277-.418l3.8-.8a66.926,66.926,0,0,0-6.782-8.747,38.134,38.134,0,0,1-6.5,3.062l-.014,0a.366.366,0,0,1-.45-.218.349.349,0,0,1,.221-.449,37.231,37.231,0,0,0,6.252-2.933,67.527,67.527,0,0,0-5.964-5.628,25.16,25.16,0,0,1-6.616,4.459l-.032.011a.367.367,0,0,1-.443-.2.348.348,0,0,1,.2-.459,24.637,24.637,0,0,0,6.338-4.269,70.241,70.241,0,0,0-7.685-5.464c-.826,1.117-3.739,4.772-7.617,6.364l-.034.012a.368.368,0,0,1-.442-.2.348.348,0,0,1,.193-.461c3.627-1.488,6.46-5,7.282-6.093a74.09,74.09,0,0,0-9.18-4.681,19.44,19.44,0,0,1-8.613,6.821l-.021.007a.366.366,0,0,1-.447-.21.348.348,0,0,1,.211-.453,18.937,18.937,0,0,0,8.188-6.452A72.736,72.736,0,0,0,17.68,202.7,28.5,28.5,0,0,1,9,208.668a.267.267,0,0,1-.038.014.366.366,0,0,1-.44-.2.347.347,0,0,1,.188-.462" transform="translate(-2.234 -55.673)" fill="#fff"/>
            <path id="Trazado_875238" data-name="Trazado 875238" d="M64.265,191.4a12.81,12.81,0,0,0,7.649-.772c-1.6-3.94-3.341-7.688-5.151-11.205-.321.132-.8.312-1.424.5a19.174,19.174,0,0,1-7.961.666.44.44,0,0,1-.387-.492.449.449,0,0,1,.508-.374,18.384,18.384,0,0,0,8.855-1.085c-2.531-4.846-5.173-9.246-7.7-13.109a26.118,26.118,0,0,1-3.607,1.367,29.818,29.818,0,0,1-7.909,1.274.443.443,0,0,1-.461-.426.438.438,0,0,1,.44-.446,29.02,29.02,0,0,0,11.047-2.512c-2.91-4.389-5.649-8.052-7.872-10.847-.336.131-.9.337-1.643.561a24.891,24.891,0,0,1-11.223.835.436.436,0,0,1-.362-.508.449.449,0,0,1,.524-.35,24.831,24.831,0,0,0,12.125-1.262c-2.827-3.509-4.689-5.469-4.762-5.546a.427.427,0,0,1,.022-.617.463.463,0,0,1,.637.021c.078.081,2.089,2.2,5.114,5.981a.43.43,0,0,1,.144.167c0,.006,0,.014.005.021.965,1.211,2.03,2.588,3.167,4.12a18.089,18.089,0,0,0,6.127-8.307.454.454,0,0,1,.563-.29.435.435,0,0,1,.3.545,18.765,18.765,0,0,1-6.465,8.764c1.428,1.945,2.954,4.12,4.529,6.506a.429.429,0,0,1,.149.151.422.422,0,0,1,.049.15c1.148,1.748,2.321,3.61,3.5,5.571a27.781,27.781,0,0,0,5.874-7.568.458.458,0,0,1,.605-.2.43.43,0,0,1,.2.586,28.177,28.177,0,0,1-6.218,7.953c1.355,2.292,2.711,4.719,4.036,7.267a.444.444,0,0,1,.125.146.426.426,0,0,1,.046.182q1.545,2.991,3.014,6.195a29.214,29.214,0,0,0,5.036-5.638.46.46,0,0,1,.622-.133.426.426,0,0,1,.137.6,29.884,29.884,0,0,1-5.417,6.011,127.314,127.314,0,0,1,4.789,12.3,29.35,29.35,0,0,0,4.038-3.542.461.461,0,0,1,.632-.073.426.426,0,0,1,.076.612,31.734,31.734,0,0,1-4.459,3.893q1.087,3.383,1.979,6.91a.441.441,0,0,1,.045.136c0,.01,0,.019,0,.029q.8,3.2,1.413,6.493a7.651,7.651,0,0,0,2.519-1.932.463.463,0,0,1,.626-.118.428.428,0,0,1,.122.606,8.964,8.964,0,0,1-3.106,2.348c.363,2.072.668,4.169.9,6.292a.435.435,0,0,1-.312.462.466.466,0,0,1-.088.018.446.446,0,0,1-.5-.388,100.646,100.646,0,0,0-2.381-13.3,19.317,19.317,0,0,1-4.294-.116.437.437,0,0,1-.363-.507.452.452,0,0,1,.523-.352,18.165,18.165,0,0,0,3.916.114,117.987,117.987,0,0,0-4.681-14.307,10.707,10.707,0,0,1-1.375.511,13.89,13.89,0,0,1-6.791.3.435.435,0,0,1-.346-.517.448.448,0,0,1,.534-.335" transform="translate(-9.747 -42.119)" fill="#fff"/>
            <rect id="Rectángulo_409118" data-name="Rectángulo 409118" width="75.734" height="22.849" transform="translate(67.953 94.483)" fill="#d4e157"/>
            <path id="Trazado_875239" data-name="Trazado 875239" d="M171.787,137.768H141.864a.455.455,0,1,1,0-.91h29.922a.455.455,0,1,1,0,.91" transform="translate(-37.192 -39.23)" fill="#2c8c5e"/>
            <path id="Trazado_875240" data-name="Trazado 875240" d="M105.041,148.736H95.63a.455.455,0,1,1,0-.91h9.411a.455.455,0,1,1,0,.91" transform="translate(-25.031 -42.374)" fill="#2c8c5e"/>
            <path id="Trazado_875241" data-name="Trazado 875241" d="M136.612,148.736H115.751a.455.455,0,1,1,0-.91h20.861a.455.455,0,1,1,0,.91" transform="translate(-30.323 -42.374)" fill="#2c8c5e"/>
            <path id="Trazado_875242" data-name="Trazado 875242" d="M178.008,160.452H165.517a.455.455,0,1,1,0-.91h12.491a.455.455,0,1,1,0,.91" transform="translate(-43.413 -45.732)" fill="#2c8c5e"/>
            <path id="Trazado_875243" data-name="Trazado 875243" d="M114.622,160.452h-9.567a.455.455,0,1,1,0-.91h9.567a.455.455,0,1,1,0,.91" transform="translate(-27.51 -45.732)" fill="#2c8c5e"/>
            <path id="Trazado_875244" data-name="Trazado 875244" d="M109.726,137.768H98.563a.455.455,0,1,1,0-.91h11.163a.455.455,0,1,1,0,.91" transform="translate(-25.802 -39.23)" fill="#2c8c5e"/>
            <path id="Trazado_875245" data-name="Trazado 875245" d="M187.955,148.736h-9.178a.455.455,0,1,1,0-.91h9.178a.455.455,0,1,1,0,.91" transform="translate(-46.901 -42.374)" fill="#2c8c5e"/>
            <rect id="Rectángulo_409119" data-name="Rectángulo 409119" width="24.074" height="22.849" transform="translate(93.783 94.483)" fill="#ffea00"/>
            <rect id="Rectángulo_409120" data-name="Rectángulo 409120" width="19.158" height="22.849" transform="translate(96.242 94.483)" fill="#7b1fa2"/>
            <rect id="Rectángulo_409121" data-name="Rectángulo 409121" width="75.734" height="22.849" transform="translate(70.972 117.332)" fill="#d4e157"/>
            <path id="Trazado_875246" data-name="Trazado 875246" d="M108.473,169.8H138.4a.455.455,0,1,0,0-.91H108.473a.455.455,0,1,0,0,.91" transform="translate(-28.409 -48.411)" fill="#2c8c5e"/>
            <path id="Trazado_875247" data-name="Trazado 875247" d="M182.539,180.766h9.411a.455.455,0,1,0,0-.91h-9.411a.455.455,0,1,0,0,.91" transform="translate(-47.891 -51.555)" fill="#2c8c5e"/>
            <path id="Trazado_875248" data-name="Trazado 875248" d="M146.882,180.766h20.861a.455.455,0,1,0,0-.91H146.882a.455.455,0,1,0,0,.91" transform="translate(-38.511 -51.555)" fill="#2c8c5e"/>
            <path id="Trazado_875249" data-name="Trazado 875249" d="M108.473,192.481h12.491a.455.455,0,1,0,0-.91H108.473a.455.455,0,1,0,0,.91" transform="translate(-28.409 -54.913)" fill="#2c8c5e"/>
            <path id="Trazado_875250" data-name="Trazado 875250" d="M172.9,192.481h9.567a.455.455,0,1,0,0-.91H172.9a.455.455,0,1,0,0,.91" transform="translate(-45.356 -54.913)" fill="#2c8c5e"/>
            <path id="Trazado_875251" data-name="Trazado 875251" d="M177.229,169.8h11.163a.455.455,0,1,0,0-.91H177.229a.455.455,0,1,0,0,.91" transform="translate(-46.494 -48.411)" fill="#2c8c5e"/>
            <path id="Trazado_875252" data-name="Trazado 875252" d="M99.708,180.766h9.178a.455.455,0,1,0,0-.91H99.708a.455.455,0,1,0,0,.91" transform="translate(-26.103 -51.555)" fill="#2c8c5e"/>
            <path id="Trazado_875253" data-name="Trazado 875253" d="M116.6,180.766h5.89a.455.455,0,1,0,0-.91H116.6a.455.455,0,1,0,0,.91" transform="translate(-30.546 -51.555)" fill="#2c8c5e"/>
            <rect id="Rectángulo_409122" data-name="Rectángulo 409122" width="24.074" height="22.849" transform="translate(96.802 117.332)" fill="#ffea00"/>
            <rect id="Rectángulo_409123" data-name="Rectángulo 409123" width="19.158" height="22.849" transform="translate(99.26 117.332)" fill="#7b1fa2"/>
            <g id="Grupo_1118901" data-name="Grupo 1118901" transform="translate(70.972 117.332)" opacity="0.5" style="mix-blend-mode: multiply;isolation: isolate">
              <g id="Grupo_1118900" data-name="Grupo 1118900">
                <g id="Grupo_1118899" data-name="Grupo 1118899" clip-path="url(#clip-path-3)">
                  <rect id="Rectángulo_409124" data-name="Rectángulo 409124" width="75.734" height="2.117" transform="translate(0 0)" fill="#53a581"/>
                </g>
              </g>
            </g>
            <rect id="Rectángulo_409126" data-name="Rectángulo 409126" width="75.734" height="22.849" transform="translate(63.01 140.2)" fill="#d4e157"/>
            <path id="Trazado_875254" data-name="Trazado 875254" d="M97.67,201.855h29.922a.455.455,0,1,0,0-.91H97.67a.455.455,0,1,0,0,.91" transform="translate(-25.567 -57.6)" fill="#2c8c5e"/>
            <path id="Trazado_875255" data-name="Trazado 875255" d="M171.736,212.823h9.411a.455.455,0,1,0,0-.91h-9.411a.455.455,0,1,0,0,.91" transform="translate(-45.049 -60.744)" fill="#2c8c5e"/>
            <path id="Trazado_875256" data-name="Trazado 875256" d="M136.079,212.823H156.94a.455.455,0,1,0,0-.91H136.079a.455.455,0,1,0,0,.91" transform="translate(-35.67 -60.744)" fill="#2c8c5e"/>
            <path id="Trazado_875257" data-name="Trazado 875257" d="M97.67,224.539h12.491a.455.455,0,1,0,0-.91H97.67a.455.455,0,1,0,0,.91" transform="translate(-25.567 -64.102)" fill="#2c8c5e"/>
            <path id="Trazado_875258" data-name="Trazado 875258" d="M162.1,224.539h9.567a.455.455,0,1,0,0-.91H162.1a.455.455,0,1,0,0,.91" transform="translate(-42.514 -64.102)" fill="#2c8c5e"/>
            <path id="Trazado_875259" data-name="Trazado 875259" d="M158.228,201.855h5.525a.455.455,0,1,0,0-.91h-5.525a.455.455,0,1,0,0,.91" transform="translate(-41.496 -57.6)" fill="#2c8c5e"/>
            <path id="Trazado_875260" data-name="Trazado 875260" d="M171.691,201.855h5.524a.455.455,0,1,0,0-.91h-5.524a.455.455,0,1,0,0,.91" transform="translate(-45.037 -57.6)" fill="#2c8c5e"/>
            <path id="Trazado_875261" data-name="Trazado 875261" d="M107.44,212.823h5.525a.455.455,0,1,0,0-.91H107.44a.455.455,0,1,0,0,.91" transform="translate(-28.137 -60.744)" fill="#2c8c5e"/>
            <path id="Trazado_875262" data-name="Trazado 875262" d="M88.905,212.823h9.178a.455.455,0,1,0,0-.91H88.905a.455.455,0,1,0,0,.91" transform="translate(-23.262 -60.744)" fill="#2c8c5e"/>
            <rect id="Rectángulo_409127" data-name="Rectángulo 409127" width="24.074" height="22.849" transform="translate(88.84 140.2)" fill="#ffea00"/>
            <rect id="Rectángulo_409128" data-name="Rectángulo 409128" width="19.158" height="22.849" transform="translate(91.298 140.2)" fill="#7b1fa2"/>
            <g id="Grupo_1118904" data-name="Grupo 1118904" transform="translate(63.01 140.2)" opacity="0.5" style="mix-blend-mode: multiply;isolation: isolate">
              <g id="Grupo_1118903" data-name="Grupo 1118903">
                <g id="Grupo_1118902" data-name="Grupo 1118902" clip-path="url(#clip-path-4)">
                  <rect id="Rectángulo_409129" data-name="Rectángulo 409129" width="75.734" height="2.117" transform="translate(0 0)" fill="#53a581"/>
                </g>
              </g>
            </g>
            <rect id="Rectángulo_409131" data-name="Rectángulo 409131" width="75.734" height="22.849" transform="translate(67.953 163.053)" fill="#d4e157"/>
            <path id="Trazado_875263" data-name="Trazado 875263" d="M171.787,233.891H141.864a.455.455,0,1,1,0-.91h29.922a.455.455,0,1,1,0,.91" transform="translate(-37.192 -66.783)" fill="#2c8c5e"/>
            <path id="Trazado_875264" data-name="Trazado 875264" d="M105.041,244.859H95.63a.455.455,0,1,1,0-.91h9.411a.455.455,0,1,1,0,.91" transform="translate(-25.031 -69.927)" fill="#2c8c5e"/>
            <path id="Trazado_875265" data-name="Trazado 875265" d="M136.612,244.859H115.751a.455.455,0,1,1,0-.91h20.861a.455.455,0,1,1,0,.91" transform="translate(-30.323 -69.927)" fill="#2c8c5e"/>
            <path id="Trazado_875266" data-name="Trazado 875266" d="M178.008,256.576H165.517a.455.455,0,1,1,0-.91h12.491a.455.455,0,1,1,0,.91" transform="translate(-43.413 -73.286)" fill="#2c8c5e"/>
            <path id="Trazado_875267" data-name="Trazado 875267" d="M114.622,256.576h-9.567a.455.455,0,1,1,0-.91h9.567a.455.455,0,1,1,0,.91" transform="translate(-27.51 -73.286)" fill="#2c8c5e"/>
            <path id="Trazado_875268" data-name="Trazado 875268" d="M119.936,233.891h-5.525a.455.455,0,1,1,0-.91h5.525a.455.455,0,1,1,0,.91" transform="translate(-29.97 -66.783)" fill="#2c8c5e"/>
            <path id="Trazado_875269" data-name="Trazado 875269" d="M106.474,233.891h-5.525a.455.455,0,1,1,0-.91h5.525a.455.455,0,1,1,0,.91" transform="translate(-26.429 -66.783)" fill="#2c8c5e"/>
            <path id="Trazado_875270" data-name="Trazado 875270" d="M170.724,244.859H165.2a.455.455,0,1,1,0-.91h5.525a.455.455,0,1,1,0,.91" transform="translate(-43.33 -69.927)" fill="#2c8c5e"/>
            <path id="Trazado_875271" data-name="Trazado 875271" d="M187.955,244.859h-9.178a.455.455,0,1,1,0-.91h9.178a.455.455,0,1,1,0,.91" transform="translate(-46.901 -69.927)" fill="#2c8c5e"/>
            <rect id="Rectángulo_409132" data-name="Rectángulo 409132" width="24.074" height="22.849" transform="translate(93.783 163.053)" fill="#ffea00"/>
            <rect id="Rectángulo_409133" data-name="Rectángulo 409133" width="19.158" height="22.849" transform="translate(96.242 163.053)" fill="#7b1fa2"/>
            <g id="Grupo_1118907" data-name="Grupo 1118907" transform="translate(67.954 163.053)" opacity="0.5" style="mix-blend-mode: multiply;isolation: isolate">
              <g id="Grupo_1118906" data-name="Grupo 1118906">
                <g id="Grupo_1118905" data-name="Grupo 1118905" clip-path="url(#clip-path-3)">
                  <rect id="Rectángulo_409134" data-name="Rectángulo 409134" width="75.734" height="2.117" transform="translate(0 0.001)" fill="#53a581"/>
                </g>
              </g>
            </g>
            <path id="Trazado_875272" data-name="Trazado 875272" d="M64.355,38.334c0-12.124-10.242-21.933-22.808-21.763-12.018.163-21.865,9.59-22.158,21.22a21.548,21.548,0,0,0,9.919,18.6,10.924,10.924,0,0,1,5.035,9.127V66.2H49.394v-.683a11.01,11.01,0,0,1,5.092-9.164,21.56,21.56,0,0,0,9.869-18.017" transform="translate(-5.098 -4.749)" fill="#ffea00"/>
            <path id="Trazado_875273" data-name="Trazado 875273" d="M52.7,76.535a.731.731,0,0,1-.743-.719V51.328A5.744,5.744,0,1,1,57.7,56.884h-1.57a.72.72,0,1,1,0-1.439H57.7a4.119,4.119,0,1,0-4.257-4.117V75.816a.731.731,0,0,1-.743.719" transform="translate(-13.667 -13.12)" fill="#fff"/>
            <path id="Trazado_875274" data-name="Trazado 875274" d="M42.694,76.535a.731.731,0,0,1-.743-.719V51.328a4.257,4.257,0,1,0-4.257,4.117h1.57a.72.72,0,1,1,0,1.439h-1.57a5.559,5.559,0,1,1,5.742-5.556V75.816a.732.732,0,0,1-.743.719" transform="translate(-8.405 -13.12)" fill="#fff"/>
            <path id="Trazado_875275" data-name="Trazado 875275" d="M49.706,9.431a.522.522,0,0,1-.531-.514V.514a.531.531,0,0,1,1.061,0v8.4a.522.522,0,0,1-.531.514" transform="translate(-12.935)" fill="#ffea00"/>
            <path id="Trazado_875276" data-name="Trazado 875276" d="M64.441,13.258a.542.542,0,0,1-.228-.051.506.506,0,0,1-.25-.685L67.71,4.942a.537.537,0,0,1,.707-.242.507.507,0,0,1,.25.686l-3.747,7.58a.531.531,0,0,1-.479.292" transform="translate(-16.811 -1.333)" fill="#ffea00"/>
            <path id="Trazado_875277" data-name="Trazado 875277" d="M76.513,23.7a.536.536,0,0,1-.413-.191.5.5,0,0,1,.08-.723l6.76-5.272a.543.543,0,0,1,.747.078.5.5,0,0,1-.08.722l-6.761,5.272a.537.537,0,0,1-.332.114" transform="translate(-19.986 -4.987)" fill="#ffea00"/>
            <path id="Trazado_875278" data-name="Trazado 875278" d="M83.036,38.711a.527.527,0,0,1-.516-.4.512.512,0,0,1,.394-.618l8.449-1.932a.533.533,0,0,1,.639.382.514.514,0,0,1-.395.618L83.158,38.7a.512.512,0,0,1-.122.014" transform="translate(-21.702 -10.248)" fill="#ffea00"/>
            <path id="Trazado_875279" data-name="Trazado 875279" d="M91.5,56.419a.564.564,0,0,1-.113-.012L82.908,54.62a.514.514,0,0,1-.405-.611.53.53,0,0,1,.632-.393L91.617,55.4a.514.514,0,0,1,.405.611.527.527,0,0,1-.518.4" transform="translate(-21.698 -15.365)" fill="#ffea00"/>
            <path id="Trazado_875280" data-name="Trazado 875280" d="M83.325,73.443A.535.535,0,0,1,83,73.335l-6.855-5.157a.5.5,0,0,1-.094-.72.543.543,0,0,1,.745-.091l6.855,5.157a.5.5,0,0,1,.093.721.537.537,0,0,1-.419.2" transform="translate(-19.975 -19.279)" fill="#ffea00"/>
            <path id="Trazado_875281" data-name="Trazado 875281" d="M32.759,13.258a.531.531,0,0,1-.479-.292l-3.747-7.58a.507.507,0,0,1,.25-.686.538.538,0,0,1,.707.242l3.747,7.581a.506.506,0,0,1-.25.685.542.542,0,0,1-.228.051" transform="translate(-7.491 -1.333)" fill="#ffea00"/>
            <path id="Trazado_875282" data-name="Trazado 875282" d="M19.611,23.7a.537.537,0,0,1-.332-.114l-6.761-5.272a.5.5,0,0,1-.08-.722.543.543,0,0,1,.747-.078l6.76,5.272a.5.5,0,0,1,.08.723.538.538,0,0,1-.413.191" transform="translate(-3.24 -4.987)" fill="#ffea00"/>
            <path id="Trazado_875283" data-name="Trazado 875283" d="M12.486,38.711a.516.516,0,0,1-.122-.014L3.914,36.765a.514.514,0,0,1-.4-.618.533.533,0,0,1,.639-.382L12.607,37.7a.512.512,0,0,1,.394.618.527.527,0,0,1-.516.4" transform="translate(-0.922 -10.248)" fill="#ffea00"/>
            <path id="Trazado_875284" data-name="Trazado 875284" d="M4.006,56.419a.527.527,0,0,1-.518-.4.514.514,0,0,1,.405-.611l8.483-1.788a.53.53,0,0,1,.632.393.514.514,0,0,1-.405.611L4.119,56.407a.564.564,0,0,1-.113.012" transform="translate(-0.914 -15.365)" fill="#ffea00"/>
            <path id="Trazado_875285" data-name="Trazado 875285" d="M12.766,73.443a.537.537,0,0,1-.419-.2.5.5,0,0,1,.093-.721L19.3,67.367a.543.543,0,0,1,.745.091.5.5,0,0,1-.094.72l-6.855,5.157a.535.535,0,0,1-.325.108" transform="translate(-3.218 -19.279)" fill="#ffea00"/>
            <path id="Trazado_875286" data-name="Trazado 875286" d="M43.013,21.779c1.044,1.751-.9,4.733-4.35,6.66s-7.089,2.068-8.134.317.9-4.733,4.35-6.66,7.089-2.068,8.134-.317" transform="translate(-7.956 -5.892)" fill="#fff"/>
            <g id="Grupo_1118910" data-name="Grupo 1118910" transform="translate(19.904 28.924)" style="mix-blend-mode: multiply;isolation: isolate">
              <g id="Grupo_1118909" data-name="Grupo 1118909">
                <g id="Grupo_1118908" data-name="Grupo 1118908" clip-path="url(#clip-path-6)">
                  <path id="Trazado_875287" data-name="Trazado 875287" d="M66.36,45.207a21.18,21.18,0,0,0-.518-4.66c-2.461,5.065-13.9,25.031-38.834,19.05a22.369,22.369,0,0,0,4.306,3.664,10.924,10.924,0,0,1,5.035,9.126v.684H51.4v-.683a11.01,11.01,0,0,1,5.092-9.164A21.56,21.56,0,0,0,66.36,45.207" transform="translate(-27.008 -40.547)" fill="#ffea00"/>
                </g>
              </g>
            </g>
            <path id="Trazado_875288" data-name="Trazado 875288" d="M39.026,84.538v3.643a8.014,8.014,0,0,0,16.02,0V84.538Z" transform="translate(-10.265 -24.233)" fill="#1815b0"/>
            <path id="Trazado_875289" data-name="Trazado 875289" d="M58.258,87.669h-6.49a.514.514,0,1,0,0,1.027h6.49Z" transform="translate(-13.477 -25.13)" fill="#3b3be2"/>
            <path id="Trazado_875290" data-name="Trazado 875290" d="M45.147,90.891H39.1a7.523,7.523,0,0,0,.193,1.028h5.855a.514.514,0,1,0,0-1.028" transform="translate(-10.284 -26.054)" fill="#3b3be2"/>
            <path id="Trazado_875291" data-name="Trazado 875291" d="M130.377,21.1h-2.514a8,8,0,0,0-.715-1.672l1.777-1.72a.9.9,0,0,0,0-1.3l-1.98-1.916a.97.97,0,0,0-1.34,0l-1.777,1.72a8.553,8.553,0,0,0-1.727-.692V13.093a.932.932,0,0,0-.947-.917h-2.8a.933.933,0,0,0-.948.917v2.433a8.57,8.57,0,0,0-1.727.692L113.9,14.5a.97.97,0,0,0-1.34,0l-1.979,1.916a.9.9,0,0,0,0,1.3l1.777,1.72a8,8,0,0,0-.715,1.672h-2.514a.932.932,0,0,0-.947.917V24.73a.932.932,0,0,0,.947.917h2.514a8,8,0,0,0,.715,1.672l-1.777,1.72a.9.9,0,0,0,0,1.3l1.979,1.916a.97.97,0,0,0,1.34,0l1.777-1.72a8.57,8.57,0,0,0,1.727.692v2.433a.933.933,0,0,0,.948.917h2.8a.932.932,0,0,0,.947-.917V31.224a8.553,8.553,0,0,0,1.727-.692l1.777,1.72a.97.97,0,0,0,1.34,0l1.98-1.916a.9.9,0,0,0,0-1.3l-1.777-1.72a8,8,0,0,0,.715-1.672h2.514a.932.932,0,0,0,.947-.917V22.02a.932.932,0,0,0-.947-.917m-5.734,2.657a4.907,4.907,0,1,1-5.287-5.118,4.845,4.845,0,0,1,5.287,5.118" transform="translate(-28.456 -3.49)" fill="#ecb2df"/>
            <path id="Trazado_875292" data-name="Trazado 875292" d="M44.622,252.14c-6.259,0-11.333,2.659-11.333,5.94H55.956c0-3.281-5.075-5.94-11.334-5.94" transform="translate(-8.756 -72.275)" fill="#ecb2df"/>
            <path id="Trazado_875293" data-name="Trazado 875293" d="M258.22,252.14c-6.259,0-11.333,2.659-11.333,5.94h22.667c0-3.281-5.075-5.94-11.334-5.94" transform="translate(-64.94 -72.275)" fill="#1815b0"/>
            <path id="Trazado_875294" data-name="Trazado 875294" d="M29.265,255.972c-3.378,0-6.117,1.435-6.117,3.206H35.382c0-1.771-2.739-3.206-6.117-3.206" transform="translate(-6.089 -73.373)" fill="#e272c7"/>
            <path id="Trazado_875295" data-name="Trazado 875295" d="M277.853,255.972c-3.378,0-6.117,1.435-6.117,3.206H283.97c0-1.771-2.739-3.206-6.117-3.206" transform="translate(-71.476 -73.373)" fill="#7b1fa2"/>
            <path id="Trazado_875296" data-name="Trazado 875296" d="M306.355,223.828c-11.9,7.119-8.415,25.56-8.415,25.56h3.694s1.026-4.47,8-11.82,8.62-20.859-3.284-13.74" transform="translate(-78.243 -63.583)" fill="#e272c7"/>
            <path id="Trazado_875297" data-name="Trazado 875297" d="M300.292,249.921h-.024a.468.468,0,0,1-.452-.484,38.271,38.271,0,0,1,10.793-22.7.488.488,0,0,1,.674-.011.451.451,0,0,1,.01.653,37.321,37.321,0,0,0-10.525,22.108.47.47,0,0,1-.475.438" transform="translate(-78.862 -64.952)" fill="#fff"/>
            <path id="Trazado_875298" data-name="Trazado 875298" d="M288.436,239.885c6.686,4,4.727,14.358,4.727,14.358h-2.075s-.576-2.51-4.5-6.639-4.842-11.718,1.845-7.718" transform="translate(-74.578 -68.438)" fill="#ecb2df"/>
            <path id="Trazado_875299" data-name="Trazado 875299" d="M292.664,254.423a.474.474,0,0,1-.468-.375c-.013-.07-1.425-6.994-5.676-10.957a.452.452,0,0,1-.013-.653.488.488,0,0,1,.674-.012c4.472,4.17,5.893,11.153,5.952,11.449a.463.463,0,0,1-.378.54.56.56,0,0,1-.091.008" transform="translate(-75.326 -69.454)" fill="#fff"/>
            <path id="Trazado_875300" data-name="Trazado 875300" d="M223.622,266.226H151.087a1.54,1.54,0,1,0,0,3.078h72.534a1.54,1.54,0,1,0,0-3.078" transform="translate(-39.323 -76.313)" fill="#7b1fa2"/>
            <path id="Trazado_875301" data-name="Trazado 875301" d="M105.483,266.226H32.948a1.54,1.54,0,1,0,0,3.078h72.534a1.54,1.54,0,1,0,0-3.078" transform="translate(-8.248 -76.313)" fill="#7b1fa2"/>
            <path id="Trazado_875302" data-name="Trazado 875302" d="M209.262,258.908s-1.088,5.59-.335,6.238,15.91,0,15.91,0,.495-1.7-3.858-2.35-5.022-.567-5.692-2.187a25.562,25.562,0,0,1-.92-2.512Z" transform="translate(-54.885 -73.983)" fill="#1815b0"/>
            <path id="Trazado_875303" data-name="Trazado 875303" d="M178.345,258.908s1.088,5.59.335,6.238-15.91,0-15.91,0-.495-1.7,3.858-2.35,5.022-.567,5.692-2.187a25.565,25.565,0,0,0,.92-2.512Z" transform="translate(-42.81 -73.983)" fill="#1815b0"/>
            <path id="Trazado_875304" data-name="Trazado 875304" d="M204.274,210.938,203.645,204l-.157-2.4-.079-1.2-.144-1.188-.595-5.636L197.9,155.5l-13.164,2.941.04-.518H167.9l1.453,37.811.182,4.722c.1,1.574.273,3.147.405,4.72l.857,6.785,1.532,16.855a2.13,2.13,0,0,0,2.253,1.9l4.145-.2a2.117,2.117,0,0,0,2.043-2.032l.4-16.879.226-6.741c.048-1.564.052-3.127.136-4.692l.36-4.7,1.692-22.115,5.7,23.1,1.143,4.631.281,1.158.215,1.167.431,2.333,1.724,6.689,3.1,16.77a2.143,2.143,0,0,0,2.375,1.7l4.942-.576a2.1,2.1,0,0,0,1.891-2.2Z" transform="translate(-44.165 -44.573)" fill="#7b1fa2"/>
            <g id="Grupo_1118913" data-name="Grupo 1118913" transform="translate(123.739 110.926)" opacity="0.5" style="mix-blend-mode: multiply;isolation: isolate">
              <g id="Grupo_1118912" data-name="Grupo 1118912">
                <g id="Grupo_1118911" data-name="Grupo 1118911" clip-path="url(#clip-path-7)">
                  <path id="Trazado_875305" data-name="Trazado 875305" d="M192,168.135c2.578.185,6.375,6.031,8.972,11.884L197.9,155.5l-13.164,2.941.04-.519H167.9l.242,6.281c3.406,1.6,11.2,4.233,23.853,3.932" transform="translate(-167.904 -155.499)" fill="#7b1fa2"/>
                </g>
              </g>
            </g>
            <path id="Trazado_875306" data-name="Trazado 875306" d="M123.559,133.881a15.493,15.493,0,0,0-4.37-1.734c-1.414-.273-2.041-.644-2.3-.613s.517.86,1.51,1.383c.452.365.548.661-.839.887a20,20,0,0,1-4.012-.161c-.463,0,.639.906,2.4,1.139-1.139.363-2.872-.069-3.537-.073s.8,2.366,3.576,2.812,7.95-.688,7.95-.688Z" transform="translate(-29.528 -37.703)" fill="#ecb2df"/>
            <path id="Trazado_875307" data-name="Trazado 875307" d="M167.2,100.964a5.375,5.375,0,0,1,1.407,8.093l-.041.049c-1.347,1.6-2.706,3.176-4.133,4.731s-2.879,3.1-4.442,4.6a46.61,46.61,0,0,1-5.173,4.431,16.623,16.623,0,0,1-1.607,1.066,13.447,13.447,0,0,1-1.8.944,16.919,16.919,0,0,1-1.759.693c-.572.191-1.148.4-1.7.531a49.545,49.545,0,0,1-6.524,1.313,140.437,140.437,0,0,1-14.5,1.171l-.452-4.918a134.406,134.406,0,0,0,13.367-3,41.087,41.087,0,0,0,5.271-1.98c.422-.176.776-.386,1.147-.581a8.553,8.553,0,0,0,1-.607,5.017,5.017,0,0,0,.8-.633,9.417,9.417,0,0,0,.8-.773,37.982,37.982,0,0,0,3.378-4.09c1.1-1.5,2.173-3.079,3.208-4.7s2.046-3.264,3.027-4.935a5.761,5.761,0,0,1,7.914-1.91Z" transform="translate(-33.267 -28.56)" fill="#1815b0"/>
            <g id="Grupo_1118916" data-name="Grupo 1118916" transform="translate(111.799 76.769)" opacity="0.5" style="mix-blend-mode: multiply;isolation: isolate">
              <g id="Grupo_1118915" data-name="Grupo 1118915">
                <g id="Grupo_1118914" data-name="Grupo 1118914" clip-path="url(#clip-path-8)">
                  <path id="Trazado_875308" data-name="Trazado 875308" d="M168.255,112.516a53.623,53.623,0,0,0-4.927-4.9c-.413.668-.828,1.335-1.247,1.989-.753,1.177-1.531,2.323-2.322,3.444-.135,2.977-.22,8.246-.534,9.872-.43,2.219-3.879,4.283-7.524,6.163.951-.2,1.912-.417,2.89-.69.552-.135,1.128-.34,1.7-.531a16.755,16.755,0,0,0,1.759-.692,13.491,13.491,0,0,0,1.8-.945,16.877,16.877,0,0,0,1.607-1.066,46.664,46.664,0,0,0,5.172-4.43c1.107-1.069,2.152-2.155,3.177-3.249-.834-2.821-1.549-4.966-1.549-4.966" transform="translate(-151.702 -107.617)" fill="#1815b0"/>
                </g>
              </g>
            </g>
            <path id="Trazado_875309" data-name="Trazado 875309" d="M215.539,167.833a12.179,12.179,0,0,0-.761,4.307c.223,1.577,1.1,1.549.956,3.054a20.557,20.557,0,0,1-.564,3.009s.934.5,1.453-1.935a7.9,7.9,0,0,1-.593,3.082s1.332.143,2.073-3.082a18.742,18.742,0,0,0-.444-8.371c-.37-1.075-2.12-.064-2.12-.064" transform="translate(-56.486 -47.985)" fill="#ecb2df"/>
            <path id="Trazado_875310" data-name="Trazado 875310" d="M209.335,123.423a44.728,44.728,0,0,0-4.714-13.676c-.506-.99-2.117-3.594-3.723-6.121a5.97,5.97,0,0,0-3.131-2.447,3.26,3.26,0,0,0-.887-.241l-.137-.016c-.134-.021-.268-.034-.4-.048-6.106-.721-16.376-1.783-22-1.752a6.116,6.116,0,0,0-4.984,2.052,20.269,20.269,0,0,0-3.835,11.275c-.12,6.049.721,26.867,1.082,32.8,9.132,5.932,28.357,2.558,28.357,2.558l.481-5.35,1.8,4.3a7.966,7.966,0,0,0,2.523-.465c-2.283-7.444-2.062-19.236-1.355-23.747.064-.409.157-.919.268-1.5a26.716,26.716,0,0,1,1.721,4.132,44.277,44.277,0,0,1,1.56,11.736,92.91,92.91,0,0,1-.627,12.474l4.8.986a98.6,98.6,0,0,0,2.825-13.037,51.563,51.563,0,0,0,.376-13.914" transform="translate(-43.536 -28.412)" fill="#1815b0"/>
            <path id="Trazado_875311" data-name="Trazado 875311" d="M191.662,92.992a30.71,30.71,0,0,0,.291,5.756c-.223,1.13-1.718,1.45-2.893,1.457a1.979,1.979,0,0,1-1.974-2.53c.786-1.009,2.164-2.771,2.105-3.817s2.47-.866,2.47-.866" transform="translate(-49.187 -26.653)" fill="#ecb2df"/>
            <path id="Trazado_875312" data-name="Trazado 875312" d="M191.412,103.309s2.761-1.631,1.385-3.941a20.287,20.287,0,0,1-2.593,2.668Z" transform="translate(-50.03 -28.483)" fill="#7b1fa2"/>
            <path id="Trazado_875313" data-name="Trazado 875313" d="M188.247,103.309s-2.761-1.631-1.385-3.941a23.6,23.6,0,0,0,2.361,2.668Z" transform="translate(-49.05 -28.483)" fill="#7b1fa2"/>
            <path id="Trazado_875314" data-name="Trazado 875314" d="M189.854,103.108l-.976,1.273s.368,1.106,1.092,1.106,1.093-1.106,1.093-1.106Z" transform="translate(-49.682 -29.556)" fill="#7b1fa2"/>
            <path id="Trazado_875315" data-name="Trazado 875315" d="M189.758,105.719l1.209,16.556-2.466,2.436-2.292-2.582,2.512-16.456Z" transform="translate(-48.979 -30.291)" fill="#7b1fa2"/>
            <g id="Grupo_1118919" data-name="Grupo 1118919" transform="translate(155.147 83.075)" opacity="0.5" style="mix-blend-mode: multiply;isolation: isolate">
              <g id="Grupo_1118918" data-name="Grupo 1118918">
                <g id="Grupo_1118917" data-name="Grupo 1118917" clip-path="url(#clip-path-9)">
                  <path id="Trazado_875316" data-name="Trazado 875316" d="M213.8,145.337c1.26-4.122.89-13.5,1.033-16.413s-2.293-14.152-2.867-12.253-1.444,9.343-1.444,9.343a26.646,26.646,0,0,1,1.721,4.132,44.277,44.277,0,0,1,1.56,11.736c.022,1.139.015,2.29-.008,3.445l0,.01" transform="translate(-210.521 -116.457)" fill="#1815b0"/>
                </g>
              </g>
            </g>
            <g id="Grupo_1118922" data-name="Grupo 1118922" transform="translate(122.954 99.723)" opacity="0.5" style="mix-blend-mode: multiply;isolation: isolate">
              <g id="Grupo_1118921" data-name="Grupo 1118921">
                <g id="Grupo_1118920" data-name="Grupo 1118920" clip-path="url(#clip-path-10)">
                  <path id="Trazado_875317" data-name="Trazado 875317" d="M198.318,139.795c-1.478,2.91-5.187,9.332-10.385,12.232-5.532,3.086-16.944,2.946-21.095,2.78.042.819.081,1.529.116,2.1,9.132,5.932,28.357,2.559,28.357,2.559l.481-5.35,1.8,4.3a7.963,7.963,0,0,0,2.523-.465c-1.611-5.253-1.972-12.661-1.8-18.158" transform="translate(-166.838 -139.795)" fill="#1815b0"/>
                </g>
              </g>
            </g>
            <g id="Grupo_1118925" data-name="Grupo 1118925" transform="translate(138.61 66.328)" opacity="0.5" style="mix-blend-mode: multiply;isolation: isolate">
              <g id="Grupo_1118924" data-name="Grupo 1118924">
                <g id="Grupo_1118923" data-name="Grupo 1118923" clip-path="url(#clip-path-11)">
                  <path id="Trazado_875318" data-name="Trazado 875318" d="M189.476,93.858a5.839,5.839,0,0,1-1.394,2.883,10.1,10.1,0,0,0,3.865-.878c-.053-1.52,0-2.871,0-2.871s-2.529-.18-2.47.866" transform="translate(-188.082 -92.981)" fill="#ecb2df"/>
                </g>
              </g>
            </g>
            <path id="Trazado_875319" data-name="Trazado 875319" d="M183.245,87.945s-.24-5.66,3.318-6.409,6.471,1.562,6.3,4.728-2.916,5.036-5.361,5.668-4.689-.687-4.256-3.988" transform="translate(-48.186 -23.331)" fill="#ecb2df"/>
            <path id="Trazado_875320" data-name="Trazado 875320" d="M182.777,80.723a4.454,4.454,0,0,0,4.165,2.2c3.106-.03,2.834,1.738,2.04,2.769s0,1.228,1.349.4,1.952,2.268-.513,2.754c-1.242.666-1.173.952-.787,1.4s3.21.14,4.856-3.155.8-5.7-.657-7.038a7.459,7.459,0,0,0-2.638-1.356s-3.4-3.336-5.591-2.413-2.95,2.58-2.225,4.434" transform="translate(-48.007 -21.822)" fill="#1815b0"/>
            <g id="Grupo_1118928" data-name="Grupo 1118928" transform="translate(134.511 57.486)" opacity="0.5" style="mix-blend-mode: multiply;isolation: isolate">
              <g id="Grupo_1118927" data-name="Grupo 1118927">
                <g id="Grupo_1118926" data-name="Grupo 1118926" clip-path="url(#clip-path-12)">
                  <path id="Trazado_875321" data-name="Trazado 875321" d="M193.89,88.375c.09-.18.169-.355.244-.529a1.84,1.84,0,0,1-2.076-1.582c-.3-1.391.3-3.386-3.506-3.386a10.272,10.272,0,0,1-6.03-2.291A3.54,3.54,0,0,0,182.779,82a4.456,4.456,0,0,0,4.165,2.2c3.106-.031,2.834,1.737,2.04,2.769s0,1.228,1.35.4,1.951,2.267-.514,2.754c-1.242.666-1.173.952-.787,1.4s3.21.141,4.856-3.154" transform="translate(-182.52 -80.586)" fill="#1815b0"/>
                </g>
              </g>
            </g>
            <g id="Grupo_1118931" data-name="Grupo 1118931" transform="translate(133.66 126.398)" opacity="0.5" style="mix-blend-mode: multiply;isolation: isolate">
              <g id="Grupo_1118930" data-name="Grupo 1118930">
                <g id="Grupo_1118929" data-name="Grupo 1118929" clip-path="url(#clip-path-13)">
                  <path id="Trazado_875322" data-name="Trazado 875322" d="M185.44,201.68l1.692-22.115-5.768-2.377,3.58,33.886c.048-1.565.052-3.127.136-4.693Z" transform="translate(-181.365 -177.188)" fill="#7b1fa2"/>
                </g>
              </g>
            </g>
            <path id="Trazado_875323" data-name="Trazado 875323" d="M96.269,188.01l-1.094,12.943c-.376,4.308-.706,8.612-1.119,12.907l-4.2,25.419-4.434.009-1.007-25.64c-.385-4.266-.853-8.527-1.274-12.783l-1.3-12.748Z" transform="translate(-21.529 -53.892)" fill="#ecb2df"/>
            <path id="Trazado_875324" data-name="Trazado 875324" d="M97.74,266.026a14.791,14.791,0,0,0-3.336-1.977c-2.611-1.021-3.441-4.169-3.441-4.169l-4.434.009a35.543,35.543,0,0,0-.47,6.281,8.726,8.726,0,0,0,1.728,0l.453-1.828s1.6,1.987,2.055,2.1c.332.08,4.738.328,7.1.457a.486.486,0,0,0,.342-.868" transform="translate(-22.633 -74.494)" fill="#ffea00"/>
            <path id="Trazado_875325" data-name="Trazado 875325" d="M93.39,264.651c1.12.144,1.577-.2,1.76-.569-.024-.009-.05-.024-.074-.034-2.611-1.021-3.441-4.169-3.441-4.169l-3.039.006s2.635,4.487,4.793,4.764" transform="translate(-23.304 -74.494)" fill="#ecb2df"/>
            <g id="Grupo_1118934" data-name="Grupo 1118934" transform="translate(61.034 141.198)" opacity="0.5" style="mix-blend-mode: multiply;isolation: isolate">
              <g id="Grupo_1118933" data-name="Grupo 1118933">
                <g id="Grupo_1118932" data-name="Grupo 1118932" clip-path="url(#clip-path-14)">
                  <path id="Trazado_875326" data-name="Trazado 875326" d="M95.447,203.6l.261-3.089a5.145,5.145,0,0,0-2.189-1.943c-2.277-.906-10.7-.571-10.7-.574l.581,5.716c.422,4.255.89,8.517,1.274,12.783l.093,2.352c1.069-3.324,2.753-10.7,3.053-12.324,1.083-.4,5.317-2.029,7.628-2.922" transform="translate(-82.818 -197.936)" fill="#ecb2df"/>
                </g>
              </g>
            </g>
            <path id="Trazado_875327" data-name="Trazado 875327" d="M76.667,95.877c-1.8-1.841-5.8-1.247-7.412.579a4.893,4.893,0,0,0-1.15,3.172c0,.3.238,2.644.858,2.54-1.452.243-4.263,1.48-4.075,4.643s1.986,3.2,1.986,3.2-5.337-.03-6.776,6.125a7.087,7.087,0,0,0,4.014,8.366c-.451-.183-2.115,2.759-2.244,3.057-1.127,2.613.615,5.4,2.926,6.786,2.538,1.519,5.563.885,8.055-.4,5.168-2.472,3.277-7.828,3.277-7.828s7.55-.983,8.379-5.642-1.717-6.586-1.717-6.586,2.888-2.28.7-6.763c-1-2.024-5.608-4.978-5.608-4.978a5.721,5.721,0,0,0-1.217-6.27" transform="translate(-15.745 -27.162)" fill="#1b17b1"/>
            <g id="Grupo_1118937" data-name="Grupo 1118937" transform="translate(44.112 78.396)" opacity="0.5" style="mix-blend-mode: multiply;isolation: isolate">
              <g id="Grupo_1118936" data-name="Grupo 1118936">
                <g id="Grupo_1118935" data-name="Grupo 1118935" clip-path="url(#clip-path-15)">
                  <path id="Trazado_875328" data-name="Trazado 875328" d="M82.788,118.228s2.887-2.28.7-6.762a6.443,6.443,0,0,0-1.235-1.568c-2.839,4.535-8.967,10.593-21.564,8.811a9.753,9.753,0,0,0-.595,1.766,7.086,7.086,0,0,0,4.014,8.366c-.451-.183-2.115,2.759-2.244,3.057-1.127,2.614.614,5.4,2.926,6.787,2.538,1.518,5.563.885,8.055-.4,5.169-2.472,3.277-7.828,3.277-7.828s7.55-.983,8.379-5.642-1.717-6.587-1.717-6.587" transform="translate(-59.857 -109.898)" fill="#1b17b1"/>
                </g>
              </g>
            </g>
            <path id="Trazado_875329" data-name="Trazado 875329" d="M117.294,144.492c-1.545-1.106-4.736-1.776-5.952-2-2.179-1.8-4.957-4.087-6.933-5.962-1.024-.977-2.025-1.972-2.912-2.97a14.936,14.936,0,0,1-1.152-1.453,4.918,4.918,0,0,1-.364-.649l-.158-.332-.178-.417c-.477-1.124-.948-2.413-1.377-3.719s-.85-2.637-1.248-3.981c-.3-1.024-.6-2.06-.894-3.1a4.888,4.888,0,0,0-6.384-3.192,4.645,4.645,0,0,0-2.569,6.644c.557.993,1.122,1.982,1.7,2.976.742,1.279,1.506,2.556,2.307,3.834s1.628,2.547,2.63,3.884l.382.5.464.549a11.314,11.314,0,0,0,1,1.026,22.1,22.1,0,0,0,1.978,1.552c1.3.908,2.591,1.7,3.891,2.465,2.6,1.516,5.937,3.379,8.607,4.71a19.162,19.162,0,0,0,2.577,2.515c.965.739,1.293,1.257,1.5,1.33s-.047-.848-.592-1.619c-.2-.447-.152-.709.993-.358a16.651,16.651,0,0,1,2.985,1.631c.352.173-.049-1.194-1.3-2.035,1.011.153,2.082,1.4,2.587,1.651s.343-2.1-1.589-3.482" transform="translate(-22.774 -33.371)" fill="#ecb2df"/>
            <g id="Grupo_1118940" data-name="Grupo 1118940" transform="translate(70.927 90.403)" opacity="0.5" style="mix-blend-mode: multiply;isolation: isolate">
              <g id="Grupo_1118939" data-name="Grupo 1118939">
                <g id="Grupo_1118938" data-name="Grupo 1118938" clip-path="url(#clip-path-16)">
                  <path id="Trazado_875330" data-name="Trazado 875330" d="M109.5,141.776c-.586-.506-1.154-1.006-1.688-1.49l-6.778-.864s.333-4.583.55-7.269c-.268-.713-.531-1.455-.777-2.208-.352-1.054-.682-2.134-1.008-3.216a16.007,16.007,0,0,0-1.772,2.159c-.559.76-1.4,5.546-1.786,7.977.036.049.069.1.106.146l.382.5.464.55a11.118,11.118,0,0,0,1,1.025,21.991,21.991,0,0,0,1.978,1.553c.895.626,1.788,1.187,2.682,1.732,2.072-.091,5.2-.432,6.647-.6" transform="translate(-96.242 -126.729)" fill="#ecb2df"/>
                </g>
              </g>
            </g>
            <path id="Trazado_875331" data-name="Trazado 875331" d="M82.635,188.04l-1.094,12.943c-.376,4.308-.706,8.612-1.119,12.907l-5.159,25.421-4.433.009-.045-25.642c-.385-4.266-.853-8.527-1.274-12.783l-1.3-12.748Z" transform="translate(-17.943 -53.901)" fill="#ecb2df"/>
            <path id="Trazado_875332" data-name="Trazado 875332" d="M82.8,266.06a14.792,14.792,0,0,0-3.336-1.977c-2.611-1.021-3.441-4.169-3.441-4.169l-4.434.009a35.545,35.545,0,0,0-.47,6.281,8.729,8.729,0,0,0,1.728,0l.453-1.828s1.6,1.986,2.055,2.1c.331.081,4.738.328,7.1.457a.487.487,0,0,0,.343-.868" transform="translate(-18.703 -74.503)" fill="#ffea00"/>
            <path id="Trazado_875333" data-name="Trazado 875333" d="M89.443,151.724s3.374,1.991,4.716,12.054-2.212,24.815-2.212,24.815-13.1,3.147-20.869,1.18c-.59-1.275-1.18-2.975-1.18-2.975l-1.15,2.838-2.8-1.695s-7.7-22.414,3.825-36.761c4.436-.969,19.672.544,19.672.544" transform="translate(-16.684 -43.242)" fill="#e272c7"/>
            <path id="Trazado_875334" data-name="Trazado 875334" d="M93.645,123.632a12.991,12.991,0,0,0-4.271-7.945c-1.509-1.169-5.23-.743-5.23-.743a38.653,38.653,0,0,0-11.321,1.324c-2.29.692-2.445,3.74-2.332,5.63.184,3.084,1.061,6.093,1.275,9.172.1,1.491.167,4.852.141,6.347a27.46,27.46,0,0,0-.284,3.448c6.922,4.925,18.255,1.216,19.671.543-.81-5.189,2.714-14.261,2.351-17.777" transform="translate(-18.535 -32.927)" fill="#ffea00"/>
            <path id="Trazado_875335" data-name="Trazado 875335" d="M88.174,103.627s-.758-5.377-4.243-5.5-5.83,2.527-5.117,5.485,3.625,4.274,6.04,4.471,4.3-1.412,3.319-4.453" transform="translate(-20.697 -28.126)" fill="#ecb2df"/>
            <path id="Trazado_875336" data-name="Trazado 875336" d="M82.36,108.356s.665,3.784-.478,5.533c.537.7,2.439,3.054,4.772,2.39s-1.209-3.187-1.209-3.187a20.214,20.214,0,0,1-1.287-3.632c-.1-.989-1.8-1.1-1.8-1.1" transform="translate(-21.538 -31.06)" fill="#ecb2df"/>
            <path id="Trazado_875337" data-name="Trazado 875337" d="M87.9,98.4a3.708,3.708,0,0,0,.985-2.505,3.947,3.947,0,0,0-7.782-.78A6.152,6.152,0,0,0,77.951,96.6c-1.823,1.711-1.332,4.173-.508,6.25.315.795.889,2.373,1.84,2.677a2.868,2.868,0,0,0,2.474-.566s-1.647-.233-1.537-1.272.577-.969,2.117,0,.488-.618-.674-1.947,1.615-2.4,1.615-2.4l.064.025a3.952,3.952,0,0,0,3.28-.036,3.72,3.72,0,0,0,.5-.262l.058-.036a3.861,3.861,0,0,0,.474-.381c.052-.048.1-.1.152-.147.035-.035.07-.063.1-.1L87.9,98.4" transform="translate(-20.176 -26.398)" fill="#1b17b1"/>
            <path id="Trazado_875338" data-name="Trazado 875338" d="M78.672,264.684c1.058.136,1.526-.165,1.727-.508-.067-.029-.139-.068-.2-.093-2.611-1.021-3.441-4.169-3.441-4.169l-2.875.006s2.635,4.487,4.793,4.764" transform="translate(-19.433 -74.503)" fill="#ecb2df"/>
            <g id="Grupo_1118943" data-name="Grupo 1118943" transform="translate(48.613 115.479)" opacity="0.5" style="mix-blend-mode: multiply;isolation: isolate">
              <g id="Grupo_1118942" data-name="Grupo 1118942">
                <g id="Grupo_1118941" data-name="Grupo 1118941" clip-path="url(#clip-path-17)">
                  <path id="Trazado_875339" data-name="Trazado 875339" d="M93.832,161.882a37.14,37.14,0,0,1-7.62,20.941c-4.645,5.956-14.972,6.3-20.249,6.054.372,1.411.651,2.226.651,2.226l2.8,1.695,1.15-2.838s.59,1.7,1.178,2.975c7.767,1.968,20.869-1.179,20.869-1.179S96.167,177,94.825,166.939a38.715,38.715,0,0,0-.993-5.057" transform="translate(-65.963 -161.882)" fill="#e272c7"/>
                </g>
              </g>
            </g>
            <g id="Grupo_1118946" data-name="Grupo 1118946" transform="translate(51.932 88.042)" style="mix-blend-mode: multiply;isolation: isolate">
              <g id="Grupo_1118945" data-name="Grupo 1118945">
                <g id="Grupo_1118944" data-name="Grupo 1118944" clip-path="url(#clip-path-18)">
                  <path id="Trazado_875340" data-name="Trazado 875340" d="M79.825,133.634c-.688-.936-4.773-8.521-4.773-8.521s-3.071-1.789-4.585-1.69c0,.326.008.64.025.926.16,2.686.845,5.316,1.161,7.983,1.542,2.353,4.4,6.163,7.276,7.154a72.741,72.741,0,0,0,10.035,2.393,5.357,5.357,0,0,1-2.08,3.281,24.315,24.315,0,0,0,4.411-1.3,21.331,21.331,0,0,1,.435-6.7c-1.8-.422-11.282-2.676-11.9-3.523" transform="translate(-70.467 -123.42)" fill="#ffea00"/>
                </g>
              </g>
            </g>
            <path id="Trazado_875341" data-name="Trazado 875341" d="M112.841,135.8a10.364,10.364,0,0,1-3.311.075c1.652-.222,2.681-1.071,2.248-1.071a18.687,18.687,0,0,1-3.755.158c-1.3-.208-1.21-.485-.787-.827.929-.492,1.65-1.27,1.41-1.3s-.825.32-2.148.579a22.537,22.537,0,0,0-4.246,1.407c-3.153-.538-7.1-1.18-10.139-1.888-1.569-.36-3.118-.759-4.6-1.2-.75-.218-1.457-.463-2.139-.713-.336-.126-.622-.268-.932-.4s-.453-.27-.688-.384c-.049-.051.02-.06.014-.065s.02.024-.007-.014l-.1-.14-.508-.695c-.388-.547-.8-1.172-1.2-1.81-.81-1.279-1.61-2.617-2.394-3.973-.707-1.226-1.411-2.472-2.1-3.723a4.984,4.984,0,0,0-6.961-1.742,4.659,4.659,0,0,0-1.128,7.025q1.443,1.694,2.925,3.376c1.1,1.241,2.219,2.475,3.4,3.713.6.62,1.2,1.236,1.9,1.882.354.324.688.641,1.184,1.03l.343.272c.125.095.335.217.5.318a9.787,9.787,0,0,0,1.06.557c.528.174,1.12.4,1.595.5s.964.218,1.419.295c.9.146,1.792.267,2.653.346,1.731.17,3.42.27,5.1.328,3.3.121,7.368.157,10.673.091h0s4.787,1.056,7.385.634,3.963-2.644,3.341-2.639" transform="translate(-17.947 -33.629)" fill="#ecb2df"/>
            <g id="Grupo_1118949" data-name="Grupo 1118949" transform="translate(50.286 84.691)" opacity="0.5" style="mix-blend-mode: multiply;isolation: isolate">
              <g id="Grupo_1118948" data-name="Grupo 1118948">
                <g id="Grupo_1118947" data-name="Grupo 1118947" clip-path="url(#clip-path-19)">
                  <path id="Trazado_875342" data-name="Trazado 875342" d="M73.3,127.563c-2.363-2.818-3-6.961-3.167-8.841a4.648,4.648,0,0,0-.773,6.777q1.443,1.694,2.925,3.376c1.1,1.241,2.219,2.475,3.4,3.713.6.62,1.2,1.236,1.9,1.881.354.325.688.641,1.184,1.03l.343.273c.125.094.335.217.5.318a9.8,9.8,0,0,0,1.061.557c.528.174,1.119.4,1.594.5s.964.218,1.419.294c.906.146,1.792.268,2.653.347,1.73.17,3.421.27,5.1.327L80.85,135.2a84.747,84.747,0,0,1-7.551-7.636" transform="translate(-68.234 -118.722)" fill="#ecb2df"/>
                </g>
              </g>
            </g>
          </g>
        </g>
      </g>
    </g>
  </g>
</svg>
