<svg xmlns="http://www.w3.org/2000/svg" width="80" height="80" viewBox="0 0 80 80">
  <g id="Grupo_1115787" data-name="Grupo 1115787" transform="translate(-268.643 -956.703)">
    <circle id="Elipse_5614" data-name="Elipse 5614" cx="40" cy="40" r="40" transform="translate(268.643 956.703)" fill="#fff"/>
    <path id="Trazado_902287" data-name="Trazado 902287" d="M51.789,6.093a21.036,21.036,0,0,0-1.822-4.148A.781.781,0,0,0,49.14,1.6,21.031,21.031,0,0,0,44.9,3.18a12.187,12.187,0,0,0-6.082,5.8,11.238,11.238,0,0,0-.35,6.82,21.719,21.719,0,0,0-4.084-3.554,31.635,31.635,0,0,0-3.549-5.44.766.766,0,0,0-1.189.966,30.665,30.665,0,0,1,2.826,4.157l-6.976-1.36L18.863,1.53a10.805,10.805,0,0,1,1.932.2,13.227,13.227,0,0,1,5.983,3.084.766.766,0,0,0,.993-1.166A14.733,14.733,0,0,0,21.09.224c-3.509-.687-7.6.215-11.837,2.608A30.578,30.578,0,0,0,3.9,6.657a.811.811,0,0,0-.091,1.051A31.25,31.25,0,0,0,7.241,13.1a23.949,23.949,0,0,0,3.621,3.721q-.535.448-1.04.941A17.706,17.706,0,0,0,15.55,46.824a.766.766,0,0,0,.576-1.419,16.169,16.169,0,0,1-3.313-1.822,8.629,8.629,0,0,0-1.3-6.041c-.243-.378.483-1.863.916-2.75a14.359,14.359,0,0,0,1.125-2.749,2.1,2.1,0,0,0-.745-2.3,5.652,5.652,0,0,0-1.821-.807,3.917,3.917,0,0,1-1-.392,10.21,10.21,0,0,1-1.3-2.11,13.093,13.093,0,0,0-1.4-2.3,16.286,16.286,0,0,1,4.835-6.37,13.4,13.4,0,0,0,6.453,2.4c-2.707,2.1-3.582,4.775-2.331,7.348,1.461,3,4.47,2.524,7.124,2.1.459-.073.934-.149,1.389-.206.171-.021.222.025.257.056.581.517.564,2.986.551,4.789-.017,2.494-.033,4.849.9,6.059a2.338,2.338,0,0,0,1.923.932A3.861,3.861,0,0,0,29.9,40.9c2.31-.989,4.711-3.966,4.345-6.322-.32-2.059-.532-3.42-.033-4.517.462-1.015,1.578-1.955,3.776-3.154A16.173,16.173,0,0,1,20.415,46.487a.766.766,0,0,0-.168,1.523,17.8,17.8,0,0,0,14.335-4.941,17.695,17.695,0,0,0-2.724-27.483c1.012-.721,1.766-1.345,2.184-1.708A20.335,20.335,0,1,1,2.143,27.1a.766.766,0,0,0-1.511-.25A21.86,21.86,0,0,0,18.64,51.984a22.163,22.163,0,0,0,3.609.3A21.875,21.875,0,0,0,42.254,21.69,22.058,22.058,0,0,0,45.785,20.3a12.186,12.186,0,0,0,6.081-5.8,12.18,12.18,0,0,0-.078-8.4ZM7.336,27.152A9.538,9.538,0,0,0,9,29.723a4.393,4.393,0,0,0,1.533.681c1.5.46,1.671.686,1.527,1.278a13.369,13.369,0,0,1-1.012,2.437c-.791,1.618-1.538,3.146-.83,4.25a7.284,7.284,0,0,1,1.159,4.064,16.323,16.323,0,0,1-4.72-16.516c.225.386.462.835.674,1.236ZM44.391,12.1,42.215,6.827A14.334,14.334,0,0,1,45.55,4.566a20.444,20.444,0,0,1,2.42-1.019Zm4.99-7.961A20.544,20.544,0,0,1,50.34,6.59a14.643,14.643,0,0,1,.694,3.692l-5.1,2.1ZM40.224,9.578a7.294,7.294,0,0,1,.855-1.487l2.478,6-2.223,5.317a20.335,20.335,0,0,1-.992-2.522c-.626-1.98-1.155-4.856-.117-7.312Zm4.907,9.336a20.347,20.347,0,0,1-2.344.992l2.307-5.516,5.873-2.424a7.389,7.389,0,0,1-.512,1.936c-1.037,2.455-3.468,4.081-5.325,5.012Zm-27.617-.436c-.271-.053-.538-.118-.8-.191l8.477-6.214,6.98,1.36c-2.543,2-8.73,6.206-14.655,5.045ZM9.767,13.686a29.818,29.818,0,0,1-3.9-5.381l8.882,1.732ZM11.336,3.467l3.716,5.069L6.113,6.794a30.193,30.193,0,0,1,5.223-3.326Zm5.932,5.5L12.763,2.823a17.227,17.227,0,0,1,4.281-1.184l6.233,8.5Zm-.477,1.468,6.352,1.238L14.991,17.65a15.846,15.846,0,0,1-4.132-2.866ZM37.574,25.392c-2.761,1.471-4.113,2.627-4.755,4.036-.689,1.513-.437,3.138-.087,5.386.206,1.326-1.369,3.795-3.434,4.679-.764.327-1.308.288-1.618-.115-.609-.792-.592-3.189-.579-5.115.018-2.664.034-4.966-1.065-5.944a1.805,1.805,0,0,0-1.463-.431c-.482.06-.97.138-1.442.213-2.815.449-4.587.628-5.5-1.259-1.487-3.056,1.523-5.32,2.886-6.151a4.852,4.852,0,0,0,.774-.591,22.268,22.268,0,0,0,9.182-3.578,16.258,16.258,0,0,1,7.1,8.869Zm0,0" transform="translate(282.188 970.562)" fill="#7d3a1b"/>
  </g>
</svg>
