<svg id="Grupo_1101152" data-name="Grupo 1101152" xmlns="http://www.w3.org/2000/svg" width="74.99" height="76.092" viewBox="0 0 74.99 76.092">
  <rect id="Rectángulo_401104" data-name="Rectángulo 401104" width="74.99" height="76.093" fill="none"/>
  <g id="Grupo_1119753" data-name="Grupo 1119753" transform="translate(-0.432 0.488)">
    <path id="Trazado_906807" data-name="Trazado 906807" d="M39.793,20.583,20.99.324a1.011,1.011,0,0,0-1.482,0L.7,20.583a1.011,1.011,0,0,0,.741,1.7H7.586A2.617,2.617,0,0,1,10.2,24.9V71.949a3.168,3.168,0,0,0,3.168,3.168H27.126a3.168,3.168,0,0,0,3.168-3.168V24.9a2.617,2.617,0,0,1,2.617-2.617h6.141a1.011,1.011,0,0,0,.741-1.7Z" transform="translate(0 0)" fill="#8bc852"/>
    <g id="Grupo_1119749" data-name="Grupo 1119749" transform="translate(18.332 0)">
      <path id="Trazado_906808" data-name="Trazado 906808" d="M159.424,154.494v47.049a3.168,3.168,0,0,1-3.168,3.168h3.833a3.168,3.168,0,0,0,3.168-3.168V154.494a2.617,2.617,0,0,1,2.617-2.617h-3.833A2.617,2.617,0,0,0,159.424,154.494Z" transform="translate(-151.295 -129.595)" fill="#7dbe3b"/>
      <path id="Trazado_906809" data-name="Trazado 906809" d="M143.9,20.583,125.1.324a1.011,1.011,0,0,0-1.482,0L122.441,1.59l17.628,18.994a1.011,1.011,0,0,1-.741,1.7h3.833A1.011,1.011,0,0,0,143.9,20.583Z" transform="translate(-122.441 -0.001)" fill="#7dbe3b"/>
    </g>
    <path id="Trazado_906810" data-name="Trazado 906810" d="M113.1,68.932h-2.15v-2.15a1.133,1.133,0,0,0-2.267,0v2.15h-2.15a1.133,1.133,0,1,0,0,2.267h2.15v2.15a1.133,1.133,0,1,0,2.267,0V71.2h2.15a1.134,1.134,0,0,0,0-2.267Z" transform="translate(-89.565 -56.018)" fill="#f9f6f9"/>
    <path id="Trazado_906811" data-name="Trazado 906811" d="M280.789,54.533l-18.8,20.26a1.011,1.011,0,0,1-1.482,0l-18.8-20.26a1.011,1.011,0,0,1,.741-1.7h6.141a2.617,2.617,0,0,0,2.617-2.617V3.168A3.168,3.168,0,0,1,254.367,0h13.755a3.168,3.168,0,0,1,3.168,3.168V50.217a2.617,2.617,0,0,0,2.617,2.617h6.141a1.011,1.011,0,0,1,.741,1.7Z" transform="translate(-205.639 0)" fill="#d82e3d"/>
    <g id="Grupo_1119750" data-name="Grupo 1119750" transform="translate(53.689 0)">
      <path id="Trazado_906812" data-name="Trazado 906812" d="M400.42,50.217V3.168A3.168,3.168,0,0,0,397.252,0h3.833a3.168,3.168,0,0,1,3.168,3.168V50.217a2.617,2.617,0,0,0,2.617,2.617h-3.833A2.617,2.617,0,0,1,400.42,50.217Z" transform="translate(-392.291 0)" fill="#c32430"/>
      <path id="Trazado_906813" data-name="Trazado 906813" d="M384.9,361.822l-18.8,20.26a1.011,1.011,0,0,1-1.482,0l-1.175-1.266,17.628-18.993a1.011,1.011,0,0,0-.741-1.7h3.833A1.011,1.011,0,0,1,384.9,361.822Z" transform="translate(-363.437 -307.289)" fill="#c32430"/>
    </g>
    <g id="Grupo_1119752" data-name="Grupo 1119752" transform="translate(51.189 59.934)">
      <g id="Grupo_1119751" data-name="Grupo 1119751">
        <path id="Trazado_906814" data-name="Trazado 906814" d="M354.093,410.787h-6.567a1.134,1.134,0,0,1,0-2.267h6.567a1.134,1.134,0,0,1,0,2.267Z" transform="translate(-346.393 -408.52)" fill="#f9f6f9"/>
      </g>
    </g>
  </g>
</svg>
