<svg xmlns="http://www.w3.org/2000/svg" xmlns:xlink="http://www.w3.org/1999/xlink" width="129" height="128" viewBox="0 0 129 128">
  <defs>
    <clipPath id="clip-path">
      <path id="Rectángulo_36179" data-name="Rectángulo 36179" d="M0,0H129V128H0Z" transform="translate(390 4467)" fill="#dcedc8"/>
    </clipPath>
    <clipPath id="clip-path-2">
      <rect id="Rectángulo_401301" data-name="Rectángulo 401301" width="74.96" height="225.068" fill="none"/>
    </clipPath>
    <clipPath id="clip-path-4">
      <rect id="Rectángulo_401247" data-name="Rectángulo 401247" width="18.555" height="18.555" fill="none"/>
    </clipPath>
    <clipPath id="clip-path-5">
      <path id="Trazado_873506" data-name="Trazado 873506" d="M18.555,9.277A9.278,9.278,0,1,1,9.277,0a9.278,9.278,0,0,1,9.278,9.277" fill="none"/>
    </clipPath>
    <linearGradient id="linear-gradient" x1="-2.285" y1="5.638" x2="-2.264" y2="5.638" gradientUnits="objectBoundingBox">
      <stop offset="0" stop-color="#fff"/>
      <stop offset="0.07" stop-color="#f7f8ee"/>
      <stop offset="0.208" stop-color="#e3e7c4"/>
      <stop offset="0.399" stop-color="#c4cb80"/>
      <stop offset="0.457" stop-color="#bac36a"/>
      <stop offset="0.532" stop-color="#c1cc64"/>
      <stop offset="0.637" stop-color="#d4e157"/>
      <stop offset="1" stop-color="#d4e157"/>
    </linearGradient>
    <clipPath id="clip-path-7">
      <path id="Trazado_873507" data-name="Trazado 873507" d="M18.555,9.277A9.278,9.278,0,1,1,9.277,0a9.277,9.277,0,0,1,9.278,9.277" fill="none"/>
    </clipPath>
    <linearGradient id="linear-gradient-2" x1="-2.285" y1="4.852" x2="-2.264" y2="4.852" xlink:href="#linear-gradient"/>
    <linearGradient id="linear-gradient-3" x1="-2.285" y1="4.063" x2="-2.264" y2="4.063" xlink:href="#linear-gradient"/>
    <linearGradient id="linear-gradient-4" x1="-2.285" y1="3.276" x2="-2.264" y2="3.276" xlink:href="#linear-gradient"/>
    <linearGradient id="linear-gradient-5" x1="-2.285" y1="2.467" x2="-2.264" y2="2.467" xlink:href="#linear-gradient"/>
    <linearGradient id="linear-gradient-6" x1="-2.285" y1="1.68" x2="-2.264" y2="1.68" xlink:href="#linear-gradient"/>
    <linearGradient id="linear-gradient-7" x1="-2.285" y1="0.893" x2="-2.264" y2="0.893" xlink:href="#linear-gradient"/>
    <clipPath id="clip-path-19">
      <path id="Trazado_873513" data-name="Trazado 873513" d="M18.555,9.277A9.277,9.277,0,1,1,9.277,0a9.277,9.277,0,0,1,9.277,9.277" fill="none"/>
    </clipPath>
    <linearGradient id="linear-gradient-8" x1="-1.498" y1="5.638" x2="-1.477" y2="5.638" xlink:href="#linear-gradient"/>
    <clipPath id="clip-path-21">
      <path id="Trazado_873514" data-name="Trazado 873514" d="M18.555,9.278A9.278,9.278,0,1,1,9.277,0a9.278,9.278,0,0,1,9.278,9.278" fill="none"/>
    </clipPath>
    <linearGradient id="linear-gradient-9" x1="-2.285" y1="6.451" x2="-2.264" y2="6.451" xlink:href="#linear-gradient"/>
    <linearGradient id="linear-gradient-10" x1="-2.285" y1="7.242" x2="-2.264" y2="7.242" xlink:href="#linear-gradient"/>
    <linearGradient id="linear-gradient-11" x1="-2.285" y1="8.043" x2="-2.264" y2="8.043" xlink:href="#linear-gradient"/>
    <linearGradient id="linear-gradient-12" x1="-2.285" y1="8.848" x2="-2.264" y2="8.848" xlink:href="#linear-gradient"/>
    <linearGradient id="linear-gradient-13" x1="-2.285" y1="9.649" x2="-2.264" y2="9.649" xlink:href="#linear-gradient"/>
    <clipPath id="clip-path-31">
      <path id="Trazado_873519" data-name="Trazado 873519" d="M18.555,9.278A9.277,9.277,0,1,1,9.277,0a9.277,9.277,0,0,1,9.277,9.278" fill="none"/>
    </clipPath>
    <linearGradient id="linear-gradient-14" x1="-1.498" y1="6.451" x2="-1.477" y2="6.451" xlink:href="#linear-gradient"/>
    <clipPath id="clip-path-33">
      <path id="Trazado_873520" data-name="Trazado 873520" d="M18.555,9.277A9.277,9.277,0,1,1,9.277,0a9.278,9.278,0,0,1,9.277,9.277" fill="none"/>
    </clipPath>
    <linearGradient id="linear-gradient-15" x1="-0.711" y1="5.638" x2="-0.691" y2="5.638" xlink:href="#linear-gradient"/>
    <clipPath id="clip-path-35">
      <path id="Trazado_873521" data-name="Trazado 873521" d="M18.555,9.277A9.278,9.278,0,1,1,9.278,0a9.277,9.277,0,0,1,9.277,9.277" fill="none"/>
    </clipPath>
    <linearGradient id="linear-gradient-16" x1="-1.48" y1="4.852" x2="-1.459" y2="4.852" xlink:href="#linear-gradient"/>
    <linearGradient id="linear-gradient-17" x1="0.087" y1="5.638" x2="0.108" y2="5.638" xlink:href="#linear-gradient"/>
    <linearGradient id="linear-gradient-18" x1="-0.682" y1="4.852" x2="-0.661" y2="4.852" xlink:href="#linear-gradient"/>
    <clipPath id="clip-path-41">
      <path id="Trazado_873524" data-name="Trazado 873524" d="M18.555,9.277A9.278,9.278,0,1,1,9.278,0a9.278,9.278,0,0,1,9.277,9.277" fill="none"/>
    </clipPath>
    <linearGradient id="linear-gradient-19" x1="-1.48" y1="4.063" x2="-1.459" y2="4.063" xlink:href="#linear-gradient"/>
    <linearGradient id="linear-gradient-20" x1="0.107" y1="4.852" x2="0.128" y2="4.852" xlink:href="#linear-gradient"/>
    <linearGradient id="linear-gradient-21" x1="-0.682" y1="4.061" x2="-0.661" y2="4.061" xlink:href="#linear-gradient"/>
    <linearGradient id="linear-gradient-22" x1="-1.48" y1="3.276" x2="-1.459" y2="3.276" xlink:href="#linear-gradient"/>
    <clipPath id="clip-path-49">
      <path id="Trazado_873528" data-name="Trazado 873528" d="M18.555,9.278A9.277,9.277,0,1,1,9.277,0a9.278,9.278,0,0,1,9.277,9.278" fill="none"/>
    </clipPath>
    <linearGradient id="linear-gradient-23" x1="-0.711" y1="6.451" x2="-0.691" y2="6.451" xlink:href="#linear-gradient"/>
    <linearGradient id="linear-gradient-24" x1="0.075" y1="6.451" x2="0.096" y2="6.451" xlink:href="#linear-gradient"/>
    <linearGradient id="linear-gradient-25" x1="-1.498" y1="7.238" x2="-1.477" y2="7.238" xlink:href="#linear-gradient"/>
    <linearGradient id="linear-gradient-26" x1="-0.711" y1="7.238" x2="-0.691" y2="7.238" xlink:href="#linear-gradient"/>
    <clipPath id="clip-path-57">
      <path id="Trazado_873532" data-name="Trazado 873532" d="M18.555,9.278A9.278,9.278,0,1,1,9.278,0a9.278,9.278,0,0,1,9.277,9.278" fill="none"/>
    </clipPath>
    <linearGradient id="linear-gradient-27" x1="-1.48" y1="8.043" x2="-1.459" y2="8.043" xlink:href="#linear-gradient"/>
    <clipPath id="clip-path-58">
      <rect id="Rectángulo_400938" data-name="Rectángulo 400938" width="120" height="120" fill="none"/>
    </clipPath>
    <clipPath id="clip-path-59">
      <rect id="Rectángulo_400938-2" data-name="Rectángulo 400938" width="113" height="113" transform="translate(0.211 0.211)" fill="none"/>
    </clipPath>
  </defs>
  <g id="Grupo_1119775" data-name="Grupo 1119775" transform="translate(-376 -1678)">
    <g id="Grupo_108927" data-name="Grupo 108927" transform="translate(-14 -2789)">
      <path id="Rectángulo_36179-2" data-name="Rectángulo 36179" d="M0,0H129V128H0Z" transform="translate(390 4467)" fill="#dcedc8"/>
      <g id="Enmascarar_grupo_1100031" data-name="Enmascarar grupo 1100031" clip-path="url(#clip-path)">
        <g id="Grupo_1099913" data-name="Grupo 1099913" transform="translate(454.5 4639.479) rotate(180)" clip-path="url(#clip-path-2)">
          <g id="Grupo_1099912" data-name="Grupo 1099912">
            <g id="Grupo_1099911" data-name="Grupo 1099911" clip-path="url(#clip-path-2)">
              <g id="Grupo_1099780" data-name="Grupo 1099780" transform="translate(56.405 94.592)" opacity="0.8" style="mix-blend-mode: multiply;isolation: isolate">
                <g id="Grupo_1099779" data-name="Grupo 1099779" transform="translate(0 0)">
                  <g id="Grupo_1099778" data-name="Grupo 1099778" transform="translate(0 0)" clip-path="url(#clip-path-4)">
                    <g id="Grupo_1099777" data-name="Grupo 1099777" transform="translate(0 0)">
                      <g id="Grupo_1099776" data-name="Grupo 1099776" clip-path="url(#clip-path-5)">
                        <rect id="Rectángulo_401246" data-name="Rectángulo 401246" width="23.587" height="23.587" transform="translate(-5.714 16.586) rotate(-70.991)" fill="url(#linear-gradient)"/>
                      </g>
                    </g>
                  </g>
                </g>
              </g>
              <g id="Grupo_1099785" data-name="Grupo 1099785" transform="translate(56.405 113.147)" opacity="0.8" style="mix-blend-mode: multiply;isolation: isolate">
                <g id="Grupo_1099784" data-name="Grupo 1099784">
                  <g id="Grupo_1099783" data-name="Grupo 1099783" clip-path="url(#clip-path-4)">
                    <g id="Grupo_1099782" data-name="Grupo 1099782" transform="translate(0)">
                      <g id="Grupo_1099781" data-name="Grupo 1099781" clip-path="url(#clip-path-7)">
                        <rect id="Rectángulo_401248" data-name="Rectángulo 401248" width="23.587" height="23.587" transform="translate(-5.714 16.586) rotate(-70.991)" fill="url(#linear-gradient-2)"/>
                      </g>
                    </g>
                  </g>
                </g>
              </g>
              <g id="Grupo_1099790" data-name="Grupo 1099790" transform="translate(56.405 131.759)" opacity="0.8" style="mix-blend-mode: multiply;isolation: isolate">
                <g id="Grupo_1099789" data-name="Grupo 1099789" transform="translate(0 0)">
                  <g id="Grupo_1099788" data-name="Grupo 1099788" transform="translate(0 0)" clip-path="url(#clip-path-4)">
                    <g id="Grupo_1099787" data-name="Grupo 1099787" transform="translate(0 0)">
                      <g id="Grupo_1099786" data-name="Grupo 1099786" clip-path="url(#clip-path-5)">
                        <rect id="Rectángulo_401250" data-name="Rectángulo 401250" width="23.587" height="23.587" transform="translate(-5.714 16.586) rotate(-70.991)" fill="url(#linear-gradient-3)"/>
                      </g>
                    </g>
                  </g>
                </g>
              </g>
              <g id="Grupo_1099795" data-name="Grupo 1099795" transform="translate(56.405 150.314)" opacity="0.8" style="mix-blend-mode: multiply;isolation: isolate">
                <g id="Grupo_1099794" data-name="Grupo 1099794" transform="translate(0 0)">
                  <g id="Grupo_1099793" data-name="Grupo 1099793" transform="translate(0 0)" clip-path="url(#clip-path-4)">
                    <g id="Grupo_1099792" data-name="Grupo 1099792" transform="translate(0 0)">
                      <g id="Grupo_1099791" data-name="Grupo 1099791" clip-path="url(#clip-path-7)">
                        <rect id="Rectángulo_401252" data-name="Rectángulo 401252" width="23.587" height="23.587" transform="translate(-5.714 16.586) rotate(-70.991)" fill="url(#linear-gradient-4)"/>
                      </g>
                    </g>
                  </g>
                </g>
              </g>
              <g id="Grupo_1099800" data-name="Grupo 1099800" transform="translate(56.405 169.403)" opacity="0.8" style="mix-blend-mode: multiply;isolation: isolate">
                <g id="Grupo_1099799" data-name="Grupo 1099799">
                  <g id="Grupo_1099798" data-name="Grupo 1099798" clip-path="url(#clip-path-4)">
                    <g id="Grupo_1099797" data-name="Grupo 1099797" transform="translate(0 0)">
                      <g id="Grupo_1099796" data-name="Grupo 1099796" clip-path="url(#clip-path-7)">
                        <rect id="Rectángulo_401254" data-name="Rectángulo 401254" width="23.587" height="23.587" transform="translate(-5.714 16.586) rotate(-70.991)" fill="url(#linear-gradient-5)"/>
                      </g>
                    </g>
                  </g>
                </g>
              </g>
              <g id="Grupo_1099805" data-name="Grupo 1099805" transform="translate(56.405 187.958)" opacity="0.8" style="mix-blend-mode: multiply;isolation: isolate">
                <g id="Grupo_1099804" data-name="Grupo 1099804" transform="translate(0 0)">
                  <g id="Grupo_1099803" data-name="Grupo 1099803" transform="translate(0 0)" clip-path="url(#clip-path-4)">
                    <g id="Grupo_1099802" data-name="Grupo 1099802" transform="translate(0 0)">
                      <g id="Grupo_1099801" data-name="Grupo 1099801" clip-path="url(#clip-path-5)">
                        <rect id="Rectángulo_401256" data-name="Rectángulo 401256" width="23.587" height="23.587" transform="translate(-5.714 16.587) rotate(-70.991)" fill="url(#linear-gradient-6)"/>
                      </g>
                    </g>
                  </g>
                </g>
              </g>
              <g id="Grupo_1099810" data-name="Grupo 1099810" transform="translate(56.405 206.513)" opacity="0.8" style="mix-blend-mode: multiply;isolation: isolate">
                <g id="Grupo_1099809" data-name="Grupo 1099809" transform="translate(0 0)">
                  <g id="Grupo_1099808" data-name="Grupo 1099808" transform="translate(0 0)" clip-path="url(#clip-path-4)">
                    <g id="Grupo_1099807" data-name="Grupo 1099807" transform="translate(0 0)">
                      <g id="Grupo_1099806" data-name="Grupo 1099806" clip-path="url(#clip-path-5)">
                        <rect id="Rectángulo_401258" data-name="Rectángulo 401258" width="23.587" height="23.587" transform="translate(-5.714 16.586) rotate(-70.991)" fill="url(#linear-gradient-7)"/>
                      </g>
                    </g>
                  </g>
                </g>
              </g>
              <g id="Grupo_1099815" data-name="Grupo 1099815" transform="translate(37.85 94.592)" opacity="0.8" style="mix-blend-mode: multiply;isolation: isolate">
                <g id="Grupo_1099814" data-name="Grupo 1099814" transform="translate(0 0)">
                  <g id="Grupo_1099813" data-name="Grupo 1099813" transform="translate(0 0)" clip-path="url(#clip-path-4)">
                    <g id="Grupo_1099812" data-name="Grupo 1099812" transform="translate(0 0)">
                      <g id="Grupo_1099811" data-name="Grupo 1099811" clip-path="url(#clip-path-19)">
                        <rect id="Rectángulo_401260" data-name="Rectángulo 401260" width="23.587" height="23.587" transform="translate(-5.714 16.586) rotate(-70.991)" fill="url(#linear-gradient-8)"/>
                      </g>
                    </g>
                  </g>
                </g>
              </g>
              <g id="Grupo_1099820" data-name="Grupo 1099820" transform="translate(56.405 75.434)" opacity="0.8" style="mix-blend-mode: multiply;isolation: isolate">
                <g id="Grupo_1099819" data-name="Grupo 1099819" transform="translate(0 0)">
                  <g id="Grupo_1099818" data-name="Grupo 1099818" transform="translate(0 0)" clip-path="url(#clip-path-4)">
                    <g id="Grupo_1099817" data-name="Grupo 1099817" transform="translate(0 0)">
                      <g id="Grupo_1099816" data-name="Grupo 1099816" clip-path="url(#clip-path-21)">
                        <rect id="Rectángulo_401262" data-name="Rectángulo 401262" width="23.587" height="23.587" transform="matrix(0.326, -0.945, 0.945, 0.326, -5.714, 16.587)" fill="url(#linear-gradient-9)"/>
                      </g>
                    </g>
                  </g>
                </g>
              </g>
              <g id="Grupo_1099825" data-name="Grupo 1099825" transform="translate(56.405 56.776)" opacity="0.8" style="mix-blend-mode: multiply;isolation: isolate">
                <g id="Grupo_1099824" data-name="Grupo 1099824" transform="translate(0 0)">
                  <g id="Grupo_1099823" data-name="Grupo 1099823" transform="translate(0 0)" clip-path="url(#clip-path-4)">
                    <g id="Grupo_1099822" data-name="Grupo 1099822" transform="translate(0 0)">
                      <g id="Grupo_1099821" data-name="Grupo 1099821" clip-path="url(#clip-path-5)">
                        <rect id="Rectángulo_401264" data-name="Rectángulo 401264" width="23.587" height="23.587" transform="translate(-5.714 16.586) rotate(-70.991)" fill="url(#linear-gradient-10)"/>
                      </g>
                    </g>
                  </g>
                </g>
              </g>
              <g id="Grupo_1099830" data-name="Grupo 1099830" transform="translate(56.405 37.88)" opacity="0.8" style="mix-blend-mode: multiply;isolation: isolate">
                <g id="Grupo_1099829" data-name="Grupo 1099829" transform="translate(0 0)">
                  <g id="Grupo_1099828" data-name="Grupo 1099828" transform="translate(0 0)" clip-path="url(#clip-path-4)">
                    <g id="Grupo_1099827" data-name="Grupo 1099827" transform="translate(0 0)">
                      <g id="Grupo_1099826" data-name="Grupo 1099826" clip-path="url(#clip-path-21)">
                        <rect id="Rectángulo_401266" data-name="Rectángulo 401266" width="23.587" height="23.587" transform="translate(-5.714 16.587) rotate(-70.991)" fill="url(#linear-gradient-11)"/>
                      </g>
                    </g>
                  </g>
                </g>
              </g>
              <g id="Grupo_1099835" data-name="Grupo 1099835" transform="translate(56.405 18.896)" opacity="0.8" style="mix-blend-mode: multiply;isolation: isolate">
                <g id="Grupo_1099834" data-name="Grupo 1099834">
                  <g id="Grupo_1099833" data-name="Grupo 1099833" clip-path="url(#clip-path-4)">
                    <g id="Grupo_1099832" data-name="Grupo 1099832" transform="translate(0 0)">
                      <g id="Grupo_1099831" data-name="Grupo 1099831" clip-path="url(#clip-path-5)">
                        <rect id="Rectángulo_401268" data-name="Rectángulo 401268" width="23.587" height="23.587" transform="translate(-5.714 16.586) rotate(-70.991)" fill="url(#linear-gradient-12)"/>
                      </g>
                    </g>
                  </g>
                </g>
              </g>
              <g id="Grupo_1099840" data-name="Grupo 1099840" transform="translate(56.405)" opacity="0.8" style="mix-blend-mode: multiply;isolation: isolate">
                <g id="Grupo_1099839" data-name="Grupo 1099839">
                  <g id="Grupo_1099838" data-name="Grupo 1099838" clip-path="url(#clip-path-4)">
                    <g id="Grupo_1099837" data-name="Grupo 1099837" transform="translate(0)">
                      <g id="Grupo_1099836" data-name="Grupo 1099836" clip-path="url(#clip-path-5)">
                        <rect id="Rectángulo_401270" data-name="Rectángulo 401270" width="23.587" height="23.587" transform="translate(-5.714 16.586) rotate(-70.991)" fill="url(#linear-gradient-13)"/>
                      </g>
                    </g>
                  </g>
                </g>
              </g>
              <g id="Grupo_1099845" data-name="Grupo 1099845" transform="translate(37.85 75.434)" opacity="0.8" style="mix-blend-mode: multiply;isolation: isolate">
                <g id="Grupo_1099844" data-name="Grupo 1099844" transform="translate(0 0)">
                  <g id="Grupo_1099843" data-name="Grupo 1099843" transform="translate(0 0)" clip-path="url(#clip-path-4)">
                    <g id="Grupo_1099842" data-name="Grupo 1099842" transform="translate(0 0)">
                      <g id="Grupo_1099841" data-name="Grupo 1099841" clip-path="url(#clip-path-31)">
                        <rect id="Rectángulo_401272" data-name="Rectángulo 401272" width="23.587" height="23.587" transform="translate(-5.714 16.587) rotate(-70.991)" fill="url(#linear-gradient-14)"/>
                      </g>
                    </g>
                  </g>
                </g>
              </g>
              <g id="Grupo_1099850" data-name="Grupo 1099850" transform="translate(19.295 94.592)" opacity="0.8" style="mix-blend-mode: multiply;isolation: isolate">
                <g id="Grupo_1099849" data-name="Grupo 1099849" transform="translate(0 0)">
                  <g id="Grupo_1099848" data-name="Grupo 1099848" transform="translate(0 0)" clip-path="url(#clip-path-4)">
                    <g id="Grupo_1099847" data-name="Grupo 1099847" transform="translate(0 0)">
                      <g id="Grupo_1099846" data-name="Grupo 1099846" clip-path="url(#clip-path-33)">
                        <rect id="Rectángulo_401274" data-name="Rectángulo 401274" width="23.587" height="23.587" transform="translate(-5.714 16.586) rotate(-70.991)" fill="url(#linear-gradient-15)"/>
                      </g>
                    </g>
                  </g>
                </g>
              </g>
              <g id="Grupo_1099855" data-name="Grupo 1099855" transform="translate(37.424 113.147)" opacity="0.8" style="mix-blend-mode: multiply;isolation: isolate">
                <g id="Grupo_1099854" data-name="Grupo 1099854">
                  <g id="Grupo_1099853" data-name="Grupo 1099853" clip-path="url(#clip-path-4)">
                    <g id="Grupo_1099852" data-name="Grupo 1099852" transform="translate(0)">
                      <g id="Grupo_1099851" data-name="Grupo 1099851" transform="translate(0)" clip-path="url(#clip-path-35)">
                        <rect id="Rectángulo_401276" data-name="Rectángulo 401276" width="23.587" height="23.587" transform="translate(-5.714 16.586) rotate(-70.991)" fill="url(#linear-gradient-16)"/>
                      </g>
                    </g>
                  </g>
                </g>
              </g>
              <g id="Grupo_1099860" data-name="Grupo 1099860" transform="translate(0.462 94.592)" opacity="0.8" style="mix-blend-mode: multiply;isolation: isolate">
                <g id="Grupo_1099859" data-name="Grupo 1099859" transform="translate(0 0)">
                  <g id="Grupo_1099858" data-name="Grupo 1099858" transform="translate(0 0)" clip-path="url(#clip-path-4)">
                    <g id="Grupo_1099857" data-name="Grupo 1099857" transform="translate(0 0)">
                      <g id="Grupo_1099856" data-name="Grupo 1099856" clip-path="url(#clip-path-5)">
                        <rect id="Rectángulo_401278" data-name="Rectángulo 401278" width="23.587" height="23.587" transform="translate(-5.714 16.586) rotate(-70.991)" fill="url(#linear-gradient-17)"/>
                      </g>
                    </g>
                  </g>
                </g>
              </g>
              <g id="Grupo_1099865" data-name="Grupo 1099865" transform="translate(18.591 113.147)" opacity="0.8" style="mix-blend-mode: multiply;isolation: isolate">
                <g id="Grupo_1099864" data-name="Grupo 1099864">
                  <g id="Grupo_1099863" data-name="Grupo 1099863" clip-path="url(#clip-path-4)">
                    <g id="Grupo_1099862" data-name="Grupo 1099862" transform="translate(0)">
                      <g id="Grupo_1099861" data-name="Grupo 1099861" clip-path="url(#clip-path-19)">
                        <rect id="Rectángulo_401280" data-name="Rectángulo 401280" width="23.587" height="23.587" transform="translate(-5.714 16.586) rotate(-70.991)" fill="url(#linear-gradient-18)"/>
                      </g>
                    </g>
                  </g>
                </g>
              </g>
              <g id="Grupo_1099870" data-name="Grupo 1099870" transform="translate(37.424 131.759)" opacity="0.8" style="mix-blend-mode: multiply;isolation: isolate">
                <g id="Grupo_1099869" data-name="Grupo 1099869" transform="translate(0 0)">
                  <g id="Grupo_1099868" data-name="Grupo 1099868" transform="translate(0 0)" clip-path="url(#clip-path-4)">
                    <g id="Grupo_1099867" data-name="Grupo 1099867" transform="translate(0 0)">
                      <g id="Grupo_1099866" data-name="Grupo 1099866" transform="translate(0)" clip-path="url(#clip-path-41)">
                        <rect id="Rectángulo_401282" data-name="Rectángulo 401282" width="23.587" height="23.587" transform="translate(-5.714 16.586) rotate(-70.991)" fill="url(#linear-gradient-19)"/>
                      </g>
                    </g>
                  </g>
                </g>
              </g>
              <g id="Grupo_1099875" data-name="Grupo 1099875" transform="translate(0 113.147)" opacity="0.8" style="mix-blend-mode: multiply;isolation: isolate">
                <g id="Grupo_1099874" data-name="Grupo 1099874">
                  <g id="Grupo_1099873" data-name="Grupo 1099873" clip-path="url(#clip-path-4)">
                    <g id="Grupo_1099872" data-name="Grupo 1099872">
                      <g id="Grupo_1099871" data-name="Grupo 1099871" clip-path="url(#clip-path-19)">
                        <rect id="Rectángulo_401284" data-name="Rectángulo 401284" width="23.587" height="23.587" transform="translate(-5.714 16.586) rotate(-70.991)" fill="url(#linear-gradient-20)"/>
                      </g>
                    </g>
                  </g>
                </g>
              </g>
              <g id="Grupo_1099880" data-name="Grupo 1099880" transform="translate(18.591 131.8)" opacity="0.8" style="mix-blend-mode: multiply;isolation: isolate">
                <g id="Grupo_1099879" data-name="Grupo 1099879" transform="translate(0)">
                  <g id="Grupo_1099878" data-name="Grupo 1099878" transform="translate(0)" clip-path="url(#clip-path-4)">
                    <g id="Grupo_1099877" data-name="Grupo 1099877" transform="translate(0 0)">
                      <g id="Grupo_1099876" data-name="Grupo 1099876" clip-path="url(#clip-path-19)">
                        <rect id="Rectángulo_401286" data-name="Rectángulo 401286" width="23.587" height="23.587" transform="translate(-5.714 16.586) rotate(-70.991)" fill="url(#linear-gradient-21)"/>
                      </g>
                    </g>
                  </g>
                </g>
              </g>
              <g id="Grupo_1099885" data-name="Grupo 1099885" transform="translate(37.424 150.314)" opacity="0.8" style="mix-blend-mode: multiply;isolation: isolate">
                <g id="Grupo_1099884" data-name="Grupo 1099884" transform="translate(0 0)">
                  <g id="Grupo_1099883" data-name="Grupo 1099883" transform="translate(0 0)" clip-path="url(#clip-path-4)">
                    <g id="Grupo_1099882" data-name="Grupo 1099882" transform="translate(0 0)">
                      <g id="Grupo_1099881" data-name="Grupo 1099881" transform="translate(0)" clip-path="url(#clip-path-35)">
                        <rect id="Rectángulo_401288" data-name="Rectángulo 401288" width="23.587" height="23.587" transform="translate(-5.714 16.586) rotate(-70.991)" fill="url(#linear-gradient-22)"/>
                      </g>
                    </g>
                  </g>
                </g>
              </g>
              <g id="Grupo_1099890" data-name="Grupo 1099890" transform="translate(19.295 75.434)" opacity="0.8" style="mix-blend-mode: multiply;isolation: isolate">
                <g id="Grupo_1099889" data-name="Grupo 1099889" transform="translate(0 0)">
                  <g id="Grupo_1099888" data-name="Grupo 1099888" transform="translate(0 0)" clip-path="url(#clip-path-4)">
                    <g id="Grupo_1099887" data-name="Grupo 1099887" transform="translate(0 0)">
                      <g id="Grupo_1099886" data-name="Grupo 1099886" clip-path="url(#clip-path-49)">
                        <rect id="Rectángulo_401290" data-name="Rectángulo 401290" width="23.587" height="23.587" transform="translate(-5.714 16.587) rotate(-70.991)" fill="url(#linear-gradient-23)"/>
                      </g>
                    </g>
                  </g>
                </g>
              </g>
              <g id="Grupo_1099895" data-name="Grupo 1099895" transform="translate(0.74 75.434)" opacity="0.8" style="mix-blend-mode: multiply;isolation: isolate">
                <g id="Grupo_1099894" data-name="Grupo 1099894" transform="translate(0 0)">
                  <g id="Grupo_1099893" data-name="Grupo 1099893" transform="translate(0 0)" clip-path="url(#clip-path-4)">
                    <g id="Grupo_1099892" data-name="Grupo 1099892" transform="translate(0 0)">
                      <g id="Grupo_1099891" data-name="Grupo 1099891" transform="translate(0)" clip-path="url(#clip-path-21)">
                        <rect id="Rectángulo_401292" data-name="Rectángulo 401292" width="23.587" height="23.587" transform="matrix(0.326, -0.945, 0.945, 0.326, -5.714, 16.587)" fill="url(#linear-gradient-24)"/>
                      </g>
                    </g>
                  </g>
                </g>
              </g>
              <g id="Grupo_1099900" data-name="Grupo 1099900" transform="translate(37.85 56.861)" opacity="0.8" style="mix-blend-mode: multiply;isolation: isolate">
                <g id="Grupo_1099899" data-name="Grupo 1099899" transform="translate(0 0)">
                  <g id="Grupo_1099898" data-name="Grupo 1099898" transform="translate(0 0)" clip-path="url(#clip-path-4)">
                    <g id="Grupo_1099897" data-name="Grupo 1099897" transform="translate(0 0)">
                      <g id="Grupo_1099896" data-name="Grupo 1099896" clip-path="url(#clip-path-31)">
                        <rect id="Rectángulo_401294" data-name="Rectángulo 401294" width="23.587" height="23.587" transform="translate(-5.714 16.587) rotate(-70.991)" fill="url(#linear-gradient-25)"/>
                      </g>
                    </g>
                  </g>
                </g>
              </g>
              <g id="Grupo_1099905" data-name="Grupo 1099905" transform="translate(19.295 56.861)" opacity="0.8" style="mix-blend-mode: multiply;isolation: isolate">
                <g id="Grupo_1099904" data-name="Grupo 1099904" transform="translate(0 0)">
                  <g id="Grupo_1099903" data-name="Grupo 1099903" transform="translate(0 0)" clip-path="url(#clip-path-4)">
                    <g id="Grupo_1099902" data-name="Grupo 1099902" transform="translate(0 0)">
                      <g id="Grupo_1099901" data-name="Grupo 1099901" clip-path="url(#clip-path-49)">
                        <rect id="Rectángulo_401296" data-name="Rectángulo 401296" width="23.587" height="23.587" transform="translate(-5.714 16.587) rotate(-70.991)" fill="url(#linear-gradient-26)"/>
                      </g>
                    </g>
                  </g>
                </g>
              </g>
              <g id="Grupo_1099910" data-name="Grupo 1099910" transform="translate(37.424 37.88)" opacity="0.8" style="mix-blend-mode: multiply;isolation: isolate">
                <g id="Grupo_1099909" data-name="Grupo 1099909" transform="translate(0 0)">
                  <g id="Grupo_1099908" data-name="Grupo 1099908" transform="translate(0 0)" clip-path="url(#clip-path-4)">
                    <g id="Grupo_1099907" data-name="Grupo 1099907" transform="translate(0 0)">
                      <g id="Grupo_1099906" data-name="Grupo 1099906" transform="translate(0)" clip-path="url(#clip-path-57)">
                        <rect id="Rectángulo_401298" data-name="Rectángulo 401298" width="23.587" height="23.587" transform="matrix(0.326, -0.945, 0.945, 0.326, -5.714, 16.587)" fill="url(#linear-gradient-27)"/>
                      </g>
                    </g>
                  </g>
                </g>
              </g>
            </g>
          </g>
        </g>
      </g>
    </g>
    <g id="Grupo_1119239" data-name="Grupo 1119239" transform="translate(118.789 -3598.211)">
      <g id="Grupo_1099379" data-name="Grupo 1099379" transform="translate(265 5284)">
        <rect id="Rectángulo_401103" data-name="Rectángulo 401103" width="113" height="113" transform="translate(0.211 0.211)" fill="none"/>
        <path id="Trazado_873425" data-name="Trazado 873425" d="M47.337,0A47.337,47.337,0,1,1,0,47.337,47.337,47.337,0,0,1,47.337,0Z" transform="translate(14.061 16.873)" fill="#4c5066"/>
        <circle id="Elipse_11503" data-name="Elipse 11503" cx="49.5" cy="49.5" r="49.5" transform="translate(7.211 7.211)" fill="#fff"/>
      </g>
      <g id="Grupo_1099380" data-name="Grupo 1099380" transform="translate(289.372 5307.434)">
        <rect id="Rectángulo_401104" data-name="Rectángulo 401104" width="64" height="65" transform="translate(-0.16 -0.223)" fill="none"/>
        <g id="Grupo_1119686" data-name="Grupo 1119686" transform="translate(-0.163 -0.223)">
          <path id="Trazado_906711" data-name="Trazado 906711" d="M216.713,151H211v43.926a1.9,1.9,0,0,0,1.9,1.9h7.617a1.9,1.9,0,0,0,1.9-1.9V151Z" transform="translate(-184.212 -131.83)" fill="#aa3c6e"/>
          <path id="Trazado_906712" data-name="Trazado 906712" d="M261.713,194.926V151H256v45.83h3.809A1.9,1.9,0,0,0,261.713,194.926Z" transform="translate(-223.499 -131.83)" fill="#7e325f"/>
          <path id="Trazado_906713" data-name="Trazado 906713" d="M51.544,241H13.331a1.9,1.9,0,0,0-1.346.558L.559,252.984a1.9,1.9,0,0,0,0,2.693L11.984,267.1a1.9,1.9,0,0,0,1.346.558H51.544a1.9,1.9,0,0,0,1.9-1.9V242.9A1.9,1.9,0,0,0,51.544,241Z" transform="translate(0 -210.404)" fill="#ff6e7c"/>
          <path id="Trazado_906714" data-name="Trazado 906714" d="M276.947,265.756V242.9a1.9,1.9,0,0,0-1.9-1.9H256v26.66h19.043A1.9,1.9,0,0,0,276.947,265.756Z" transform="translate(-223.499 -210.404)" fill="#ff468c"/>
          <path id="Trazado_906715" data-name="Trazado 906715" d="M143.889,12.111,132.464.558A1.9,1.9,0,0,0,131.117,0H92.9A1.9,1.9,0,0,0,91,1.9V24.883a1.9,1.9,0,0,0,1.9,1.9h38.213a1.9,1.9,0,0,0,1.346-.558L143.889,14.8A1.9,1.9,0,0,0,143.889,12.111Z" transform="translate(-79.447)" fill="#b4eb91"/>
          <path id="Trazado_906716" data-name="Trazado 906716" d="M276.516,26.229,287.942,14.8a1.9,1.9,0,0,0,0-2.693L276.516.558A1.9,1.9,0,0,0,275.17,0H256V26.787h19.17A1.9,1.9,0,0,0,276.516,26.229Z" transform="translate(-223.499 0)" fill="#96d778"/>
          <g id="Grupo_1119685" data-name="Grupo 1119685" transform="translate(38.214 8.698)">
            <path id="Trazado_906717" data-name="Trazado 906717" d="M305.367,78.428l-3.809-3.809a1.9,1.9,0,0,1,2.693-2.693l2.219,2.219,3.455-4.835a1.9,1.9,0,1,1,3.1,2.213l-4.761,6.665A1.9,1.9,0,0,1,305.367,78.428Z" transform="translate(-301.001 -68.514)" fill="#b5efff"/>
          </g>
          <path id="Trazado_906718" data-name="Trazado 906718" d="M137.08,314.387l1.346-1.346a1.9,1.9,0,0,0-2.693-2.693l-1.346,1.346-1.346-1.346a1.9,1.9,0,0,0-2.693,2.693l1.346,1.346-1.346,1.346a1.9,1.9,0,0,0,2.693,2.693l1.346-1.346,1.346,1.346a1.9,1.9,0,0,0,2.693-2.693Z" transform="translate(-113.312 -270.461)" fill="#e3fbff"/>
        </g>
      </g>
    </g>
  </g>
</svg>
