<svg id="Grupo_1101144" data-name="Grupo 1101144" xmlns="http://www.w3.org/2000/svg" width="74.99" height="76.092" viewBox="0 0 74.99 76.092">
  <rect id="Rectángulo_401104" data-name="Rectángulo 401104" width="74.99" height="76.093" fill="none"/>
  <g id="Page-1" transform="translate(0.009 3.879)">
    <g id="_093---Payday" data-name="093---Payday" transform="translate(-0.009)">
      <path id="Shape" d="M10.427,4,1.073,42.291A2.333,2.333,0,0,0,3.24,45.236h9.543Z" transform="translate(-0.991 0.713)" fill="#f29c1f"/>
      <path id="Shape-2" data-name="Shape" d="M13.713,49.949H11.356A2.363,2.363,0,0,1,9,47.593V4H60.84A2.363,2.363,0,0,1,63.2,6.356v27.1Z" transform="translate(0.436 0.713)" fill="#f0c419"/>
      <rect id="Rectangle-path" width="54.196" height="34.167" rx="2" transform="translate(14.149 34.167)" fill="#26b99a"/>
      <circle id="Oval" cx="3.535" cy="3.535" r="3.535" transform="translate(15.327 20.029)" fill="#f29c1f"/>
      <circle id="Oval-2" data-name="Oval" cx="3.535" cy="3.535" r="3.535" transform="translate(27.108 20.029)" fill="#f29c1f"/>
      <circle id="Oval-3" data-name="Oval" cx="3.535" cy="3.535" r="3.535" transform="translate(50.672 20.029)" fill="#f29c1f"/>
      <path id="Shape-3" data-name="Shape" d="M36.354,25.425a1.178,1.178,0,0,1-.833-.345L34.343,23.9a1.178,1.178,0,0,1,1.666-1.666l.163.163,3.915-5.874a1.178,1.178,0,0,1,1.96,1.308L37.334,24.9a1.178,1.178,0,0,1-.862.524h-.118Z" transform="translate(4.892 2.851)" fill="#4fba6f"/>
      <path id="Shape-4" data-name="Shape" d="M38.07,44.9v-6.97a3.535,3.535,0,0,1,2.356,3.318,1.178,1.178,0,0,0,2.356,0,5.9,5.9,0,0,0-4.713-5.773v-1.3a1.178,1.178,0,0,0-2.356,0v1.3a5.891,5.891,0,0,0,0,11.546v6.971a3.535,3.535,0,0,1-2.356-3.319,1.178,1.178,0,0,0-2.356,0,5.9,5.9,0,0,0,4.713,5.773v1.3a1.178,1.178,0,1,0,2.356,0v-1.3a5.891,5.891,0,0,0,0-11.546Zm-4.713-3.652a3.535,3.535,0,0,1,2.356-3.318v6.635A3.535,3.535,0,0,1,33.357,41.247ZM38.07,53.99V47.355a3.513,3.513,0,0,1,0,6.635Z" transform="translate(4.355 5.88)" fill="#ecf0f1"/>
      <circle id="Oval-4" data-name="Oval" cx="3.535" cy="3.535" r="3.535" transform="translate(21.218 47.127)" fill="#81ccb8"/>
      <circle id="Oval-5" data-name="Oval" cx="3.535" cy="3.535" r="3.535" transform="translate(54.207 47.127)" fill="#81ccb8"/>
      <path id="Shape-5" data-name="Shape" d="M63.2,6.356v7.069H9V4H60.84A2.363,2.363,0,0,1,63.2,6.356Z" transform="translate(0.436 0.713)" fill="#e64c3c"/>
      <g id="Grupo_1119748" data-name="Grupo 1119748" transform="translate(14.149 34.167)">
        <path id="Shape-6" data-name="Shape" d="M60.425,50v7.069a2.363,2.363,0,0,1-2.356,2.356H51A9.425,9.425,0,0,1,60.425,50Z" transform="translate(-6.229 -25.258)" fill="#14a085"/>
        <path id="Shape-7" data-name="Shape" d="M22.425,29A9.425,9.425,0,0,1,13,38.425V31.356A2.363,2.363,0,0,1,15.356,29Z" transform="translate(-13 -29)" fill="#14a085"/>
        <path id="Shape-8" data-name="Shape" d="M22.425,59.425H15.356A2.363,2.363,0,0,1,13,57.069V50a9.425,9.425,0,0,1,9.425,9.425Z" transform="translate(-13 -25.258)" fill="#14a085"/>
        <path id="Shape-9" data-name="Shape" d="M60.425,31.356v7.069A9.425,9.425,0,0,1,51,29h7.069A2.363,2.363,0,0,1,60.425,31.356Z" transform="translate(-6.229 -29)" fill="#14a085"/>
      </g>
      <rect id="Rectangle-path-2" data-name="Rectangle-path" width="4.713" height="9.425" rx="2" transform="translate(54.207)" fill="#95a5a5"/>
      <rect id="Rectangle-path-3" data-name="Rectangle-path" width="4.713" height="9.425" rx="2" transform="translate(41.247)" fill="#95a5a5"/>
      <rect id="Rectangle-path-4" data-name="Rectangle-path" width="4.713" height="9.425" rx="2" transform="translate(28.287)" fill="#95a5a5"/>
      <rect id="Rectangle-path-5" data-name="Rectangle-path" width="4.713" height="9.425" rx="2" transform="translate(15.327)" fill="#95a5a5"/>
    </g>
  </g>
</svg>
