<svg xmlns="http://www.w3.org/2000/svg" xmlns:xlink="http://www.w3.org/1999/xlink" width="139" height="139" viewBox="0 0 139 139">
  <defs>
    <clipPath id="clip-path">
      <rect id="Rectángulo_400938" data-name="Rectángulo 400938" width="139" height="139" transform="translate(-0.043 -0.043)" fill="none"/>
    </clipPath>
    <clipPath id="clip-path-3">
      <rect id="Rectángulo_401301" data-name="Rectángulo 401301" width="74.96" height="225.068" fill="#d4e157"/>
    </clipPath>
    <clipPath id="clip-path-5">
      <rect id="Rectángulo_401247" data-name="Rectángulo 401247" width="18.555" height="18.555" fill="#d4e157"/>
    </clipPath>
    <clipPath id="clip-path-6">
      <path id="Trazado_873506" data-name="Trazado 873506" d="M18.555,9.277A9.278,9.278,0,1,1,9.277,0a9.278,9.278,0,0,1,9.278,9.277" fill="#d4e157"/>
    </clipPath>
    <clipPath id="clip-path-8">
      <path id="Trazado_873507" data-name="Trazado 873507" d="M18.555,9.277A9.278,9.278,0,1,1,9.277,0a9.277,9.277,0,0,1,9.278,9.277" fill="#d4e157"/>
    </clipPath>
    <clipPath id="clip-path-14">
      <path id="Trazado_873513" data-name="Trazado 873513" d="M18.555,9.277A9.277,9.277,0,1,1,9.277,0a9.277,9.277,0,0,1,9.277,9.277" fill="#d4e157"/>
    </clipPath>
    <clipPath id="clip-path-16">
      <path id="Trazado_873514" data-name="Trazado 873514" d="M18.555,9.278A9.278,9.278,0,1,1,9.277,0a9.278,9.278,0,0,1,9.278,9.278" fill="#d4e157"/>
    </clipPath>
    <clipPath id="clip-path-22">
      <path id="Trazado_873519" data-name="Trazado 873519" d="M18.555,9.278A9.277,9.277,0,1,1,9.277,0a9.277,9.277,0,0,1,9.277,9.278" fill="#d4e157"/>
    </clipPath>
    <clipPath id="clip-path-24">
      <path id="Trazado_873521" data-name="Trazado 873521" d="M18.555,9.277A9.278,9.278,0,1,1,9.278,0a9.277,9.277,0,0,1,9.277,9.277" fill="#d4e157"/>
    </clipPath>
    <clipPath id="clip-path-26">
      <path id="Trazado_873524" data-name="Trazado 873524" d="M18.555,9.277A9.278,9.278,0,1,1,9.278,0a9.278,9.278,0,0,1,9.277,9.277" fill="#d4e157"/>
    </clipPath>
    <clipPath id="clip-path-32">
      <path id="Trazado_873532" data-name="Trazado 873532" d="M18.555,9.278A9.278,9.278,0,1,1,9.278,0a9.278,9.278,0,0,1,9.277,9.278" fill="#d4e157"/>
    </clipPath>
  </defs>
  <g id="Grupo_1119892" data-name="Grupo 1119892" transform="translate(-1151 -5094.426)">
    <g id="Grupo_1101054" data-name="Grupo 1101054" transform="translate(886.043 -189.531)">
      <g id="Grupo_1099379" data-name="Grupo 1099379" transform="translate(265 5284)">
        <rect id="Rectángulo_401103" data-name="Rectángulo 401103" width="139" height="139" transform="translate(-0.043 -0.043)" fill="none"/>
        <path id="Trazado_873425" data-name="Trazado 873425" d="M57.977,0A57.977,57.977,0,1,1,0,57.977,57.977,57.977,0,0,1,57.977,0Z" transform="translate(17.221 20.665)" fill="#b9bfe2"/>
        <g id="Enmascarar_grupo_1100032" data-name="Enmascarar grupo 1100032" clip-path="url(#clip-path)">
          <g id="Grupo_1101051" data-name="Grupo 1101051" transform="translate(4603.382 -392.033) rotate(90)" style="isolation: isolate">
            <g id="Grupo_1099913" data-name="Grupo 1099913" transform="translate(358.539 4430.41)" clip-path="url(#clip-path-3)" style="isolation: isolate">
              <g id="Grupo_1099912" data-name="Grupo 1099912">
                <g id="Grupo_1099911" data-name="Grupo 1099911" clip-path="url(#clip-path-3)">
                  <g id="Grupo_1099780" data-name="Grupo 1099780" transform="translate(56.405 94.592)" style="isolation: isolate">
                    <g id="Grupo_1099779" data-name="Grupo 1099779" transform="translate(0 0)">
                      <g id="Grupo_1099778" data-name="Grupo 1099778" transform="translate(0 0)" clip-path="url(#clip-path-5)">
                        <g id="Grupo_1099777" data-name="Grupo 1099777" transform="translate(0 0)">
                          <g id="Grupo_1099776" data-name="Grupo 1099776" clip-path="url(#clip-path-6)">
                            <rect id="Rectángulo_401246" data-name="Rectángulo 401246" width="23.587" height="23.587" transform="translate(-5.714 16.586) rotate(-70.991)" fill="#d4e157"/>
                          </g>
                        </g>
                      </g>
                    </g>
                  </g>
                  <g id="Grupo_1099785" data-name="Grupo 1099785" transform="translate(56.405 113.147)" style="isolation: isolate">
                    <g id="Grupo_1099784" data-name="Grupo 1099784">
                      <g id="Grupo_1099783" data-name="Grupo 1099783" clip-path="url(#clip-path-5)">
                        <g id="Grupo_1099782" data-name="Grupo 1099782" transform="translate(0)">
                          <g id="Grupo_1099781" data-name="Grupo 1099781" clip-path="url(#clip-path-8)">
                            <rect id="Rectángulo_401248" data-name="Rectángulo 401248" width="23.587" height="23.587" transform="translate(-5.714 16.586) rotate(-70.991)" fill="#d4e157"/>
                          </g>
                        </g>
                      </g>
                    </g>
                  </g>
                  <g id="Grupo_1099790" data-name="Grupo 1099790" transform="translate(56.405 131.759)" style="isolation: isolate">
                    <g id="Grupo_1099789" data-name="Grupo 1099789" transform="translate(0 0)">
                      <g id="Grupo_1099788" data-name="Grupo 1099788" transform="translate(0 0)" clip-path="url(#clip-path-5)">
                        <g id="Grupo_1099787" data-name="Grupo 1099787" transform="translate(0 0)">
                          <g id="Grupo_1099786" data-name="Grupo 1099786" clip-path="url(#clip-path-6)">
                            <rect id="Rectángulo_401250" data-name="Rectángulo 401250" width="23.587" height="23.587" transform="translate(-5.714 16.586) rotate(-70.991)" fill="#d4e157"/>
                          </g>
                        </g>
                      </g>
                    </g>
                  </g>
                  <g id="Grupo_1099795" data-name="Grupo 1099795" transform="translate(56.405 150.314)" style="isolation: isolate">
                    <g id="Grupo_1099794" data-name="Grupo 1099794" transform="translate(0 0)">
                      <g id="Grupo_1099793" data-name="Grupo 1099793" transform="translate(0 0)" clip-path="url(#clip-path-5)">
                        <g id="Grupo_1099792" data-name="Grupo 1099792" transform="translate(0 0)">
                          <g id="Grupo_1099791" data-name="Grupo 1099791" clip-path="url(#clip-path-8)">
                            <rect id="Rectángulo_401252" data-name="Rectángulo 401252" width="23.587" height="23.587" transform="translate(-5.714 16.586) rotate(-70.991)" fill="#d4e157"/>
                          </g>
                        </g>
                      </g>
                    </g>
                  </g>
                  <g id="Grupo_1099815" data-name="Grupo 1099815" transform="translate(37.85 94.592)" style="isolation: isolate">
                    <g id="Grupo_1099814" data-name="Grupo 1099814" transform="translate(0 0)">
                      <g id="Grupo_1099813" data-name="Grupo 1099813" transform="translate(0 0)" clip-path="url(#clip-path-5)">
                        <g id="Grupo_1099812" data-name="Grupo 1099812" transform="translate(0 0)">
                          <g id="Grupo_1099811" data-name="Grupo 1099811" clip-path="url(#clip-path-14)">
                            <rect id="Rectángulo_401260" data-name="Rectángulo 401260" width="23.587" height="23.587" transform="translate(-5.714 16.586) rotate(-70.991)" fill="#d4e157"/>
                          </g>
                        </g>
                      </g>
                    </g>
                  </g>
                  <g id="Grupo_1099820" data-name="Grupo 1099820" transform="translate(56.405 75.434)" style="isolation: isolate">
                    <g id="Grupo_1099819" data-name="Grupo 1099819" transform="translate(0 0)">
                      <g id="Grupo_1099818" data-name="Grupo 1099818" transform="translate(0 0)" clip-path="url(#clip-path-5)">
                        <g id="Grupo_1099817" data-name="Grupo 1099817" transform="translate(0 0)">
                          <g id="Grupo_1099816" data-name="Grupo 1099816" clip-path="url(#clip-path-16)">
                            <rect id="Rectángulo_401262" data-name="Rectángulo 401262" width="23.587" height="23.587" transform="matrix(0.326, -0.945, 0.945, 0.326, -5.714, 16.587)" fill="#d4e157"/>
                          </g>
                        </g>
                      </g>
                    </g>
                  </g>
                  <g id="Grupo_1099825" data-name="Grupo 1099825" transform="translate(56.405 56.776)" style="isolation: isolate">
                    <g id="Grupo_1099824" data-name="Grupo 1099824" transform="translate(0 0)">
                      <g id="Grupo_1099823" data-name="Grupo 1099823" transform="translate(0 0)" clip-path="url(#clip-path-5)">
                        <g id="Grupo_1099822" data-name="Grupo 1099822" transform="translate(0 0)">
                          <g id="Grupo_1099821" data-name="Grupo 1099821" clip-path="url(#clip-path-6)">
                            <rect id="Rectángulo_401264" data-name="Rectángulo 401264" width="23.587" height="23.587" transform="translate(-5.714 16.586) rotate(-70.991)" fill="#d4e157"/>
                          </g>
                        </g>
                      </g>
                    </g>
                  </g>
                  <g id="Grupo_1099830" data-name="Grupo 1099830" transform="translate(56.405 37.88)" style="isolation: isolate">
                    <g id="Grupo_1099829" data-name="Grupo 1099829" transform="translate(0 0)">
                      <g id="Grupo_1099828" data-name="Grupo 1099828" transform="translate(0 0)" clip-path="url(#clip-path-5)">
                        <g id="Grupo_1099827" data-name="Grupo 1099827" transform="translate(0 0)">
                          <g id="Grupo_1099826" data-name="Grupo 1099826" clip-path="url(#clip-path-16)">
                            <rect id="Rectángulo_401266" data-name="Rectángulo 401266" width="23.587" height="23.587" transform="translate(-5.714 16.587) rotate(-70.991)" fill="#d4e157"/>
                          </g>
                        </g>
                      </g>
                    </g>
                  </g>
                  <g id="Grupo_1099845" data-name="Grupo 1099845" transform="translate(37.85 75.434)" style="isolation: isolate">
                    <g id="Grupo_1099844" data-name="Grupo 1099844" transform="translate(0 0)">
                      <g id="Grupo_1099843" data-name="Grupo 1099843" transform="translate(0 0)" clip-path="url(#clip-path-5)">
                        <g id="Grupo_1099842" data-name="Grupo 1099842" transform="translate(0 0)">
                          <g id="Grupo_1099841" data-name="Grupo 1099841" clip-path="url(#clip-path-22)">
                            <rect id="Rectángulo_401272" data-name="Rectángulo 401272" width="23.587" height="23.587" transform="translate(-5.714 16.587) rotate(-70.991)" fill="#d4e157"/>
                          </g>
                        </g>
                      </g>
                    </g>
                  </g>
                  <g id="Grupo_1099855" data-name="Grupo 1099855" transform="translate(37.424 113.147)" style="isolation: isolate">
                    <g id="Grupo_1099854" data-name="Grupo 1099854">
                      <g id="Grupo_1099853" data-name="Grupo 1099853" clip-path="url(#clip-path-5)">
                        <g id="Grupo_1099852" data-name="Grupo 1099852" transform="translate(0)">
                          <g id="Grupo_1099851" data-name="Grupo 1099851" transform="translate(0)" clip-path="url(#clip-path-24)">
                            <rect id="Rectángulo_401276" data-name="Rectángulo 401276" width="23.587" height="23.587" transform="translate(-5.714 16.586) rotate(-70.991)" fill="#d4e157"/>
                          </g>
                        </g>
                      </g>
                    </g>
                  </g>
                  <g id="Grupo_1099870" data-name="Grupo 1099870" transform="translate(37.424 131.759)" style="isolation: isolate">
                    <g id="Grupo_1099869" data-name="Grupo 1099869" transform="translate(0 0)">
                      <g id="Grupo_1099868" data-name="Grupo 1099868" transform="translate(0 0)" clip-path="url(#clip-path-5)">
                        <g id="Grupo_1099867" data-name="Grupo 1099867" transform="translate(0 0)">
                          <g id="Grupo_1099866" data-name="Grupo 1099866" transform="translate(0)" clip-path="url(#clip-path-26)">
                            <rect id="Rectángulo_401282" data-name="Rectángulo 401282" width="23.587" height="23.587" transform="translate(-5.714 16.586) rotate(-70.991)" fill="#d4e157"/>
                          </g>
                        </g>
                      </g>
                    </g>
                  </g>
                  <g id="Grupo_1099885" data-name="Grupo 1099885" transform="translate(37.424 150.314)" style="isolation: isolate">
                    <g id="Grupo_1099884" data-name="Grupo 1099884" transform="translate(0 0)">
                      <g id="Grupo_1099883" data-name="Grupo 1099883" transform="translate(0 0)" clip-path="url(#clip-path-5)">
                        <g id="Grupo_1099882" data-name="Grupo 1099882" transform="translate(0 0)">
                          <g id="Grupo_1099881" data-name="Grupo 1099881" transform="translate(0)" clip-path="url(#clip-path-24)">
                            <rect id="Rectángulo_401288" data-name="Rectángulo 401288" width="23.587" height="23.587" transform="translate(-5.714 16.586) rotate(-70.991)" fill="#d4e157"/>
                          </g>
                        </g>
                      </g>
                    </g>
                  </g>
                  <g id="Grupo_1099900" data-name="Grupo 1099900" transform="translate(37.85 56.861)" style="isolation: isolate">
                    <g id="Grupo_1099899" data-name="Grupo 1099899" transform="translate(0 0)">
                      <g id="Grupo_1099898" data-name="Grupo 1099898" transform="translate(0 0)" clip-path="url(#clip-path-5)">
                        <g id="Grupo_1099897" data-name="Grupo 1099897" transform="translate(0 0)">
                          <g id="Grupo_1099896" data-name="Grupo 1099896" clip-path="url(#clip-path-22)">
                            <rect id="Rectángulo_401294" data-name="Rectángulo 401294" width="23.587" height="23.587" transform="translate(-5.714 16.587) rotate(-70.991)" fill="#d4e157"/>
                          </g>
                        </g>
                      </g>
                    </g>
                  </g>
                  <g id="Grupo_1099910" data-name="Grupo 1099910" transform="translate(37.424 37.88)" style="isolation: isolate">
                    <g id="Grupo_1099909" data-name="Grupo 1099909" transform="translate(0 0)">
                      <g id="Grupo_1099908" data-name="Grupo 1099908" transform="translate(0 0)" clip-path="url(#clip-path-5)">
                        <g id="Grupo_1099907" data-name="Grupo 1099907" transform="translate(0 0)">
                          <g id="Grupo_1099906" data-name="Grupo 1099906" transform="translate(0)" clip-path="url(#clip-path-32)">
                            <rect id="Rectángulo_401298" data-name="Rectángulo 401298" width="23.587" height="23.587" transform="matrix(0.326, -0.945, 0.945, 0.326, -5.714, 16.587)" fill="#d4e157"/>
                          </g>
                        </g>
                      </g>
                    </g>
                  </g>
                </g>
              </g>
            </g>
          </g>
        </g>
        <circle id="Elipse_11503" data-name="Elipse 11503" cx="60.5" cy="60.5" r="60.5" transform="translate(8.957 8.957)" fill="#f1f8e9"/>
      </g>
    </g>
    <g id="Grupo_1101055" data-name="Grupo 1101055" transform="translate(833 -1299.574)">
      <g id="Grupo_1099389" data-name="Grupo 1099389" transform="translate(347.893 6422.744)">
        <rect id="Rectángulo_401104" data-name="Rectángulo 401104" width="78" height="79" transform="translate(0.107 0.256)" fill="none"/>
      </g>
      <g id="Grupo_1119740" data-name="Grupo 1119740" transform="translate(348 6394.505)">
        <g id="Grupo_1119733" data-name="Grupo 1119733" transform="translate(54.154 34.019)">
          <g id="Grupo_1119732" data-name="Grupo 1119732">
            <path id="Trazado_906771" data-name="Trazado 906771" d="M305.069,34.019a10.706,10.706,0,0,0,0,21.411,10.755,10.755,0,0,0,10.742-10.742A10.646,10.646,0,0,0,305.069,34.019Zm0,19.057a8.351,8.351,0,1,1,8.388-8.314A8.384,8.384,0,0,1,305.069,53.076Z" transform="translate(-294.4 -34.019)" fill="#474d41"/>
          </g>
        </g>
        <g id="Grupo_1119735" data-name="Grupo 1119735" transform="translate(61.364 37.771)">
          <g id="Grupo_1119734" data-name="Grupo 1119734" transform="translate(0 0)">
            <path id="Trazado_906772" data-name="Trazado 906772" d="M340.443,63.028a1.922,1.922,0,0,0-.221-.589,1.844,1.844,0,0,0-.294-.515c-.147-.147-.221-.294-.368-.441a1.32,1.32,0,0,0-.515-.368,1.844,1.844,0,0,0-.515-.294c-.221-.074-.368-.221-.589-.294a5.068,5.068,0,0,1-.589-.221.558.558,0,0,1-.294-.147c-.074-.074-.221-.074-.294-.147s-.221-.074-.294-.147l-.221-.221a.382.382,0,0,1-.147-.294.443.443,0,0,1-.074-.294v-.368c0-.074.074-.221.074-.294.074-.074.074-.221.147-.294l.221-.221a.562.562,0,0,1,.368-.147.663.663,0,0,1,.368-.074h.442a.663.663,0,0,1,.368.074,3.189,3.189,0,0,1,.368.074c.074,0,.221.074.294.074.147,0,.221.074.294.074l.368.147.074-.441.147-1.177v-.294l-.294-.074c-.074,0-.221-.074-.294-.074s-.147-.074-.294-.074a3.189,3.189,0,0,0-.368-.074c-.147,0-.221-.074-.368-.074h-.074v-1.4H336.1v1.472h-.074a2.614,2.614,0,0,0-.662.294,1.32,1.32,0,0,0-.515.368,3.2,3.2,0,0,0-.441.515,1.479,1.479,0,0,0-.294.589l-.221.662a2.5,2.5,0,0,0-.074.736,1.619,1.619,0,0,0,.074.589,1.922,1.922,0,0,0,.221.589c.074.147.221.368.294.515.147.147.221.294.368.441a1.32,1.32,0,0,0,.515.368,1.845,1.845,0,0,0,.515.294,4.368,4.368,0,0,1,.589.294,5.068,5.068,0,0,1,.589.221.558.558,0,0,1,.294.147c.074.074.221.074.294.147s.147.147.221.147l.221.221c.074.074.074.147.147.294a3.185,3.185,0,0,1,.074.368v.368a.558.558,0,0,1-.147.294l-.221.221a1.015,1.015,0,0,1-.294.221c-.074.074-.221.074-.294.147a3.185,3.185,0,0,1-.368.074h-.957a3.185,3.185,0,0,1-.368-.074,1.046,1.046,0,0,1-.442-.147c-.147-.074-.294-.074-.441-.147-.074,0-.147-.074-.221-.074s-.147-.074-.221-.074l-.441-.221-.074.515-.147,1.324v.221l.221.074a.984.984,0,0,1,.662.074,1.364,1.364,0,0,0,.515.147c.147.074.368.074.589.147a1.62,1.62,0,0,0,.589.074h.147v1.472h1.766V66.78h.074a2.614,2.614,0,0,0,.662-.294,2.583,2.583,0,0,0,.589-.368,3.2,3.2,0,0,0,.441-.515,4.107,4.107,0,0,0,.368-.589l.221-.662a2.267,2.267,0,0,0,.074-.736A1.619,1.619,0,0,0,340.443,63.028Z" transform="translate(-333.6 -54.419)" fill="#474d41"/>
          </g>
        </g>
        <g id="Grupo_1119737" data-name="Grupo 1119737" transform="translate(12.598 56.378)">
          <g id="Grupo_1119736" data-name="Grupo 1119736" transform="translate(0 0)">
            <path id="Trazado_906773" data-name="Trazado 906773" d="M115.563,156.02a1.253,1.253,0,0,0-1.692-.221l-11.92,9.492-15.378-6.4a1.174,1.174,0,0,0-1.1.147L68.988,170.809a1.176,1.176,0,0,0-.294,1.619,1.072,1.072,0,0,0,.957.515,1.187,1.187,0,0,0,.662-.221l15.966-11.4,15.451,6.4a1.324,1.324,0,0,0,1.177-.147l12.435-9.859A1.253,1.253,0,0,0,115.563,156.02Z" transform="translate(-68.489 -155.569)" fill="#474d41"/>
          </g>
        </g>
        <g id="Grupo_1119739" data-name="Grupo 1119739" transform="translate(0 61.905)">
          <g id="Grupo_1119738" data-name="Grupo 1119738">
            <path id="Trazado_906774" data-name="Trazado 906774" d="M76.889,220.863H71.445V186.8a1.162,1.162,0,0,0-1.177-1.177H59.451a1.162,1.162,0,0,0-1.177,1.177v34.067H54.3V198.569a1.162,1.162,0,0,0-1.177-1.177H42.234a1.162,1.162,0,0,0-1.177,1.177v22.294H37.083V196.8a1.162,1.162,0,0,0-1.177-1.177H25.09a1.162,1.162,0,0,0-1.177,1.177v24.06H19.94V203.719a1.162,1.162,0,0,0-1.177-1.177H7.873A1.162,1.162,0,0,0,6.7,203.719v17.144H1.177a1.177,1.177,0,1,0,0,2.354H76.816a1.162,1.162,0,0,0,1.177-1.177A1.063,1.063,0,0,0,76.889,220.863Zm-59.378,0H9.05V204.9h8.462Zm17.217,0H26.267V197.98h8.462Zm17.144,0H43.411V199.746h8.462Zm17.217,0H60.629V187.974H69.09Z" transform="translate(0 -185.619)" fill="#474d41"/>
          </g>
        </g>
      </g>
    </g>
  </g>
</svg>
