<svg xmlns="http://www.w3.org/2000/svg" width="70" height="70" viewBox="0 0 70 70">
  <g id="Grupo_1072266" data-name="Grupo 1072266" transform="translate(-269 -958)">
    <circle id="Elipse_5614" data-name="Elipse 5614" cx="35" cy="35" r="35" transform="translate(269 958)" fill="#fff"/>
    <g id="Grupo_1119626" data-name="Grupo 1119626" transform="translate(284.875 974.182)">
      <path id="Trazado_906642" data-name="Trazado 906642" d="M18.789,36.578A17.789,17.789,0,1,0,1,18.789,17.813,17.813,0,0,0,18.789,36.578ZM11.673,12.732H25.9A2.132,2.132,0,0,1,25.9,17H11.673a2.132,2.132,0,0,1,0-4.263Zm0,7.851H25.9a2.132,2.132,0,0,1,0,4.263H11.673a2.132,2.132,0,0,1,0-4.263Z" fill="#474d41"/>
    </g>
  </g>
</svg>
