<svg xmlns="http://www.w3.org/2000/svg" xmlns:xlink="http://www.w3.org/1999/xlink" width="139" height="139" viewBox="0 0 139 139">
  <defs>
    <clipPath id="clip-path">
      <rect id="Rectángulo_400938" data-name="Rectángulo 400938" width="139" height="139" transform="translate(-0.043 -0.043)" fill="none"/>
    </clipPath>
    <clipPath id="clip-path-3">
      <rect id="Rectángulo_401301" data-name="Rectángulo 401301" width="74.96" height="225.068" fill="#d4e157"/>
    </clipPath>
    <clipPath id="clip-path-5">
      <rect id="Rectángulo_401247" data-name="Rectángulo 401247" width="18.555" height="18.555" fill="#d4e157"/>
    </clipPath>
    <clipPath id="clip-path-6">
      <path id="Trazado_873506" data-name="Trazado 873506" d="M18.555,9.277A9.278,9.278,0,1,1,9.277,0a9.278,9.278,0,0,1,9.278,9.277" fill="#d4e157"/>
    </clipPath>
    <clipPath id="clip-path-8">
      <path id="Trazado_873507" data-name="Trazado 873507" d="M18.555,9.277A9.278,9.278,0,1,1,9.277,0a9.277,9.277,0,0,1,9.278,9.277" fill="#d4e157"/>
    </clipPath>
    <clipPath id="clip-path-14">
      <path id="Trazado_873513" data-name="Trazado 873513" d="M18.555,9.277A9.277,9.277,0,1,1,9.277,0a9.277,9.277,0,0,1,9.277,9.277" fill="#d4e157"/>
    </clipPath>
    <clipPath id="clip-path-16">
      <path id="Trazado_873514" data-name="Trazado 873514" d="M18.555,9.278A9.278,9.278,0,1,1,9.277,0a9.278,9.278,0,0,1,9.278,9.278" fill="#d4e157"/>
    </clipPath>
    <clipPath id="clip-path-22">
      <path id="Trazado_873519" data-name="Trazado 873519" d="M18.555,9.278A9.277,9.277,0,1,1,9.277,0a9.277,9.277,0,0,1,9.277,9.278" fill="#d4e157"/>
    </clipPath>
    <clipPath id="clip-path-24">
      <path id="Trazado_873521" data-name="Trazado 873521" d="M18.555,9.277A9.278,9.278,0,1,1,9.278,0a9.277,9.277,0,0,1,9.277,9.277" fill="#d4e157"/>
    </clipPath>
    <clipPath id="clip-path-26">
      <path id="Trazado_873524" data-name="Trazado 873524" d="M18.555,9.277A9.278,9.278,0,1,1,9.278,0a9.278,9.278,0,0,1,9.277,9.277" fill="#d4e157"/>
    </clipPath>
    <clipPath id="clip-path-32">
      <path id="Trazado_873532" data-name="Trazado 873532" d="M18.555,9.278A9.278,9.278,0,1,1,9.278,0a9.278,9.278,0,0,1,9.277,9.278" fill="#d4e157"/>
    </clipPath>
  </defs>
  <g id="Grupo_1119890" data-name="Grupo 1119890" transform="translate(-311 -5094.426)">
    <g id="Grupo_1101163" data-name="Grupo 1101163" transform="translate(46.043 -189.531)">
      <g id="Grupo_1099379" data-name="Grupo 1099379" transform="translate(265 5284)">
        <rect id="Rectángulo_401103" data-name="Rectángulo 401103" width="139" height="139" transform="translate(-0.043 -0.043)" fill="none"/>
        <path id="Trazado_873425" data-name="Trazado 873425" d="M57.977,0A57.977,57.977,0,1,1,0,57.977,57.977,57.977,0,0,1,57.977,0Z" transform="translate(17.221 20.665)" fill="#b9bfe2"/>
        <g id="Enmascarar_grupo_1100032" data-name="Enmascarar grupo 1100032" clip-path="url(#clip-path)">
          <g id="Grupo_1101051" data-name="Grupo 1101051" transform="translate(4603.382 -392.033) rotate(90)" style="isolation: isolate">
            <g id="Grupo_1099913" data-name="Grupo 1099913" transform="translate(358.539 4430.41)" clip-path="url(#clip-path-3)" style="isolation: isolate">
              <g id="Grupo_1099912" data-name="Grupo 1099912">
                <g id="Grupo_1099911" data-name="Grupo 1099911" clip-path="url(#clip-path-3)">
                  <g id="Grupo_1099780" data-name="Grupo 1099780" transform="translate(56.405 94.592)" style="isolation: isolate">
                    <g id="Grupo_1099779" data-name="Grupo 1099779" transform="translate(0 0)">
                      <g id="Grupo_1099778" data-name="Grupo 1099778" transform="translate(0 0)" clip-path="url(#clip-path-5)">
                        <g id="Grupo_1099777" data-name="Grupo 1099777" transform="translate(0 0)">
                          <g id="Grupo_1099776" data-name="Grupo 1099776" clip-path="url(#clip-path-6)">
                            <rect id="Rectángulo_401246" data-name="Rectángulo 401246" width="23.587" height="23.587" transform="translate(-5.714 16.586) rotate(-70.991)" fill="#d4e157"/>
                          </g>
                        </g>
                      </g>
                    </g>
                  </g>
                  <g id="Grupo_1099785" data-name="Grupo 1099785" transform="translate(56.405 113.147)" style="isolation: isolate">
                    <g id="Grupo_1099784" data-name="Grupo 1099784">
                      <g id="Grupo_1099783" data-name="Grupo 1099783" clip-path="url(#clip-path-5)">
                        <g id="Grupo_1099782" data-name="Grupo 1099782" transform="translate(0)">
                          <g id="Grupo_1099781" data-name="Grupo 1099781" clip-path="url(#clip-path-8)">
                            <rect id="Rectángulo_401248" data-name="Rectángulo 401248" width="23.587" height="23.587" transform="translate(-5.714 16.586) rotate(-70.991)" fill="#d4e157"/>
                          </g>
                        </g>
                      </g>
                    </g>
                  </g>
                  <g id="Grupo_1099790" data-name="Grupo 1099790" transform="translate(56.405 131.759)" style="isolation: isolate">
                    <g id="Grupo_1099789" data-name="Grupo 1099789" transform="translate(0 0)">
                      <g id="Grupo_1099788" data-name="Grupo 1099788" transform="translate(0 0)" clip-path="url(#clip-path-5)">
                        <g id="Grupo_1099787" data-name="Grupo 1099787" transform="translate(0 0)">
                          <g id="Grupo_1099786" data-name="Grupo 1099786" clip-path="url(#clip-path-6)">
                            <rect id="Rectángulo_401250" data-name="Rectángulo 401250" width="23.587" height="23.587" transform="translate(-5.714 16.586) rotate(-70.991)" fill="#d4e157"/>
                          </g>
                        </g>
                      </g>
                    </g>
                  </g>
                  <g id="Grupo_1099795" data-name="Grupo 1099795" transform="translate(56.405 150.314)" style="isolation: isolate">
                    <g id="Grupo_1099794" data-name="Grupo 1099794" transform="translate(0 0)">
                      <g id="Grupo_1099793" data-name="Grupo 1099793" transform="translate(0 0)" clip-path="url(#clip-path-5)">
                        <g id="Grupo_1099792" data-name="Grupo 1099792" transform="translate(0 0)">
                          <g id="Grupo_1099791" data-name="Grupo 1099791" clip-path="url(#clip-path-8)">
                            <rect id="Rectángulo_401252" data-name="Rectángulo 401252" width="23.587" height="23.587" transform="translate(-5.714 16.586) rotate(-70.991)" fill="#d4e157"/>
                          </g>
                        </g>
                      </g>
                    </g>
                  </g>
                  <g id="Grupo_1099815" data-name="Grupo 1099815" transform="translate(37.85 94.592)" style="isolation: isolate">
                    <g id="Grupo_1099814" data-name="Grupo 1099814" transform="translate(0 0)">
                      <g id="Grupo_1099813" data-name="Grupo 1099813" transform="translate(0 0)" clip-path="url(#clip-path-5)">
                        <g id="Grupo_1099812" data-name="Grupo 1099812" transform="translate(0 0)">
                          <g id="Grupo_1099811" data-name="Grupo 1099811" clip-path="url(#clip-path-14)">
                            <rect id="Rectángulo_401260" data-name="Rectángulo 401260" width="23.587" height="23.587" transform="translate(-5.714 16.586) rotate(-70.991)" fill="#d4e157"/>
                          </g>
                        </g>
                      </g>
                    </g>
                  </g>
                  <g id="Grupo_1099820" data-name="Grupo 1099820" transform="translate(56.405 75.434)" style="isolation: isolate">
                    <g id="Grupo_1099819" data-name="Grupo 1099819" transform="translate(0 0)">
                      <g id="Grupo_1099818" data-name="Grupo 1099818" transform="translate(0 0)" clip-path="url(#clip-path-5)">
                        <g id="Grupo_1099817" data-name="Grupo 1099817" transform="translate(0 0)">
                          <g id="Grupo_1099816" data-name="Grupo 1099816" clip-path="url(#clip-path-16)">
                            <rect id="Rectángulo_401262" data-name="Rectángulo 401262" width="23.587" height="23.587" transform="matrix(0.326, -0.945, 0.945, 0.326, -5.714, 16.587)" fill="#d4e157"/>
                          </g>
                        </g>
                      </g>
                    </g>
                  </g>
                  <g id="Grupo_1099825" data-name="Grupo 1099825" transform="translate(56.405 56.776)" style="isolation: isolate">
                    <g id="Grupo_1099824" data-name="Grupo 1099824" transform="translate(0 0)">
                      <g id="Grupo_1099823" data-name="Grupo 1099823" transform="translate(0 0)" clip-path="url(#clip-path-5)">
                        <g id="Grupo_1099822" data-name="Grupo 1099822" transform="translate(0 0)">
                          <g id="Grupo_1099821" data-name="Grupo 1099821" clip-path="url(#clip-path-6)">
                            <rect id="Rectángulo_401264" data-name="Rectángulo 401264" width="23.587" height="23.587" transform="translate(-5.714 16.586) rotate(-70.991)" fill="#d4e157"/>
                          </g>
                        </g>
                      </g>
                    </g>
                  </g>
                  <g id="Grupo_1099830" data-name="Grupo 1099830" transform="translate(56.405 37.88)" style="isolation: isolate">
                    <g id="Grupo_1099829" data-name="Grupo 1099829" transform="translate(0 0)">
                      <g id="Grupo_1099828" data-name="Grupo 1099828" transform="translate(0 0)" clip-path="url(#clip-path-5)">
                        <g id="Grupo_1099827" data-name="Grupo 1099827" transform="translate(0 0)">
                          <g id="Grupo_1099826" data-name="Grupo 1099826" clip-path="url(#clip-path-16)">
                            <rect id="Rectángulo_401266" data-name="Rectángulo 401266" width="23.587" height="23.587" transform="translate(-5.714 16.587) rotate(-70.991)" fill="#d4e157"/>
                          </g>
                        </g>
                      </g>
                    </g>
                  </g>
                  <g id="Grupo_1099845" data-name="Grupo 1099845" transform="translate(37.85 75.434)" style="isolation: isolate">
                    <g id="Grupo_1099844" data-name="Grupo 1099844" transform="translate(0 0)">
                      <g id="Grupo_1099843" data-name="Grupo 1099843" transform="translate(0 0)" clip-path="url(#clip-path-5)">
                        <g id="Grupo_1099842" data-name="Grupo 1099842" transform="translate(0 0)">
                          <g id="Grupo_1099841" data-name="Grupo 1099841" clip-path="url(#clip-path-22)">
                            <rect id="Rectángulo_401272" data-name="Rectángulo 401272" width="23.587" height="23.587" transform="translate(-5.714 16.587) rotate(-70.991)" fill="#d4e157"/>
                          </g>
                        </g>
                      </g>
                    </g>
                  </g>
                  <g id="Grupo_1099855" data-name="Grupo 1099855" transform="translate(37.424 113.147)" style="isolation: isolate">
                    <g id="Grupo_1099854" data-name="Grupo 1099854">
                      <g id="Grupo_1099853" data-name="Grupo 1099853" clip-path="url(#clip-path-5)">
                        <g id="Grupo_1099852" data-name="Grupo 1099852" transform="translate(0)">
                          <g id="Grupo_1099851" data-name="Grupo 1099851" transform="translate(0)" clip-path="url(#clip-path-24)">
                            <rect id="Rectángulo_401276" data-name="Rectángulo 401276" width="23.587" height="23.587" transform="translate(-5.714 16.586) rotate(-70.991)" fill="#d4e157"/>
                          </g>
                        </g>
                      </g>
                    </g>
                  </g>
                  <g id="Grupo_1099870" data-name="Grupo 1099870" transform="translate(37.424 131.759)" style="isolation: isolate">
                    <g id="Grupo_1099869" data-name="Grupo 1099869" transform="translate(0 0)">
                      <g id="Grupo_1099868" data-name="Grupo 1099868" transform="translate(0 0)" clip-path="url(#clip-path-5)">
                        <g id="Grupo_1099867" data-name="Grupo 1099867" transform="translate(0 0)">
                          <g id="Grupo_1099866" data-name="Grupo 1099866" transform="translate(0)" clip-path="url(#clip-path-26)">
                            <rect id="Rectángulo_401282" data-name="Rectángulo 401282" width="23.587" height="23.587" transform="translate(-5.714 16.586) rotate(-70.991)" fill="#d4e157"/>
                          </g>
                        </g>
                      </g>
                    </g>
                  </g>
                  <g id="Grupo_1099885" data-name="Grupo 1099885" transform="translate(37.424 150.314)" style="isolation: isolate">
                    <g id="Grupo_1099884" data-name="Grupo 1099884" transform="translate(0 0)">
                      <g id="Grupo_1099883" data-name="Grupo 1099883" transform="translate(0 0)" clip-path="url(#clip-path-5)">
                        <g id="Grupo_1099882" data-name="Grupo 1099882" transform="translate(0 0)">
                          <g id="Grupo_1099881" data-name="Grupo 1099881" transform="translate(0)" clip-path="url(#clip-path-24)">
                            <rect id="Rectángulo_401288" data-name="Rectángulo 401288" width="23.587" height="23.587" transform="translate(-5.714 16.586) rotate(-70.991)" fill="#d4e157"/>
                          </g>
                        </g>
                      </g>
                    </g>
                  </g>
                  <g id="Grupo_1099900" data-name="Grupo 1099900" transform="translate(37.85 56.861)" style="isolation: isolate">
                    <g id="Grupo_1099899" data-name="Grupo 1099899" transform="translate(0 0)">
                      <g id="Grupo_1099898" data-name="Grupo 1099898" transform="translate(0 0)" clip-path="url(#clip-path-5)">
                        <g id="Grupo_1099897" data-name="Grupo 1099897" transform="translate(0 0)">
                          <g id="Grupo_1099896" data-name="Grupo 1099896" clip-path="url(#clip-path-22)">
                            <rect id="Rectángulo_401294" data-name="Rectángulo 401294" width="23.587" height="23.587" transform="translate(-5.714 16.587) rotate(-70.991)" fill="#d4e157"/>
                          </g>
                        </g>
                      </g>
                    </g>
                  </g>
                  <g id="Grupo_1099910" data-name="Grupo 1099910" transform="translate(37.424 37.88)" style="isolation: isolate">
                    <g id="Grupo_1099909" data-name="Grupo 1099909" transform="translate(0 0)">
                      <g id="Grupo_1099908" data-name="Grupo 1099908" transform="translate(0 0)" clip-path="url(#clip-path-5)">
                        <g id="Grupo_1099907" data-name="Grupo 1099907" transform="translate(0 0)">
                          <g id="Grupo_1099906" data-name="Grupo 1099906" transform="translate(0)" clip-path="url(#clip-path-32)">
                            <rect id="Rectángulo_401298" data-name="Rectángulo 401298" width="23.587" height="23.587" transform="matrix(0.326, -0.945, 0.945, 0.326, -5.714, 16.587)" fill="#d4e157"/>
                          </g>
                        </g>
                      </g>
                    </g>
                  </g>
                </g>
              </g>
            </g>
          </g>
        </g>
        <circle id="Elipse_11503" data-name="Elipse 11503" cx="60.5" cy="60.5" r="60.5" transform="translate(8.957 8.957)" fill="#f1f8e9"/>
      </g>
    </g>
    <g id="Grupo_1101164" data-name="Grupo 1101164" transform="translate(-7 -1299.574)">
      <g id="Grupo_1099389" data-name="Grupo 1099389" transform="translate(347.893 6422.744)">
        <rect id="Rectángulo_401104" data-name="Rectángulo 401104" width="78" height="79" transform="translate(0.107 0.256)" fill="none"/>
      </g>
      <g id="Grupo_1119731" data-name="Grupo 1119731" transform="translate(347.801 6356.855)">
        <g id="Grupo_1119728" data-name="Grupo 1119728" transform="translate(0 75.4)">
          <g id="Grupo_1119727" data-name="Grupo 1119727" transform="translate(0 0)">
            <path id="Trazado_906768" data-name="Trazado 906768" d="M80.53,106.646c-.1-2.231-2.279-4.012-6.5-5.3a46.306,46.306,0,0,0-11.924-1.669V82.558a1.736,1.736,0,0,0-.241-.8c-.449-1.942-2.616-3.515-6.451-4.67A47.78,47.78,0,0,0,42.127,75.4a46.58,46.58,0,0,0-13.16,1.685c-2.9.9-6.387,2.568-6.387,5.44a2.955,2.955,0,0,0,.048.53l.177,7.318a19.2,19.2,0,1,0,8.506,33.766,47.459,47.459,0,0,0,10.271,1.123c.818,4.445,10.447,6.484,19.418,6.484a45.929,45.929,0,0,0,13.16-1.717c2.9-.9,6.387-2.584,6.387-5.456V106.951A1.942,1.942,0,0,0,80.53,106.646ZM58.753,91.432c0,.209-.77,1.316-4.253,2.375a45.426,45.426,0,0,1-12.357,1.557,45.914,45.914,0,0,1-10.929-1.2c-.048-.016-.08-.016-.128-.032a18.516,18.516,0,0,0-5.023-2.841l-.112-4.526a17.781,17.781,0,0,0,3.466,1.332,47.433,47.433,0,0,0,12.726,1.557,47.862,47.862,0,0,0,13.288-1.685,19.248,19.248,0,0,0,3.482-1.4v4.2A.922.922,0,0,0,58.753,91.432ZM29.93,80.182a43.35,43.35,0,0,1,12.2-1.557,44.806,44.806,0,0,1,12.357,1.557c3.482,1.059,4.253,2.15,4.253,2.359,0,.225-.786,1.332-4.269,2.375a45.348,45.348,0,0,1-12.341,1.541A44.063,44.063,0,0,1,30.3,85.013c-3.45-.995-4.413-2.086-4.494-2.439,0-.032-.016-.032-.016-.032C25.806,82.237,26.544,81.209,29.93,80.182Zm.048,40.891A16,16,0,1,1,19.21,93.262a16.345,16.345,0,0,1,4.734.706A16.061,16.061,0,0,1,34.889,106.02a16.783,16.783,0,0,1,.321,3.226A15.9,15.9,0,0,1,29.978,121.073Zm4.076.353a19.378,19.378,0,0,0,3.081-5.28c1.364.112,2.776.193,4.253.209v.289l.1,5.44A50.132,50.132,0,0,1,34.054,121.427Zm4.285-14.09c.931.064,1.91.1,2.9.112l.1,5.681c-1.123-.016-2.231-.064-3.29-.144a19.728,19.728,0,0,0,.369-3.755C38.42,108.6,38.388,107.978,38.339,107.336Zm3.948-3.081h-.16c-1.541,0-3.033-.064-4.413-.16a19.026,19.026,0,0,0-2.873-5.97,57.8,57.8,0,0,0,7.27.465,47.9,47.9,0,0,0,13.3-1.685,20.268,20.268,0,0,0,3.466-1.38v4.2C52,99.922,44.919,101.366,42.287,104.255Zm2.118,2.552a.121.121,0,0,1,.016-.064c.144-.433,1.284-1.492,4.606-2.423a43.676,43.676,0,0,1,11.442-1.364h.273A44.976,44.976,0,0,1,73.1,104.48c3.418,1.027,4.221,2.086,4.237,2.327v.016c-.016.241-.818,1.348-4.381,2.407a44.58,44.58,0,0,1-12.2,1.509,44.768,44.768,0,0,1-11.828-1.428c-3.45-1-4.4-2.1-4.494-2.439Zm28.823,20.173a42.846,42.846,0,0,1-12.213,1.573,43.671,43.671,0,0,1-12.181-1.525c-3.386-1.043-4.092-2.118-4.092-2.359v-.032l-.08-4.654a20.91,20.91,0,0,0,4,1.46,49.389,49.389,0,0,0,12.052,1.38,47.459,47.459,0,0,0,13.256-1.685,20.57,20.57,0,0,0,3.37-1.364v4.814h.016C77.353,124.813,76.615,125.92,73.228,126.979Zm4.14-11.812h-.016c0,.16-.1.353-.1.53,0,.225-.754,1.316-4.221,2.375a44.4,44.4,0,0,1-12.309,1.541c-8.891,0-14.877-2.006-16.129-3.563l-.016-1.348-.064-3.691a19.691,19.691,0,0,0,3.5,1.348,47.433,47.433,0,0,0,12.726,1.557,48.036,48.036,0,0,0,13.111-1.637,18.379,18.379,0,0,0,3.515-1.38Z" transform="translate(0 -75.4)" fill="#474d41"/>
          </g>
        </g>
        <g id="Grupo_1119730" data-name="Grupo 1119730" transform="translate(13.16 96.086)">
          <g id="Grupo_1119729" data-name="Grupo 1119729">
            <path id="Trazado_906769" data-name="Trazado 906769" d="M93.892,219.722a6.067,6.067,0,0,0-5.842-4.413,2.849,2.849,0,1,1,2.857-2.841,1.6,1.6,0,0,0,3.21,0,6.067,6.067,0,0,0-4.413-5.842V205.9a1.6,1.6,0,0,0-3.21,0v.69A6.057,6.057,0,0,0,88.05,218.5a2.849,2.849,0,1,1-2.841,2.857,1.6,1.6,0,1,0-3.21,0,6.1,6.1,0,0,0,4.494,5.858v1.4a1.6,1.6,0,1,0,3.21,0V227.2A6.054,6.054,0,0,0,93.892,219.722Z" transform="translate(-82 -204.3)" fill="#474d41"/>
          </g>
        </g>
      </g>
    </g>
  </g>
</svg>
