<svg xmlns="http://www.w3.org/2000/svg" width="74.99" height="80.399" viewBox="0 0 74.99 80.399">
  <g id="Grupo_1099380" data-name="Grupo 1099380" transform="translate(0 4.307)">
    <rect id="Rectángulo_401104" data-name="Rectángulo 401104" width="74.99" height="76.093" fill="none"/>
    <g id="Grupo_1119745" data-name="Grupo 1119745" transform="translate(-54.549 -4.307)">
      <path id="Trazado_906779" data-name="Trazado 906779" d="M101.017,199.86H90.867v-9.176a1.11,1.11,0,0,1,1.11-1.11h9.04l.793.69v9.046Z" transform="translate(-24.198 -160.443)" fill="#f07281"/>
      <path id="Trazado_906780" data-name="Trazado 906780" d="M97.211,189.578v10.285H90.867v-9.175a1.11,1.11,0,0,1,1.11-1.11h5.234Z" transform="translate(-24.198 -160.446)" fill="#eb5569"/>
      <path id="Trazado_906781" data-name="Trazado 906781" d="M167.07,177.489H156.92V164.251a1.11,1.11,0,0,1,1.11-1.11h9.04l.793.634v13.084Z" transform="translate(-80.101 -138.072)" fill="#8ac9fe"/>
      <path id="Trazado_906782" data-name="Trazado 906782" d="M163.264,163.136v14.348H156.92V164.246a1.11,1.11,0,0,1,1.11-1.11h5.234Z" transform="translate(-80.101 -138.067)" fill="#60b7ff"/>
      <path id="Trazado_906783" data-name="Trazado 906783" d="M233.124,150.806h-10.15V132.723a1.11,1.11,0,0,1,1.11-1.11h9.04l.793,1v17.406Z" transform="translate(-136.005 -111.389)" fill="#fee97d"/>
      <path id="Trazado_906784" data-name="Trazado 906784" d="M229.318,131.617v19.192h-6.344V132.727a1.11,1.11,0,0,1,1.11-1.11Z" transform="translate(-136.005 -111.392)" fill="#fee45a"/>
      <path id="Trazado_906785" data-name="Trazado 906785" d="M299.177,124.123h-10.15V101.2a1.11,1.11,0,0,1,1.11-1.11h9.04l.793.887v22.322Z" transform="translate(-191.908 -84.705)" fill="#ade194"/>
      <path id="Trazado_906786" data-name="Trazado 906786" d="M295.371,100.086v24.037h-6.344V101.2a1.11,1.11,0,0,1,1.11-1.11h5.234Z" transform="translate(-191.908 -84.706)" fill="#97da7b"/>
      <path id="Trazado_906787" data-name="Trazado 906787" d="M351.794,5.3,344.951.219a1.11,1.11,0,0,0-1.323,0L336.785,5.3a1.11,1.11,0,0,0,.661,2h1.768V39.418h10.15V7.3h1.768A1.11,1.11,0,0,0,351.794,5.3Z" transform="translate(-231.945 0)" fill="#8ac9fe"/>
      <path id="Trazado_906788" data-name="Trazado 906788" d="M345.563,39.419h-6.344V7.3h-1.767a1.11,1.11,0,0,1-.661-2L343.633.221a1.11,1.11,0,0,1,1.323,0l.717.532Z" transform="translate(-231.95 -0.002)" fill="#60b7ff"/>
      <path id="Trazado_906789" data-name="Trazado 906789" d="M120.737,328.568H63.351a1.076,1.076,0,0,1-1.076-1.076V296.339a1.076,1.076,0,0,1,1.076-1.076h57.387a1.076,1.076,0,0,1,1.076,1.076v31.154A1.076,1.076,0,0,1,120.737,328.568Z" transform="translate(0 -249.891)" fill="#ade194"/>
      <path id="Trazado_906790" data-name="Trazado 906790" d="M73.38,295.263v33.305H63.388a1.11,1.11,0,0,1-1.11-1.11V296.373a1.11,1.11,0,0,1,1.11-1.11Z" transform="translate(-0.003 -249.891)" fill="#97da7b"/>
      <path id="Trazado_906791" data-name="Trazado 906791" d="M101.156,327.64V351H98.211a4.123,4.123,0,0,0-3.113-3.07V330.71a4.127,4.127,0,0,0,3.113-3.07Z" transform="translate(-27.779 -277.293)" fill="#80d261"/>
      <path id="Trazado_906792" data-name="Trazado 906792" d="M141.437,351a4.128,4.128,0,0,1,3.113-3.071V330.71a4.128,4.128,0,0,1-3.113-3.071H98.214A4.128,4.128,0,0,1,95.1,330.71v17.215A4.128,4.128,0,0,1,98.214,351h43.223Z" transform="translate(-27.782 -277.292)" fill="#97da7b"/>
      <path id="Trazado_906793" data-name="Trazado 906793" d="M101.156,327.64V351H98.211a4.123,4.123,0,0,0-3.113-3.07V330.71a4.127,4.127,0,0,0,3.113-3.07Z" transform="translate(-27.779 -277.293)" fill="#80d261"/>
      <g id="Grupo_1119744" data-name="Grupo 1119744" transform="translate(72.862 50.346)">
        <path id="Trazado_906794" data-name="Trazado 906794" d="M214.049,327.634h-8.71c-2.429,2.393-4.052,6.728-4.052,11.679s1.623,9.286,4.052,11.679h8.71c2.429-2.393,4.052-6.728,4.052-11.679S216.478,330.027,214.049,327.634Z" transform="translate(-190.511 -327.634)" fill="#fee97d"/>
        <circle id="Elipse_11540" data-name="Elipse 11540" cx="2.645" cy="2.645" r="2.645" transform="translate(0 9.034)" fill="#fee97d"/>
        <circle id="Elipse_11541" data-name="Elipse 11541" cx="2.645" cy="2.645" r="2.645" transform="translate(33.074 9.034)" fill="#fee97d"/>
      </g>
      <path id="Trazado_906795" data-name="Trazado 906795" d="M235.953,352.913l-3.45-1.121a.3.3,0,0,1-.21-.289v-1.514a.638.638,0,0,1,.637-.637h1.862a.638.638,0,0,1,.637.637,1.19,1.19,0,1,0,2.379,0,3.019,3.019,0,0,0-2.757-3v-1.276a1.19,1.19,0,0,0-2.379,0v1.276a3.019,3.019,0,0,0-2.757,3V351.5a2.676,2.676,0,0,0,1.854,2.552l3.45,1.121a.3.3,0,0,1,.21.289v1.057a.884.884,0,0,1-.883.883h-1.37a.884.884,0,0,1-.883-.883,1.19,1.19,0,1,0-2.379,0,3.264,3.264,0,0,0,2.757,3.219v1.306a1.19,1.19,0,1,0,2.379,0v-1.306a3.264,3.264,0,0,0,2.757-3.219v-1.057A2.676,2.676,0,0,0,235.953,352.913Z" transform="translate(-141.878 -291.58)" fill="#97da7b"/>
    </g>
  </g>
</svg>
