<svg xmlns="http://www.w3.org/2000/svg" width="70" height="70" viewBox="0 0 70 70">
  <g id="Grupo_1072265" data-name="Grupo 1072265" transform="translate(-269 -958)">
    <circle id="Elipse_5614" data-name="Elipse 5614" cx="35" cy="35" r="35" transform="translate(269 958)" fill="#fff"/>
    <g id="Grupo_1119625" data-name="Grupo 1119625" transform="translate(270.249 970.025)">
      <g id="Grupo_1119623" data-name="Grupo 1119623" transform="translate(11.949 25.766)">
        <path id="Trazado_906639" data-name="Trazado 906639" d="M121.217,264.256a8.43,8.43,0,0,0-6.884.519c-.028.014-8.281,3.744-8.281,3.744a3.266,3.266,0,0,1-1.967.671H98.891a1.167,1.167,0,1,1,0-2.333h5.193c1.623,0,1.659-3.34.069-3.472l-7.238-.083c-1.277-.014-2.555-.835-3.9-.866A6.631,6.631,0,0,0,89.2,263.5a9.615,9.615,0,0,0-3.433,4.427l3.916,9.889h11.26a5.854,5.854,0,0,0,2.9-.771l17.474-10a1.727,1.727,0,0,0,.761-1.784,1.4,1.4,0,0,0-.858-1.009Z" transform="translate(-78.515 -262.433)" fill="#474d41"/>
        <path id="Trazado_906640" data-name="Trazado 906640" d="M11.949,309.135l5.337,13.477,4.284-2.352-5.337-13.477Z" transform="translate(-11.949 -302.429)" fill="#474d41"/>
      </g>
      <g id="Grupo_1119624" data-name="Grupo 1119624" transform="translate(33.733)">
        <path id="Trazado_906641" data-name="Trazado 906641" d="M244.2,0a10.445,10.445,0,0,0-10.374,10.515,10.375,10.375,0,1,0,20.748,0A10.445,10.445,0,0,0,244.2,0Zm1.179,15.763v1.743h-2.4V15.9a5.172,5.172,0,0,1-2.464-1.066l.861-2.414a4.578,4.578,0,0,0,2.553,1.05c.658,0,1.083-.3,1.083-.769,0-.3-.1-.668-1.264-1.143-1.46-.576-2.954-1.421-2.954-3.314a3.118,3.118,0,0,1,2.291-3.029v-1.7h2.386V5.068a5.828,5.828,0,0,1,2.141.879l-.895,2.376a4.655,4.655,0,0,0-2.287-.845c-.8,0-.886.41-.886.586,0,.276.1.514,1.435,1.068,1.3.534,2.8,1.411,2.8,3.464A3.306,3.306,0,0,1,245.374,15.763Z" transform="translate(-233.821)" fill="#474d41"/>
      </g>
    </g>
  </g>
</svg>
