<svg xmlns="http://www.w3.org/2000/svg" width="74.99" height="76.28" viewBox="0 0 74.99 76.28">
  <g id="Grupo_1101136" data-name="Grupo 1101136" transform="translate(0 0.094)">
    <rect id="Rect치ngulo_401104" data-name="Rect치ngulo 401104" width="74.99" height="76.093" fill="none"/>
    <g id="Grupo_1119747" data-name="Grupo 1119747" transform="translate(-1 -1.094)">
      <path id="Trazado_906796" data-name="Trazado 906796" d="M26.17,31.879V56.445H22.381a1.336,1.336,0,0,0-.918,2.34L31.7,67.732a1.422,1.422,0,0,0,1.862,0l10.24-8.947a1.336,1.336,0,0,0-.918-2.34H39.1V28Z" transform="translate(5.861 7.909)" fill="#44c3a1"/>
      <path id="Trazado_906797" data-name="Trazado 906797" d="M27,16.838V4.879A3.879,3.879,0,0,1,30.879,1H64.5a3.879,3.879,0,0,1,3.879,3.879V25.566A3.879,3.879,0,0,1,64.5,29.445H30.879a3.859,3.859,0,0,1-3.866-3.685Z" transform="translate(7.616)" fill="#2783ec"/>
      <path id="Trazado_906798" data-name="Trazado 906798" d="M10.051,13l1.293,1.293V27.222l-1.293.22L1.905,24.921A1.308,1.308,0,0,1,1,23.68V14.293A1.293,1.293,0,0,1,2.293,13Z" transform="translate(0 3.515)" fill="#384151"/>
      <path id="Trazado_906799" data-name="Trazado 906799" d="M42.909,17.494A3.268,3.268,0,0,1,41,20.468L29.489,25.691a5.591,5.591,0,0,0-2.353,1.991l-.246.388a5.645,5.645,0,0,1-4.68,2.5H13.172a11.594,11.594,0,0,1-4.086-.737L8,29.493V15.051h.582A9.027,9.027,0,0,0,14.4,12.93l5.547-4.655A7.749,7.749,0,0,1,25.442,6h7.124v9.374l6.491-1.112a3.278,3.278,0,0,1,3.75,2.431,3.408,3.408,0,0,1,.1.8Z" transform="translate(2.051 1.465)" fill="#eebd91"/>
      <circle id="Elipse_11542" data-name="Elipse 11542" cx="2.586" cy="2.586" r="2.586" transform="translate(60.475 19.101)" fill="#b73443"/>
      <circle id="Elipse_11543" data-name="Elipse 11543" cx="2.586" cy="2.586" r="2.586" transform="translate(65.647 19.101)" fill="#fcc10a"/>
      <rect id="Rect치ngulo_409531" data-name="Rect치ngulo 409531" width="6.465" height="5.172" rx="1" transform="translate(39.788 6.172)" fill="#fcc10a"/>
      <path id="Trazado_906800" data-name="Trazado 906800" d="M28.5,13.846l-5.1.873a1.293,1.293,0,1,1-.437-2.549l5.536-.957Z" transform="translate(6.118 2.992)" fill="#e2ac7f"/>
      <path id="Trazado_906801" data-name="Trazado 906801" d="M47.591,17.293A1.293,1.293,0,0,1,46.3,18.586H31.74l2.3-1.047A3.179,3.179,0,0,0,35.606,16H46.3A1.293,1.293,0,0,1,47.591,17.293Z" transform="translate(9.005 4.394)" fill="#1e72c6"/>
      <g id="Grupo_1119746" data-name="Grupo 1119746" transform="translate(16.515 33.323)">
        <path id="Trazado_906802" data-name="Trazado 906802" d="M48.965,43.6a1.293,1.293,0,0,0-1.828,0l-1.672,1.672V30.293a1.293,1.293,0,1,0-2.586,0v14.98L41.207,43.6a1.293,1.293,0,1,0-1.828,1.828l3.879,3.879a1.293,1.293,0,0,0,1.828,0l3.879-3.879A1.293,1.293,0,0,0,48.965,43.6Z" transform="translate(-5.384 -25.121)" fill="#3ea69b"/>
        <path id="Trazado_906803" data-name="Trazado 906803" d="M22.965,43.6a1.293,1.293,0,0,0-1.828,0l-1.672,1.672V30.293a1.293,1.293,0,0,0-2.586,0v14.98L15.207,43.6a1.293,1.293,0,1,0-1.828,1.828l3.879,3.879a1.293,1.293,0,0,0,1.828,0l3.879-3.879A1.293,1.293,0,0,0,22.965,43.6Z" transform="translate(-13 -25.121)" fill="#3ea69b"/>
        <path id="Trazado_906804" data-name="Trazado 906804" d="M43.182,55.445h-2.5V28.293a1.293,1.293,0,0,0-2.586,0V55.445H36.808a1.293,1.293,0,1,0,0,2.586h2.586l3.854.074-10.24,8.95a.129.129,0,0,1-.159,0L22.676,58.03h8.96a1.293,1.293,0,1,0,0-2.586H27.757V32.172a1.293,1.293,0,0,0-2.586,0V55.445h-2.5a2.645,2.645,0,0,0-2.508,1.729,2.586,2.586,0,0,0,.74,2.878L31.146,69a2.715,2.715,0,0,0,3.565,0l10.234-8.943a2.586,2.586,0,0,0,.746-2.882,2.645,2.645,0,0,0-2.508-1.727Z" transform="translate(-10.949 -25.707)" fill="#3ea69b"/>
        <path id="Trazado_906805" data-name="Trazado 906805" d="M30.293,29.879a1.293,1.293,0,0,0,1.293-1.293V27.293a1.293,1.293,0,0,0-2.586,0v1.293A1.293,1.293,0,0,0,30.293,29.879Z" transform="translate(-8.313 -26)" fill="#3ea69b"/>
        <path id="Trazado_906806" data-name="Trazado 906806" d="M30.293,47.808a1.293,1.293,0,0,0,1.293-1.293V32.293a1.293,1.293,0,0,0-2.586,0V46.515A1.293,1.293,0,0,0,30.293,47.808Z" transform="translate(-8.313 -24.535)" fill="#3ea69b"/>
      </g>
    </g>
  </g>
</svg>
