<svg xmlns="http://www.w3.org/2000/svg" width="47" height="47" viewBox="0 0 47 47">
  <g id="Grupo_1119877" data-name="Grupo 1119877" transform="translate(-180.711 -1389)">
    <circle id="Elipse_6022" data-name="Elipse 6022" cx="23.5" cy="23.5" r="23.5" transform="translate(180.711 1389)" fill="#474d41"/>
    <path id="money-bill-wave-solid" d="M0,36.542V54.157a2.465,2.465,0,0,0,1.535,2.348c4.947,1.848,9.894.586,14.841-.677,4.537-1.154,9.075-2.314,13.607-1.075a2.147,2.147,0,0,0,2.769-1.9V35.234a2.465,2.465,0,0,0-1.535-2.348c-4.947-1.837-9.894-.574-14.841.688C11.838,34.728,7.3,35.882,2.769,34.643A2.145,2.145,0,0,0,0,36.542ZM16.376,50.16c-2.513,0-4.549-2.445-4.549-5.459s2.036-5.459,4.549-5.459,4.549,2.445,4.549,5.459S18.889,50.16,16.376,50.16Zm-12.737,0A3.642,3.642,0,0,1,7.278,53.8H3.639ZM7.278,38.333a3.642,3.642,0,0,1-3.639,3.639V38.333Zm21.835,9.1V51.07H25.474A3.642,3.642,0,0,1,29.113,47.431ZM25.474,35.6h3.639v3.639A3.642,3.642,0,0,1,25.474,35.6Z" transform="translate(187.836 1367.8)" fill="#dcedc8"/>
  </g>
</svg>
